<mxfile host="Electron" modified="2023-04-18T16:48:06.369Z" agent="Mozilla/5.0 (X11; Linux x86_64) AppleWebKit/537.36 (KHTML, like Gecko) draw.io/21.1.2 Chrome/106.0.5249.199 Electron/21.4.3 Safari/537.36" etag="czajJjDW7joV7M_e-2gy" version="21.1.2" type="device">
  <diagram id="l1A6bFZ4BYK5uQb8vJ6p" name="Page-1">
    <mxGraphModel dx="2074" dy="1216" grid="1" gridSize="10" guides="1" tooltips="1" connect="1" arrows="1" fold="1" page="1" pageScale="1" pageWidth="850" pageHeight="1100" math="0" shadow="0">
      <root>
        <mxCell id="0" />
        <mxCell id="1" parent="0" />
        <mxCell id="V85_4jU4u7jz_W5ndp5X-61" value="" style="shape=image;verticalLabelPosition=bottom;labelBackgroundColor=default;verticalAlign=top;aspect=fixed;imageAspect=0;image=data:image/svg+xml,PHN2ZyB4bWxucz0iaHR0cDovL3d3dy53My5vcmcvMjAwMC9zdmciIGlkPSJzdmc4NzAiIHZlcnNpb249IjEuMSIgdmlld0JveD0iMCAwIDE2NC4wOTg2OCA5Ni4wNzk0OTgiIGhlaWdodD0iOTYuMDc5NDk4bW0iIHdpZHRoPSIxNjQuMDk4NjhtbSI+JiN4YTsgICYjeGE7ICAgICYjeGE7ICAgICYjeGE7ICAgICYjeGE7ICAgICYjeGE7ICAgICYjeGE7ICAgICYjeGE7ICAgICYjeGE7ICAgICYjeGE7ICAgICYjeGE7ICAgICYjeGE7ICAgICYjeGE7ICAgICYjeGE7ICAgICYjeGE7ICAgICYjeGE7ICAmI3hhOyAgPGRlZnMgaWQ9ImRlZnM4NjciPiYjeGE7ICAgIDxtYXJrZXIgb3JpZW50PSJhdXRvIiByZWZZPSIwIiByZWZYPSIwIiBpZD0iQXJyb3cxTGVuZCIgc3R5bGU9Im92ZXJmbG93OnZpc2libGUiPiYjeGE7ICAgICAgPHBhdGggaWQ9InBhdGg4MDA0NSIgZD0iTSAwLDAgNSwtNSAtMTIuNSwwIDUsNSBaIiBzdHlsZT0iZmlsbDpjb250ZXh0LXN0cm9rZTtmaWxsLXJ1bGU6ZXZlbm9kZDtzdHJva2U6Y29udGV4dC1zdHJva2U7c3Ryb2tlLXdpZHRoOjFwdCIgdHJhbnNmb3JtPSJtYXRyaXgoLTAuOCwwLDAsLTAuOCwtMTAsMCkiLz4mI3hhOyAgICA8L21hcmtlcj4mI3hhOyAgICA8bWFya2VyIG9yaWVudD0iYXV0byIgcmVmWT0iMCIgcmVmWD0iMCIgaWQ9Im1hcmtlcjgwMzEyIiBzdHlsZT0ib3ZlcmZsb3c6dmlzaWJsZSI+JiN4YTsgICAgICA8cGF0aCBpZD0icGF0aDgwMzEwIiBkPSJNIDAsMCA1LC01IC0xMi41LDAgNSw1IFoiIHN0eWxlPSJmaWxsOmNvbnRleHQtc3Ryb2tlO2ZpbGwtcnVsZTpldmVub2RkO3N0cm9rZTpjb250ZXh0LXN0cm9rZTtzdHJva2Utd2lkdGg6MXB0IiB0cmFuc2Zvcm09Im1hdHJpeCgwLjgsMCwwLDAuOCwxMCwwKSIvPiYjeGE7ICAgIDwvbWFya2VyPiYjeGE7ICAgIDxtYXJrZXIgb3JpZW50PSJhdXRvIiByZWZZPSIwIiByZWZYPSIwIiBpZD0iQXJyb3cxTHN0YXJ0IiBzdHlsZT0ib3ZlcmZsb3c6dmlzaWJsZSI+JiN4YTsgICAgICA8cGF0aCBpZD0icGF0aDgwMDQyIiBkPSJNIDAsMCA1LC01IC0xMi41LDAgNSw1IFoiIHN0eWxlPSJmaWxsOmNvbnRleHQtc3Ryb2tlO2ZpbGwtcnVsZTpldmVub2RkO3N0cm9rZTpjb250ZXh0LXN0cm9rZTtzdHJva2Utd2lkdGg6MXB0IiB0cmFuc2Zvcm09Im1hdHJpeCgwLjgsMCwwLDAuOCwxMCwwKSIvPiYjeGE7ICAgIDwvbWFya2VyPiYjeGE7ICAgICYjeGE7ICAgICYjeGE7ICAgICYjeGE7ICA8L2RlZnM+JiN4YTsgIDxnIHRyYW5zZm9ybT0idHJhbnNsYXRlKC0xMC4zMTA2MDYsLTk1Ljc1Nzg2MykiIGlkPSJsYXllcjEiPiYjeGE7ICAgIDxyZWN0IHJ5PSI1LjUzODQxNjkiIHJ4PSI1LjUzODQxNjkiIHk9Ijk5LjYxMzM3MyIgeD0iMjUuMTQ3NzE3IiBoZWlnaHQ9Ijc4LjIwMDI5NCIgd2lkdGg9IjE0OC4xODkwMyIgaWQ9InJlY3QxMzM5IiBzdHlsZT0iZmlsbDojZjVmN2ZmO2ZpbGwtb3BhY2l0eToxO3N0cm9rZTojMDAwMDAwO3N0cm9rZS13aWR0aDowLjM7c3Ryb2tlLW1pdGVybGltaXQ6NDtzdHJva2UtZGFzaGFycmF5Om5vbmU7c3RvcC1jb2xvcjojMDAwMDAwIi8+JiN4YTsgICAgPHRleHQgaWQ9InRleHQ2OTA2IiB5PSIxODIuMTM0ODEiIHg9IjkuNzU3NDUwMSIgc3R5bGU9ImZvbnQtc2l6ZToxMS4yODg5cHg7bGluZS1oZWlnaHQ6MS4yNTtmb250LWZhbWlseTpzYW5zLXNlcmlmO3N0cm9rZS13aWR0aDowLjI2NDU4MyIgeG1sOnNwYWNlPSJwcmVzZXJ2ZSI+PHRzcGFuIHk9IjE4Mi4xMzQ4MSIgeD0iOS43NTc0NTAxIiBzdHlsZT0iZm9udC1zaXplOjExLjI4ODlweDtzdHJva2Utd2lkdGg6MC4yNjQ1ODMiIGlkPSJ0c3BhbjY5MDQiPjA8L3RzcGFuPjwvdGV4dD4mI3hhOyAgICA8cGF0aCBpZD0icGF0aDIwNjUzIiBkPSJNIDI1LjE0NzcxNiw5OS42MTMzNzIgSCAxOS42NjY1MjciIHN0eWxlPSJmaWxsOm5vbmU7c3Ryb2tlOiMwMDAwMDA7c3Ryb2tlLXdpZHRoOjAuMztzdHJva2UtbGluZWNhcDpidXR0O3N0cm9rZS1saW5lam9pbjptaXRlcjtzdHJva2UtbWl0ZXJsaW1pdDo0O3N0cm9rZS1kYXNoYXJyYXk6bm9uZTtzdHJva2Utb3BhY2l0eToxIi8+JiN4YTsgICAgPHBhdGggaWQ9InBhdGgyMTExMyIgZD0iTSAyNS4xNDc3MTYsMTc3LjgxMzY2IEggMTkuNjI0NzQ0IiBzdHlsZT0iZmlsbDpub25lO3N0cm9rZTojMDAwMDAwO3N0cm9rZS13aWR0aDowLjM7c3Ryb2tlLWxpbmVjYXA6YnV0dDtzdHJva2UtbGluZWpvaW46bWl0ZXI7c3Ryb2tlLW1pdGVybGltaXQ6NDtzdHJva2UtZGFzaGFycmF5Om5vbmU7c3Ryb2tlLW9wYWNpdHk6MSIvPiYjeGE7ICAgIDxwYXRoIGlkPSJwYXRoMjExMTMtNyIgZD0ibSAyNS4xNDc3MTcsMTc3LjgxMzY2IHYgNS41MjI5OCIgc3R5bGU9ImZpbGw6bm9uZTtzdHJva2U6IzAwMDAwMDtzdHJva2Utd2lkdGg6MC4zO3N0cm9rZS1saW5lY2FwOmJ1dHQ7c3Ryb2tlLWxpbmVqb2luOm1pdGVyO3N0cm9rZS1taXRlcmxpbWl0OjQ7c3Ryb2tlLWRhc2hhcnJheTpub25lO3N0cm9rZS1vcGFjaXR5OjEiLz4mI3hhOyAgICA8dGV4dCBpZD0idGV4dDIxMjMwIiB5PSIxMDMuODE4MTQiIHg9IjkuNzU3NDUwMSIgc3R5bGU9ImZvbnQtc2l6ZToxMS4yODg5cHg7bGluZS1oZWlnaHQ6MS4yNTtmb250LWZhbWlseTpzYW5zLXNlcmlmO3N0cm9rZS13aWR0aDowLjI2NDU4MyIgeG1sOnNwYWNlPSJwcmVzZXJ2ZSI+PHRzcGFuIHk9IjEwMy44MTgxNCIgeD0iOS43NTc0NTAxIiBzdHlsZT0iZm9udC1zaXplOjExLjI4ODlweDtzdHJva2Utd2lkdGg6MC4yNjQ1ODMiIGlkPSJ0c3BhbjIxMjI4Ij4xPC90c3Bhbj48L3RleHQ+JiN4YTsgICAgPHBhdGggaWQ9InBhdGg0MzgzNiIgZD0ibSAzNS43MzEwNTEsMTc3LjgxMzY2IHYgMyIgc3R5bGU9ImZpbGw6bm9uZTtzdHJva2U6IzAwMDAwMDtzdHJva2Utd2lkdGg6MC4zO3N0cm9rZS1saW5lY2FwOmJ1dHQ7c3Ryb2tlLWxpbmVqb2luOm1pdGVyO3N0cm9rZS1taXRlcmxpbWl0OjQ7c3Ryb2tlLWRhc2hhcnJheTpub25lO3N0cm9rZS1vcGFjaXR5OjEiLz4mI3hhOyAgICA8cGF0aCBpZD0icGF0aDQzODM4IiBkPSJtIDQ2LjMxNDM4NSwxNzcuODEzNjYgdiAzIiBzdHlsZT0iZmlsbDpub25lO3N0cm9rZTojMDAwMDAwO3N0cm9rZS13aWR0aDowLjM7c3Ryb2tlLWxpbmVjYXA6YnV0dDtzdHJva2UtbGluZWpvaW46bWl0ZXI7c3Ryb2tlLW1pdGVybGltaXQ6NDtzdHJva2UtZGFzaGFycmF5Om5vbmU7c3Ryb2tlLW9wYWNpdHk6MSIvPiYjeGE7ICAgIDxwYXRoIGlkPSJwYXRoNDM4NDAiIGQ9Im0gNTYuODk3NzE5LDE3Ny44MTM2NiB2IDMiIHN0eWxlPSJmaWxsOm5vbmU7c3Ryb2tlOiMwMDAwMDA7c3Ryb2tlLXdpZHRoOjAuMztzdHJva2UtbGluZWNhcDpidXR0O3N0cm9rZS1saW5lam9pbjptaXRlcjtzdHJva2UtbWl0ZXJsaW1pdDo0O3N0cm9rZS1kYXNoYXJyYXk6bm9uZTtzdHJva2Utb3BhY2l0eToxIi8+JiN4YTsgICAgPHBhdGggaWQ9InBhdGg0Mzg0MiIgZD0ibSA2Ny40ODEwNTMsMTc3LjgxMzY2IHYgMyIgc3R5bGU9ImZpbGw6bm9uZTtzdHJva2U6IzAwMDAwMDtzdHJva2Utd2lkdGg6MC4zO3N0cm9rZS1saW5lY2FwOmJ1dHQ7c3Ryb2tlLWxpbmVqb2luOm1pdGVyO3N0cm9rZS1taXRlcmxpbWl0OjQ7c3Ryb2tlLWRhc2hhcnJheTpub25lO3N0cm9rZS1vcGFjaXR5OjEiLz4mI3hhOyAgICA8cGF0aCBpZD0icGF0aDQzODQ0IiBkPSJtIDc4LjA2NDM4NywxNzcuODEzNjYgdiAzIiBzdHlsZT0iZmlsbDpub25lO3N0cm9rZTojMDAwMDAwO3N0cm9rZS13aWR0aDowLjM7c3Ryb2tlLWxpbmVjYXA6YnV0dDtzdHJva2UtbGluZWpvaW46bWl0ZXI7c3Ryb2tlLW1pdGVybGltaXQ6NDtzdHJva2UtZGFzaGFycmF5Om5vbmU7c3Ryb2tlLW9wYWNpdHk6MSIvPiYjeGE7ICAgIDxwYXRoIGlkPSJwYXRoNDM4NDYiIGQ9Im0gODguNjQ3NzIxLDE3Ny44MTM2NiB2IDMiIHN0eWxlPSJmaWxsOm5vbmU7c3Ryb2tlOiMwMDAwMDA7c3Ryb2tlLXdpZHRoOjAuMztzdHJva2UtbGluZWNhcDpidXR0O3N0cm9rZS1saW5lam9pbjptaXRlcjtzdHJva2UtbWl0ZXJsaW1pdDo0O3N0cm9rZS1kYXNoYXJyYXk6bm9uZTtzdHJva2Utb3BhY2l0eToxIi8+JiN4YTsgICAgPHBhdGggaWQ9InBhdGg0Mzg0OCIgZD0ibSA5OS4yMzEwNTUsMTc3LjgxMzY2IHYgMyIgc3R5bGU9ImZpbGw6bm9uZTtzdHJva2U6IzAwMDAwMDtzdHJva2Utd2lkdGg6MC4zO3N0cm9rZS1saW5lY2FwOmJ1dHQ7c3Ryb2tlLWxpbmVqb2luOm1pdGVyO3N0cm9rZS1taXRlcmxpbWl0OjQ7c3Ryb2tlLWRhc2hhcnJheTpub25lO3N0cm9rZS1vcGFjaXR5OjEiLz4mI3hhOyAgICA8cGF0aCBpZD0icGF0aDQzODUwIiBkPSJtIDEwOS44MTQzOSwxNzcuODEzNjYgdiAzIiBzdHlsZT0iZmlsbDpub25lO3N0cm9rZTojMDAwMDAwO3N0cm9rZS13aWR0aDowLjM7c3Ryb2tlLWxpbmVjYXA6YnV0dDtzdHJva2UtbGluZWpvaW46bWl0ZXI7c3Ryb2tlLW1pdGVybGltaXQ6NDtzdHJva2UtZGFzaGFycmF5Om5vbmU7c3Ryb2tlLW9wYWNpdHk6MSIvPiYjeGE7ICAgIDxwYXRoIGlkPSJwYXRoNDM4NTIiIGQ9Im0gMTIwLjM5NzczLDE3Ny44MTM2NiB2IDMiIHN0eWxlPSJmaWxsOm5vbmU7c3Ryb2tlOiMwMDAwMDA7c3Ryb2tlLXdpZHRoOjAuMztzdHJva2UtbGluZWNhcDpidXR0O3N0cm9rZS1saW5lam9pbjptaXRlcjtzdHJva2UtbWl0ZXJsaW1pdDo0O3N0cm9rZS1kYXNoYXJyYXk6bm9uZTtzdHJva2Utb3BhY2l0eToxIi8+JiN4YTsgICAgPHBhdGggaWQ9InBhdGg0Mzg1NCIgZD0ibSAxMzAuOTgxMDcsMTc3LjgxMzY2IHYgMyIgc3R5bGU9ImZpbGw6bm9uZTtzdHJva2U6IzAwMDAwMDtzdHJva2Utd2lkdGg6MC4zO3N0cm9rZS1saW5lY2FwOmJ1dHQ7c3Ryb2tlLWxpbmVqb2luOm1pdGVyO3N0cm9rZS1taXRlcmxpbWl0OjQ7c3Ryb2tlLWRhc2hhcnJheTpub25lO3N0cm9rZS1vcGFjaXR5OjEiLz4mI3hhOyAgICA8cGF0aCBpZD0icGF0aDQzODU2IiBkPSJtIDE0MS41NjQ0MSwxNzcuODEzNjYgdiAzIiBzdHlsZT0iZmlsbDpub25lO3N0cm9rZTojMDAwMDAwO3N0cm9rZS13aWR0aDowLjM7c3Ryb2tlLWxpbmVjYXA6YnV0dDtzdHJva2UtbGluZWpvaW46bWl0ZXI7c3Ryb2tlLW1pdGVybGltaXQ6NDtzdHJva2UtZGFzaGFycmF5Om5vbmU7c3Ryb2tlLW9wYWNpdHk6MSIvPiYjeGE7ICAgIDxwYXRoIGlkPSJwYXRoNDM4NTgiIGQ9Im0gMTUyLjE0Nzc1LDE3Ny44MTM2NiB2IDMiIHN0eWxlPSJmaWxsOm5vbmU7c3Ryb2tlOiMwMDAwMDA7c3Ryb2tlLXdpZHRoOjAuMztzdHJva2UtbGluZWNhcDpidXR0O3N0cm9rZS1saW5lam9pbjptaXRlcjtzdHJva2UtbWl0ZXJsaW1pdDo0O3N0cm9rZS1kYXNoYXJyYXk6bm9uZTtzdHJva2Utb3BhY2l0eToxIi8+JiN4YTsgICAgPHBhdGggaWQ9InBhdGg0Mzg2MCIgZD0ibSAxNjIuNzMxMDksMTc3LjgxMzY2IHYgMyIgc3R5bGU9ImZpbGw6bm9uZTtzdHJva2U6IzAwMDAwMDtzdHJva2Utd2lkdGg6MC4zO3N0cm9rZS1saW5lY2FwOmJ1dHQ7c3Ryb2tlLWxpbmVqb2luOm1pdGVyO3N0cm9rZS1taXRlcmxpbWl0OjQ7c3Ryb2tlLWRhc2hhcnJheTpub25lO3N0cm9rZS1vcGFjaXR5OjEiLz4mI3hhOyAgICA8cGF0aCBpZD0icGF0aDQzODYyIiBkPSJtIDE3My4zMTQ0MywxNzcuODEzNjYgdiAzIiBzdHlsZT0iZmlsbDpub25lO3N0cm9rZTojMDAwMDAwO3N0cm9rZS13aWR0aDowLjM7c3Ryb2tlLWxpbmVjYXA6YnV0dDtzdHJva2UtbGluZWpvaW46bWl0ZXI7c3Ryb2tlLW1pdGVybGltaXQ6NDtzdHJva2UtZGFzaGFycmF5Om5vbmU7c3Ryb2tlLW9wYWNpdHk6MSIvPiYjeGE7ICAgIDx0ZXh0IHRyYW5zZm9ybT0icm90YXRlKC05MCkiIGlkPSJ0ZXh0NDM5ODEiIHk9IjIwLjA0NTg5NSIgeD0iLTE0OC43NTA0MyIgc3R5bGU9ImZvbnQtc2l6ZToxMS4yODg5cHg7bGluZS1oZWlnaHQ6MS4yNTtmb250LWZhbWlseTpzYW5zLXNlcmlmO3N0cm9rZS13aWR0aDowLjI2NDU4MyIgeG1sOnNwYWNlPSJwcmVzZXJ2ZSI+PHRzcGFuIHk9IjIwLjA0NTg5NSIgeD0iLTE0OC43NTA0MyIgc3R5bGU9ImZvbnQtc3R5bGU6bm9ybWFsO2ZvbnQtdmFyaWFudDpub3JtYWw7Zm9udC13ZWlnaHQ6bm9ybWFsO2ZvbnQtc3RyZXRjaDpub3JtYWw7Zm9udC1zaXplOjExLjI4ODlweDtmb250LWZhbWlseTonRGVqYVZ1IFNlcmlmJzstaW5rc2NhcGUtZm9udC1zcGVjaWZpY2F0aW9uOidEZWphVnUgU2VyaWYnO3N0cm9rZS13aWR0aDowLjI2NDU4MyIgaWQ9InRzcGFuNDM5NzkiPkNhdCAyPC90c3Bhbj48L3RleHQ+JiN4YTsgICAgPHRleHQgaWQ9InRleHQ0Mzk4MS0zIiB5PSIxOTAuMzQ5MDgiIHg9IjYyLjQ1MjMzMiIgc3R5bGU9ImZvbnQtc2l6ZToxMS4yODg5cHg7bGluZS1oZWlnaHQ6MS4yNTtmb250LWZhbWlseTpzYW5zLXNlcmlmO3N0cm9rZS13aWR0aDowLjI2NDU4MyIgeG1sOnNwYWNlPSJwcmVzZXJ2ZSI+PHRzcGFuIHk9IjE5MC4zNDkwOCIgeD0iNjIuNDUyMzMyIiBzdHlsZT0iZm9udC1zdHlsZTpub3JtYWw7Zm9udC12YXJpYW50Om5vcm1hbDtmb250LXdlaWdodDpub3JtYWw7Zm9udC1zdHJldGNoOm5vcm1hbDtmb250LXNpemU6MTEuMjg4OXB4O2ZvbnQtZmFtaWx5OidEZWphVnUgU2VyaWYnOy1pbmtzY2FwZS1mb250LXNwZWNpZmljYXRpb246J0RlamFWdSBTZXJpZic7c3Ryb2tlLXdpZHRoOjAuMjY0NTgzIiBpZD0idHNwYW40Mzk3OS0wIj50aW1lIFtkXTwvdHNwYW4+PC90ZXh0PiYjeGE7ICAgIDxwYXRoIGlkPSJwYXRoNzg0MjgiIGQ9Im0gMjUuMTQ3NzE2LDE3Ny44MTM2NiAxMC42NjkxMTIsLTcuNDIxNDkgMTAuNDcyMDIzLDIuMzIwNjMgMTAuMzI0NDU3LC02Ljc5NzQ3IDEwLjgwNTAyMiw3LjY5NzQyIDEwLjYzMTE3OCwtMTMuODI0NDcgMTAuNDI2MzA4LC02LjUyMjY0IDEwLjczMzc0NiwxMS4wMDc3NyAxMC41MTU4NzgsLTUyLjExNTI4IDEwLjYzNzc2LC0xMi41NTc0MjYgMTAuNTIwMDUsMTIuNjEzODE2IDEwLjY5NzQ4LDIuMzMzOTYgMTAuMzkyNCwxNy41MzA0NyAxMC4zMzM2MywzNy41MzI3MiAxMS4yMTUyOSwzLjg4MjU5IiBzdHlsZT0iZmlsbDpub25lO3N0cm9rZTojMDA0M2U5O3N0cm9rZS13aWR0aDowLjk2NTtzdHJva2UtbGluZWNhcDpidXR0O3N0cm9rZS1saW5lam9pbjptaXRlcjtzdHJva2UtbWl0ZXJsaW1pdDo0O3N0cm9rZS1kYXNoYXJyYXk6bm9uZTtzdHJva2Utb3BhY2l0eTowLjE1MzIzMiIvPiYjeGE7ICAgIDxwYXRoIGlkPSJwYXRoNzk3OTIiIGQ9Im0gMTA5LjgxNDM5LDE3Ny40Njk3MSAtMC4wMjc5LC02Mi40MzA3MyIgc3R5bGU9ImZvbnQtdmFyaWF0aW9uLXNldHRpbmdzOm5vcm1hbDtvcGFjaXR5OjE7ZmlsbDojMDBkNDAwO2ZpbGwtb3BhY2l0eToxO3N0cm9rZTojMDBmZjAwO3N0cm9rZS13aWR0aDowLjc2NTtzdHJva2UtbGluZWNhcDpidXR0O3N0cm9rZS1saW5lam9pbjptaXRlcjtzdHJva2UtbWl0ZXJsaW1pdDo0O3N0cm9rZS1kYXNoYXJyYXk6MS41MywgMS41MztzdHJva2UtZGFzaG9mZnNldDowLjc2NTtzdHJva2Utb3BhY2l0eToxO21hcmtlci1lbmQ6dXJsKCNBcnJvdzFMZW5kKTtzdG9wLWNvbG9yOiMwMDAwMDA7c3RvcC1vcGFjaXR5OjEiLz4mI3hhOyAgICA8cGF0aCBpZD0icGF0aDEwMjE5OCIgZD0ibSAyNS4xNDc3MTYsMTc3LjgxMzY2IDEwLjI4NzIwNiwtMy40MzUwNiAxMC44Nzk0NjMsMy40MzUwNiAxMC41ODA1MTMsLTQuMDA1NzQgMTAuNDc5MjA3LDIuMDYyODYgMTAuNTgwMTgyLC0xLjYxNDQxIDEwLjY5MzQzNCwzLjU1NzI5IDEwLjQ3MzY3NCwtNDUuMTE2MzEgMTAuOTQ4MzM1LC0zMi41NTIyNSAxMC4zNzkzNCwzLjg4Nzg1IDEwLjc3OTU5LC0zLjY3OTI0IDEwLjMyNjI0LDEwLjAwNzYxIDIxLjAwODU3LC0zLjAyMTIgMTEuNjE2MzUsLTQuODA4MjYiIHN0eWxlPSJmaWxsOm5vbmU7c3Ryb2tlOiMwMDAwMDA7c3Ryb2tlLXdpZHRoOjEuMjtzdHJva2UtbGluZWNhcDpidXR0O3N0cm9rZS1saW5lam9pbjptaXRlcjtzdHJva2UtbWl0ZXJsaW1pdDo0O3N0cm9rZS1kYXNoYXJyYXk6bm9uZTtzdHJva2Utb3BhY2l0eToxIi8+JiN4YTsgIDwvZz4mI3hhOzwvc3ZnPg==;" parent="1" vertex="1">
          <mxGeometry x="323.46" y="592" width="164" height="96" as="geometry" />
        </mxCell>
        <mxCell id="V85_4jU4u7jz_W5ndp5X-38" value="" style="ellipse;whiteSpace=wrap;html=1;fillColor=#FFFEF7;" parent="1" vertex="1">
          <mxGeometry x="24" y="61" width="123" height="54" as="geometry" />
        </mxCell>
        <mxCell id="V85_4jU4u7jz_W5ndp5X-30" value="" style="rounded=1;whiteSpace=wrap;html=1;fillColor=#EDF2FF;" parent="1" vertex="1">
          <mxGeometry x="43.5" y="300" width="90.5" height="96" as="geometry" />
        </mxCell>
        <mxCell id="TpiFRfA9A0kAPNdnl41Q-89" value="" style="ellipse;shape=cloud;whiteSpace=wrap;html=1;fillColor=#F0FAF5;" parent="1" vertex="1">
          <mxGeometry x="29" y="140" width="115.08" height="110" as="geometry" />
        </mxCell>
        <mxCell id="TpiFRfA9A0kAPNdnl41Q-66" value="" style="strokeWidth=2;html=1;shape=mxgraph.flowchart.database;whiteSpace=wrap;strokeColor=#B5B5B5;fillColor=#f5faff;" parent="1" vertex="1">
          <mxGeometry x="46" y="450" width="107" height="80" as="geometry" />
        </mxCell>
        <mxCell id="TpiFRfA9A0kAPNdnl41Q-51" value="" style="strokeWidth=2;html=1;shape=mxgraph.flowchart.database;whiteSpace=wrap;strokeColor=#B5B5B5;fillColor=#F5F5F5;" parent="1" vertex="1">
          <mxGeometry x="342.96" y="250" width="145" height="130" as="geometry" />
        </mxCell>
        <mxCell id="TpiFRfA9A0kAPNdnl41Q-50" value="" style="shape=image;verticalLabelPosition=bottom;labelBackgroundColor=default;verticalAlign=top;aspect=fixed;imageAspect=0;image=data:image/svg+xml,PHN2ZyB4bWxucz0iaHR0cDovL3d3dy53My5vcmcvMjAwMC9zdmciIHhtbDpzcGFjZT0icHJlc2VydmUiIHZpZXdCb3g9IjAgMCAxNjAuOCAxMTEuMSIgdmVyc2lvbj0iMS4xIj48dGl0bGU+QXBhY2hlIEplbmEgbG9nbzwvdGl0bGU+PG1ldGFkYXRhPmltYWdlL3N2Zyt4bWw8L21ldGFkYXRhPjxnIHRyYW5zZm9ybT0ibWF0cml4KDEuMjUgMCAwIC0xLjI1IC4wMDAxNTYzIDExMS4xKSI+PGcgdHJhbnNmb3JtPSJzY2FsZSguMSkiPjxnPjxwYXRoIHN0eWxlPSJmaWxsOiMxYTgwYjkiIGQ9Im00ODEuNSAzOTl2LTI1My42YzAtMzAuMy0yLjExNy01Mi44OC02LjMyOC02Ny43Ny00LjIxOS0xNi45My0xMS4zOS0zMS4yMi0yMS41Mi00Mi45LTE5Ljc1LTIzLjE4LTQ1Ljk1LTM0Ljc3LTc4LjYyLTM0Ljc3LTI0LjczIDAtNDcuODMgNi40MzgtNjkuMzQgMTkuMjlsMjguOTYgNTAuNTFjMTQuMzgtOS42NTIgMjcuODQtMTQuNDggNDAuMzgtMTQuNDggMTcuNTkgMCAyOS43OCA2LjY4NCAzNi41NiAyMC4wNiA3LjExIDEzLjM2IDEwLjY3IDM2LjcyIDEwLjY3IDcwLjA2djI1My42aDU5LjI0Ii8+PHBhdGggc3R5bGU9ImZpbGw6IzFhODBiOSIgZD0ibTY5Ny42IDI1OS4zYy03Ljk1MyAzMC44LTI3LjE4IDQ2LjIxLTU3LjY1IDQ2LjIxLTYuOTQ2IDAtMTMuNDYtMS4wODItMTkuNTYtMy4yMTgtNi4wOS0yLjEzMy0xMS42NC01LjIxNS0xNi42Mi05LjI0Mi00Ljk5Ni00LjAzMi05LjI2OS04Ljg2LTEyLjgzLTE0LjUtMy41NTktNS42NTMtNi4yNjYtMTIuMDgtOC4xMjUtMTkuMjV6bTU4LjY2LTQ2Ljg3aC0xNzcuMmMxLjUxNi0yMC4xNiA4LjExOC0zNi4xOSAxOS44LTQ4LjEgMTEuNjgtMTEuNzYgMjYuNjctMTcuNjQgNDQuOTYtMTcuNjQgMTQuMjIgMCAyNS45OCAzLjM2NyAzNS4yOSAxMC4xMSA5LjE0MSA2LjczOCAxOS41NiAxOS4yIDMxLjI0IDM3LjQxbDQ4LjI1LTI2Ljk2Yy03LjQ1Ny0xMi43Mi0xNS4zMy0yMy42MS0yMy42My0zMi42OS04LjMtOS4wNzQtMTcuMTgtMTYuNTQtMjYuNjYtMjIuMzgtOS40OC01Ljg2LTE5LjcyLTEwLjEyLTMwLjczLTEyLjg0LTExLjAxLTIuNzA3LTIyLjk1LTQuMDc0LTM1LjgxLTQuMDc0LTM2LjkxIDAtNjYuNTMgMTEuODctODguODggMzUuNTktMjIuMzYgMjMuOTEtMzMuNTIgNTUuNjEtMzMuNTIgOTUuMTEgMCAzOS4xNiAxMC44MyA3MC44NyAzMi41MSA5NS4xMiAyMS44NCAyMy44OSA1MC43OCAzNS44NSA4Ni44NCAzNS44NSAzNi40IDAgNjUuMTktMTEuNjQgODYuMzUtMzQuOTEgMjAuOTktMjMuMSAzMS40OS01NS4xMyAzMS40OS05Ni4wOGwtLjI1NC0xMy41Ii8+PHBhdGggc3R5bGU9ImZpbGw6IzFhODBiOSIgZD0ibTc4Ny4xIDM0OS44aDU3LjI5di0yMi44N2MyMC4wNCAyMC4wMiA0Mi42NCAzMC4wMiA2Ny43OCAzMC4wMiAyOC44OSAwIDUxLjM5LTkuMDcgNjcuNTMtMjcuMjEgMTMuOTQtMTUuNDIgMjAuOS00MC42IDIwLjktNzUuNTJ2LTE1MS44aC01Ny4yOHYxMzguM2MwIDI0LjQtMy40MSA0MS4yNy0xMC4yMyA1MC41Ny02LjY0OSA5LjQ5Ni0xOC43NSAxNC4yNS0zNi4zMSAxNC4yNS0xOS4wOSAwLTMyLjY0LTYuMjgxLTQwLjY1LTE4LjgxLTcuODQ0LTEyLjM4LTExLjc1LTMzLjk4LTExLjc1LTY0Ljgydi0xMTkuNWgtNTcuMjl2MjQ3LjQiLz48cGF0aCBzdHlsZT0iZmlsbDojMWE4MGI5IiBkPSJtMTA5MyAyMjcuM2MwLTIzLjcxIDYuMzUtNDMuMDMgMTkuMDYtNTcuOTMgMTMuMDUtMTUuMDggMjkuNDktMjIuNjIgNDkuMzItMjIuNjIgMjEuMTcgMCAzOC4yOSA3LjI3OCA1MS4zNSAyMS44NiAxMy4wNCAxNS4wNyAxOS41NyAzNC4yMSAxOS41NyA1Ny40MyAwIDIzLjIxLTYuNTMgNDIuMzUtMTkuNTcgNTcuNDItMTMuMDYgMTQuNzQtMzAgMjIuMTItNTAuODQgMjIuMTItMTkuNjYgMC0zNi4xLTcuNDU3LTQ5LjMyLTIyLjM3LTEzLjA1LTE1LjA3LTE5LjU3LTMzLjcxLTE5LjU3LTU1Ljkxem0xMzYgMTIyLjVoNTcuMjd2LTI0Ny40aC01Ny4yN3YyNS45MWMtMjMuNjItMjIuMDUtNDkuMDEtMzMuMDctNzYuMTgtMzMuMDctMzQuMzEgMC02Mi42NiAxMi4zOC04NS4wNyAzNy4xMy0yMi4yNiAyNS4yNi0zMy4zOCA1Ni43OS0zMy4zOCA5NC42IDAgMzcuMTIgMTEuMTIgNjguMDUgMzMuMzggOTIuOCAyMi4yMyAyNC43NiA1MC4wOSAzNy4xMyA4My41NSAzNy4xMyAyOC44NyAwIDU0Ljc3LTExLjk2IDc3LjctMzUuODZ2MjguNyIvPjxwYXRoIHN0eWxlPSJmaWxsOiMyMzFmMjAiIGQ9Im0yNDYuNSAzMzMuMWMwIDM4LjYzLTUuNTY2IDU2LTM1LjA3IDcyLjctMjguOSAxNi4zMy0xNzMuMSA2OC43OS0xOTUuNSA5NS4wMS0zOS41NCA0Ni4zNyAxLjE4IDEwOC42IDQ3LjczIDEwNC42IDI0LjY4LTIuMTE3IDQwLjg2LTE2LjM5IDU1LjktMzEuNTEgMTEuOTYtMTIuMDQgNzMuNzMtODIuNDIgOTIuOTItMTAxIDE1LjIxLTE0LjcxIDMyLjc1LTIyLjY2IDU0LjU2LTI1Ljg4IDIwLjc5LTMuMDc1IDM4LjU1IDEuNTY2IDUzLjg5IDExLjEyIDI1LjY2IDE2LjAxIDQ0LjU0IDQ1LjggNTkuNTMgNzYuMjMgMTcgMzQuNTIgNDQuMDMgNTUuMzYgNzUuODQgNTIuODIgNTMuNDEtNC4yNjkgNzMuMjYtNTYuMDYgNTguNjEtOTQuODItNS44OTgtMTUuNTktMzEuMzctMzguNzctNTIuODItNDUuODctMTguMjgtNi4wNDctOTAuMjItMzEuMzctMTAwLjYtMzUuNTYtMzguOTgtMTUuNzMtNDcuNi0zMi4wOS00Ny42LTc3Ljg1IDAtMTkuNSAyMC41Mi03My4xOCAyMC41Mi05NS41MiAwLTM5LjYyLTIwLjEtNjUuNDYtNTMuMTEtNjUuNDYtMzIuNjggMC01NS4zOCAyNS45Mi01NS4zOCA2NS40MyAwIDIyLjk4IDIwLjUzIDc2LjA0IDIwLjUzIDk1LjUzIi8+PHBhdGggc3R5bGU9ImZpbGw6IzFhODBiOSIgZD0ibTQ4MC45IDcyNy43YzAtMzguNjMgNS41Ny01NiAzNS4wNi03Mi42OSAyOC45MS0xNi4zMyAxNzMuMS02OC43OSAxOTUuNS05NS4wMiAzOS41NC00Ni4zNy0xLjE4OC0xMDguNi00Ny43NS0xMDQuNi0yNC42OSAyLjEyMi00MC44NiAxNi40LTU1Ljg5IDMxLjUyLTExLjk3IDEyLjAzLTczLjczIDgyLjQyLTkyLjkxIDEwMS0xNS4yMiAxNC43MS0zMi43NyAyMi42Ni01NC41NyAyNS44Ny0yMC43OSAzLjA4Ni0zOC41NS0xLjU1NC01My44OS0xMS4xMi0yNS42Ni0xNi4wMi00NC41NC00NS44LTU5LjUzLTc2LjIyLTE2Ljk5LTM0LjUzLTQ0LjAzLTU1LjM2LTc1Ljg0LTUyLjgyLTUzLjQxIDQuMjU4LTczLjI3IDU2LjA1LTU4LjYxIDk0LjgyIDUuOTAzIDE1LjU4IDMxLjM3IDM4Ljc2IDUyLjgyIDQ1Ljg2IDE4LjI3IDYuMDQzIDkwLjIzIDMxLjM2IDEwMC42IDM1LjU1IDM4Ljk4IDE1Ljc1IDQ3LjU5IDMyLjEgNDcuNTkgNzcuODYgMCAxOS41LTIwLjUyIDczLjE4LTIwLjUyIDk1LjUzIDAgMzkuNjEgMjAuMSA2NS40NSA1My4xMSA2NS40NSAzMi42OCAwIDU1LjM4LTI1LjkxIDU1LjM4LTY1LjQzIDAtMjIuOTgtMjAuNTMtNzYuMDMtMjAuNTMtOTUuNTMiLz48L2c+PC9nPjwvZz48L3N2Zz4=;" parent="1" vertex="1">
          <mxGeometry x="377.96" y="258.27" width="37.51" height="24.73" as="geometry" />
        </mxCell>
        <mxCell id="TpiFRfA9A0kAPNdnl41Q-55" value="&lt;font size=&quot;1&quot; style=&quot;&quot;&gt;&lt;b style=&quot;font-size: 13px;&quot;&gt;Fuseki&lt;/b&gt;&lt;/font&gt;" style="text;html=1;align=center;verticalAlign=middle;resizable=0;points=[];autosize=1;strokeColor=none;fillColor=none;" parent="1" vertex="1">
          <mxGeometry x="407.03" y="261" width="60" height="30" as="geometry" />
        </mxCell>
        <mxCell id="TpiFRfA9A0kAPNdnl41Q-61" value="&lt;font size=&quot;1&quot; style=&quot;&quot;&gt;&lt;b style=&quot;font-size: 20px;&quot;&gt;SPARQL server&lt;/b&gt;&lt;/font&gt;" style="text;whiteSpace=wrap;html=1;" parent="1" vertex="1">
          <mxGeometry x="340" y="378" width="170" height="40" as="geometry" />
        </mxCell>
        <mxCell id="TpiFRfA9A0kAPNdnl41Q-63" value="" style="shape=image;verticalLabelPosition=bottom;labelBackgroundColor=default;verticalAlign=top;aspect=fixed;imageAspect=0;image=data:image/svg+xml,PHN2ZyB4bWxucz0iaHR0cDovL3d3dy53My5vcmcvMjAwMC9zdmciIGlkPSJzdmcyMiIgdmVyc2lvbj0iMS4xIiB2aWV3Qm94PSIwIDAgMTkyLjc1NiAxOTIuNzU2IiBoZWlnaHQ9IjI1MDAiIHdpZHRoPSIyNTAwIj4mI3hhOyAgPGRlZnMgaWQ9ImRlZnMyNiIvPiYjeGE7ICAmI3hhOyAgPHBhdGggc3R5bGU9ImNsaXAtcnVsZTpldmVub2RkO2ZpbGwtcnVsZTpldmVub2RkIiBpZD0icGF0aDQiIGZpbGw9IiMxZDViOTkiIGQ9Im0gMTAxLjU5OCwxMy44MSBjIDMuODM2LDQuNzk2IC0wLjk1OSw5LjI3MiAtMC45NTksMTQuMzg4IGwgLTAuMzIsMzMuODkyIGMgLTEuOTE4LDAuMzIgLTMuODM2LDAuOTU5IC01Ljc1NSwxLjU5OSB2IC0wLjY0IEwgOTMuMjg1LDI3LjU1OCBjIC0wLjY0LC01LjExNiAtMi41NTgsLTEyLjE1IDMuMTk3LC0xNS4wMjggMS41OTgsLTAuMzE5IDMuODM2LC0wLjMxOSA1LjExNiwxLjI4IHogTSAzMC42MTYsNTIuNDk4IGMgMC45NTksLTMuODM2IDQuMTU3LC03LjM1NCA2LjA3NSwtMTEuMTkgMy44MzcsLTQuMTU3IDcuOTk0LC03Ljk5MyAxMy4xMDksLTkuNTkyIGwgMS4yNzksLTAuOTU5IEMgNDYuOTIzLDM4Ljc1IDM4LjI5LDQ3LjA2MiAzMC42MTYsNTIuNDk4IFogbSAxMjUuMzM3LC0xMi40NyBjIDMuMTk3LDMuNTE3IDUuNDM2LDcuNjczIDcuMDMzLDExLjgzMSBsIC0xMC4yMywtOC45NTMgYyAtMy41MTgsLTMuNTE3IC03LjAzNSwtNy4zNTQgLTkuMjczLC0xMS41MTEgNC43OTYsMS41OTkgOC42MzIsNC43OTYgMTIuNDcsOC42MzMgeiBNIDExMS44MywzMy42MzMgYyAtMC4zMiwwLjY0IC0wLjk1OSwwLjk1OSAtMS42LDEuMjc5IC0xLjI3OSwwIC0yLjg3NywtMC42NCAtNC4xNTYsLTAuNjQgMS4yNzksLTAuMzIgMi41NTksLTEuMjc5IDMuODM2LC0xLjI3OSAwLjY0MSwtMC42MzkgMS42LDEwZS00IDEuOTIsMC42NCB6Ii8+JiN4YTsgIDxwYXRoIHN0eWxlPSJjbGlwLXJ1bGU6ZXZlbm9kZDtmaWxsLXJ1bGU6ZXZlbm9kZCIgaWQ9InBhdGg2IiBmaWxsPSIjMWQ1Yjk5IiBkPSJtIDEyMS40MjIsNDYuNDIzIGMgMi41NTcsNC43OTYgMS45MTgsMTEuNTExIC0xLjI3OSwxNS45ODcgLTUuNzU2LDguNjMzIC0xNi42MjcsOC4zMTMgLTI1LjU3OSwxMS4xOTEgLTMuNTE3LDAuNjQgLTcuMzU0LDMuNTE3IC04LjMxMyw3LjM1NCAtMC4zMiwzLjE5NyAxLjkxOCw1LjQzNiA0LjE1Niw3LjAzNCBsIDEuMjc5LDAuNjQgMC4zMTksNi43MTQgYyAtNS40MzYsLTAuOTU5IC0xMS44MywtNC43OTYgLTEzLjEwOSwtMTAuNTUxIC0wLjMyLC0zLjE5NyAwLC02LjM5NSAxLjI3OSwtOC45NTMgNi4zOTUsLTEyLjE0OSAyMS40MjIsLTguNjMyIDMxLjMzNCwtMTUuMDI3IDAuOTU5LC0xLjI3OSAyLjIzOCwtMi41NTggMi44NzcsLTMuODM3IC0xLjI3OSwtMC45NTkgLTIuODc3LC0xLjkxOCAtNC43OTUsLTIuMjM4IC0xLjkyLC0wLjk1OSAtNC4xNTgsLTEuMjc5IC02LjM5NiwtMS45MTggdiAtMS45MTggYyA0LjE1OCwwLjk1OSA3Ljk5NCwxLjkxOCAxMS41MTIsNC4xNTYgMC4zMiwtMC45NTkgMC4zMiwtMi4yMzggMCwtMy4xOTcgLTAuMzIsLTQuNDc3IC00Ljc5NywtNy42NzQgLTguOTUzLC04LjYzMyAtMC42MzksLTAuMzIgLTEuNTk4LC0wLjYzOSAtMi41NTksLTAuMzIgdiAtNi43MTQgYyA3LjM1NiwwLjMxOCAxNC4zODksMy41MTUgMTguMjI3LDEwLjIzIHogbSA1MC41MTcsMjIuMDYyIGMgLTAuMzIsMC45NTkgLTAuMzIsMi4yMzggLTAuNjM5LDMuMTk3IC01LjExNywtNy45OTMgLTE1LjAyNywtMTMuMTA5IC0xOS4xODYsLTIxLjc0MiA0LjQ3NywyLjIzOCAxMC4yMzIsNS4xMTYgMTMuNDMsMTAuMjMxIDEuNiwyLjIzOCAyLjg3Nyw0LjQ3NyA0LjE1Niw2LjcxNSAwLC0zLjE5NyAtMS4yNzksLTYuMDc1IC0xLjkxOCwtOC45NTMgLTEuOTE4LC00Ljc5NiAtMi4yMzgsLTEwLjIzMiAtMy44MzYsLTE1LjAyOCA2LjcxNCw2LjcxNiA5LjU5MywxNS42NjggNy45OTMsMjUuNTggeiBtIC00My40ODQsLTIzLjk4MSAwLjk1OSwwLjk1OSBjIC0xLjI3NywwIC0yLjg3NywtMC4zMTkgLTMuNTE2LC0xLjU5OCAwLjk1OSwwIDIuMjM5LC0wLjYzOSAyLjU1NywwLjYzOSB6IE0gMjMuOTAyLDY0Ljk2OCBjIDAuOTU5LDAgMC45NTksLTAuOTU5IDEuNTk5LC0xLjU5OSAxLjI3OSwtMy4xOTcgMy44MzcsLTUuNzU1IDYuNzE0LC03Ljk5MyBsIDEwLjIzMSwtNy4zNTQgYyAtMS45MTgsNS43NTUgLTcuNjczLDExLjE5MSAtMTIuNzksMTUuMDI4IGEgOTEuMjc1LDkxLjI3NSAwIDAgMCAtNy4zNTQsOC4zMTMgQyAyMS4wMjMsNjEuNzcxIDIwLjcwMyw1MS4yMiAyNy4wOTgsNDMuODY2IDI4LjA1OCw1MS41MzkgMjUuNSw1Ny45MzQgMjMuOTAyLDY0Ljk2OCBaIi8+JiN4YTsgIDxwYXRoIHN0eWxlPSJjbGlwLXJ1bGU6ZXZlbm9kZDtmaWxsLXJ1bGU6ZXZlbm9kZCIgaWQ9InBhdGg4IiBmaWxsPSIjMWQ1Yjk5IiBkPSJtIDE3OC42NTQsNzguMDc3IC00LjE1NiwxNC4zODggdiAwLjMyIGMgLTEuMjc5LC0yLjg3NyAtMS45MTgsLTUuNzU1IC0zLjgzOCwtOC4zMTMgbCAtNi43MTMsLTkuNTkyIGMgLTEuNiwtMy4xOTcgLTMuMTk5LC02LjM5NSAtMy4xOTksLTkuOTEyIGwgNy4zNTUsOC45NTMgYyAyLjg3NywzLjgzNyAzLjgzNiw4LjYzMyA2LjA3NCwxMi43ODkgMC45NTksLTYuMzk1IDAsLTEzLjc0OSAwLjk1OSwtMjAuMTQzIDAuMzIsLTMuMTk4IDEuMjc5LC01Ljc1NSAwLjk1OSwtOC45NTMgMi44OCw2LjA3NSA0LjE1OSwxMy43NDggMi41NTksMjAuNDYzIHogTSAxOS4xMDUsNzkuMDM2IGMgMC4zMiwyLjg3NyAtMC42MzksNi4wNzUgMC42NCw4LjYzMyAwLjMyLC0xLjI3OSAwLjMyLC0yLjU1OCAwLjk1OSwtMy44MzcgMS45MTgsLTYuNzE0IDYuMDc1LC0xMi43OSAxMS41MSwtMTguNTQ0IEMgMzEuMjU1LDc2LjE1OSAyMS4wMjMsODMuMTkzIDE5Ljc0NCw5My43NDQgMTUuOTA4LDgzLjE5MyA5LjUxMyw2OS43NjQgMTYuODY3LDU4LjU3MyBjIDAuMzIxLDcuMDM0IDEuMjc5LDEzLjc0OSAyLjIzOCwyMC40NjMgeiBtIDEwNS4xOTQsLTguOTUzIC0wLjMyLDAuMzE5IGMgLTAuNjM5LC0wLjMxOSAtMC4zMTgsLTAuOTU5IC0wLjMxOCwtMS4yNzkgMC4zMTgsMC4zMjEgMC42MzgsMC4zMjEgMC42MzgsMC45NiB6IG0gMC4zMiwzLjUxOCBjIDAsMC4zMiAtMC4zMiwwLjMyIC0wLjMyLDAuNjQgaCAtMS4yNzkgYyAtMC4zMTgsLTAuOTU5IDAuMzIsLTEuOTE4IDEuMjc5LC0yLjIzOCAwLDAuNjM4IDEuMjc5LDEuMjc4IDAuMzIsMS41OTggeiBtIC0yNS41OCwzMy4yNTMgYyAtMS41OTgsMC4zMTggLTIuODc3LDAuOTU5IC00LjQ3NiwwLjk1OSBMIDkzLjkyNCw3Ni40NzkgYyAxLjU5OCwtMC45NTkgMy44MzcsLTAuOTU5IDUuNDM1LC0xLjU5OSBsIC0wLjMyLDIzLjY2MiB6IE0gMTIzLjY2LDc2Ljc5OCBjIDAsMC4zMiAtMC42NDEsMC42MzkgLTAuOTU5LDAuMzIgMCwtMC4zMiAtMC45NjEsLTAuNjQgLTAuMzIsLTAuOTU5IDAuNjM5LC0wLjAwMSAwLjk1OSwwLjMxOSAxLjI3OSwwLjYzOSB6Ii8+JiN4YTsgIDxwYXRoIHN0eWxlPSJjbGlwLXJ1bGU6ZXZlbm9kZDtmaWxsLXJ1bGU6ZXZlbm9kZCIgaWQ9InBhdGgxMCIgZmlsbD0iIzFkNWI5OSIgZD0ibSA5LjE5NCw3OS4wMzYgYyAxLjkxOCw5LjI3MiA4LjYzMywxNi42MjYgMTAuODcxLDI1Ljg5OSAwLjY0LDEuNTk4IDAuOTU5LDMuNTE2IDEuOTE4LDUuMTE1IDAuNjM5LC0yLjU1OSAwLjMyLC01LjQzNiAwLjYzOSwtOC4zMTIgMC42NCwtNi4zOTYgMS45MTksLTEyLjc5MSA1Ljc1NSwtMTguMjI2IDEuOTE4LDExLjUxMSAtNS4xMTYsMjAuMTQ0IC00Ljc5NiwzMS4zMzMgTCAxMy45ODksMTAyLjM3NiBDIDkuNTE0LDk1LjY2MyA3LjI3NSw4Ny4zNDkgOS4xOTQsNzkuMDM2IFogbSA4Mi40OTIsMS4yNzkgdiA0Ljc5NiBjIC0xLjI3OSwtMC45NTkgLTIuNTU4LC0yLjIzOCAtMi41NTgsLTMuODM2IDAsLTAuNjQgMCwtMS4yNzkgMC42MzksLTEuOTE4IDAuNjQsMC4zMTggMS4yNzksMC42MzggMS45MTksMC45NTggeiBtIDkwLjE2NiwxNi42MjYgLTMuMTk3LDUuNzU2IC03LjM1NCwxMC4yMyAtMi41NTksNC40NzcgYyAwLjY0MSwtMTIuMTUgLTYuMDc0LC0yMi4zODEgLTQuMTU2LC0zNC44NTEgNC4xNTYsOC42MzMgNy4wMzMsMTcuOTA2IDYuMDc0LDI4LjEzNiAxLjI3OSwtMS4yNzkgMS4yNzksLTIuNTU3IDEuOTIsLTMuODM2IGwgNC40NzUsLTEwLjIzMiBjIDIuMjM4LC01LjExNiA0LjQ3NywtMTAuNTUxIDYuMzk2LC0xNS45ODYgMS45MTgsNS40MzUgMCwxMS4xOSAtMS41OTksMTYuMzA2IHogbSAtNzIuNTgxLC0xLjI3OCBjIDIuNTU5LDEuOTE3IDMuNTE4LDUuMTE1IDIuODc3LDguNjMyIC0wLjYzOSwyLjU1OSAtMi4yMzgsNS40MzYgLTQuNzk1LDYuNzE1IC0zLjUxOCwxLjYgLTcuMzU0LDIuMjM4IC0xMS4xOTEsMy41MTggLTEuMjc5LDAuOTU5IC0zLjUxNywxLjkxOCAtMy41MTcsMy44MzYgdiA1Ljc1NiBjIC0yLjIzOCwtMC42NDEgLTMuODM3LC0yLjg3NyAtNC4xNTcsLTUuMTE1IC0wLjYzOSwtMi41NTkgMCwtNS40MzYgMi4yMzgsLTcuMDM1IDQuNzk2LC0zLjUxOCAxMS4xOTEsLTIuODc3IDE1LjAyNywtNy42NzQgMC42NDEsLTAuOTU5IDAuMzIsLTIuNTU3IC0wLjMyLC0zLjUxOCAtMC45NTksLTEuMjc3IC0yLjIzOCwtMS41OTggLTMuNTE2LC0yLjU1NyB2IC01Ljc1NiBjIDIuODc4LDAuMzIgNS4xMTYsMS41OTggNy4zNTQsMy4xOTggeiBtIC0zOS45NjcsMi41NTggYyAtMC42NCwwIC0xLjI3OSwtMC4zMiAtMS4yNzksLTAuOTU5IDAuMzIsLTAuNjQxIDAuMzIsLTEuNTk5IDAuNjM5LC0yLjIzOSAxLjI4LDAuMzIgMC4zMjEsMi4yMzkgMC42NCwzLjE5OCB6IG0gMjIuNzAxLDEuNTk3IGMgLTAuMzE5LDAgMCwwLjk1OSAtMC42MzksMC42NDEgLTAuMzIsLTAuMzIgLTAuNjQsLTAuNjQxIC0wLjMyLC0wLjk1OSAwLjMyLC0wLjMyIDAuOTU5LC0wLjMyIDAuOTU5LDAuMzE4IHogbSAtMjIuNzAxLDIuMjM5IGMgLTAuNjQsMC4zMiAtMC45NTksLTAuMzE4IC0wLjk1OSwtMC42MzkgMCwtMC42NDEgMC4zMTksLTAuOTU5IDAuNjQsLTEuNiAwLjYzOSwwLjY0MSAwLDEuNiAwLjMxOSwyLjIzOSB6Ii8+JiN4YTsgIDxwYXRoIHN0eWxlPSJjbGlwLXJ1bGU6ZXZlbm9kZDtmaWxsLXJ1bGU6ZXZlbm9kZCIgaWQ9InBhdGgxMiIgZmlsbD0iIzFkNWI5OSIgZD0ibSAxMDIuODc3LDEwMi4wNTcgYyAwLjMxOCwwLjY0MSAwLjMxOCwxLjI3OSAwLjMxOCwxLjkxOCAtMC42MzksMC42NDEgLTEuMjc3LDAuOTYxIC0yLjIzNiwwLjk2MSAtMC4zMiwtMC45NjEgMS41OTgsLTEuNiAwLjk1OSwtMi44NzkgMC4zMTgsMC4zMiAwLjYzOSwwIDAuOTU5LDAgeiBtIDYwLjc1LDI3LjQ5OCBjIDMuMTk3LC0yLjU1OSA0LjE1NiwtNi4wNzYgNi4zOTUsLTguOTUzIGwgNy4wMzMsLTguMzEyIGMgMS42LC0yLjIzOCAzLjE5OSwtMy44MzggNC43OTcsLTYuMDc2IC0xLjI3OSwxMS44MyAtMTAuNTUxLDIxLjEwNCAtMjAuMTQzLDI4LjQ1NyBsIC0yLjg3OSwyLjg3OSBjIDIuODc5LC03LjAzNSAzLjE5NywtMTYuMzA3IDEuNiwtMjMuOTggLTAuMzIsLTMuNTE4IDAuOTU5LC03LjAzNSAxLjkxOCwtMTAuMjMyIDEuNTk5LDcuOTkyIDMuODM2LDE3LjkwNCAxLjI3OSwyNi4yMTcgeiBNIDIxLjAyNCwxMTguNjg0IGMgMi4yMzgsMy4xOTcgNC40NzcsNi4zOTUgNy4wMzQsOS41OTIgLTAuMzE5LC03Ljk5NCAtMS41OTksLTE3LjI2NiAxLjI3OSwtMjQuNjE5IDEuNTk5LDIuMjM4IDEuNTk5LDUuMTE1IDIuMjM4LDcuNjc0IGwgMC4zMTksMy44MzYgdiAxNS4zNDggYyAwLDEuOTE4IDAuOTU5LDMuNTE4IDEuMjc5LDUuNDM2IGwgLTkuNTkyLC03LjM1NCBDIDE1LjkwOCwxMjEuNTYyIDEwLjQ3MiwxMTMuNTcgOS4xOTMsMTAzLjY1OCBaIG0gNzAuOTgxLC0xMS4xOTIgYyAwLDAuMzIgLTAuMzE5LDAuNjQxIC0wLjYzOSwwLjMyIDAuMzIsLTAuNjQxIDAuMzIsLTEuNiAwLjk1OSwtMi4yMzggMC4zMiwwLjYzOSAwLDEuMjggLTAuMzIsMS45MTggeiBtIC0xLjI3OCwwLjk1OSAtMC4zMiwwLjMyIGMgLTAuMzIsLTAuMzIgMCwtMS4yNzkgLTAuMzIsLTEuNiAwLjY0LDEwZS00IDAuMzIsMC45NjIgMC42NCwxLjI4IHogbSAtNDkuNTYsMS45MiBjIDAuMzE5LDAuNjM5IDAsMS4yNzcgLTAuMzIsMS45MTggLTAuMzIsLTAuNjQxIC0wLjk1OSwtMC45NTkgLTAuNjM5LC0xLjkxOCAwLC0wLjY0MSAwLjk1OSwtMC4zMiAwLjk1OSwwIHogTSA5OC40LDE0OS42OTcgYyAtMC42MzksMC42NDEgLTAuMzIsMC45NTkgLTAuOTU5LDEuMjc5IC0wLjk1OSwwLjY0MSAtMS41OTksLTAuNjM5IC0xLjkxOSwtMS4yNzkgbCAtMC4zMTksLTIxLjEwMiAtMC4zMiwtMTAuNTUzIGMgMC45NTksLTAuOTU5IDIuNTU4LC0wLjk1OSAzLjgzNywtMS41OTggdiAxMC4yMzIgeiIvPiYjeGE7ICA8cGF0aCBzdHlsZT0iY2xpcC1ydWxlOmV2ZW5vZGQ7ZmlsbC1ydWxlOmV2ZW5vZGQiIGlkPSJwYXRoMTQiIGZpbGw9IiMxZDViOTkiIGQ9Im0gMTUwLjgzOCwxNDUuMjIxIGMgLTAuMzIsMC45NTkgLTAuOTU5LDEuNiAtMC45NTksMi4yMzggOS45MSwtNS43NTQgMTkuNTA0LC0xMi40NjkgMjguNDU1LC0yMC4xNDMgLTQuNzk1LDE2LjMwNyAtMjIuNzAxLDE5LjUwNCAtMzUuMTcsMjUuODk4IDcuMzU0LC05LjU5MiA1Ljc1NCwtMjMuMDIxIDEzLjQyOCwtMzIuNjEzIC0wLjMxOSw4Ljk1NCAtMS41OTgsMTcuNTg3IC01Ljc1NCwyNC42MiB6IE0gMzkuNTY5LDEyOC4yNzUgYyAyLjg3Nyw3Ljk5NCAzLjUxNywxNi45NDUgOC4zMTMsMjMuOTggLTkuMjcyLC0zLjgzOCAtMTkuNTA0LC02LjM5NSAtMjcuMTc4LC0xNC4zODkgLTIuODc4LC0zLjE5NyAtNS4xMTYsLTYuMzk1IC02LjM5NSwtMTAuMjMgMC4zMiwtMC4zMiAwLjY0LDAgMC42NCwwLjMxOCA3LjAzNCw2LjM5NSAxNS4wMjcsOS4yNzMgMjIuMDYyLDE1LjM0OCAxLjkxOCwxLjI3OSAzLjE5OCwzLjE5NyA1LjExNiwzLjgzOCAtMC45NTksLTMuNTE4IC0zLjE5NywtNi43MTUgLTQuNDc2LC0xMC4yMzIgLTEuNTk5LC00Ljc5NyAtMi44NzcsLTEwLjIzIC0yLjIzOCwtMTUuOTg2IDEuOTE4LDEuOTE4IDIuODc3LDQuNzk1IDQuMTU2LDcuMzUzIHogbSA1MS43OTcsLTEuOTE4IGMgLTAuMzIsMC4zMiAtMC45NTksMC4zMiAtMS4yNzksMCBsIC0wLjMyLC0wLjY0MSBoIC0wLjMxOSBjIC0wLjY0LC0wLjk1OSAtMC45NTksLTEuOTE4IC0wLjk1OSwtMi44NzcgMC42MzksMS4yOCAyLjIzOCwyLjIzOSAyLjg3NywzLjUxOCB6Ii8+JiN4YTsgIDxwYXRoIHN0eWxlPSJjbGlwLXJ1bGU6ZXZlbm9kZDtmaWxsLXJ1bGU6ZXZlbm9kZCIgaWQ9InBhdGgxNiIgZmlsbD0iIzFkNWI5OSIgZD0iTSA5MS4wNDYsMjguNTE4IEMgNzYuMzM4LDI5Ljc5NiA2My44NjgsMzYuMTkxIDUyLjk5Nyw0Ny4wNjIgbCA3LjM1NCw3LjAzNCBDIDY4LjY2NCw0NS43ODQgNzguNTc2LDQxLjYyNyA4OS4xMjcsMzguNDI5IGwgMS45MTgsLTAuNjM5IHYgNi4zOTUgYyAtNC4xNTYsMi4yMzggLTcuMDM0LDcuMzU0IC0xMS4xOTEsOC45NTIgLTIuMjM4LDEuNTk5IC00Ljc5NiwzLjE5NyAtNy4zNTQsNC40NzcgLTAuOTU5LC0wLjY0IC0xLjkxOCwwLjMyIC0yLjU1OCwwLjk1OSBsIC0xLjI3OSwyLjg3OCBjIC0wLjMxOSwtMC42NCAwLC0xLjI3OSAwLjMyLC0xLjkxOCAtMC42NCwwIC0xLjU5OSwwLjMyIC0yLjIzOCwwLjMyIDEuNTk5LC0wLjk1OSA0LjE1NiwtMS41OTkgMy44MzcsLTMuODM3IDAuMzE5LC0zLjUxOCAyLjU1OCwtNi4zOTUgMy44MzYsLTkuNTkyIDAsLTAuMzIgMC4zMiwtMC42MzkgMC4zMiwtMC42MzkgLTQuNzk2LDIuMjM4IC04Ljk1Myw1Ljc1NSAtMTMuMTA5LDkuNTkyIDAuOTU5LDEuMjc5IDIuMjM4LDIuMjM4IDMuMTk3LDMuNTE4IEwgNjQuMTg3LDU5LjUzNCA2MC45OSw1Ni4zMzYgQyA1Mi4wMzcsNjUuNjA4IDQ3Ljg4MSw3Ny40MzkgNDcuNTYxLDkwLjIyOSBoIDkuOTEyIGMgMCwtMTAuNTUyIDMuODM3LC0xOS41MDQgMTAuNTUxLC0yNy4xNzggbCAtMC4zMiwtMC4zMiAwLjMyLC0wLjY0IDAuNjM5LDAuMzIgQyA3NS4wNTgsNTUuNjk3IDgyLjczMSw1Mi4xOCA5MS4zNjUsNTAuNTgxIHYgMS45MTggQyA4My4wNTIsNTMuNzc4IDc2LjAxOCw1Ny4yOTUgNjkuNjIzLDYzLjY5IGwgOC42MzMsOC42MzMgYyAxLjU5OSwtMS45MTkgMy41MTcsLTIuODc4IDUuNDM2LC00LjE1NyAwLjY0LDAuNjQgMCwxLjU5OSAtMC42NCwxLjkxOSAtNS4xMTYsMy4xOTcgLTguMzEzLDguMzEzIC05LjkxMiwxMy43NDkgMC42NCwwLjMyIDAuOTU5LC0xLjU5OSAyLjIzOCwtMS4yNzkgMC42NCwwIDAsLTAuOTU5IDAuOTU5LC0wLjY0IDAuMzIsMC42NCAwLjMyLDIuMjM4IDAuMzIsMy4xOTcgMC42NCw0LjE1NyAzLjgzNiw4LjYzMyA3Ljk5NCwxMC41NTIgbCAyLjIzOCwwLjYzOSBjIC0wLjMyLDAuMzE5IC0xLjU5OSwwLjY0IC0xLjU5OSwxLjU5OSAwLDAuMzIgLTAuMzIsMC42NDEgLTAuMzIsMC45NTkgMC42NCwwLjY0MSAtMC42MzksMS42IDAsMi4yMzggMC45NTksLTAuNjM5IDIuNTU4LC0xLjU5OCAyLjU1OCwtMi44NzcgMC45NTksLTEuMjc5IDIuMjM4LC0xLjYgMy41MTcsLTEuOTE5IDAuMzIsMC4zMTkgMC42NCwwLjMxOSAwLjk1OSwwLjk2IDAsMC4zMTggLTAuMzE5LDAuMzE4IC0wLjYzOSwwLjYzOSBsIC0yLjU1OCwyLjIzOCAtMC42NCwtMC4zMiAtOC45NTIsOC45NTMgYyAyLjIzOCwyLjU1OSA1LjExNiwzLjgzOCA3Ljk5Myw1LjExNSAtMC4zMTksMC4zMiAtMC4zMTksMS4yNzkgLTAuNjQsMC45NTkgLTIuODc3LC0xLjI3NyAtNS43NTUsLTIuODc3IC03Ljk5MywtNS40MzYgbCAtNy4zNTQsNy4zNTUgYyAwLjk1OSwwLjYzOSAwLjk1OSwyLjg3NyAyLjU1OCwzLjE5NyAwLjk1OSwwLjYzOSAwLjk1OSwxLjI3OSAwLjk1OSwyLjIzOCA1LjQzNiwzLjgzNiAxMS41MTEsNi4zOTUgMTcuOTA1LDcuMDMzIHYgMS4yNzkgYyAtNi43MTQsLTAuMzIgLTEzLjEwOSwtMi44NzcgLTE4Ljg2NCwtNi43MTUgLTIuODc4LC0wLjk1OSAtNC40NzcsMS45MTggLTcuMzU0LDEuNiAtMC45NTksLTAuMzIgLTIuMjM4LC0wLjY0MSAtMy41MTcsLTAuMzIgbCAtMS4yNzksMS4yNzkgYyA4LjYzMyw4Ljk1MyAxOS4xODUsMTMuNDI4IDMxLjAxNSwxNC4zODkgbCAtMC4zMiwxLjU5OCBjIC0xMS41MSwtMC45NTkgLTIyLjA2MiwtNS40MzYgLTMwLjY5NSwtMTMuNzQ4IGwgLTEuMjc5LC0wLjk1OSAtNy4wMzQsNy4wMzMgYyAxMS4xOTEsMTEuODMgMjQuOTM5LDE3LjkwNiA0MC42MDcsMTguODY1IDE3LjI2NSwwIDMyLjI5MiwtNS43NTYgNDQuNzYzLC0xNy41ODYgMCwtMC4zMiAwLjMyLC0wLjYzOSAwLjMyLC0wLjYzOSBsIC03LjM1NSwtNy4zNTUgYyAtMy44MzYsMy44MzggLTguNjMzLDcuMDM1IC0xMy40MjgsOS41OTQgLTIuMjM4LDEuMjc3IC0zLjgzOCwzLjE5NyAtNi4zOTUsMy44MzYgbCAtMC45NTksLTAuOTU5IGMgLTMuMTk5LDAuNjM5IC02LjM5NiwxLjU5OCAtOS41OTQsMS45MTggbCAtMC4zMTgsLTEuNTk4IGMgMi4yMzYsLTAuMzIgNC43OTUsLTAuNjQxIDcuMDMzLC0xLjI3OSAwLC0xLjI3OSAtMS45MTgsLTEuOTE4IC0yLjg3NywtMi41NTkgLTAuOTU5LC0wLjk1OSAtMS45MiwtMi4yMzggLTEuMjc5LC0zLjgzNiAxLjI3OSwxLjU5OCAyLjIzOCwzLjgzNiA0LjE1Niw0LjE1NiAyLjIzOCwtMS45MTggMC45NTksLTUuNDM2IDAuOTU5LC03Ljk5NCAtMC42MzksLTAuNjM5IC0xLjU5OCwwIC0yLjIzOCwwIDAuNjQxLDAuNjQxIDAuNjQxLDEuOTE4IDAuOTU5LDIuODc3IDAuMzIsMC42NDEgMCwxLjI3OSAwLjMyLDEuOTIgLTAuOTU5LC0wLjMyIC0xLjU5OCwtMS42IC0yLjIzOCwtMi41NTkgLTAuNjM5LC0wLjYzOSAtMC45NTksLTEuNTk4IC0xLjkxOCwtMS41OTggbCAtMi4yMzgsMC42MzkgdiAtMS41OTggYyAwLjMyLDAgMC42MzksMCAxLjI3OSwtMC4zMiAtMi41NTksMCAtMC45NTksLTIuNTU5IC0xLjI3OSwtMy44MzggMS41OTgsMC42NDEgMy4xOTcsMS45MiA0LjE1NiwzLjE5NyAwLjY0MSwtMC4zMTggMS45MTgsLTAuMzE4IDEuNiwtMC45NTkgLTEuNiwtMS45MTggLTMuNTE4LC0zLjUxOCAtNS43NTYsLTQuNDc3IHYgLTYuNzEzIGMgNS4xMTUsLTEuNiAxMC41NTEsLTMuODM4IDEyLjc4OSwtOS4yNzMgMC45NTksLTQuMTU2IDAuNjQxLC04Ljk1MyAtMi41NTcsLTExLjgzIC0yLjg3OSwtMi41NTggLTYuMzk2LC00LjE1NyAtOS45MTIsLTUuMTE2IHYgLTEyLjE1IGwgMS45MTgsLTAuOTU5IGMgMC45NTksMS4yNzkgLTEuMjc5LDMuMTk3IDAuOTU5LDMuODM3IDEuMjc5LDAgMS4yNzksLTEuMjc5IDEuNiwtMS45MTggMCwtMC42MzkgMC42MzksLTEuNTk5IDEuMjc3LC0xLjkxOCAxLjI3OSwwIDEuNiwtMS45MTggMy4xOTksLTEuMjc5IGwgMTEuODMsLTExLjgzMSBjIC0wLjY0MSwtMC42MzkgMC4zMTgsLTEuNTk5IDAuMzE4LC0yLjIzOCBsIDEuMjc5LDAuOTU5IGMgMC4zMiwtMS4yNzkgMy41MTgsLTIuMjM4IDEuNiwtMy44MzYgbCAtMC45NTksLTAuOTU5IGMgMS4yNzcsLTMuODM3IDAuOTU5LC04LjMxMyAtMC45NjEsLTExLjUxIDAsLTAuMzIgMC4zMiwtMC42NCAwLjY0MSwtMC45NTkgMS4yNzksMC45NTkgMi41NTcsMi41NTggNC40NzcsMi4yMzggMC45NTksMS4yNzkgMi41NTcsMi41NTggMi4yMzgsNC40NzYgMC4zMTgsMC42NCAwLjk1OSwxLjI3OSAxLjkxOCwxLjI3OSBsIDYuMzk1LC02LjM5NSBDIDEyOS43MzMsMzUuNTUyIDExNy4yNjQsMzAuNDM2IDEwMy41MTQsMjguNTE4IFYgMjUuNjQgYyAyMi4wNjIsMS45MTggNDQuNzY0LDE5LjgyMyA1Mi40MzgsNDEuMjQ2IDkuOTEyLDI1Ljg5OCAyLjIzOCw1NS4zMTUgLTE4LjU0NSw3My44NiAtMTEuMTkxLDkuMjcxIC0yMy42NiwxNC43MDcgLTM4LjY4OCwxNS4wMjcgQyA4Mi4wOTIsMTU2LjQxMiA2Ny43MDQsMTUxLjI5NiA1NS41NTQsMTQxLjA2NCAzNS4wOTEsMTIzLjE2IDI3LjA5Nyw5NC43MDMgMzYuNjg5LDY5LjEyNCA0Mi4xMjUsNTEuMjE5IDU5LjM5MSwzMy42MzMgNzcuMjk2LDI4LjUxOCA4MS43NzIsMjYuOTE5IDg2LjI0OSwyNS45NiA5MS4wNDUsMjUuMzIgdiAzLjE5OCB6IE0gNzguNTc3LDQ2LjQyMyBjIC0wLjY0LDAuMzIgLTAuOTU5LDAuNjQgLTAuOTU5LDEuMjc5IDAuMzE5LDAuMzIgMC4zMTksMS4yNzkgMS4yNzksMC45NTkgMC42MzksLTAuMzIgMS4yNzksLTAuNjQgMC45NTksLTEuMjc5IC0wLjMyLC0wLjYzOSAtMC45NiwtMS4yNzkgLTEuMjc5LC0wLjk1OSB6IG0gNjIuMDI4LDAuNjM5IC02LjM5NSw2LjM5NSAxLjU5OCwxLjkxOCBjIDEuNiwxLjI3OSAxLjYsNC4xNTcgNC4xNTgsNC40NzcgMC42MzksMi44NzcgMy41MTYsNC43OTYgNS4xMTUsNy4zNTQgMC45NTksMS45MTggLTEuNiwxLjI3OSAtMi4yMzgsMi41NTggMi44NzcsNi4wNzUgNC40NzcsMTMuMTA5IDQuMTU2LDIwLjQ2MyBoIDEwLjIzMiBDIDE1Ni45MTIsNzMuOTIgMTUxLjQ3Nyw1OS4yMTIgMTQwLjYwNSw0Ny4wNjIgWiBtIC04OC4yNDcsMC42NCBDIDQxLjQ4Nyw1OS44NTIgMzYuMDUyLDc0LjI0IDM1LjQxMiw5MC4yMjcgSCA0NS42NDQgQyA0Ni4yODMsNzYuNzk4IDUwLjc1OSw2NC45NjggNTkuNzEyLDU1LjA1NiA1Ny4xNTQsNTIuNDk4IDU0LjkxNyw0OS45NCA1Mi4zNTgsNDcuNzAyIFogbSA3NC44MTgsMTMuMTA5IC0yLjIzNiwxLjkxOCBjIDIuODc3LDIuODc3IDQuMTU2LDYuNzE0IDcuMzU0LDguOTUzIDAsMS41OTkgMC42MzksMi41NTggMC45NTksMy44MzcgLTAuNjQxLDAuNjM5IDAuMzIsMS4yNzkgMC4zMiwxLjkxOCAwLjMxOCwtMC42MzkgMCwtMS45MTggMC42MzksLTIuMjM4IDIuMjM4LDEuMjc5IDAsMy41MTcgMC4zMiw1LjQzNiAwLjk1OSwyLjg3NyAwLjk1OSw2LjM5NSAxLjU5OCw5LjU5MiBoIDkuMjczIGMgMCwtNi43MTUgLTEuMjc5LC0xMy4xMDkgLTMuODM4LC0xOC44NjUgLTAuMzE4LDAgLTAuNjM5LDAuMzIgLTAuOTU5LDAuMzIgLTEuMjc5LC0xLjI3OSAtMS45MTgsLTMuMTk3IC0yLjg3NywtNC43OTYgLTAuNjQxLC0wLjMyIC0xLjYsLTAuMzIgLTIuMjM4LC0wLjMyIC0wLjMyLDAgLTAuOTU5LC0wLjk1OSAtMS4yNzksLTAuNjM5IC0wLjk1OSwtMC45NTkgLTIuNTU5LC0wLjMyIC0zLjUxOCwtMC45NTkgLTAuNjM5LC0xLjkxOSAtMi41NTcsLTIuNTU4IC0zLjUxOCwtNC4xNTcgeiBNIDc3LjYxOCw3Mi42NDEgNjguOTg1LDY0LjMyOCBDIDYyLjI3LDcxLjY4MiA1OS4zOTMsODAuMzE1IDU4Ljc1Myw5MC4yMjcgaCA3LjAzNCBjIDAuNjQsLTAuOTU5IDEuNTk5LC0xLjI3OSAyLjIzOCwtMS45MTggMC4zMiwtMS45MTggMi41NTgsLTEuNTk5IDMuNTE3LC0zLjUxNyAxLjI3OSwtNC4xNTcgMy4xOTcsLTguMzEzIDYuMDc1LC0xMS44MzEgdiAtMC4zMiB6IG0gNDUuNzIyLC04LjMxMyAtNy45OTQsOC4zMTMgYyAwLjY0MSwwLjk1OSAxLjI3OSwyLjU1OCAyLjU1OSwyLjIzOCAwLDAuMzIgLTAuMzIsMC42NCAtMC42MzksMC42NCAwLjk1OSwxLjU5OSAyLjg3NywxLjkxOCA0LjQ3NSwxLjkxOCAwLjk2MSwwLjMyIDAuNjQxLDEuMjc5IDAuOTYxLDEuOTE5IDEuNTk4LDAuOTU5IDAsMi41NTggMC42MzksMy44MzcgMC45NTksLTAuMzIgMS42LC0xLjkxOCAyLjg3NywtMS41OTkgMS4yNzksMC42MzkgMC4zMiwyLjIzOCAwLjk1OSwzLjE5NyAyLjIzOCwwLjMxOSAyLjg3OSwtMS45MTggMy41MTgsLTMuMTk3IDAuOTU5LDEuOTE4IC0wLjYzOSwzLjgzNiAtMS45MTgsNS4xMTUgLTAuNjM5LDAuMzIgLTEuMjc5LDAuMzIgLTEuOTE4LDAuNjQgMCwxLjI3OSAtMC45NTksMi41NTggLTEuOTE4LDIuODc4IGggOS4yNzEgYyAwLC0xLjI3OSAwLC0zLjE5OCAtMC4zMiwtNC40NzcgLTAuMzE4LDAuMzIgLTAuOTU5LDEuMjc5IC0xLjU5OCwwLjk1OSAtMC4zMiwtMS45MTggLTAuMzIsLTQuNzk2IDAuMzE4LC03LjAzNCAtMC4zMTgsLTAuMzE5IC0wLjMxOCwtMS41OTkgLTAuOTU5LC0xLjI3OSAtMC4zMTgsLTIuNTU4IC0zLjUxNiwtMy44MzYgLTMuNTE2LC02LjA3NSBoIDEuMjc3IGwgLTAuOTU5LC0xLjU5OSBjIDAsMC4zMTkgMCwwLjYzOSAtMC4zMTgsMC45NTkgLTEuOTIsLTAuNjQgLTEuNiwtMi41NTggLTIuMjM4LC00LjE1NiAtMS4yOCwtMC42MzkgLTAuOTYsLTIuNTU3IC0yLjU1OSwtMy4xOTcgeiBtIC05LjI3Miw5LjU5MiBoIC0wLjMyIGMgMC42MzksMCAwLjYzOSwwLjMyIDAuOTU5LDAuMzIgeiBtIC0xLjkyLDEuOTE4IC0xLjkxOCwxLjU5OSBjIDAuOTU5LDAuNjQgMS45MTgsMCAzLjE5NywwLjMyIDAuOTU5LDAuMzE5IC0wLjMyLDEuNTk5IDAuNjQxLDIuMjM4IDAsLTAuMzIgMC4zMTgsMCAwLjMxOCwwIDAuMzIsLTAuNjM5IDAsLTEuMjc5IC0wLjMxOCwtMS45MTggMC42MzksLTAuNjQgMS41OTgsLTAuNjQgMi4yMzYsLTAuOTU5IDAuMzIsLTAuNjQgLTAuMzE4LC0wLjk1OSAtMC4zMTgsLTEuMjc5IC0wLjk1OSwwLjMyIC0yLjIzOCwwIC0yLjg3OSwwLjY0IC0wLjMxOCwtMC4wMDEgLTAuOTU5LC0wLjAwMSAtMC45NTksLTAuNjQxIHogbSAtMy4xOTcsMS41OTkgYyAtMC4zMTgsLTAuMzE5IDAuNjQxLC0wLjYzOSAwLjY0MSwtMC45NTkgeiBNIDM1LjQxMiw5MS41MDUgYyAwLjY0LDE2LjMwNyA1Ljc1NSwzMC42OTYgMTYuOTQ2LDQyLjUyNiAyLjU1OCwtMi41NTkgNS4xMTYsLTQuNzk3IDcuMzU0LC03LjM1NCBsIC0zLjUxNywtMy41MTggYyAtMC42NCwtMC4zMiAtMS4yNzksMCAtMS45MTgsLTAuMzIgMCwtMS4yNzkgLTAuMzIsLTIuNTU5IC0wLjY0LC0zLjgzNiAtMS4yNzksLTEuMjc5IC0zLjE5NywtMS4yNzkgLTQuNzk2LC0xLjYgLTAuOTU5LC0wLjYzOSAtMS45MTgsLTEuOTE4IC0xLjU5OSwtMi44NzcgMC42NCwtMi41NTkgLTIuMjM4LC0yLjU1OSAtMy4xOTgsLTQuMTU2IC0xLjI3OSwwIC0xLjU5OSwtMC45NjEgLTIuMjM4LC0xLjYgLTAuNjQsMC4zMiAtMS4yNzksMC45NTkgLTEuOTE4LDAuNjM5IC0wLjMyLC0wLjYzOSAtMC4zMiwtMS45MTggMCwtMi4yMzggMC45NTksLTIuMjM2IDIuODc3LC0xLjI3NyA0LjQ3NiwtMS4yNzcgMC45NTksLTAuNjQxIDEuOTE4LC0wLjk1OSAyLjg3OCwtMS4yNzkgLTAuOTU5LC00LjE1NiAtMS41OTksLTguNjMzIC0xLjU5OSwtMTMuMTEgSCAzNS40MTIgWiBtIDIxLjc0MiwwIGggLTkuNTkyIGMgMCw0Ljc5NiAwLjY0LDguOTU0IDEuOTE4LDEzLjExIDEuMjc5LDAuMzIgMi4yMzgsMC45NTkgMy4xOTgsMS41OTggMCwtMC45NTkgLTAuNjQsLTEuNTk4IC0wLjMyLC0yLjIzOCAwLjk1OSwtMC45NTkgMC42MzksLTIuMjM2IDAuNjM5LC0zLjUxNiAwLjMyLC0yLjIzOCAyLjg3OCwtMy4xOTcgNC40NzcsLTQuNDc3IHogbSAxLjU5OSwwIDAuNjQsNC40NzcgYyAwLjk1OSwwLjYzOSAxLjkxOCwxLjI4IDMuMTk3LDEuNTk4IDEuMjc5LC0wLjYzOSAxLjkxOCwtMi4yMzcgMi4yMzgsLTMuODM2IDAuOTU5LC0zLjgzNyAtMy44MzcsLTEuMjc5IC02LjA3NSwtMi4yMzkgeiBtIDEwLjU1MSwwLjMyIGMgLTEuMjc5LDAuMzIgLTAuOTU5LDIuMjM4IC0yLjU1OCwyLjU1OCAwLDEuMjc5IC0wLjY0LDIuMjM4IC0xLjU5OSwzLjE5NyAtMC4zMiwwLjY0MSAtMC42MzksMS4yNzkgMCwxLjYgMS4yNzksMC42MzkgMC45NTksMi4yMzggMC45NTksMy41MTggMS45MTgsMS4yNzcgMS4yNzksMy44MzYgMC42NCw1LjQzNiAxLjkxOCwxLjI3NyAyLjIzOCwzLjUxNiAyLjg3Nyw1LjQzNiAtMC42MzksMC4zMTggLTAuOTU5LDAuOTU5IC0wLjYzOSwxLjkxOCAwLDAuNjM5IDAuNjM5LDAuNjM5IDEuMjc5LDAuNjM5IDIuMjM4LC0yLjU1NyA1LjExNiwtNC43OTUgNy4zNTQsLTcuMzU0IC00LjE1NywtNS4xMTUgLTYuMzk1LC0xMC41NTEgLTYuNzE1LC0xNi45NDYgLTAuNjM4LC0wLjMyMiAtMC45NTgsLTAuMDAyIC0xLjU5OCwtMC4wMDIgeiBtIDU0LjY3NSwtMC4zMiBjIC0wLjMxOCwxLjU5OSAwLjY0MSwzLjE5OCAwLjY0MSw0LjQ3NyAwLDAuMzIgMC4zMiwwLjk1OSAwLjYzOSwwLjk1OSAwLjY0MSwwIDAuMzIsLTAuNjQgMC45NTksLTAuOTU5IDEuMjc5LDAgMi4yMzgsMC45NTkgMy4xOTcsMS41OTggbCAtMC42MzksMC45NjEgYyAtMS4yNzksMC4zMTggLTEuOTE4LDEuNTk4IC0zLjE5NywxLjU5OCAtMC45NTksMS45MTggLTMuODM4LDEuMjc5IC00LjQ3NywzLjUxOCAtMC4zMiwwLjMxOCAtMC42MzksMS4yNzkgLTEuMjc5LDAuNjM5IDAuNjQxLDIuODc3IC0zLjE5NywyLjU1OSAtNC4xNTYsNC40NzcgMC45NTksLTEuNiAzLjE5NywwIDMuNTE4LC0xLjkxOCAwLjYzOSwtMC42NDEgMC45NTksLTAuMzIgMS41OTgsMCAtMC4zMTgsMS41OTggLTAuNjM5LDMuMTk3IC0wLjYzOSw0Ljc5NSAtMC4zMiwwLjMyIC0wLjY0MSwxLjYgLTEuMjc5LDEuNiAwLDAgMCwwLjMyIDAuMzIsMC4zMiAwLjMxOCwtMC42NDEgMC45NTksLTEuMjc5IDEuMjc5LC0xLjYgMi44NzcsMC4zMiAwLjYzOSw0LjE1NiAyLjU1Nyw1LjQzNiA3LjAzNSwtNy4zNTQgMTAuNTUzLC0xNS42NjYgMTEuMTkxLC0yNS44OTkgaCAtMTAuMjMzIHogbSAxMS44MywwIGMgLTAuNjM5LDEwLjU1MSAtNC4xNTYsMTkuODI1IC0xMS4xODksMjcuMTc4IGwgMS4yNzksMS41OTggdiAtMC4zMTggYyAwLjMxOCwtMC4zMiAwLjk1OSwtMC4zMiAxLjI3NywwIC0wLjMxOCwyLjU1NyAyLjg3OSwzLjgzNiA0LjE1OCw1Ljc1NCA4Ljk1MSwtOS41OTIgMTMuNDI4LC0yMC43ODEgMTQuMDY4LC0zNC4yMTEgaCAtOS41OTMgeiBtIDExLjE5MSwwIGMgLTAuMzIsMTMuNzQ5IC01LjExNSwyNS41NzkgLTE0LjM4OSwzNS40OTEgbCA3LjM1NSw3LjM1NCAxLjkxOCwtMi4yMzggYyA5LjU5MiwtMTEuNTEgMTUuMDI3LC0yNC45MzkgMTUuMzQ4LC00MC42MDYgSCAxNDcgWiBtIC03NC44MTgsMC4zMiAwLjMyLDIuNTU4IGMgMC4zMiwtMC42NCAwLjMyLC0xLjI3OSAwLjMyLC0yLjIzOCB6IG0gMC45NTksNS43NTUgYyAwLjk1OSwzLjgzOCAyLjg3OCw3LjAzNSA1LjQzNiw5LjkxMiBsIDQuNDc2LC00LjQ3NyBjIDAsLTAuMzE4IC0wLjMyLC0wLjYzOSAtMC42MzksLTAuOTU5IC0yLjIzOCwtMC42MzkgLTEuOTE5LC0zLjE5NyAtNC4xNTcsLTQuMTU2IC0wLjMyLDAuNjQxIC0xLjI3OSwwIC0xLjkxOCwwLjMyIC0wLjY0LC0xLjI3OSAtMi4yMzksMC4wMDEgLTMuMTk4LC0wLjY0IHogbSA0NC40NDMsMTUuOTg4IGMgLTAuOTU5LDAuNjM5IC0yLjU1NywwLjYzOSAtMy44MzYsMC4zMTggbCAtMC4zMiwwLjY0MSBjIDEuNiwwLjYzOSAzLjE5NywwIDQuNzk3LC0wLjMyIHogbSA2LjA3Niw2LjA3NSAtMi41NTksMi4yMzggYyAwLDEuMjc5IDEuMjc5LDEuOTE4IDIuMjM4LDIuNTU5IC0wLjMyLDEuMjc3IC0wLjMyLDIuNTU3IC0xLjYsMy41MTYgMC4zMiwyLjIzOCAtMS41OTgsMy44MzggLTAuOTU5LDYuMzk1IDMuNTE4LC0xLjkxOCA2LjcxNSwtNC40NzUgOS41OTIsLTcuNjcyIGwgLTIuMjM2LC0yLjIzOCBjIDAsMC42MzkgLTAuMzIsMS4yNzcgLTAuNjQxLDEuNTk4IC0xLjI3OSwtMC4zMiAtMS41OTgsLTEuNTk4IC0xLjkxOCwtMi44NzcgMS4yOCwtMS42MDEgLTEuMjc4LC0yLjI0IC0xLjkxNywtMy41MTkgeiBtIC02Mi4zNDksNS43NTUgaCAtMC4zMiBsIC0wLjMyLC0wLjMyIGMgMCwwIDAuMzIsMC4zMiAwLjY0LDAuMzIgeiBtIDczLjUzOSwzMy41NzMgYyAwLjk1OSwwIDIuMjM4LC0wLjY0MSAzLjE5NywtMC45NTkgMTAuMjMyLC0yLjg3OSAyMS40MjQsLTMuODM4IDMwLjA1NywtMTAuNTUzIGwgMS4yNzksLTEuMjc5IGMgLTAuMzIsMS42IC0xLjI3OSwyLjg3OSAtMS45Miw0LjQ3NyAtNC4xNTYsNS4xMTcgLTkuOTEyLDcuMzU1IC0xNS4zNDgsOC45NTMgLTcuMDMzLDIuNTU5IC0xNS42NjYsMC45NTkgLTIzLjAyLDIuNTU5IGwgMy4xOTcsLTUuMTE1IDcuMzU0LC0xNS4wMjkgNi43MTUsLTcuMDMzIGMgLTEuOTIsOC42MzEgLTYuNzE1LDE2LjMwNSAtMTEuNTExLDIzLjk3OSB6IE0gNTAuMTIsMTQwLjEwNSBjIDMuODM3LDQuNzk3IDYuMzk1LDkuOTEyIDguMzEzLDE1LjY2OCAxLjU5OSwxLjkxOCAyLjU1OCw0LjE1NiAzLjUxOCw2LjM5NSAtMC42NCwwIC0xLjU5OSwtMC4zMiAtMi4yMzgsLTAuNjQxIGwgLTExLjgzLC0wLjYzOSBjIC01LjQzNiwtMC4zMiAtOS45MTIsLTIuNTU5IC0xNC43MDgsLTQuMTU2IC0zLjgzNiwtMi4yMzggLTcuNjczLC01LjQzNiAtOS45MTIsLTkuMjczIDMuMTk3LDEuNiA2LjcxNCwzLjUxOCAxMC41NTEsNC40NzcgbCAxMy40MjksMy41MTggYyAxLjkxOCwwIDMuMTk3LDEuMjc5IDQuNzk2LDEuOTE4IDIuMjM4LDAuNjQxIDQuMTU3LDEuNiA2LjM5NSwxLjkxOCAtNS4xMTYsLTcuMDMzIC0xMS4xOSwtMTQuMDY4IC0xMi4xNSwtMjIuNzAxIDEuMjc4LDAuNjQgMi44NzcsMS45MTkgMy44MzYsMy41MTYgeiBtIDQxLjU2NiwyMy45ODEgYyAtMS41OTksMS4yNzkgLTMuNTE4LDIuMjM4IC01LjExNiwzLjUxOCAtMy44MzcsLTAuMzIgLTcuNjczLDAuNjM5IC0xMS4xOSwxLjI3OSAtMTAuMjMyLDIuNTU3IC0yMy42NjEsNS4xMTUgLTMyLjkzMywtMS4yNzkgbCAtNC4xNTYsLTIuNTU5IGMgMi44NzcsMC42NDEgNS43NTUsMS45MTggOS4yNzIsMS45MTggMy41MTcsMC4zMiA3LjY3NCwwLjMyIDEwLjg3MSwtMC45NTkgbCAxMi4xNSwtMy44MzYgYyA3LjAzNCwtMS4yNzkgMTUuMDI3LC0xLjI3OSAyMS4xMDIsMS45MTggeiBtIDQ3LjY0LDIuMjM4IGMgNS40MzYsMC4zMiAxMC41NTMsMC4zMiAxNS4wMjcsLTEuOTE4IC02LjM5NSw1Ljc1NCAtMTQuNzA3LDcuNjc0IC0yMy42Niw3LjM1NCAtMTAuMjMsLTEuOTE4IC0xOS44MjIsLTUuNzU2IC0zMC42OTMsLTQuMTU2IC01LjExNywxLjU5OCAtMTAuMjMzLDIuNTU3IC0xNC4zODksNi4zOTUgLTIuMjM4LDEuNTk4IC00LjQ3Nyw0LjE1NiAtNi43MTQsNi4zOTUgYSA2LjIwNCw2LjIwNCAwIDAgMCAtMi44NzcsLTEuNiBjIDExLjgzLC0xMS41MSAyNS41NzksLTE5LjE4NCA0Mi41MjQsLTE2LjMwNyA3LjAzNCwwLjk2IDEzLjQyOSwzLjgzNyAyMC43ODIsMy44MzcgeiIvPiYjeGE7ICA8cGF0aCBzdHlsZT0iY2xpcC1ydWxlOmV2ZW5vZGQ7ZmlsbC1ydWxlOmV2ZW5vZGQiIGlkPSJwYXRoMTgiIGZpbGw9IiMxZDViOTkiIGQ9Im0gMTE2LjMwNSwxNzkuNDM0IGMgLTAuOTU5LDAuNjM5IC0xLjkxOCwwLjYzOSAtMi44NzcsMC45NTkgLTMuODM2LC0zLjgzOCAtNy4zNTQsLTcuMzU0IC0xMS41MSwtMTAuMjMyIDAuOTU5LC0wLjYzOSAxLjkxOCwtMC4zMTggMi44NzcsLTAuOTU5IDMuODM4LDMuMTk2IDguMzEyLDYuMzk0IDExLjUxLDEwLjIzMiB6Ii8+JiN4YTs8L3N2Zz4=;" parent="1" vertex="1">
          <mxGeometry x="74.5" y="449" width="50" height="50" as="geometry" />
        </mxCell>
        <mxCell id="TpiFRfA9A0kAPNdnl41Q-65" value="&lt;font size=&quot;1&quot; style=&quot;&quot;&gt;&lt;b style=&quot;font-size: 20px;&quot;&gt;EIOS&lt;/b&gt;&lt;/font&gt;" style="text;html=1;align=center;verticalAlign=middle;resizable=0;points=[];autosize=1;strokeColor=none;fillColor=none;" parent="1" vertex="1">
          <mxGeometry x="62.599999999999994" y="527" width="70" height="40" as="geometry" />
        </mxCell>
        <mxCell id="TpiFRfA9A0kAPNdnl41Q-91" value="&lt;font size=&quot;1&quot; style=&quot;&quot;&gt;&lt;b style=&quot;font-size: 20px;&quot;&gt;Ontologies&lt;/b&gt;&lt;/font&gt;" style="text;whiteSpace=wrap;html=1;" parent="1" vertex="1">
          <mxGeometry x="34.5" y="110" width="125.5" height="30" as="geometry" />
        </mxCell>
        <mxCell id="TpiFRfA9A0kAPNdnl41Q-97" value="&lt;div style=&quot;text-align: center; line-height: 150%;&quot;&gt;&lt;b style=&quot;background-color: initial; font-size: 20px;&quot;&gt;Open Web&lt;/b&gt;&lt;/div&gt;&lt;font size=&quot;1&quot; style=&quot;&quot;&gt;&lt;div style=&quot;text-align: center; line-height: 150%;&quot;&gt;&lt;b style=&quot;background-color: initial; font-size: 20px;&quot;&gt;of Data&lt;/b&gt;&lt;/div&gt;&lt;/font&gt;" style="text;whiteSpace=wrap;html=1;" parent="1" vertex="1">
          <mxGeometry x="44.06999999999999" y="240" width="105.93" height="60" as="geometry" />
        </mxCell>
        <mxCell id="TpiFRfA9A0kAPNdnl41Q-102" value="" style="group" parent="1" vertex="1" connectable="0">
          <mxGeometry x="52" y="310.81" width="62.6" height="80.19" as="geometry" />
        </mxCell>
        <mxCell id="TpiFRfA9A0kAPNdnl41Q-84" value="" style="strokeWidth=3;html=1;shape=mxgraph.flowchart.database;whiteSpace=wrap;fillColor=default;strokeColor=#006600;container=0;" parent="TpiFRfA9A0kAPNdnl41Q-102" vertex="1">
          <mxGeometry width="29.848171487354442" height="34.96229937147958" as="geometry" />
        </mxCell>
        <mxCell id="TpiFRfA9A0kAPNdnl41Q-98" value="" style="rounded=0;whiteSpace=wrap;html=1;strokeColor=none;" parent="TpiFRfA9A0kAPNdnl41Q-102" vertex="1">
          <mxGeometry x="24.44330030258907" y="23.757587092380053" width="25.28963320012724" height="30.807805036617548" as="geometry" />
        </mxCell>
        <mxCell id="TpiFRfA9A0kAPNdnl41Q-86" value="" style="verticalLabelPosition=bottom;html=1;verticalAlign=top;align=center;shape=mxgraph.azure.script_file;pointerEvents=1;strokeWidth=0;strokeColor=none;fillColor=#663300;container=0;" parent="TpiFRfA9A0kAPNdnl41Q-102" vertex="1">
          <mxGeometry x="22.15985511512283" y="21.6777523175835" width="29.848171487354442" height="34.96229937147958" as="geometry" />
        </mxCell>
        <mxCell id="TpiFRfA9A0kAPNdnl41Q-101" value="" style="rounded=0;whiteSpace=wrap;html=1;strokeColor=none;" parent="TpiFRfA9A0kAPNdnl41Q-102" vertex="1">
          <mxGeometry x="46.07843493732221" y="47.3084424981499" width="25.28963320012724" height="30.807805036617548" as="geometry" />
        </mxCell>
        <mxCell id="TpiFRfA9A0kAPNdnl41Q-87" value="" style="verticalLabelPosition=bottom;html=1;verticalAlign=top;align=center;shape=mxgraph.azure.cloud_services_configuration_file;pointerEvents=1;strokeWidth=0;fillColor=#000066;strokeColor=none;container=0;" parent="TpiFRfA9A0kAPNdnl41Q-102" vertex="1">
          <mxGeometry x="43.79498974985594" y="45.2277006285204" width="29.848171487354442" height="34.96229937147958" as="geometry" />
        </mxCell>
        <mxCell id="TpiFRfA9A0kAPNdnl41Q-117" value="&lt;div style=&quot;text-align: center; line-height: 115%;&quot;&gt;&lt;b style=&quot;background-color: initial; font-size: 20px;&quot;&gt;Other datasets&lt;/b&gt;&lt;br&gt;&lt;/div&gt;" style="text;whiteSpace=wrap;html=1;" parent="1" vertex="1">
          <mxGeometry x="44.06999999999999" y="397" width="105.93" height="60" as="geometry" />
        </mxCell>
        <mxCell id="TpiFRfA9A0kAPNdnl41Q-118" value="&lt;font style=&quot;font-size: 11px;&quot;&gt;Epidemic Intelligence &lt;br&gt;from Open Sources&lt;/font&gt;" style="text;html=1;align=center;verticalAlign=middle;resizable=0;points=[];autosize=1;strokeColor=none;fillColor=none;" parent="1" vertex="1">
          <mxGeometry x="34.5" y="487" width="130" height="40" as="geometry" />
        </mxCell>
        <mxCell id="TpiFRfA9A0kAPNdnl41Q-119" value="" style="endArrow=classic;html=1;rounded=0;exitX=0.96;exitY=0.7;exitDx=0;exitDy=0;exitPerimeter=0;entryX=0;entryY=0.5;entryDx=0;entryDy=0;entryPerimeter=0;" parent="1" source="TpiFRfA9A0kAPNdnl41Q-89" target="TpiFRfA9A0kAPNdnl41Q-51" edge="1">
          <mxGeometry width="50" height="50" relative="1" as="geometry">
            <mxPoint x="257.5999999999999" y="270.79999999999995" as="sourcePoint" />
            <mxPoint x="350" y="320" as="targetPoint" />
          </mxGeometry>
        </mxCell>
        <mxCell id="TpiFRfA9A0kAPNdnl41Q-120" value="" style="endArrow=classic;html=1;rounded=0;exitX=0.741;exitY=0.25;exitDx=0;exitDy=0;exitPerimeter=0;entryX=0;entryY=0.15;entryDx=0;entryDy=0;entryPerimeter=0;" parent="1" source="TpiFRfA9A0kAPNdnl41Q-91" target="TpiFRfA9A0kAPNdnl41Q-51" edge="1">
          <mxGeometry width="50" height="50" relative="1" as="geometry">
            <mxPoint x="280" y="240" as="sourcePoint" />
            <mxPoint x="350" y="290" as="targetPoint" />
          </mxGeometry>
        </mxCell>
        <mxCell id="TpiFRfA9A0kAPNdnl41Q-121" value="OWL" style="rounded=1;whiteSpace=wrap;html=1;" parent="1" vertex="1">
          <mxGeometry x="200" y="168.5" width="60" height="20" as="geometry" />
        </mxCell>
        <mxCell id="TpiFRfA9A0kAPNdnl41Q-124" value="" style="endArrow=classic;html=1;rounded=0;exitX=1;exitY=0.5;exitDx=0;exitDy=0;" parent="1" source="V85_4jU4u7jz_W5ndp5X-30" target="TpiFRfA9A0kAPNdnl41Q-51" edge="1">
          <mxGeometry width="50" height="50" relative="1" as="geometry">
            <mxPoint x="130" y="360" as="sourcePoint" />
            <mxPoint x="340" y="360" as="targetPoint" />
          </mxGeometry>
        </mxCell>
        <mxCell id="TpiFRfA9A0kAPNdnl41Q-125" value="&lt;p style=&quot;line-height: 90%;&quot;&gt;&lt;b&gt;E&lt;/b&gt;xtract &lt;b&gt;T&lt;/b&gt;ransform &lt;b&gt;L&lt;/b&gt;oad&lt;/p&gt;" style="rounded=1;whiteSpace=wrap;html=1;align=left;" parent="1" vertex="1">
          <mxGeometry x="200" y="318" width="60" height="47" as="geometry" />
        </mxCell>
        <mxCell id="TpiFRfA9A0kAPNdnl41Q-126" value="" style="endArrow=classic;html=1;rounded=0;entryX=0;entryY=0.85;entryDx=0;entryDy=0;entryPerimeter=0;exitX=1;exitY=0.5;exitDx=0;exitDy=0;exitPerimeter=0;" parent="1" source="TpiFRfA9A0kAPNdnl41Q-66" target="TpiFRfA9A0kAPNdnl41Q-51" edge="1">
          <mxGeometry width="50" height="50" relative="1" as="geometry">
            <mxPoint x="170" y="490" as="sourcePoint" />
            <mxPoint x="330" y="80" as="targetPoint" />
          </mxGeometry>
        </mxCell>
        <mxCell id="TpiFRfA9A0kAPNdnl41Q-127" value="&lt;p style=&quot;line-height: 100%;&quot;&gt;SPARQL&lt;br&gt;query &amp;amp; construct&lt;/p&gt;" style="rounded=1;whiteSpace=wrap;html=1;align=left;" parent="1" vertex="1">
          <mxGeometry x="199.99999999999994" y="238" width="60" height="44" as="geometry" />
        </mxCell>
        <mxCell id="TpiFRfA9A0kAPNdnl41Q-128" value="&lt;p style=&quot;line-height: 100%;&quot;&gt;Query&amp;nbsp; &amp;amp; Transform&lt;/p&gt;" style="rounded=1;whiteSpace=wrap;html=1;align=left;" parent="1" vertex="1">
          <mxGeometry x="200" y="418" width="60" height="32" as="geometry" />
        </mxCell>
        <mxCell id="V85_4jU4u7jz_W5ndp5X-15" value="" style="endArrow=classic;html=1;rounded=0;exitX=1.007;exitY=0.545;exitDx=0;exitDy=0;exitPerimeter=0;" parent="1" source="TpiFRfA9A0kAPNdnl41Q-51" target="V85_4jU4u7jz_W5ndp5X-13" edge="1">
          <mxGeometry width="50" height="50" relative="1" as="geometry">
            <mxPoint x="489" y="321" as="sourcePoint" />
            <mxPoint x="720" y="321" as="targetPoint" />
          </mxGeometry>
        </mxCell>
        <mxCell id="V85_4jU4u7jz_W5ndp5X-13" value="&lt;p style=&quot;line-height: 100%;&quot;&gt;SPARQL&lt;br&gt;query&lt;/p&gt;" style="rounded=1;whiteSpace=wrap;html=1;align=left;" parent="1" vertex="1">
          <mxGeometry x="530" y="299" width="60" height="44" as="geometry" />
        </mxCell>
        <mxCell id="V85_4jU4u7jz_W5ndp5X-16" value="" style="endArrow=classic;html=1;rounded=0;exitX=1.007;exitY=0.545;exitDx=0;exitDy=0;exitPerimeter=0;" parent="1" source="V85_4jU4u7jz_W5ndp5X-13" edge="1">
          <mxGeometry width="50" height="50" relative="1" as="geometry">
            <mxPoint x="590" y="323" as="sourcePoint" />
            <mxPoint x="630" y="323" as="targetPoint" />
          </mxGeometry>
        </mxCell>
        <mxCell id="V85_4jU4u7jz_W5ndp5X-19" value="" style="shape=image;verticalLabelPosition=bottom;labelBackgroundColor=default;verticalAlign=top;aspect=fixed;imageAspect=0;image=data:image/svg+xml,PHN2ZyB4bWxucz0iaHR0cDovL3d3dy53My5vcmcvMjAwMC9zdmciIGlkPSJzdmc2IiB2ZXJzaW9uPSIxLjEiIHZpZXdCb3g9IjAgMCA5NDMgMTAxOSI+JiN4YTsgIDxkZWZzIGlkPSJkZWZzMTAiLz4mI3hhOyAgJiN4YTsgIDxwYXRoIGlkPSJwYXRoNCIgZmlsbD0iI2ZmZiIgZD0iTTYyMiw4MWMtNTQsNTktNTUsMTQ2LTMsMTk2Yy0yNi0yNS0yNS03NywxLTEyNiBjMy00LDEzLTE1LDI3LTEwYzEsMCwyLDEsMywxYzMsMSw3LDEsMTAsMSBjMjItMSwzOC0xOSwzNy00MWMtMC0xMC00LTE4LTExLTI1YzUwLTMzLDEwNy0zNywxMzEtMTVsMSwwIEM3NjUsMTIsNjc3LDIxLDYyMiw4MXogTTc4LDQzMWMtNTQsNTktNTUsMTQ2LTAzLDE5NmMtMjYtMjUtMjUtNzcsMS0xMjYgYzMtNCwxMy0xNSwyNy0xMGMxLDAsMiwxLDMsMWMzLDEsNywxLDEwLDEgYzIyLTEsMzgtMTksMzctNDFjLTAtMTAtNC0xOC0xMS0yNWM1MC0zMywxMDctMzcsMTMxLTE1bDEsMCBDMjIxLDM2MywxMzMsMzcxLDc4LDQzMXogTTY1NCw3MjhjLTU0LDU5LTU1LDE0Ni0zLDE5NmMtMjYtMjUtMjUtNzcsMS0xMjYgYzMtNCwxMy0xNSwyNy0xMGMxLDAsMiwxLDMsMWMzLDEsNywxLDEwLDEgYzIyLTEsMzgtMTksMzctNDFjLTAtMTAtNC0xOC0xMS0yNWM1MC0zMywxMDctMzcsMTMxLTE1bDEsMCBDNzk3LDY1OSw3MDksNjY4LDY1NCw3Mjh6Ii8+JiN4YTsgIDxwYXRoIGlkPSJwYXRoNjgiIGQ9Im0gNzQwLjg4MjY0LDEwMTcuNTU1IGMgLTM2LjIzMzUzLC0zLjQyODkgLTcwLjM2NjUxLC0xNy4wOTA5IC05OS40MjU4MSwtMzkuNzk2MjggLTguMjQ3NzksLTYuNDQ0NDQgLTIzLjU3MzA5LC0yMS45MzUwNyAtMjkuOTEyNTgsLTMwLjIzNTM0IC0yNC44OTIwOSwtMzIuNTkxMiAtMzkuMjczMTIsLTc0LjkxNTQ2IC0zOS4yNzMxMiwtMTE1LjU4MzIgMCwtMjkuNDEzMjQgLTIxLjE3ODc2LC02Mi4xMzY2MSAtNTkuNTc3NTUsLTkyLjA1MzQ1IC0zOC4wMzc4NCwtMjkuNjM1NjMgLTk5LjUzMDUxLC01OS4xMDkxNSAtMTQxLjEwNjgsLTY3LjYzMjcgLTI2LjgzNTksLTUuNTAxNjIgLTUxLjA3MTE4LC00LjQ4NzQxIC02NS4yMTY5OSwyLjcyOTI0IC0yLjE4Mjc5LDEuMTEzNTggLTQuMTc0ODksMS45NjMwNSAtNC40MjY4OSwxLjg4NzczIC0wLjI1MjAxLC0wLjA3NTMgLTIuOTMyMzgsMS42MzM5OCAtNS45NTYzOSwzLjc5ODQ3IC0yNi4wODA5NSwxOC42Njc4NCAtNTYuNTI5NTUsMzAuNTUzMDUgLTg4LjQwNTM3LDM0LjUwNzg2IC0xMS4xNjQyMywxLjM4NTE0IC0zMy4wNTQyMiwxLjE4NTk4IC00NS4yNDEzNywtMC40MTE2MSBDIDkwLjI0Mjk1Myw3MDUuMzE0NjUgMjkuMzYyMzM5LDY1My40NTA1MiA4LjY1MDkxNDEsNTgzLjgzODM2IC0yLjM0OTc0NDYsNTQ2Ljg2NDU4IC0xLjg3Nzg1MDUsNTA5LjAzNTMyIDEwLjAzNTY2Miw0NzIuODMwNDEgMzEuMDUwMTUyLDQwOC45Njc4NSA4My40NzkxNDgsMzYxLjgwMTIgMTQ4LjU3NzEzLDM0OC4xOTQ0OSBjIDI5LjkxNzgxLC02LjI1MzM5IDYwLjcyODU3LC00Ljg5NjA1IDkwLjEzNjQ1LDMuOTcwODggMTEuMjE3MDksMy4zODIxMyAyNy4xMjQ2MSwxMC4xMjM5OCAzNS4yODAxMywxNC45NTIyNyA0LjI2NjA0LDIuNTI1NjIgNy42NDIyOSwzLjg1Mzk4IDEwLjA4MDAzLDMuOTY1OTQgMi4wMTYwMSwwLjA5MjYgNy4xNzA1NywxLjE3MTQ5IDExLjQ1NDU5LDIuMzk3NTkgNy4xMTYzMSwyLjAzNjcxIDkuMzcyMTksMi4yMjU1IDI2LjExNjQ1LDIuMTg1NzUgMTkuNTYzNzEsLTAuMDQ2NSAyNi4yOTc3OSwtMS4wMDU0NyA0NC44ODc4MiwtNi4zOTI2NSAyOS4xOTAzNCwtOC40NTkwMyA2Ni4zMDk0OCwtMjcuNTI5NTkgMTAxLjk2MjU3LC01Mi4zODQ5NCAyNC44Mjc2NiwtMTcuMzA4NDYgNDkuMzQ2MDIsLTM5Ljc0MjYxIDYxLjkwMzMsLTU2LjY0MTEzIDEwLjU2NDU1LC0xNC4yMTY4NiAxNy45OTI5NSwtMzEuNTA4NDIgMTguMDMzNTgsLTQxLjk3Nzg3IDAuMDA4LC0yLjA2NzY4IDAuMzgzNDEsLTMuMjYxODYgMC45MjA5MywtMi45Mjk2NSAwLjU4ODk3LDAuMzYzOTkgMC42NjkzNiwtMS40NjYxMSAwLjIyOTA5LC01LjIxNTA0IC0xLjE0NjM1LC05Ljc2MTM2IC0wLjc2MDc2LC00Ni4zMzMyNyAwLjU2ODEyLC01My44ODUwOCAxMy44MjUzNywtNzguNTY3MTMzIDcxLjgxNzUyLC0xMzcuNzExNzc1IDE0OS40OTU5NCwtMTUyLjQ2NjkwOTYgNDUuMzE1MjgsLTguNjA3NzA1MiAxMDAuMjY3NzIsMC41NDAyMzIzIDEzNi45OTY4NiwyMi44MDU4ODE2IDQ5LjEyODY4LDI5Ljc4MjQwNCA4MS45NzE1OCw4MS4yOTYyNjggODguNDk4NjgsMTM4LjgwOTY1OCAxLjcyNzcyLDE1LjIyMzY1IDAuNjE2NTMsNDEuNzc5MDEgLTIuMzM5NjcsNTUuOTEzNDIgLTExLjIyMzUyLDUzLjY2MjU5IC00Mi4wMjY0NCw5Ny4yODE2NCAtODcuNTMzNTYsMTIzLjk1MzU1IC0xMi45NDg4NSw3LjU4OTM3IC0xNS4wMDYzMyw5LjE3ODE1IC0yMC4wODA1NCwxNS41MDYxOCAtNS41NTg2OSw2LjkzMjIyIC0xMy42MTkzNiwyMi44MjE3NSAtMTcuMzQ1MzEsMzQuMTkxOCAtNS40MDIwMiwxNi40ODQ3MiAtOS4yNjE1NiwzNy42MDIxNSAtMTEuMjIxMiw2MS4zOTY1OCAtMS40NDM0NiwxNy41MjcwMiAtMC41ODM4LDc0LjQxMTgxIDEuMzkxNzgsOTIuMDk0ODcgNS44MzU4Myw1Mi4yMzU1NCAxNi44MDg4Niw4NS4xODQ4NyAzNC42OTY4OSwxMDQuMTg2MzIgMi40NjQ4NiwyLjYxODI4IDQuMjE4MzMsNS4xODY0MiAzLjg5NjYsNS43MDY5OCAtMC4zMzkxMywwLjU0ODc0IDQuNTAxOTMsMy40NjA0OSAxMS41MTk5Nyw2LjkyODk0IDg1Ljg2NDU0LDQyLjQzNTggMTI2LjE1NzE5LDE0MS42NjU5NCA5My44MDkzNSwyMzEuMDI4MTMgLTE0LjAzMTMyLDM4Ljc2MjA4IC00Mi40NDYxNyw3My4zNTA2MyAtNzcuODAzMDcsOTQuNzA3MiAtMzQuMjcwNzcsMjAuNzAwNDQgLTc0Ljc2Mjc1LDMwLjE5Mzk0IC0xMTMuMjUwMjcsMjYuNTUxODQgeiBtIC05My4xMjEzMiwtOTcuMjkzNTMgYyAtMC4zNzIwNCwtMC42MzAwMSAtMS41ODgsLTIuMzgyNTYgLTIuNzAyMTYsLTMuODk0NTYgLTMuMzQ3ODUsLTQuNTQzMzYgLTcuNTU5OTYsLTEzLjY0NDQgLTkuNjE1MTIsLTIwLjc3NTMgLTIuNDY2NzIsLTguNTU4ODUgLTMuNDMwNjcsLTMwLjAzMTM3IC0xLjg0OTYyLC00MS4yMDE0OSAzLjEyMDU0LC0yMi4wNDY4NyAxNC44Nzg3MywtNTMuNTIyMzkgMjIuNDkwOTEsLTYwLjIwNTk3IDcuNTQ2NTEsLTYuNjI1OTIgMTQuNjEwMzMsLTguMTU5NzMgMjQuMzExMjUsLTUuMjc4ODcgMTUuNzk0NDYsNC42OTA0NSAzMy44MDg5OSwtMi4zMTgwOSA0Mi45NDM3LC0xNi43MDcyMiA3LjgwMjQ4LC0xMi4yOTA1NyA3LjY4MDgyLC0zMi4zNTI5NCAtMC4yNTkzMywtNDIuNzYzIC0zLjc1OTcsLTQuOTI5MjMgLTMuMjE3NTUsLTYuMjk3MTMgNC4yMTY2MiwtMTAuNjM4OTIgMTUuMTE2MSwtOC44MjgyOCAzMi40MjY4MiwtMTUuNzU3NTEgNDkuMzIzMzgsLTE5Ljc0MzQ0IDEzLjMxMzYyLC0zLjE0MDcgMzQuNzkyODQsLTMuOTczNTMgNDUuODQ3MTEsLTEuNzc3NjUgOC4zMDkxNywxLjY1MDU4IDE5LjUwMDc2LDYuNDA0NzIgMjQuMDEwODUsMTAuMTk5NzIgMS41MjA4NCwxLjI3OTY5IDMuMDIyMjIsMi4wNjk2NyAzLjMzNjQsMS43NTU0OCAwLjc4MzU5LC0wLjc4MzU5IC02LjI2MDg2LC02Ljc3OTEyIC0xNC41NDY4NywtMTIuMzgwODYgLTE5LjkyOTgzLC0xMy40NzM1IC00My4wNDkzNiwtMjAuMzI5MzMgLTY4LjcyNzUyLC0yMC4zODAzNyAtMjQuMzA0MiwtMC4wNDgzIC00NC42Nzk0MSw1LjAzMzI5IC02Ny44MTExNSwxNi45MTIxMiAtNDIuNzE5MTgsMjEuOTM3NTcgLTcyLjk3ODM1LDYxLjUzNDc2IC04My41NjcyOCwxMDkuMzU2MjcgLTIuNzYyMjQsMTIuNDc0NzUgLTMuMDExNDQsNDIuNTIxMTYgLTAuNDUyMjMsNTQuNTIzODMgNC44NjQ1OCwyMi44MTQ3NiAxNC40ODM1Nyw0Mi43OTYyMSAyOC4zNDI5NSw1OC44NzY1NyA0LjMwMTIxLDQuOTkwNDUgNi4yMDQzNCw2LjY1NzQxIDQuNzA4MTEsNC4xMjM2NiB6IE0gNjIzLjEyOTUsNjk1Ljk0NTM4IGMgOS4yNDA2NywtMS4zMTg2MyAxMS44MTg0OCwtMi4zNjY0MSAxNy4xOTU2MiwtNi45ODkzNCA3LjIyOTc2LC02LjIxNTcyIDIyLjc4ODk4LC0xNi4zODUgMzIuNjYzNTMsLTIxLjM0ODQyIDYuNzcyMDYsLTMuNDAzOTYgMTAuMDYxODEsLTUuNzU0MjIgMTQuMzM5MDcsLTEwLjI0NDA5IDIzLjcwMjA2LC0yNC44ODAyNiAzNi4xNzc0NiwtNzAuMDIxMTEgMzYuMTI5NzgsLTEzMC43MzE1NyAtMC4wNTE0LC02NS40OTc0OCAtMTEuNDg2MTksLTExOS44NzgzNiAtMzEuNTIwMzksLTE0OS45MDM0MSAtNy4xOTcxNCwtMTAuNzg2MjkgLTkuMTM5MTgsLTEyLjMyODE5IC0yMC4wMDUwNCwtMTUuODgzMjggLTkuNTA1OTgsLTMuMTEwMTUgLTMxLjY2MTMzLC0xMy43MzQ5MiAtMzkuMTIzODEsLTE4Ljc2MjExIC0xMS41MjQ0MSwtNy43NjM1OCAtNDAuMDA2NDUsLTYuNzQ5NjMgLTcwLjM1ODU4LDIuNTA0NzMgLTUwLjM2NDE1LDE1LjM1NjAxIC0xMjQuMDc3NDIsNjAuNDYyMjIgLTE2MS4xNDczNiw5OC42MDgzNiAtMjMuMDI4ODksMjMuNjk3NDcgLTMzLjUzMzM4LDQ1LjA1ODA2IC0zMC40OTk2NSw2Mi4wMjAyMyAwLjUxMTUyLDIuODU5OTMgMS4wMjQ0MywxNC4yNzE5MiAxLjEzOTgyLDI1LjM1OTk2IGwgMC4yMDk3OCwyMC4xNjAwNyAzLjA5NzA3LDcuMzEwODcgYyAxNC40Njk3MywzNC4xNTY5MSA2MC4zMDUzOSw3Mi43MzUwMiAxMjQuNzcyMDYsMTA1LjAxNTgxIDQ5Ljg2OTI1LDI0Ljk3MTM0IDk0LjY3NjQzLDM2LjkzOTM0IDEyMy4xMDgxLDMyLjg4MjE5IHogTSA2OC43OTI0MDEsNjE4Ljc3Njc1IEMgNjAuMjM2NzM4LDYwNi41MTg1NCA1Ni44MjI2OCw1OTMuNjIxNDYgNTYuODQ1NTAyLDU3My42NDU2OCBjIDAuMDIzMTcsLTIwLjI3ODkyIDMuOTQ5NDE0LC0zNy43NTA2NCAxMy4zNjEwNTgsLTU5LjQ1NjQ1IDQuNzQ5MDkyLC0xMC45NTI3IDcuNDcxOTE5LC0xNS40MTYwNiAxMS4wNzU1OTUsLTE4LjE1NTUyIDcuODQxNzkzLC01Ljk2MTIxIDEzLjI0MjA5LC03LjAzNDQ0IDIyLjI2NDM5NSwtNC40MjQ3MiAxMC41MjMyMywzLjA0Mzg4IDE5LjI5OTIxLDIuMTQ4MjcgMjkuNDQwMzcsLTMuMDA0NDcgMTkuMDg5NzIsLTkuNjk5NTMgMjYuNDMzMTcsLTM2LjY1NDIyIDE0LjkyNTQ2LC01NC43ODUwMiAtNC40NzYwMywtNy4wNTIxMyAtNC4wNjUwMywtNy44ODQ5NCA2LjkwMjg3LC0xMy45ODcxNyAxNy4yMzM3MiwtOS41ODgzNiAzNi4yMTE2MSwtMTYuMzU0MDUgNTQuNDA4MzEsLTE5LjM5Njc1IDEzLjI2ODY5LC0yLjIxODY5IDM0LjU4MDc2LC0xLjU0ODczIDQzLjY5MzcxLDEuMzczNTUgNy44MDc0OSwyLjUwMzY0IDEyLjYzMjksNC44ODQyNSAxNy4yMjQxMyw4LjQ5NzQ4IDQuMzE2MTgsMy4zOTY3NiA1LjY1NzU5LDIuNjI2NDIgMS41MzU5LC0wLjg4MjAzIC0xNy45NTg0MywtMTUuMjg2NTQgLTM3LjgxNTMxLC0yNC4zNjg5NSAtNjEuODI5MjgsLTI4LjI4MDMzIC0xMi4yODQyNSwtMi4wMDA4NSAtMzUuNjAzNSwtMS4zMjUzOSAtNDguMzQ4NzEsMS40MDA0NiAtNDcuNjg4MDUsMTAuMTk5MTkgLTg4LjEzOTEzNCw0Mi4xMzc0IC0xMDkuNzI3MDQ5LDg2LjYzNTE1IC0yMi41NTY2NzUsNDYuNDk0NTkgLTIwLjEwNTE0Myw5OS4wNjcyMyA2LjQ1NTA3MSwxMzguNDI3NzYgMy44MjAzNCw1LjY2MTUgMTMuMjgwMjMsMTYuODk2NDMgMTQuMjI2OTE0LDE2Ljg5NjQzIDAuMTg0NTQ4LDAgLTEuNDYzMjgzLC0yLjU3NzI5IC0zLjY2MTg0NSwtNS43MjczIHogTSA2MTMuNjM5MjgsMjcwLjE1OTg4IGMgLTQuMzcyMjMsLTUuNDU3OTggLTkuMzM4MjQsLTE3LjIwODMxIC0xMS4zMzEyMywtMjYuODExNDkgLTEuNTM5MiwtNy40MTY1NSAtMS43NDA2MSwtMTEuMDA0ODUgLTEuMzE0NTYsLTIzLjQyMDMzIDAuNzEzNjEsLTIwLjc5NTg3IDQuODcyMDIsLTM3LjU5MjkxIDE0LjQwNTgsLTU4LjE4OTMgNS4yNjU5NCwtMTEuMzc2MzIgNy43MTQwMywtMTQuNjg1OTYgMTMuMjcyNDksLTE3Ljk0MzQ0IDYuNTU2NjYsLTMuODQyNDUgMTAuMTczOTYsLTQuMjg5OCAxNy45NTQ2NCwtMi4yMjA0NSAxNS45Nzk3Myw0LjI0OTk3IDI5LjkzMjMsMC40MjM2MiA0MC42NDM4OSwtMTEuMTQ2MTcgMTEuNjkxMjIsLTEyLjYyNzkyIDEzLjU1NzQsLTM0LjMzNTg5MSA0LjA3Njg1LC00Ny40MjMzOTggLTEuNDgzNTgsLTIuMDQ4MDMzIC0yLjY5NzQzLC00LjUyMjEzOSAtMi42OTc0MywtNS40OTgwMTYgMCwtMi4xNDU4MzIgNi43ODM2MiwtNi40MzY5MSAyMC4zMTE0NCwtMTIuODQ4MzA4IDIxLjUyOTE3LC0xMC4yMDM1NjYgMzguNzAwMSwtMTQuNjM5NzcyIDU5LjQ3ODA5LC0xNS4zNjY1MDQgMjAuNTk4MywtMC43MjA0NDggMzIuNTAyMzYsMS45NDgwNCA0NC4xNDkwOSw5Ljg5NjczMSA3LjIyNDU5LDQuOTMwNjUgNi42NDA5LDIuOTMwMTU2IC0wLjkxNjM2LC0zLjE0MDY4NCAtMjIuMjYxMiwtMTcuODgyNzA5IC00Ny4zMzQxNCwtMjYuNTEyMDM3IC03Ny4yMDM5MSwtMjYuNTcxMTk5IC0xNC4yNTU2LC0wLjAyODIzIC0yMS43NDc0OCwwLjkyODc5IC0zNi4xOTY1LDQuNjIzODAzIC01MC4wNzYzLDEyLjgwNTg5NCAtOTMuMzM5NTUsNTMuNDA2MTgzIC0xMDkuOTg1MiwxMDMuMjE1MzE1IC00Ljg5NDMzLDE0LjY0NTQxIC02Ljg1NjAyLDI1LjY0MDcxIC03LjQ2MzU0LDQxLjgzMzI5IC0xLjI4OTQ5LDM0LjM2OTcxIDguNzU0NCw2NC40ODAxNyAyOS44OTI3MSw4OS42MTQ4NiA1LjE0NjExLDYuMTE5MDQgNy42NzQzMyw3LjMyNTU4IDIuOTIzNzMsMS4zOTUyOSB6IiBzdHlsZT0iZmlsbDojNTUwMDAxO3N0cm9rZTpub25lO3N0cm9rZS13aWR0aDowO3N0b3AtY29sb3I6IzAwMDAwMDtzdHJva2UtbWl0ZXJsaW1pdDo0O3N0cm9rZS1kYXNoYXJyYXk6bm9uZTtmaWxsLW9wYWNpdHk6MTtzdHJva2Utb3BhY2l0eToxIi8+JiN4YTsgIDxwYXRoIGlkPSJwYXRoMjQ3IiBkPSJtIDczOS45NzEyMywxMDE2LjY5MzQgYyAtNjIuMzk0NjQsLTYuNTM3MSAtMTE3LjUzMDUsLTQzLjU1NjgzIC0xNDUuMTc1NTIsLTk3LjQ3NDg1IC0xMy4yOTkzMywtMjUuOTM4NjEgLTE5Ljg3OTAxLC01MS4xMTk5IC0yMS41Njk3NSwtODIuNTUwMjUgLTEuMzcwMTUsLTI1LjQ3MDg3IC02LjQ1ODEzLC0zOS4yMzMxNyAtMjIuMjU1MjgsLTYwLjE5NzU3IC0yNC45NTIwOSwtMzMuMTEzOTEgLTc2LjM2ODIxLC02Ny44MDA1NyAtMTM0Ljk0MDEsLTkxLjAzNDEgLTM5LjY1NTcsLTE1LjczMDEgLTcxLjE0NTg4LC0yMC43NDI0NSAtOTcuMDY4NDgsLTE1LjQ1MDU2IC04LjcyNTA0LDEuNzgxMTUgLTE1LjU5MTI4LDUuMDE4MjEgLTI4LjQ3Mzc5LDEzLjQyMzg0IC0yMi41MDI3MSwxNC42ODI2NiAtNDQuNDY4MDcsMjMuNjE2MDUgLTcxLjY0MzY4LDI5LjEzNzczIC0xMS43NzQwNiwyLjM5MjMzIC0zNi40NDEyLDMuMjg0MDEgLTUxLjA5NzY1LDEuODQ3MTEgQyA5My4yMTY3NzMsNzA3LjA4NzkxIDI5LjAzMTMxMSw2NTMuMjE0MDYgOC43MzM1NzIzLDU4MC45MjczNiAzLjc3ODgzNiw1NjMuMjgxOTggMS45ODYxNjg0LDU0OS45MDA2NyAxLjk4ODE1OTQsNTMwLjU3NjQ0IDEuOTkwMTY1Myw1MTEuMTA5MDYgMy4zMTUxNzQyLDUwMC40NzMyMSA3Ljg2NzM4OTksNDgzLjM4Mzg1IDIzLjUwMjIxNiw0MjQuNjg5NTEgNjUuOTMxMTQ0LDM3Ny43MTU3OCAxMjIuMzM0OTgsMzU2LjY1NDk5IGMgMTAuMjUyNzEsLTMuODI4MjkgMjMuNTM1OTcsLTcuMzAxMzcgMzYuMjM1ODUsLTkuNDc0MzEgMTQuMTg0NzMsLTIuNDI3MDEgNDEuNDM2MDcsLTIuMTkwNCA1Ni43MjA5NCwwLjQ5MjQ5IDE5Ljc4NTA3LDMuNDcyNzggNDAuMDU2MjUsMTAuMzE0OSA1NS45NTI4MywxOC44ODU3MSA1LjAxODMxLDIuNzA1NjggMTAuNjU1MzQsNC43NTczOCAxNy44NjkxNiw2LjUwMzgxIDkuNDY5MjYsMi4yOTI0NiAxMi41MTI0OSwyLjU4NDQ5IDMwLjAwMTQzLDIuODc5MDEgMTQuNTAyNTYsMC4yNDQyMyAyMS41MTUwMywtMC4wMjYzIDI3LjUxMzU0LC0xLjA2MTUgNDguNzE4MTIsLTguNDA3MzYgMTIxLjczMDAyLC00OS43MjAyNCAxNjYuMTI0ODksLTkzLjk5OTY5IDE0LjkzNTY5LC0xNC44OTY4NiAyMi4zMDgyOSwtMjQuNjA4NTUgMjguODgwNDUsLTM4LjA0MzI4IDcuNTc0MzYsLTE1LjQ4MzQgNy44NTU5NCwtMTcuMjY0MDMgOC4xODczMywtNTEuNzc0NzMgMC4yODYxMywtMjkuNzk4MDMgMC43MzY1MiwtMzUuMDU0NTUgNC4xNzAwMSwtNDguNjY4NjcgNC44NTQ3NiwtMTkuMjQ5NiAxNC41OTMwNSwtNDEuNjY2NTUgMjQuOTUyODEsLTU3LjQzOTg0OSAyNC4xNzc1OSwtMzYuODExNzIzIDYwLjYyODY4LC02My43NzQ1ODQgMTAyLjUxNTkyLC03NS44MzA5OTUgNDMuMzMyODIsLTEyLjQ3MjQ5NTEgOTIuNjUyOCwtOS40ODQ0MzE1NSAxMzQuNzgxMDYsOC4xNjU3NDYgMjQuMjE5MjIsMTAuMTQ2OTUyIDQ4Ljk1NjAyLDI4LjkyNDk0MiA2Ni44MzQ2OCw1MC43MzQ5OSAyNi42MzA5MSwzMi40ODY4MjggNDIuMDA0NjcsNzQuNjEzMTI4IDQxLjk5MzQsMTE1LjA2NzUwOCAtMC4wMDksMzAuODYwNjQgLTUuNzM4MTEsNTYuODkzMDggLTE4LjE5MTM1LDgyLjY1NTE3IC0xNi44MzcwNywzNC44MzA4MiAtMzguMTA0NzYsNTcuODMzMjQgLTc0LjAxMDIxLDgwLjA0Njk3IC0xMi4zNjI1LDcuNjQ4MzUgLTE2LjUzNDQ1LDExLjQwOTggLTIxLjgwNTY4LDE5LjY2MDEzIC0yMC41NjI1NSwzMi4xODM3NSAtMjguMjkzNDMsNzguOTU3NDIgLTI1LjM5ODc1LDE1My42NjgzNSAxLjI1NjQ3LDMyLjQyOTMzIDMuNjMxMzMsNTEuNzQ0NTYgOS4yOTUyNSw3NS42MDAyNyA1LjQ1NjYzLDIyLjk4MjY2IDE0LjE0OTE1LDQyLjg0MDM5IDIzLjgxMDY0LDU0LjM5NDUyIDIuNzk4ODYsMy4zNDcxNCA1Ljk3NDc3LDcuMzQxNiA3LjA1NzYxLDguODc2NTkgMS4yNDcsMS43Njc3MiA1LjQzODI4LDQuNTk2ODkgMTEuNDMyNSw3LjcxNzA2IDIwLjM2MTMxLDEwLjU5ODcgMzIuNzIyMTYsMTkuMzY4OTcgNDcuODA5NTcsMzMuOTIxODYgMTcuMDYxNSwxNi40NTcwNCAyOC40NzM5MSwzMi4yMzI4OCAzOC41OTYzNiw1My4zNTMzMSAyNy40MTQxMiw1Ny4xOTk0MSAyNC4xNjA4NCwxMjIuNDM0MTUgLTguNzk4NzcsMTc2LjQzMzQ0IC0xNC41NjA0NSwyMy44NTUwNSAtMzcuODk3NDksNDYuODk4MjkgLTYyLjI2NzYzLDYxLjQ4MzU1IC0yMC4yMTczNSwxMi4wOTk3NSAtNDQuNTcwOTUsMjAuODA3NzUgLTY4LjQ4MDAyLDI0LjQ4NTk1IC0xMS4xMDIxMSwxLjcwNzkgLTMzLjg3NjE5LDIuMzgxMSAtNDQuMTQ3NTcsMS4zMDUgeiBtIC05MS4zMzI2NywtOTYuNDk1MjYgYyAtMC4zNTA1MSwtMC41OTUxOCAtMS41ODcyLC0yLjM0ODgzIC0yLjc0ODE5LC0zLjg5Njk0IC0zLjIzMTI1LC00LjMwODc1IC04LjM3Nzk0LC0xNi4wNDM4OCAtMTAuMDkxMiwtMjMuMDA5MjggLTIuMjgxMzQsLTkuMjc0OTEgLTIuMjY4MDcsLTM2LjUwNjU5IDAuMDIyOSwtNDcuMDI3MDggNC4zNjIzNSwtMjAuMDMyNTQgMTQuMzc2MDQsLTQ0Ljg3NjcxIDIwLjU5NDM3LC01MS4wOTUwMyA2LjU5NTc5LC02LjU5NTc5IDEzLjE0ODE1LC03Ljg3Mjk3IDI2LjEwNTcxLC01LjA4ODU0IDYuMTM1NzEsMS4zMTg1IDguMTUxMTUsMS4zODQ3NCAxMy42MTY2OSwwLjQ0NzUgMjEuNjMzNTcsLTMuNzA5NzQgMzUuMDE2MTYsLTIxLjEzMDYxIDMzLjQ4MTI4LC00My41ODQ0NiAtMC4zOTgxOCwtNS44MjQ5MSAtMS4xMzA4NCwtOC41MTQzNCAtMy43NzkzOCwtMTMuODczMzEgLTEuODA3LC0zLjY1NjIxIC0zLjI4NTQ1LC03LjQ4ODExIC0zLjI4NTQ1LC04LjUxNTMzIDAsLTUuMjI1NjQgMzYuNDI2MDcsLTIxLjIyMjM2IDU3LjczMTExLC0yNS4zNTI5NSAxMC41MzY2NiwtMi4wNDI4NCAzMC44MDY1NCwtMi44MDkyMSAzOS4yNjAyLC0xLjQ4NDM4IDguMTY5ODYsMS4yODAzNiAxOS42ODM0NCw1LjU5NTczIDI0Ljc4MDE3LDkuMjg3NzggMy42MzQ0NywyLjYzMjggNi41MTk4OCwzLjUwNjkxIDYuNTE5ODgsMS45NzUxMyAwLC0yLjQ3Nzk4IC0xNi44MDI3OCwtMTQuNDk3ODMgLTI4LjQwNzM3LC0yMC4zMjExOCAtMTcuMDc0NjMsLTguNTY4MjkgLTM1LjcyMzM1LC0xMi44NDE5MiAtNTYuMDE1OTksLTEyLjgzNjg5IC0yMy40NjU0MywwLjAwNSAtNDEuNTUxNjEsNC4yMjg3NCAtNjQuMDUwMDQsMTQuOTU1MDEgLTQ1LjMwODExLDIxLjYwMDk1IC03OS43ODY4OCw2Ni40NzkxNCAtODguNDc5NDYsMTE1LjE2NjUgLTEuOTE0ODcsMTAuNzI1MjUgLTEuOTAxMTUsNDAuODgyNjQgMC4wMjMyLDUwLjg1ODM3IDQuMTYyNDMsMjEuNTc4NDMgMTUuMzc5NzEsNDQuNzI4ODIgMjkuNDE5MjgsNjAuNzE1OSAyLjMyNjg2LDIuNjQ5NjggNC42MTUxOCw0LjU3OTkxIDUuMDg1MTUsNC4yODk0MiAwLjQ2OTk2LC0wLjI5MDQ4IDAuNTY3NjksLTEuMDE1MDUgMC4yMTcxOCwtMS42MTAyNCB6IE0gNjIxLjc3NTMxLDY5Ni44NDAyIGMgOS42NzA4MiwtMS4yMTI2MiAxMy4wOTMyNSwtMi43MzAzNSAyMi45MTQyOSwtMTAuMTYxNzQgOC4zNzkyOSwtNi4zNDA0MyAyMC42MDA2LC0xNC4xMDY2MyAzMC4xNzkxNSwtMTkuMTc3NzcgMjQuMTYxMzIsLTEyLjc5MTYyIDQxLjEwNzc5LC00OC44MjMzNSA0Ny4zNzQzOSwtMTAwLjcyNzc2IDIuMjI1MzYsLTE4LjQzMjA5IDIuMjEwMzMsLTYzLjY4OTk1IC0wLjAyODYsLTg2LjEzODQ5IC0yLjg4NDg4LC0yOC45MjQ4OSAtNy43MzI2OSwtNTIuOTI4OTIgLTE0LjgwNTQ0LC03My4zMDkzNSAtNi4wODgwNSwtMTcuNTQyOTcgLTE4LjE0MTI5LC0zOC4zODc1OCAtMjQuNjcxNTEsLTQyLjY2NjM1IC0xLjI0Mjg4LC0wLjgxNDM2IC02LjAyMDI2LC0yLjg3ODc0IC0xMC42MTYzOSwtNC41ODc1MSAtOS42Mjc5NiwtMy41Nzk1MiAtMzEuNDM0ODUsLTEzLjkwNjE2IC0zNy41MTg1NCwtMTcuNzY2ODggLTExLjY3NDc5LC03LjQwODg1IC0zMC45MzQ4NiwtOC4xNTQwOCAtNTcuNTgyMiwtMi4yMjgwNSAtMzIuMDYxMDEsNy4xMjk5OCAtNzMuNjcwNDcsMjYuNjUwODYgLTExNS41NDkzOSw1NC4yMDk0NiAtNDkuMTU2NzcsMzIuMzQ3ODEgLTgxLjE5MDc0LDY1LjAzNDQ5IC04OS40OTMzLDkxLjMxNjc3IGwgLTIuMzMxNDIsNy4zODAyMSAxLjA3ODQxLDI5LjMzNTA3IGMgMS4wNzQzMSwyOS4yMjM1NiAxLjA4ODY0LDI5LjM2IDMuNzY5NjIsMzUuODk0MTUgMTQuMDM3NjcsMzQuMjEyODkgNjMuMDg3NTgsNzUuMDQ1NTQgMTI4LjU5MTA2LDEwNy4wNDgzOCAzNC43NzIxNiwxNi45ODg1NCA2Ni4wNTkyLDI3LjY1NDEyIDg5LjgwMzk2LDMwLjYxMzY4IDQuNTM2MDEsMC41NjUzNyA5LjI3ODIxLDEuMTc2ODYgMTAuNTM4MjIsMS4zNTg4NyA0LjcxOTI4LDAuNjgxNyAxMC44MjA3MywwLjU1MTExIDE4LjM0NzcsLTAuMzkyNjkgeiBNIDY5LjgxNTUyMyw2MTguODY2OTMgYyAtNy44NTE2NTksLTEyLjMwMTM2IC0xMC40NzcxODIsLTIwLjM2OTk3IC0xMS41ODQwMywtMzUuNTk5MzkgLTEuNzAzMDY0LC0yMy40MzI5MSAyLjQ1MTIzMywtNDUuMTg5OTcgMTMuNDA5NDIsLTcwLjIyODQgNC4zMjc4MzksLTkuODg4NzEgOC4zODYyMzIsLTE1LjQ0ODUyIDEzLjY1MjQ0NCwtMTguNzAzMjIgNS41NjMzMzEsLTMuNDM4MzIgOS4wNjQ5MzQsLTMuNzM2NTYgMTkuMTcyNDczLC0xLjYzMjk1IDcuODExNzcsMS42MjU4MiAxMC4wOTM0OSwxLjc2NTA1IDE1LjQ2NjM2LDAuOTQzOCAxNC45MDUwMSwtMi4yNzgyNCAyNi44OTUzOSwtMTIuMjU3NyAzMS43Nzc2MywtMjYuNDQ4MTUgMy45NjM3NywtMTEuNTIwOTMgMy4xMjczMSwtMjEuODY5NiAtMi42MzgxMiwtMzIuNjM4NTcgLTIuNjExMzIsLTQuODc3NTcgLTMuMTE2NTEsLTYuNTUxMjIgLTIuMzUxMTMsLTcuNzg5MTIgMS41ODQ3NCwtMi41NjMxMyAxMi44Njk3OSwtOC45OTc4OCAyNC4zMDQzNSwtMTMuODU4NCAxOS43MjU1LC04LjM4NDc4IDM0LjI5MTE4LC0xMS45NTc5MyA1MS42NTIyNCwtMTIuNjcwOTcgMTkuOTE5NTUsLTAuODE4MTQgMzMuNTIzMjEsMS45Mjk3OSA0NC40MjAxMyw4Ljk3MjgxIDMuMDcxMDQsMS45ODQ5MSA1Ljk4MjE2LDMuNjA4OTIgNi40NjkxNSwzLjYwODkyIDUuMDIzOTEsMCAtMTEuMDEwMDgsLTEyLjU3NTE3IC0yNS41Njk5NiwtMjAuMDU0MDggLTM4LjMxMjcyLC0xOS42Nzk5IC04NC42ODk0MSwtMTguMTk0MSAtMTI3LjQzMTQsNC4wODI1OSAtMTQuMjc2MjMsNy40NDA2NCAtMjUuNzM1MzkxLDE1Ljk2OTI2IC0zOC4wOTIwNTgsMjguMzUwNDkgLTEyLjkzMDM3NywxMi45NTYwOSAtMjEuMDg5MTY1LDI0LjA4NTQxIC0yOS4yMTY0OTIsMzkuODUzOTIgLTI0LjU5Njc1Niw0Ny43MjIyMSAtMjMuMjc4NDU1LDEwMS4zNjc3NSAzLjQ3NjY5NSwxNDEuNDc2OTMgNS41OTgxNyw4LjM5MjMzIDE1LjQxNDU0NywxOS42MjI5MSAxNS44OTQxODUsMTguMTg0IDAuMTc0MDAyLC0wLjUyMjAxIC0xLjA5MTM0NywtMy4xNTQ2IC0yLjgxMTg4NywtNS44NTAyMSB6IE0gNjE1Ljc1Njc1LDI3MS45MzE4OCBjIC0wLjg5NDk0LC0xLjM4NjAxIC0yLjU5OTUxLC0zLjk2MzI5IC0zLjc4NzkzLC01LjcyNzI5IC0zLjA1NTg1LC00LjUzNTg1IC03LjIwOTA1LC0xNS43MTk2NyAtOC45MTg1NCwtMjQuMDE2IC0zLjY3MjQ1LC0xNy44MjI3OSAtMC4xMjA1LC00Ny4zODk0NCA4LjI0OTI5LC02OC42NjczNyA3LjYxNjI4LC0xOS4zNjIzNyAxMi41Njg3OCwtMjYuODI2MzMgMjAuMDU2ODksLTMwLjIyNzk0IDQuNTgxNjQsLTIuMDgxMjkgOC41MDc5LC0yLjEyNTUzIDE4Ljk1ODIsLTAuMjEzNjIgOS43NjcyNSwxLjc4NjkzIDE3LjM3OTc4LDAuOTE2MiAyNS4xMjY3OSwtMi44NzQwNiA2LjE0NTk4LC0zLjAwNjk1IDEzLjQ3NjAyLC05LjU2NDcxIDE2LjU0NTQsLTE0LjgwMjIzIDcuNjA1MjUsLTEyLjk3NzM3IDcuNzg2ODQsLTMxLjk5NzY3IDAuNDA0NDksLTQyLjM2NTI0IC0zLjEzNzUyLC00LjQwNjIzNSAtMi41Mzk5NSwtNi44NDE4NDkgMi40NjY5MSwtMTAuMDU0NzQyIDExLjc5NDk1LC03LjU2ODc5NyAzNS44MzY4NiwtMTcuMDQzMTI2IDUxLjg0NTM4LC0yMC40MzA5OTIgMTIuNzE5NzMsLTIuNjkxODY2IDM5LjI4OTgsLTIuOTQ0MzEgNDguMTc5MjMsLTAuNDU3NzU2IDYuMjI5OTQsMS43NDI2MzkgMTIuNzk2MDksNC43OTA2MzcgMTguNjEzMjIsOC42NDAyMzMgMi40MDQ5NiwxLjU5MTUzIDMuODE2NjIsMi4wMzEyMDQgNC40NTkwMSwxLjM4ODgwNyAxLjk4MzY3LC0xLjk4MzY2MyAtMTUuOTk1NzcsLTE1LjA5NTU4IC0yOS45MjQ3NiwtMjEuODIzMzMxIC0xNy44MjM2OCwtOC42MDg4ODggLTM0Ljk0NDIyLC0xMS44Mzk2MjEgLTU5LjA2MDQ2LC0xMS4xNDUwMDcgLTEzLjkwMTgzLDAuNDAwNDEyIC0xNy41MzA0MiwwLjgzNjkzMiAtMjcuMjYwNDUsMy4yNzk0MzIgLTMxLjUwNDYsNy45MDg1MTMgLTU3LjU1MjUxLDIzLjM4ODI2NSAtNzkuODgxNDIsNDcuNDcxOTI4IC0xMC44MDc2NSwxMS42NTY5ODIgLTE4LjQ2MDEsMjIuNzkwMzM4IC0yNS42OTg2NCwzNy4zODgyNTggLTkuOTkyNDQsMjAuMTUxNzQgLTE0LjAyMzA4LDM0LjUzOTA2IC0xNS43Mjc0Miw1Ni4xMzg5MSAtMi4zODMxMywzMC4yMDIzOSA0LjYzNTcxLDU5LjE2NzI0IDIwLjAzNzg1LDgyLjY5MDY4IDYuMDcyODIsOS4yNzQ5MiAxMy43Mjc1NCwxOC4zMjczNCAxNS40OTc1NywxOC4zMjczNCAxLjI3NDAyLDAgMS4yNTI0OCwtMC4zMDA1NCAtMC4xODA2MSwtMi41MjAwMSB6IiBzdHlsZT0iZmlsbDpub25lO3N0cm9rZTpub25lO3N0cm9rZS13aWR0aDoxLjA4NzA1O3N0b3AtY29sb3I6IzAwMDAwMCIvPiYjeGE7PC9zdmc+;" parent="1" vertex="1">
          <mxGeometry x="51" y="160" width="34" height="36.76" as="geometry" />
        </mxCell>
        <mxCell id="V85_4jU4u7jz_W5ndp5X-20" value="" style="shape=image;verticalLabelPosition=bottom;labelBackgroundColor=default;verticalAlign=top;aspect=fixed;imageAspect=0;image=data:image/svg+xml,PHN2ZyB4bWxucz0iaHR0cDovL3d3dy53My5vcmcvMjAwMC9zdmciIGlkPSJzdmc2IiB2ZXJzaW9uPSIxLjEiIHZpZXdCb3g9IjAgMCA5NDMgMTAxOSI+JiN4YTsgIDxkZWZzIGlkPSJkZWZzMTAiLz4mI3hhOyAgJiN4YTsgIDxwYXRoIGlkPSJwYXRoNCIgZmlsbD0iI2ZmZiIgZD0iTTYyMiw4MWMtNTQsNTktNTUsMTQ2LTMsMTk2Yy0yNi0yNS0yNS03NywxLTEyNiBjMy00LDEzLTE1LDI3LTEwYzEsMCwyLDEsMywxYzMsMSw3LDEsMTAsMSBjMjItMSwzOC0xOSwzNy00MWMtMC0xMC00LTE4LTExLTI1YzUwLTMzLDEwNy0zNywxMzEtMTVsMSwwIEM3NjUsMTIsNjc3LDIxLDYyMiw4MXogTTc4LDQzMWMtNTQsNTktNTUsMTQ2LTAzLDE5NmMtMjYtMjUtMjUtNzcsMS0xMjYgYzMtNCwxMy0xNSwyNy0xMGMxLDAsMiwxLDMsMWMzLDEsNywxLDEwLDEgYzIyLTEsMzgtMTksMzctNDFjLTAtMTAtNC0xOC0xMS0yNWM1MC0zMywxMDctMzcsMTMxLTE1bDEsMCBDMjIxLDM2MywxMzMsMzcxLDc4LDQzMXogTTY1NCw3MjhjLTU0LDU5LTU1LDE0Ni0zLDE5NmMtMjYtMjUtMjUtNzcsMS0xMjYgYzMtNCwxMy0xNSwyNy0xMGMxLDAsMiwxLDMsMWMzLDEsNywxLDEwLDEgYzIyLTEsMzgtMTksMzctNDFjLTAtMTAtNC0xOC0xMS0yNWM1MC0zMywxMDctMzcsMTMxLTE1bDEsMCBDNzk3LDY1OSw3MDksNjY4LDY1NCw3Mjh6Ii8+JiN4YTsgIDxwYXRoIGlkPSJwYXRoNjgiIGQ9Im0gNzQwLjg4MjY0LDEwMTcuNTU1IGMgLTM2LjIzMzUzLC0zLjQyODkgLTcwLjM2NjUxLC0xNy4wOTA5IC05OS40MjU4MSwtMzkuNzk2MjggLTguMjQ3NzksLTYuNDQ0NDQgLTIzLjU3MzA5LC0yMS45MzUwNyAtMjkuOTEyNTgsLTMwLjIzNTM0IC0yNC44OTIwOSwtMzIuNTkxMiAtMzkuMjczMTIsLTc0LjkxNTQ2IC0zOS4yNzMxMiwtMTE1LjU4MzIgMCwtMjkuNDEzMjQgLTIxLjE3ODc2LC02Mi4xMzY2MSAtNTkuNTc3NTUsLTkyLjA1MzQ1IC0zOC4wMzc4NCwtMjkuNjM1NjMgLTk5LjUzMDUxLC01OS4xMDkxNSAtMTQxLjEwNjgsLTY3LjYzMjcgLTI2LjgzNTksLTUuNTAxNjIgLTUxLjA3MTE4LC00LjQ4NzQxIC02NS4yMTY5OSwyLjcyOTI0IC0yLjE4Mjc5LDEuMTEzNTggLTQuMTc0ODksMS45NjMwNSAtNC40MjY4OSwxLjg4NzczIC0wLjI1MjAxLC0wLjA3NTMgLTIuOTMyMzgsMS42MzM5OCAtNS45NTYzOSwzLjc5ODQ3IC0yNi4wODA5NSwxOC42Njc4NCAtNTYuNTI5NTUsMzAuNTUzMDUgLTg4LjQwNTM3LDM0LjUwNzg2IC0xMS4xNjQyMywxLjM4NTE0IC0zMy4wNTQyMiwxLjE4NTk4IC00NS4yNDEzNywtMC40MTE2MSBDIDkwLjI0Mjk1Myw3MDUuMzE0NjUgMjkuMzYyMzM5LDY1My40NTA1MiA4LjY1MDkxNDEsNTgzLjgzODM2IC0yLjM0OTc0NDYsNTQ2Ljg2NDU4IC0xLjg3Nzg1MDUsNTA5LjAzNTMyIDEwLjAzNTY2Miw0NzIuODMwNDEgMzEuMDUwMTUyLDQwOC45Njc4NSA4My40NzkxNDgsMzYxLjgwMTIgMTQ4LjU3NzEzLDM0OC4xOTQ0OSBjIDI5LjkxNzgxLC02LjI1MzM5IDYwLjcyODU3LC00Ljg5NjA1IDkwLjEzNjQ1LDMuOTcwODggMTEuMjE3MDksMy4zODIxMyAyNy4xMjQ2MSwxMC4xMjM5OCAzNS4yODAxMywxNC45NTIyNyA0LjI2NjA0LDIuNTI1NjIgNy42NDIyOSwzLjg1Mzk4IDEwLjA4MDAzLDMuOTY1OTQgMi4wMTYwMSwwLjA5MjYgNy4xNzA1NywxLjE3MTQ5IDExLjQ1NDU5LDIuMzk3NTkgNy4xMTYzMSwyLjAzNjcxIDkuMzcyMTksMi4yMjU1IDI2LjExNjQ1LDIuMTg1NzUgMTkuNTYzNzEsLTAuMDQ2NSAyNi4yOTc3OSwtMS4wMDU0NyA0NC44ODc4MiwtNi4zOTI2NSAyOS4xOTAzNCwtOC40NTkwMyA2Ni4zMDk0OCwtMjcuNTI5NTkgMTAxLjk2MjU3LC01Mi4zODQ5NCAyNC44Mjc2NiwtMTcuMzA4NDYgNDkuMzQ2MDIsLTM5Ljc0MjYxIDYxLjkwMzMsLTU2LjY0MTEzIDEwLjU2NDU1LC0xNC4yMTY4NiAxNy45OTI5NSwtMzEuNTA4NDIgMTguMDMzNTgsLTQxLjk3Nzg3IDAuMDA4LC0yLjA2NzY4IDAuMzgzNDEsLTMuMjYxODYgMC45MjA5MywtMi45Mjk2NSAwLjU4ODk3LDAuMzYzOTkgMC42NjkzNiwtMS40NjYxMSAwLjIyOTA5LC01LjIxNTA0IC0xLjE0NjM1LC05Ljc2MTM2IC0wLjc2MDc2LC00Ni4zMzMyNyAwLjU2ODEyLC01My44ODUwOCAxMy44MjUzNywtNzguNTY3MTMzIDcxLjgxNzUyLC0xMzcuNzExNzc1IDE0OS40OTU5NCwtMTUyLjQ2NjkwOTYgNDUuMzE1MjgsLTguNjA3NzA1MiAxMDAuMjY3NzIsMC41NDAyMzIzIDEzNi45OTY4NiwyMi44MDU4ODE2IDQ5LjEyODY4LDI5Ljc4MjQwNCA4MS45NzE1OCw4MS4yOTYyNjggODguNDk4NjgsMTM4LjgwOTY1OCAxLjcyNzcyLDE1LjIyMzY1IDAuNjE2NTMsNDEuNzc5MDEgLTIuMzM5NjcsNTUuOTEzNDIgLTExLjIyMzUyLDUzLjY2MjU5IC00Mi4wMjY0NCw5Ny4yODE2NCAtODcuNTMzNTYsMTIzLjk1MzU1IC0xMi45NDg4NSw3LjU4OTM3IC0xNS4wMDYzMyw5LjE3ODE1IC0yMC4wODA1NCwxNS41MDYxOCAtNS41NTg2OSw2LjkzMjIyIC0xMy42MTkzNiwyMi44MjE3NSAtMTcuMzQ1MzEsMzQuMTkxOCAtNS40MDIwMiwxNi40ODQ3MiAtOS4yNjE1NiwzNy42MDIxNSAtMTEuMjIxMiw2MS4zOTY1OCAtMS40NDM0NiwxNy41MjcwMiAtMC41ODM4LDc0LjQxMTgxIDEuMzkxNzgsOTIuMDk0ODcgNS44MzU4Myw1Mi4yMzU1NCAxNi44MDg4Niw4NS4xODQ4NyAzNC42OTY4OSwxMDQuMTg2MzIgMi40NjQ4NiwyLjYxODI4IDQuMjE4MzMsNS4xODY0MiAzLjg5NjYsNS43MDY5OCAtMC4zMzkxMywwLjU0ODc0IDQuNTAxOTMsMy40NjA0OSAxMS41MTk5Nyw2LjkyODk0IDg1Ljg2NDU0LDQyLjQzNTggMTI2LjE1NzE5LDE0MS42NjU5NCA5My44MDkzNSwyMzEuMDI4MTMgLTE0LjAzMTMyLDM4Ljc2MjA4IC00Mi40NDYxNyw3My4zNTA2MyAtNzcuODAzMDcsOTQuNzA3MiAtMzQuMjcwNzcsMjAuNzAwNDQgLTc0Ljc2Mjc1LDMwLjE5Mzk0IC0xMTMuMjUwMjcsMjYuNTUxODQgeiBtIC05My4xMjEzMiwtOTcuMjkzNTMgYyAtMC4zNzIwNCwtMC42MzAwMSAtMS41ODgsLTIuMzgyNTYgLTIuNzAyMTYsLTMuODk0NTYgLTMuMzQ3ODUsLTQuNTQzMzYgLTcuNTU5OTYsLTEzLjY0NDQgLTkuNjE1MTIsLTIwLjc3NTMgLTIuNDY2NzIsLTguNTU4ODUgLTMuNDMwNjcsLTMwLjAzMTM3IC0xLjg0OTYyLC00MS4yMDE0OSAzLjEyMDU0LC0yMi4wNDY4NyAxNC44Nzg3MywtNTMuNTIyMzkgMjIuNDkwOTEsLTYwLjIwNTk3IDcuNTQ2NTEsLTYuNjI1OTIgMTQuNjEwMzMsLTguMTU5NzMgMjQuMzExMjUsLTUuMjc4ODcgMTUuNzk0NDYsNC42OTA0NSAzMy44MDg5OSwtMi4zMTgwOSA0Mi45NDM3LC0xNi43MDcyMiA3LjgwMjQ4LC0xMi4yOTA1NyA3LjY4MDgyLC0zMi4zNTI5NCAtMC4yNTkzMywtNDIuNzYzIC0zLjc1OTcsLTQuOTI5MjMgLTMuMjE3NTUsLTYuMjk3MTMgNC4yMTY2MiwtMTAuNjM4OTIgMTUuMTE2MSwtOC44MjgyOCAzMi40MjY4MiwtMTUuNzU3NTEgNDkuMzIzMzgsLTE5Ljc0MzQ0IDEzLjMxMzYyLC0zLjE0MDcgMzQuNzkyODQsLTMuOTczNTMgNDUuODQ3MTEsLTEuNzc3NjUgOC4zMDkxNywxLjY1MDU4IDE5LjUwMDc2LDYuNDA0NzIgMjQuMDEwODUsMTAuMTk5NzIgMS41MjA4NCwxLjI3OTY5IDMuMDIyMjIsMi4wNjk2NyAzLjMzNjQsMS43NTU0OCAwLjc4MzU5LC0wLjc4MzU5IC02LjI2MDg2LC02Ljc3OTEyIC0xNC41NDY4NywtMTIuMzgwODYgLTE5LjkyOTgzLC0xMy40NzM1IC00My4wNDkzNiwtMjAuMzI5MzMgLTY4LjcyNzUyLC0yMC4zODAzNyAtMjQuMzA0MiwtMC4wNDgzIC00NC42Nzk0MSw1LjAzMzI5IC02Ny44MTExNSwxNi45MTIxMiAtNDIuNzE5MTgsMjEuOTM3NTcgLTcyLjk3ODM1LDYxLjUzNDc2IC04My41NjcyOCwxMDkuMzU2MjcgLTIuNzYyMjQsMTIuNDc0NzUgLTMuMDExNDQsNDIuNTIxMTYgLTAuNDUyMjMsNTQuNTIzODMgNC44NjQ1OCwyMi44MTQ3NiAxNC40ODM1Nyw0Mi43OTYyMSAyOC4zNDI5NSw1OC44NzY1NyA0LjMwMTIxLDQuOTkwNDUgNi4yMDQzNCw2LjY1NzQxIDQuNzA4MTEsNC4xMjM2NiB6IE0gNjIzLjEyOTUsNjk1Ljk0NTM4IGMgOS4yNDA2NywtMS4zMTg2MyAxMS44MTg0OCwtMi4zNjY0MSAxNy4xOTU2MiwtNi45ODkzNCA3LjIyOTc2LC02LjIxNTcyIDIyLjc4ODk4LC0xNi4zODUgMzIuNjYzNTMsLTIxLjM0ODQyIDYuNzcyMDYsLTMuNDAzOTYgMTAuMDYxODEsLTUuNzU0MjIgMTQuMzM5MDcsLTEwLjI0NDA5IDIzLjcwMjA2LC0yNC44ODAyNiAzNi4xNzc0NiwtNzAuMDIxMTEgMzYuMTI5NzgsLTEzMC43MzE1NyAtMC4wNTE0LC02NS40OTc0OCAtMTEuNDg2MTksLTExOS44NzgzNiAtMzEuNTIwMzksLTE0OS45MDM0MSAtNy4xOTcxNCwtMTAuNzg2MjkgLTkuMTM5MTgsLTEyLjMyODE5IC0yMC4wMDUwNCwtMTUuODgzMjggLTkuNTA1OTgsLTMuMTEwMTUgLTMxLjY2MTMzLC0xMy43MzQ5MiAtMzkuMTIzODEsLTE4Ljc2MjExIC0xMS41MjQ0MSwtNy43NjM1OCAtNDAuMDA2NDUsLTYuNzQ5NjMgLTcwLjM1ODU4LDIuNTA0NzMgLTUwLjM2NDE1LDE1LjM1NjAxIC0xMjQuMDc3NDIsNjAuNDYyMjIgLTE2MS4xNDczNiw5OC42MDgzNiAtMjMuMDI4ODksMjMuNjk3NDcgLTMzLjUzMzM4LDQ1LjA1ODA2IC0zMC40OTk2NSw2Mi4wMjAyMyAwLjUxMTUyLDIuODU5OTMgMS4wMjQ0MywxNC4yNzE5MiAxLjEzOTgyLDI1LjM1OTk2IGwgMC4yMDk3OCwyMC4xNjAwNyAzLjA5NzA3LDcuMzEwODcgYyAxNC40Njk3MywzNC4xNTY5MSA2MC4zMDUzOSw3Mi43MzUwMiAxMjQuNzcyMDYsMTA1LjAxNTgxIDQ5Ljg2OTI1LDI0Ljk3MTM0IDk0LjY3NjQzLDM2LjkzOTM0IDEyMy4xMDgxLDMyLjg4MjE5IHogTSA2OC43OTI0MDEsNjE4Ljc3Njc1IEMgNjAuMjM2NzM4LDYwNi41MTg1NCA1Ni44MjI2OCw1OTMuNjIxNDYgNTYuODQ1NTAyLDU3My42NDU2OCBjIDAuMDIzMTcsLTIwLjI3ODkyIDMuOTQ5NDE0LC0zNy43NTA2NCAxMy4zNjEwNTgsLTU5LjQ1NjQ1IDQuNzQ5MDkyLC0xMC45NTI3IDcuNDcxOTE5LC0xNS40MTYwNiAxMS4wNzU1OTUsLTE4LjE1NTUyIDcuODQxNzkzLC01Ljk2MTIxIDEzLjI0MjA5LC03LjAzNDQ0IDIyLjI2NDM5NSwtNC40MjQ3MiAxMC41MjMyMywzLjA0Mzg4IDE5LjI5OTIxLDIuMTQ4MjcgMjkuNDQwMzcsLTMuMDA0NDcgMTkuMDg5NzIsLTkuNjk5NTMgMjYuNDMzMTcsLTM2LjY1NDIyIDE0LjkyNTQ2LC01NC43ODUwMiAtNC40NzYwMywtNy4wNTIxMyAtNC4wNjUwMywtNy44ODQ5NCA2LjkwMjg3LC0xMy45ODcxNyAxNy4yMzM3MiwtOS41ODgzNiAzNi4yMTE2MSwtMTYuMzU0MDUgNTQuNDA4MzEsLTE5LjM5Njc1IDEzLjI2ODY5LC0yLjIxODY5IDM0LjU4MDc2LC0xLjU0ODczIDQzLjY5MzcxLDEuMzczNTUgNy44MDc0OSwyLjUwMzY0IDEyLjYzMjksNC44ODQyNSAxNy4yMjQxMyw4LjQ5NzQ4IDQuMzE2MTgsMy4zOTY3NiA1LjY1NzU5LDIuNjI2NDIgMS41MzU5LC0wLjg4MjAzIC0xNy45NTg0MywtMTUuMjg2NTQgLTM3LjgxNTMxLC0yNC4zNjg5NSAtNjEuODI5MjgsLTI4LjI4MDMzIC0xMi4yODQyNSwtMi4wMDA4NSAtMzUuNjAzNSwtMS4zMjUzOSAtNDguMzQ4NzEsMS40MDA0NiAtNDcuNjg4MDUsMTAuMTk5MTkgLTg4LjEzOTEzNCw0Mi4xMzc0IC0xMDkuNzI3MDQ5LDg2LjYzNTE1IC0yMi41NTY2NzUsNDYuNDk0NTkgLTIwLjEwNTE0Myw5OS4wNjcyMyA2LjQ1NTA3MSwxMzguNDI3NzYgMy44MjAzNCw1LjY2MTUgMTMuMjgwMjMsMTYuODk2NDMgMTQuMjI2OTE0LDE2Ljg5NjQzIDAuMTg0NTQ4LDAgLTEuNDYzMjgzLC0yLjU3NzI5IC0zLjY2MTg0NSwtNS43MjczIHogTSA2MTMuNjM5MjgsMjcwLjE1OTg4IGMgLTQuMzcyMjMsLTUuNDU3OTggLTkuMzM4MjQsLTE3LjIwODMxIC0xMS4zMzEyMywtMjYuODExNDkgLTEuNTM5MiwtNy40MTY1NSAtMS43NDA2MSwtMTEuMDA0ODUgLTEuMzE0NTYsLTIzLjQyMDMzIDAuNzEzNjEsLTIwLjc5NTg3IDQuODcyMDIsLTM3LjU5MjkxIDE0LjQwNTgsLTU4LjE4OTMgNS4yNjU5NCwtMTEuMzc2MzIgNy43MTQwMywtMTQuNjg1OTYgMTMuMjcyNDksLTE3Ljk0MzQ0IDYuNTU2NjYsLTMuODQyNDUgMTAuMTczOTYsLTQuMjg5OCAxNy45NTQ2NCwtMi4yMjA0NSAxNS45Nzk3Myw0LjI0OTk3IDI5LjkzMjMsMC40MjM2MiA0MC42NDM4OSwtMTEuMTQ2MTcgMTEuNjkxMjIsLTEyLjYyNzkyIDEzLjU1NzQsLTM0LjMzNTg5MSA0LjA3Njg1LC00Ny40MjMzOTggLTEuNDgzNTgsLTIuMDQ4MDMzIC0yLjY5NzQzLC00LjUyMjEzOSAtMi42OTc0MywtNS40OTgwMTYgMCwtMi4xNDU4MzIgNi43ODM2MiwtNi40MzY5MSAyMC4zMTE0NCwtMTIuODQ4MzA4IDIxLjUyOTE3LC0xMC4yMDM1NjYgMzguNzAwMSwtMTQuNjM5NzcyIDU5LjQ3ODA5LC0xNS4zNjY1MDQgMjAuNTk4MywtMC43MjA0NDggMzIuNTAyMzYsMS45NDgwNCA0NC4xNDkwOSw5Ljg5NjczMSA3LjIyNDU5LDQuOTMwNjUgNi42NDA5LDIuOTMwMTU2IC0wLjkxNjM2LC0zLjE0MDY4NCAtMjIuMjYxMiwtMTcuODgyNzA5IC00Ny4zMzQxNCwtMjYuNTEyMDM3IC03Ny4yMDM5MSwtMjYuNTcxMTk5IC0xNC4yNTU2LC0wLjAyODIzIC0yMS43NDc0OCwwLjkyODc5IC0zNi4xOTY1LDQuNjIzODAzIC01MC4wNzYzLDEyLjgwNTg5NCAtOTMuMzM5NTUsNTMuNDA2MTgzIC0xMDkuOTg1MiwxMDMuMjE1MzE1IC00Ljg5NDMzLDE0LjY0NTQxIC02Ljg1NjAyLDI1LjY0MDcxIC03LjQ2MzU0LDQxLjgzMzI5IC0xLjI4OTQ5LDM0LjM2OTcxIDguNzU0NCw2NC40ODAxNyAyOS44OTI3MSw4OS42MTQ4NiA1LjE0NjExLDYuMTE5MDQgNy42NzQzMyw3LjMyNTU4IDIuOTIzNzMsMS4zOTUyOSB6IiBzdHlsZT0iZmlsbDojMGM1NTAwO3N0cm9rZTpub25lO3N0cm9rZS13aWR0aDowO3N0b3AtY29sb3I6IzAwMDAwMDtzdHJva2UtbWl0ZXJsaW1pdDo0O3N0cm9rZS1kYXNoYXJyYXk6bm9uZTtmaWxsLW9wYWNpdHk6MTtzdHJva2Utb3BhY2l0eToxIi8+JiN4YTsgIDxwYXRoIGlkPSJwYXRoMjQ3IiBkPSJtIDczOS45NzEyMywxMDE2LjY5MzQgYyAtNjIuMzk0NjQsLTYuNTM3MSAtMTE3LjUzMDUsLTQzLjU1NjgzIC0xNDUuMTc1NTIsLTk3LjQ3NDg1IC0xMy4yOTkzMywtMjUuOTM4NjEgLTE5Ljg3OTAxLC01MS4xMTk5IC0yMS41Njk3NSwtODIuNTUwMjUgLTEuMzcwMTUsLTI1LjQ3MDg3IC02LjQ1ODEzLC0zOS4yMzMxNyAtMjIuMjU1MjgsLTYwLjE5NzU3IC0yNC45NTIwOSwtMzMuMTEzOTEgLTc2LjM2ODIxLC02Ny44MDA1NyAtMTM0Ljk0MDEsLTkxLjAzNDEgLTM5LjY1NTcsLTE1LjczMDEgLTcxLjE0NTg4LC0yMC43NDI0NSAtOTcuMDY4NDgsLTE1LjQ1MDU2IC04LjcyNTA0LDEuNzgxMTUgLTE1LjU5MTI4LDUuMDE4MjEgLTI4LjQ3Mzc5LDEzLjQyMzg0IC0yMi41MDI3MSwxNC42ODI2NiAtNDQuNDY4MDcsMjMuNjE2MDUgLTcxLjY0MzY4LDI5LjEzNzczIC0xMS43NzQwNiwyLjM5MjMzIC0zNi40NDEyLDMuMjg0MDEgLTUxLjA5NzY1LDEuODQ3MTEgQyA5My4yMTY3NzMsNzA3LjA4NzkxIDI5LjAzMTMxMSw2NTMuMjE0MDYgOC43MzM1NzIzLDU4MC45MjczNiAzLjc3ODgzNiw1NjMuMjgxOTggMS45ODYxNjg0LDU0OS45MDA2NyAxLjk4ODE1OTQsNTMwLjU3NjQ0IDEuOTkwMTY1Myw1MTEuMTA5MDYgMy4zMTUxNzQyLDUwMC40NzMyMSA3Ljg2NzM4OTksNDgzLjM4Mzg1IDIzLjUwMjIxNiw0MjQuNjg5NTEgNjUuOTMxMTQ0LDM3Ny43MTU3OCAxMjIuMzM0OTgsMzU2LjY1NDk5IGMgMTAuMjUyNzEsLTMuODI4MjkgMjMuNTM1OTcsLTcuMzAxMzcgMzYuMjM1ODUsLTkuNDc0MzEgMTQuMTg0NzMsLTIuNDI3MDEgNDEuNDM2MDcsLTIuMTkwNCA1Ni43MjA5NCwwLjQ5MjQ5IDE5Ljc4NTA3LDMuNDcyNzggNDAuMDU2MjUsMTAuMzE0OSA1NS45NTI4MywxOC44ODU3MSA1LjAxODMxLDIuNzA1NjggMTAuNjU1MzQsNC43NTczOCAxNy44NjkxNiw2LjUwMzgxIDkuNDY5MjYsMi4yOTI0NiAxMi41MTI0OSwyLjU4NDQ5IDMwLjAwMTQzLDIuODc5MDEgMTQuNTAyNTYsMC4yNDQyMyAyMS41MTUwMywtMC4wMjYzIDI3LjUxMzU0LC0xLjA2MTUgNDguNzE4MTIsLTguNDA3MzYgMTIxLjczMDAyLC00OS43MjAyNCAxNjYuMTI0ODksLTkzLjk5OTY5IDE0LjkzNTY5LC0xNC44OTY4NiAyMi4zMDgyOSwtMjQuNjA4NTUgMjguODgwNDUsLTM4LjA0MzI4IDcuNTc0MzYsLTE1LjQ4MzQgNy44NTU5NCwtMTcuMjY0MDMgOC4xODczMywtNTEuNzc0NzMgMC4yODYxMywtMjkuNzk4MDMgMC43MzY1MiwtMzUuMDU0NTUgNC4xNzAwMSwtNDguNjY4NjcgNC44NTQ3NiwtMTkuMjQ5NiAxNC41OTMwNSwtNDEuNjY2NTUgMjQuOTUyODEsLTU3LjQzOTg0OSAyNC4xNzc1OSwtMzYuODExNzIzIDYwLjYyODY4LC02My43NzQ1ODQgMTAyLjUxNTkyLC03NS44MzA5OTUgNDMuMzMyODIsLTEyLjQ3MjQ5NTEgOTIuNjUyOCwtOS40ODQ0MzE1NSAxMzQuNzgxMDYsOC4xNjU3NDYgMjQuMjE5MjIsMTAuMTQ2OTUyIDQ4Ljk1NjAyLDI4LjkyNDk0MiA2Ni44MzQ2OCw1MC43MzQ5OSAyNi42MzA5MSwzMi40ODY4MjggNDIuMDA0NjcsNzQuNjEzMTI4IDQxLjk5MzQsMTE1LjA2NzUwOCAtMC4wMDksMzAuODYwNjQgLTUuNzM4MTEsNTYuODkzMDggLTE4LjE5MTM1LDgyLjY1NTE3IC0xNi44MzcwNywzNC44MzA4MiAtMzguMTA0NzYsNTcuODMzMjQgLTc0LjAxMDIxLDgwLjA0Njk3IC0xMi4zNjI1LDcuNjQ4MzUgLTE2LjUzNDQ1LDExLjQwOTggLTIxLjgwNTY4LDE5LjY2MDEzIC0yMC41NjI1NSwzMi4xODM3NSAtMjguMjkzNDMsNzguOTU3NDIgLTI1LjM5ODc1LDE1My42NjgzNSAxLjI1NjQ3LDMyLjQyOTMzIDMuNjMxMzMsNTEuNzQ0NTYgOS4yOTUyNSw3NS42MDAyNyA1LjQ1NjYzLDIyLjk4MjY2IDE0LjE0OTE1LDQyLjg0MDM5IDIzLjgxMDY0LDU0LjM5NDUyIDIuNzk4ODYsMy4zNDcxNCA1Ljk3NDc3LDcuMzQxNiA3LjA1NzYxLDguODc2NTkgMS4yNDcsMS43Njc3MiA1LjQzODI4LDQuNTk2ODkgMTEuNDMyNSw3LjcxNzA2IDIwLjM2MTMxLDEwLjU5ODcgMzIuNzIyMTYsMTkuMzY4OTcgNDcuODA5NTcsMzMuOTIxODYgMTcuMDYxNSwxNi40NTcwNCAyOC40NzM5MSwzMi4yMzI4OCAzOC41OTYzNiw1My4zNTMzMSAyNy40MTQxMiw1Ny4xOTk0MSAyNC4xNjA4NCwxMjIuNDM0MTUgLTguNzk4NzcsMTc2LjQzMzQ0IC0xNC41NjA0NSwyMy44NTUwNSAtMzcuODk3NDksNDYuODk4MjkgLTYyLjI2NzYzLDYxLjQ4MzU1IC0yMC4yMTczNSwxMi4wOTk3NSAtNDQuNTcwOTUsMjAuODA3NzUgLTY4LjQ4MDAyLDI0LjQ4NTk1IC0xMS4xMDIxMSwxLjcwNzkgLTMzLjg3NjE5LDIuMzgxMSAtNDQuMTQ3NTcsMS4zMDUgeiBtIC05MS4zMzI2NywtOTYuNDk1MjYgYyAtMC4zNTA1MSwtMC41OTUxOCAtMS41ODcyLC0yLjM0ODgzIC0yLjc0ODE5LC0zLjg5Njk0IC0zLjIzMTI1LC00LjMwODc1IC04LjM3Nzk0LC0xNi4wNDM4OCAtMTAuMDkxMiwtMjMuMDA5MjggLTIuMjgxMzQsLTkuMjc0OTEgLTIuMjY4MDcsLTM2LjUwNjU5IDAuMDIyOSwtNDcuMDI3MDggNC4zNjIzNSwtMjAuMDMyNTQgMTQuMzc2MDQsLTQ0Ljg3NjcxIDIwLjU5NDM3LC01MS4wOTUwMyA2LjU5NTc5LC02LjU5NTc5IDEzLjE0ODE1LC03Ljg3Mjk3IDI2LjEwNTcxLC01LjA4ODU0IDYuMTM1NzEsMS4zMTg1IDguMTUxMTUsMS4zODQ3NCAxMy42MTY2OSwwLjQ0NzUgMjEuNjMzNTcsLTMuNzA5NzQgMzUuMDE2MTYsLTIxLjEzMDYxIDMzLjQ4MTI4LC00My41ODQ0NiAtMC4zOTgxOCwtNS44MjQ5MSAtMS4xMzA4NCwtOC41MTQzNCAtMy43NzkzOCwtMTMuODczMzEgLTEuODA3LC0zLjY1NjIxIC0zLjI4NTQ1LC03LjQ4ODExIC0zLjI4NTQ1LC04LjUxNTMzIDAsLTUuMjI1NjQgMzYuNDI2MDcsLTIxLjIyMjM2IDU3LjczMTExLC0yNS4zNTI5NSAxMC41MzY2NiwtMi4wNDI4NCAzMC44MDY1NCwtMi44MDkyMSAzOS4yNjAyLC0xLjQ4NDM4IDguMTY5ODYsMS4yODAzNiAxOS42ODM0NCw1LjU5NTczIDI0Ljc4MDE3LDkuMjg3NzggMy42MzQ0NywyLjYzMjggNi41MTk4OCwzLjUwNjkxIDYuNTE5ODgsMS45NzUxMyAwLC0yLjQ3Nzk4IC0xNi44MDI3OCwtMTQuNDk3ODMgLTI4LjQwNzM3LC0yMC4zMjExOCAtMTcuMDc0NjMsLTguNTY4MjkgLTM1LjcyMzM1LC0xMi44NDE5MiAtNTYuMDE1OTksLTEyLjgzNjg5IC0yMy40NjU0MywwLjAwNSAtNDEuNTUxNjEsNC4yMjg3NCAtNjQuMDUwMDQsMTQuOTU1MDEgLTQ1LjMwODExLDIxLjYwMDk1IC03OS43ODY4OCw2Ni40NzkxNCAtODguNDc5NDYsMTE1LjE2NjUgLTEuOTE0ODcsMTAuNzI1MjUgLTEuOTAxMTUsNDAuODgyNjQgMC4wMjMyLDUwLjg1ODM3IDQuMTYyNDMsMjEuNTc4NDMgMTUuMzc5NzEsNDQuNzI4ODIgMjkuNDE5MjgsNjAuNzE1OSAyLjMyNjg2LDIuNjQ5NjggNC42MTUxOCw0LjU3OTkxIDUuMDg1MTUsNC4yODk0MiAwLjQ2OTk2LC0wLjI5MDQ4IDAuNTY3NjksLTEuMDE1MDUgMC4yMTcxOCwtMS42MTAyNCB6IE0gNjIxLjc3NTMxLDY5Ni44NDAyIGMgOS42NzA4MiwtMS4yMTI2MiAxMy4wOTMyNSwtMi43MzAzNSAyMi45MTQyOSwtMTAuMTYxNzQgOC4zNzkyOSwtNi4zNDA0MyAyMC42MDA2LC0xNC4xMDY2MyAzMC4xNzkxNSwtMTkuMTc3NzcgMjQuMTYxMzIsLTEyLjc5MTYyIDQxLjEwNzc5LC00OC44MjMzNSA0Ny4zNzQzOSwtMTAwLjcyNzc2IDIuMjI1MzYsLTE4LjQzMjA5IDIuMjEwMzMsLTYzLjY4OTk1IC0wLjAyODYsLTg2LjEzODQ5IC0yLjg4NDg4LC0yOC45MjQ4OSAtNy43MzI2OSwtNTIuOTI4OTIgLTE0LjgwNTQ0LC03My4zMDkzNSAtNi4wODgwNSwtMTcuNTQyOTcgLTE4LjE0MTI5LC0zOC4zODc1OCAtMjQuNjcxNTEsLTQyLjY2NjM1IC0xLjI0Mjg4LC0wLjgxNDM2IC02LjAyMDI2LC0yLjg3ODc0IC0xMC42MTYzOSwtNC41ODc1MSAtOS42Mjc5NiwtMy41Nzk1MiAtMzEuNDM0ODUsLTEzLjkwNjE2IC0zNy41MTg1NCwtMTcuNzY2ODggLTExLjY3NDc5LC03LjQwODg1IC0zMC45MzQ4NiwtOC4xNTQwOCAtNTcuNTgyMiwtMi4yMjgwNSAtMzIuMDYxMDEsNy4xMjk5OCAtNzMuNjcwNDcsMjYuNjUwODYgLTExNS41NDkzOSw1NC4yMDk0NiAtNDkuMTU2NzcsMzIuMzQ3ODEgLTgxLjE5MDc0LDY1LjAzNDQ5IC04OS40OTMzLDkxLjMxNjc3IGwgLTIuMzMxNDIsNy4zODAyMSAxLjA3ODQxLDI5LjMzNTA3IGMgMS4wNzQzMSwyOS4yMjM1NiAxLjA4ODY0LDI5LjM2IDMuNzY5NjIsMzUuODk0MTUgMTQuMDM3NjcsMzQuMjEyODkgNjMuMDg3NTgsNzUuMDQ1NTQgMTI4LjU5MTA2LDEwNy4wNDgzOCAzNC43NzIxNiwxNi45ODg1NCA2Ni4wNTkyLDI3LjY1NDEyIDg5LjgwMzk2LDMwLjYxMzY4IDQuNTM2MDEsMC41NjUzNyA5LjI3ODIxLDEuMTc2ODYgMTAuNTM4MjIsMS4zNTg4NyA0LjcxOTI4LDAuNjgxNyAxMC44MjA3MywwLjU1MTExIDE4LjM0NzcsLTAuMzkyNjkgeiBNIDY5LjgxNTUyMyw2MTguODY2OTMgYyAtNy44NTE2NTksLTEyLjMwMTM2IC0xMC40NzcxODIsLTIwLjM2OTk3IC0xMS41ODQwMywtMzUuNTk5MzkgLTEuNzAzMDY0LC0yMy40MzI5MSAyLjQ1MTIzMywtNDUuMTg5OTcgMTMuNDA5NDIsLTcwLjIyODQgNC4zMjc4MzksLTkuODg4NzEgOC4zODYyMzIsLTE1LjQ0ODUyIDEzLjY1MjQ0NCwtMTguNzAzMjIgNS41NjMzMzEsLTMuNDM4MzIgOS4wNjQ5MzQsLTMuNzM2NTYgMTkuMTcyNDczLC0xLjYzMjk1IDcuODExNzcsMS42MjU4MiAxMC4wOTM0OSwxLjc2NTA1IDE1LjQ2NjM2LDAuOTQzOCAxNC45MDUwMSwtMi4yNzgyNCAyNi44OTUzOSwtMTIuMjU3NyAzMS43Nzc2MywtMjYuNDQ4MTUgMy45NjM3NywtMTEuNTIwOTMgMy4xMjczMSwtMjEuODY5NiAtMi42MzgxMiwtMzIuNjM4NTcgLTIuNjExMzIsLTQuODc3NTcgLTMuMTE2NTEsLTYuNTUxMjIgLTIuMzUxMTMsLTcuNzg5MTIgMS41ODQ3NCwtMi41NjMxMyAxMi44Njk3OSwtOC45OTc4OCAyNC4zMDQzNSwtMTMuODU4NCAxOS43MjU1LC04LjM4NDc4IDM0LjI5MTE4LC0xMS45NTc5MyA1MS42NTIyNCwtMTIuNjcwOTcgMTkuOTE5NTUsLTAuODE4MTQgMzMuNTIzMjEsMS45Mjk3OSA0NC40MjAxMyw4Ljk3MjgxIDMuMDcxMDQsMS45ODQ5MSA1Ljk4MjE2LDMuNjA4OTIgNi40NjkxNSwzLjYwODkyIDUuMDIzOTEsMCAtMTEuMDEwMDgsLTEyLjU3NTE3IC0yNS41Njk5NiwtMjAuMDU0MDggLTM4LjMxMjcyLC0xOS42Nzk5IC04NC42ODk0MSwtMTguMTk0MSAtMTI3LjQzMTQsNC4wODI1OSAtMTQuMjc2MjMsNy40NDA2NCAtMjUuNzM1MzkxLDE1Ljk2OTI2IC0zOC4wOTIwNTgsMjguMzUwNDkgLTEyLjkzMDM3NywxMi45NTYwOSAtMjEuMDg5MTY1LDI0LjA4NTQxIC0yOS4yMTY0OTIsMzkuODUzOTIgLTI0LjU5Njc1Niw0Ny43MjIyMSAtMjMuMjc4NDU1LDEwMS4zNjc3NSAzLjQ3NjY5NSwxNDEuNDc2OTMgNS41OTgxNyw4LjM5MjMzIDE1LjQxNDU0NywxOS42MjI5MSAxNS44OTQxODUsMTguMTg0IDAuMTc0MDAyLC0wLjUyMjAxIC0xLjA5MTM0NywtMy4xNTQ2IC0yLjgxMTg4NywtNS44NTAyMSB6IE0gNjE1Ljc1Njc1LDI3MS45MzE4OCBjIC0wLjg5NDk0LC0xLjM4NjAxIC0yLjU5OTUxLC0zLjk2MzI5IC0zLjc4NzkzLC01LjcyNzI5IC0zLjA1NTg1LC00LjUzNTg1IC03LjIwOTA1LC0xNS43MTk2NyAtOC45MTg1NCwtMjQuMDE2IC0zLjY3MjQ1LC0xNy44MjI3OSAtMC4xMjA1LC00Ny4zODk0NCA4LjI0OTI5LC02OC42NjczNyA3LjYxNjI4LC0xOS4zNjIzNyAxMi41Njg3OCwtMjYuODI2MzMgMjAuMDU2ODksLTMwLjIyNzk0IDQuNTgxNjQsLTIuMDgxMjkgOC41MDc5LC0yLjEyNTUzIDE4Ljk1ODIsLTAuMjEzNjIgOS43NjcyNSwxLjc4NjkzIDE3LjM3OTc4LDAuOTE2MiAyNS4xMjY3OSwtMi44NzQwNiA2LjE0NTk4LC0zLjAwNjk1IDEzLjQ3NjAyLC05LjU2NDcxIDE2LjU0NTQsLTE0LjgwMjIzIDcuNjA1MjUsLTEyLjk3NzM3IDcuNzg2ODQsLTMxLjk5NzY3IDAuNDA0NDksLTQyLjM2NTI0IC0zLjEzNzUyLC00LjQwNjIzNSAtMi41Mzk5NSwtNi44NDE4NDkgMi40NjY5MSwtMTAuMDU0NzQyIDExLjc5NDk1LC03LjU2ODc5NyAzNS44MzY4NiwtMTcuMDQzMTI2IDUxLjg0NTM4LC0yMC40MzA5OTIgMTIuNzE5NzMsLTIuNjkxODY2IDM5LjI4OTgsLTIuOTQ0MzEgNDguMTc5MjMsLTAuNDU3NzU2IDYuMjI5OTQsMS43NDI2MzkgMTIuNzk2MDksNC43OTA2MzcgMTguNjEzMjIsOC42NDAyMzMgMi40MDQ5NiwxLjU5MTUzIDMuODE2NjIsMi4wMzEyMDQgNC40NTkwMSwxLjM4ODgwNyAxLjk4MzY3LC0xLjk4MzY2MyAtMTUuOTk1NzcsLTE1LjA5NTU4IC0yOS45MjQ3NiwtMjEuODIzMzMxIC0xNy44MjM2OCwtOC42MDg4ODggLTM0Ljk0NDIyLC0xMS44Mzk2MjEgLTU5LjA2MDQ2LC0xMS4xNDUwMDcgLTEzLjkwMTgzLDAuNDAwNDEyIC0xNy41MzA0MiwwLjgzNjkzMiAtMjcuMjYwNDUsMy4yNzk0MzIgLTMxLjUwNDYsNy45MDg1MTMgLTU3LjU1MjUxLDIzLjM4ODI2NSAtNzkuODgxNDIsNDcuNDcxOTI4IC0xMC44MDc2NSwxMS42NTY5ODIgLTE4LjQ2MDEsMjIuNzkwMzM4IC0yNS42OTg2NCwzNy4zODgyNTggLTkuOTkyNDQsMjAuMTUxNzQgLTE0LjAyMzA4LDM0LjUzOTA2IC0xNS43Mjc0Miw1Ni4xMzg5MSAtMi4zODMxMywzMC4yMDIzOSA0LjYzNTcxLDU5LjE2NzI0IDIwLjAzNzg1LDgyLjY5MDY4IDYuMDcyODIsOS4yNzQ5MiAxMy43Mjc1NCwxOC4zMjczNCAxNS40OTc1NywxOC4zMjczNCAxLjI3NDAyLDAgMS4yNTI0OCwtMC4zMDA1NCAtMC4xODA2MSwtMi41MjAwMSB6IiBzdHlsZT0iZmlsbDpub25lO3N0cm9rZTpub25lO3N0cm9rZS13aWR0aDoxLjA4NzA1O3N0b3AtY29sb3I6IzAwMDAwMCIvPiYjeGE7PC9zdmc+;" parent="1" vertex="1">
          <mxGeometry x="92" y="173.51" width="34" height="36.75" as="geometry" />
        </mxCell>
        <mxCell id="V85_4jU4u7jz_W5ndp5X-21" value="" style="shape=image;verticalLabelPosition=bottom;labelBackgroundColor=default;verticalAlign=top;aspect=fixed;imageAspect=0;image=data:image/svg+xml,PHN2ZyB4bWxucz0iaHR0cDovL3d3dy53My5vcmcvMjAwMC9zdmciIGlkPSJzdmc2IiB2ZXJzaW9uPSIxLjEiIHZpZXdCb3g9IjAgMCA5NDMgMTAxOSI+JiN4YTsgIDxkZWZzIGlkPSJkZWZzMTAiLz4mI3hhOyAgJiN4YTsgIDxwYXRoIGlkPSJwYXRoNCIgZmlsbD0iI2ZmZiIgZD0iTTYyMiw4MWMtNTQsNTktNTUsMTQ2LTMsMTk2Yy0yNi0yNS0yNS03NywxLTEyNiBjMy00LDEzLTE1LDI3LTEwYzEsMCwyLDEsMywxYzMsMSw3LDEsMTAsMSBjMjItMSwzOC0xOSwzNy00MWMtMC0xMC00LTE4LTExLTI1YzUwLTMzLDEwNy0zNywxMzEtMTVsMSwwIEM3NjUsMTIsNjc3LDIxLDYyMiw4MXogTTc4LDQzMWMtNTQsNTktNTUsMTQ2LTAzLDE5NmMtMjYtMjUtMjUtNzcsMS0xMjYgYzMtNCwxMy0xNSwyNy0xMGMxLDAsMiwxLDMsMWMzLDEsNywxLDEwLDEgYzIyLTEsMzgtMTksMzctNDFjLTAtMTAtNC0xOC0xMS0yNWM1MC0zMywxMDctMzcsMTMxLTE1bDEsMCBDMjIxLDM2MywxMzMsMzcxLDc4LDQzMXogTTY1NCw3MjhjLTU0LDU5LTU1LDE0Ni0zLDE5NmMtMjYtMjUtMjUtNzcsMS0xMjYgYzMtNCwxMy0xNSwyNy0xMGMxLDAsMiwxLDMsMWMzLDEsNywxLDEwLDEgYzIyLTEsMzgtMTksMzctNDFjLTAtMTAtNC0xOC0xMS0yNWM1MC0zMywxMDctMzcsMTMxLTE1bDEsMCBDNzk3LDY1OSw3MDksNjY4LDY1NCw3Mjh6Ii8+JiN4YTsgIDxwYXRoIGlkPSJwYXRoNjgiIGQ9Im0gNzQwLjg4MjY0LDEwMTcuNTU1IGMgLTM2LjIzMzUzLC0zLjQyODkgLTcwLjM2NjUxLC0xNy4wOTA5IC05OS40MjU4MSwtMzkuNzk2MjggLTguMjQ3NzksLTYuNDQ0NDQgLTIzLjU3MzA5LC0yMS45MzUwNyAtMjkuOTEyNTgsLTMwLjIzNTM0IC0yNC44OTIwOSwtMzIuNTkxMiAtMzkuMjczMTIsLTc0LjkxNTQ2IC0zOS4yNzMxMiwtMTE1LjU4MzIgMCwtMjkuNDEzMjQgLTIxLjE3ODc2LC02Mi4xMzY2MSAtNTkuNTc3NTUsLTkyLjA1MzQ1IC0zOC4wMzc4NCwtMjkuNjM1NjMgLTk5LjUzMDUxLC01OS4xMDkxNSAtMTQxLjEwNjgsLTY3LjYzMjcgLTI2LjgzNTksLTUuNTAxNjIgLTUxLjA3MTE4LC00LjQ4NzQxIC02NS4yMTY5OSwyLjcyOTI0IC0yLjE4Mjc5LDEuMTEzNTggLTQuMTc0ODksMS45NjMwNSAtNC40MjY4OSwxLjg4NzczIC0wLjI1MjAxLC0wLjA3NTMgLTIuOTMyMzgsMS42MzM5OCAtNS45NTYzOSwzLjc5ODQ3IC0yNi4wODA5NSwxOC42Njc4NCAtNTYuNTI5NTUsMzAuNTUzMDUgLTg4LjQwNTM3LDM0LjUwNzg2IC0xMS4xNjQyMywxLjM4NTE0IC0zMy4wNTQyMiwxLjE4NTk4IC00NS4yNDEzNywtMC40MTE2MSBDIDkwLjI0Mjk1Myw3MDUuMzE0NjUgMjkuMzYyMzM5LDY1My40NTA1MiA4LjY1MDkxNDEsNTgzLjgzODM2IC0yLjM0OTc0NDYsNTQ2Ljg2NDU4IC0xLjg3Nzg1MDUsNTA5LjAzNTMyIDEwLjAzNTY2Miw0NzIuODMwNDEgMzEuMDUwMTUyLDQwOC45Njc4NSA4My40NzkxNDgsMzYxLjgwMTIgMTQ4LjU3NzEzLDM0OC4xOTQ0OSBjIDI5LjkxNzgxLC02LjI1MzM5IDYwLjcyODU3LC00Ljg5NjA1IDkwLjEzNjQ1LDMuOTcwODggMTEuMjE3MDksMy4zODIxMyAyNy4xMjQ2MSwxMC4xMjM5OCAzNS4yODAxMywxNC45NTIyNyA0LjI2NjA0LDIuNTI1NjIgNy42NDIyOSwzLjg1Mzk4IDEwLjA4MDAzLDMuOTY1OTQgMi4wMTYwMSwwLjA5MjYgNy4xNzA1NywxLjE3MTQ5IDExLjQ1NDU5LDIuMzk3NTkgNy4xMTYzMSwyLjAzNjcxIDkuMzcyMTksMi4yMjU1IDI2LjExNjQ1LDIuMTg1NzUgMTkuNTYzNzEsLTAuMDQ2NSAyNi4yOTc3OSwtMS4wMDU0NyA0NC44ODc4MiwtNi4zOTI2NSAyOS4xOTAzNCwtOC40NTkwMyA2Ni4zMDk0OCwtMjcuNTI5NTkgMTAxLjk2MjU3LC01Mi4zODQ5NCAyNC44Mjc2NiwtMTcuMzA4NDYgNDkuMzQ2MDIsLTM5Ljc0MjYxIDYxLjkwMzMsLTU2LjY0MTEzIDEwLjU2NDU1LC0xNC4yMTY4NiAxNy45OTI5NSwtMzEuNTA4NDIgMTguMDMzNTgsLTQxLjk3Nzg3IDAuMDA4LC0yLjA2NzY4IDAuMzgzNDEsLTMuMjYxODYgMC45MjA5MywtMi45Mjk2NSAwLjU4ODk3LDAuMzYzOTkgMC42NjkzNiwtMS40NjYxMSAwLjIyOTA5LC01LjIxNTA0IC0xLjE0NjM1LC05Ljc2MTM2IC0wLjc2MDc2LC00Ni4zMzMyNyAwLjU2ODEyLC01My44ODUwOCAxMy44MjUzNywtNzguNTY3MTMzIDcxLjgxNzUyLC0xMzcuNzExNzc1IDE0OS40OTU5NCwtMTUyLjQ2NjkwOTYgNDUuMzE1MjgsLTguNjA3NzA1MiAxMDAuMjY3NzIsMC41NDAyMzIzIDEzNi45OTY4NiwyMi44MDU4ODE2IDQ5LjEyODY4LDI5Ljc4MjQwNCA4MS45NzE1OCw4MS4yOTYyNjggODguNDk4NjgsMTM4LjgwOTY1OCAxLjcyNzcyLDE1LjIyMzY1IDAuNjE2NTMsNDEuNzc5MDEgLTIuMzM5NjcsNTUuOTEzNDIgLTExLjIyMzUyLDUzLjY2MjU5IC00Mi4wMjY0NCw5Ny4yODE2NCAtODcuNTMzNTYsMTIzLjk1MzU1IC0xMi45NDg4NSw3LjU4OTM3IC0xNS4wMDYzMyw5LjE3ODE1IC0yMC4wODA1NCwxNS41MDYxOCAtNS41NTg2OSw2LjkzMjIyIC0xMy42MTkzNiwyMi44MjE3NSAtMTcuMzQ1MzEsMzQuMTkxOCAtNS40MDIwMiwxNi40ODQ3MiAtOS4yNjE1NiwzNy42MDIxNSAtMTEuMjIxMiw2MS4zOTY1OCAtMS40NDM0NiwxNy41MjcwMiAtMC41ODM4LDc0LjQxMTgxIDEuMzkxNzgsOTIuMDk0ODcgNS44MzU4Myw1Mi4yMzU1NCAxNi44MDg4Niw4NS4xODQ4NyAzNC42OTY4OSwxMDQuMTg2MzIgMi40NjQ4NiwyLjYxODI4IDQuMjE4MzMsNS4xODY0MiAzLjg5NjYsNS43MDY5OCAtMC4zMzkxMywwLjU0ODc0IDQuNTAxOTMsMy40NjA0OSAxMS41MTk5Nyw2LjkyODk0IDg1Ljg2NDU0LDQyLjQzNTggMTI2LjE1NzE5LDE0MS42NjU5NCA5My44MDkzNSwyMzEuMDI4MTMgLTE0LjAzMTMyLDM4Ljc2MjA4IC00Mi40NDYxNyw3My4zNTA2MyAtNzcuODAzMDcsOTQuNzA3MiAtMzQuMjcwNzcsMjAuNzAwNDQgLTc0Ljc2Mjc1LDMwLjE5Mzk0IC0xMTMuMjUwMjcsMjYuNTUxODQgeiBtIC05My4xMjEzMiwtOTcuMjkzNTMgYyAtMC4zNzIwNCwtMC42MzAwMSAtMS41ODgsLTIuMzgyNTYgLTIuNzAyMTYsLTMuODk0NTYgLTMuMzQ3ODUsLTQuNTQzMzYgLTcuNTU5OTYsLTEzLjY0NDQgLTkuNjE1MTIsLTIwLjc3NTMgLTIuNDY2NzIsLTguNTU4ODUgLTMuNDMwNjcsLTMwLjAzMTM3IC0xLjg0OTYyLC00MS4yMDE0OSAzLjEyMDU0LC0yMi4wNDY4NyAxNC44Nzg3MywtNTMuNTIyMzkgMjIuNDkwOTEsLTYwLjIwNTk3IDcuNTQ2NTEsLTYuNjI1OTIgMTQuNjEwMzMsLTguMTU5NzMgMjQuMzExMjUsLTUuMjc4ODcgMTUuNzk0NDYsNC42OTA0NSAzMy44MDg5OSwtMi4zMTgwOSA0Mi45NDM3LC0xNi43MDcyMiA3LjgwMjQ4LC0xMi4yOTA1NyA3LjY4MDgyLC0zMi4zNTI5NCAtMC4yNTkzMywtNDIuNzYzIC0zLjc1OTcsLTQuOTI5MjMgLTMuMjE3NTUsLTYuMjk3MTMgNC4yMTY2MiwtMTAuNjM4OTIgMTUuMTE2MSwtOC44MjgyOCAzMi40MjY4MiwtMTUuNzU3NTEgNDkuMzIzMzgsLTE5Ljc0MzQ0IDEzLjMxMzYyLC0zLjE0MDcgMzQuNzkyODQsLTMuOTczNTMgNDUuODQ3MTEsLTEuNzc3NjUgOC4zMDkxNywxLjY1MDU4IDE5LjUwMDc2LDYuNDA0NzIgMjQuMDEwODUsMTAuMTk5NzIgMS41MjA4NCwxLjI3OTY5IDMuMDIyMjIsMi4wNjk2NyAzLjMzNjQsMS43NTU0OCAwLjc4MzU5LC0wLjc4MzU5IC02LjI2MDg2LC02Ljc3OTEyIC0xNC41NDY4NywtMTIuMzgwODYgLTE5LjkyOTgzLC0xMy40NzM1IC00My4wNDkzNiwtMjAuMzI5MzMgLTY4LjcyNzUyLC0yMC4zODAzNyAtMjQuMzA0MiwtMC4wNDgzIC00NC42Nzk0MSw1LjAzMzI5IC02Ny44MTExNSwxNi45MTIxMiAtNDIuNzE5MTgsMjEuOTM3NTcgLTcyLjk3ODM1LDYxLjUzNDc2IC04My41NjcyOCwxMDkuMzU2MjcgLTIuNzYyMjQsMTIuNDc0NzUgLTMuMDExNDQsNDIuNTIxMTYgLTAuNDUyMjMsNTQuNTIzODMgNC44NjQ1OCwyMi44MTQ3NiAxNC40ODM1Nyw0Mi43OTYyMSAyOC4zNDI5NSw1OC44NzY1NyA0LjMwMTIxLDQuOTkwNDUgNi4yMDQzNCw2LjY1NzQxIDQuNzA4MTEsNC4xMjM2NiB6IE0gNjIzLjEyOTUsNjk1Ljk0NTM4IGMgOS4yNDA2NywtMS4zMTg2MyAxMS44MTg0OCwtMi4zNjY0MSAxNy4xOTU2MiwtNi45ODkzNCA3LjIyOTc2LC02LjIxNTcyIDIyLjc4ODk4LC0xNi4zODUgMzIuNjYzNTMsLTIxLjM0ODQyIDYuNzcyMDYsLTMuNDAzOTYgMTAuMDYxODEsLTUuNzU0MjIgMTQuMzM5MDcsLTEwLjI0NDA5IDIzLjcwMjA2LC0yNC44ODAyNiAzNi4xNzc0NiwtNzAuMDIxMTEgMzYuMTI5NzgsLTEzMC43MzE1NyAtMC4wNTE0LC02NS40OTc0OCAtMTEuNDg2MTksLTExOS44NzgzNiAtMzEuNTIwMzksLTE0OS45MDM0MSAtNy4xOTcxNCwtMTAuNzg2MjkgLTkuMTM5MTgsLTEyLjMyODE5IC0yMC4wMDUwNCwtMTUuODgzMjggLTkuNTA1OTgsLTMuMTEwMTUgLTMxLjY2MTMzLC0xMy43MzQ5MiAtMzkuMTIzODEsLTE4Ljc2MjExIC0xMS41MjQ0MSwtNy43NjM1OCAtNDAuMDA2NDUsLTYuNzQ5NjMgLTcwLjM1ODU4LDIuNTA0NzMgLTUwLjM2NDE1LDE1LjM1NjAxIC0xMjQuMDc3NDIsNjAuNDYyMjIgLTE2MS4xNDczNiw5OC42MDgzNiAtMjMuMDI4ODksMjMuNjk3NDcgLTMzLjUzMzM4LDQ1LjA1ODA2IC0zMC40OTk2NSw2Mi4wMjAyMyAwLjUxMTUyLDIuODU5OTMgMS4wMjQ0MywxNC4yNzE5MiAxLjEzOTgyLDI1LjM1OTk2IGwgMC4yMDk3OCwyMC4xNjAwNyAzLjA5NzA3LDcuMzEwODcgYyAxNC40Njk3MywzNC4xNTY5MSA2MC4zMDUzOSw3Mi43MzUwMiAxMjQuNzcyMDYsMTA1LjAxNTgxIDQ5Ljg2OTI1LDI0Ljk3MTM0IDk0LjY3NjQzLDM2LjkzOTM0IDEyMy4xMDgxLDMyLjg4MjE5IHogTSA2OC43OTI0MDEsNjE4Ljc3Njc1IEMgNjAuMjM2NzM4LDYwNi41MTg1NCA1Ni44MjI2OCw1OTMuNjIxNDYgNTYuODQ1NTAyLDU3My42NDU2OCBjIDAuMDIzMTcsLTIwLjI3ODkyIDMuOTQ5NDE0LC0zNy43NTA2NCAxMy4zNjEwNTgsLTU5LjQ1NjQ1IDQuNzQ5MDkyLC0xMC45NTI3IDcuNDcxOTE5LC0xNS40MTYwNiAxMS4wNzU1OTUsLTE4LjE1NTUyIDcuODQxNzkzLC01Ljk2MTIxIDEzLjI0MjA5LC03LjAzNDQ0IDIyLjI2NDM5NSwtNC40MjQ3MiAxMC41MjMyMywzLjA0Mzg4IDE5LjI5OTIxLDIuMTQ4MjcgMjkuNDQwMzcsLTMuMDA0NDcgMTkuMDg5NzIsLTkuNjk5NTMgMjYuNDMzMTcsLTM2LjY1NDIyIDE0LjkyNTQ2LC01NC43ODUwMiAtNC40NzYwMywtNy4wNTIxMyAtNC4wNjUwMywtNy44ODQ5NCA2LjkwMjg3LC0xMy45ODcxNyAxNy4yMzM3MiwtOS41ODgzNiAzNi4yMTE2MSwtMTYuMzU0MDUgNTQuNDA4MzEsLTE5LjM5Njc1IDEzLjI2ODY5LC0yLjIxODY5IDM0LjU4MDc2LC0xLjU0ODczIDQzLjY5MzcxLDEuMzczNTUgNy44MDc0OSwyLjUwMzY0IDEyLjYzMjksNC44ODQyNSAxNy4yMjQxMyw4LjQ5NzQ4IDQuMzE2MTgsMy4zOTY3NiA1LjY1NzU5LDIuNjI2NDIgMS41MzU5LC0wLjg4MjAzIC0xNy45NTg0MywtMTUuMjg2NTQgLTM3LjgxNTMxLC0yNC4zNjg5NSAtNjEuODI5MjgsLTI4LjI4MDMzIC0xMi4yODQyNSwtMi4wMDA4NSAtMzUuNjAzNSwtMS4zMjUzOSAtNDguMzQ4NzEsMS40MDA0NiAtNDcuNjg4MDUsMTAuMTk5MTkgLTg4LjEzOTEzNCw0Mi4xMzc0IC0xMDkuNzI3MDQ5LDg2LjYzNTE1IC0yMi41NTY2NzUsNDYuNDk0NTkgLTIwLjEwNTE0Myw5OS4wNjcyMyA2LjQ1NTA3MSwxMzguNDI3NzYgMy44MjAzNCw1LjY2MTUgMTMuMjgwMjMsMTYuODk2NDMgMTQuMjI2OTE0LDE2Ljg5NjQzIDAuMTg0NTQ4LDAgLTEuNDYzMjgzLC0yLjU3NzI5IC0zLjY2MTg0NSwtNS43MjczIHogTSA2MTMuNjM5MjgsMjcwLjE1OTg4IGMgLTQuMzcyMjMsLTUuNDU3OTggLTkuMzM4MjQsLTE3LjIwODMxIC0xMS4zMzEyMywtMjYuODExNDkgLTEuNTM5MiwtNy40MTY1NSAtMS43NDA2MSwtMTEuMDA0ODUgLTEuMzE0NTYsLTIzLjQyMDMzIDAuNzEzNjEsLTIwLjc5NTg3IDQuODcyMDIsLTM3LjU5MjkxIDE0LjQwNTgsLTU4LjE4OTMgNS4yNjU5NCwtMTEuMzc2MzIgNy43MTQwMywtMTQuNjg1OTYgMTMuMjcyNDksLTE3Ljk0MzQ0IDYuNTU2NjYsLTMuODQyNDUgMTAuMTczOTYsLTQuMjg5OCAxNy45NTQ2NCwtMi4yMjA0NSAxNS45Nzk3Myw0LjI0OTk3IDI5LjkzMjMsMC40MjM2MiA0MC42NDM4OSwtMTEuMTQ2MTcgMTEuNjkxMjIsLTEyLjYyNzkyIDEzLjU1NzQsLTM0LjMzNTg5MSA0LjA3Njg1LC00Ny40MjMzOTggLTEuNDgzNTgsLTIuMDQ4MDMzIC0yLjY5NzQzLC00LjUyMjEzOSAtMi42OTc0MywtNS40OTgwMTYgMCwtMi4xNDU4MzIgNi43ODM2MiwtNi40MzY5MSAyMC4zMTE0NCwtMTIuODQ4MzA4IDIxLjUyOTE3LC0xMC4yMDM1NjYgMzguNzAwMSwtMTQuNjM5NzcyIDU5LjQ3ODA5LC0xNS4zNjY1MDQgMjAuNTk4MywtMC43MjA0NDggMzIuNTAyMzYsMS45NDgwNCA0NC4xNDkwOSw5Ljg5NjczMSA3LjIyNDU5LDQuOTMwNjUgNi42NDA5LDIuOTMwMTU2IC0wLjkxNjM2LC0zLjE0MDY4NCAtMjIuMjYxMiwtMTcuODgyNzA5IC00Ny4zMzQxNCwtMjYuNTEyMDM3IC03Ny4yMDM5MSwtMjYuNTcxMTk5IC0xNC4yNTU2LC0wLjAyODIzIC0yMS43NDc0OCwwLjkyODc5IC0zNi4xOTY1LDQuNjIzODAzIC01MC4wNzYzLDEyLjgwNTg5NCAtOTMuMzM5NTUsNTMuNDA2MTgzIC0xMDkuOTg1MiwxMDMuMjE1MzE1IC00Ljg5NDMzLDE0LjY0NTQxIC02Ljg1NjAyLDI1LjY0MDcxIC03LjQ2MzU0LDQxLjgzMzI5IC0xLjI4OTQ5LDM0LjM2OTcxIDguNzU0NCw2NC40ODAxNyAyOS44OTI3MSw4OS42MTQ4NiA1LjE0NjExLDYuMTE5MDQgNy42NzQzMyw3LjMyNTU4IDIuOTIzNzMsMS4zOTUyOSB6IiBzdHlsZT0iZmlsbDojMDAwOTU1O3N0cm9rZTpub25lO3N0cm9rZS13aWR0aDowO3N0b3AtY29sb3I6IzAwMDAwMDtzdHJva2UtbWl0ZXJsaW1pdDo0O3N0cm9rZS1kYXNoYXJyYXk6bm9uZTtmaWxsLW9wYWNpdHk6MTtzdHJva2Utb3BhY2l0eToxIi8+JiN4YTsgIDxwYXRoIGlkPSJwYXRoMjQ3IiBkPSJtIDczOS45NzEyMywxMDE2LjY5MzQgYyAtNjIuMzk0NjQsLTYuNTM3MSAtMTE3LjUzMDUsLTQzLjU1NjgzIC0xNDUuMTc1NTIsLTk3LjQ3NDg1IC0xMy4yOTkzMywtMjUuOTM4NjEgLTE5Ljg3OTAxLC01MS4xMTk5IC0yMS41Njk3NSwtODIuNTUwMjUgLTEuMzcwMTUsLTI1LjQ3MDg3IC02LjQ1ODEzLC0zOS4yMzMxNyAtMjIuMjU1MjgsLTYwLjE5NzU3IC0yNC45NTIwOSwtMzMuMTEzOTEgLTc2LjM2ODIxLC02Ny44MDA1NyAtMTM0Ljk0MDEsLTkxLjAzNDEgLTM5LjY1NTcsLTE1LjczMDEgLTcxLjE0NTg4LC0yMC43NDI0NSAtOTcuMDY4NDgsLTE1LjQ1MDU2IC04LjcyNTA0LDEuNzgxMTUgLTE1LjU5MTI4LDUuMDE4MjEgLTI4LjQ3Mzc5LDEzLjQyMzg0IC0yMi41MDI3MSwxNC42ODI2NiAtNDQuNDY4MDcsMjMuNjE2MDUgLTcxLjY0MzY4LDI5LjEzNzczIC0xMS43NzQwNiwyLjM5MjMzIC0zNi40NDEyLDMuMjg0MDEgLTUxLjA5NzY1LDEuODQ3MTEgQyA5My4yMTY3NzMsNzA3LjA4NzkxIDI5LjAzMTMxMSw2NTMuMjE0MDYgOC43MzM1NzIzLDU4MC45MjczNiAzLjc3ODgzNiw1NjMuMjgxOTggMS45ODYxNjg0LDU0OS45MDA2NyAxLjk4ODE1OTQsNTMwLjU3NjQ0IDEuOTkwMTY1Myw1MTEuMTA5MDYgMy4zMTUxNzQyLDUwMC40NzMyMSA3Ljg2NzM4OTksNDgzLjM4Mzg1IDIzLjUwMjIxNiw0MjQuNjg5NTEgNjUuOTMxMTQ0LDM3Ny43MTU3OCAxMjIuMzM0OTgsMzU2LjY1NDk5IGMgMTAuMjUyNzEsLTMuODI4MjkgMjMuNTM1OTcsLTcuMzAxMzcgMzYuMjM1ODUsLTkuNDc0MzEgMTQuMTg0NzMsLTIuNDI3MDEgNDEuNDM2MDcsLTIuMTkwNCA1Ni43MjA5NCwwLjQ5MjQ5IDE5Ljc4NTA3LDMuNDcyNzggNDAuMDU2MjUsMTAuMzE0OSA1NS45NTI4MywxOC44ODU3MSA1LjAxODMxLDIuNzA1NjggMTAuNjU1MzQsNC43NTczOCAxNy44NjkxNiw2LjUwMzgxIDkuNDY5MjYsMi4yOTI0NiAxMi41MTI0OSwyLjU4NDQ5IDMwLjAwMTQzLDIuODc5MDEgMTQuNTAyNTYsMC4yNDQyMyAyMS41MTUwMywtMC4wMjYzIDI3LjUxMzU0LC0xLjA2MTUgNDguNzE4MTIsLTguNDA3MzYgMTIxLjczMDAyLC00OS43MjAyNCAxNjYuMTI0ODksLTkzLjk5OTY5IDE0LjkzNTY5LC0xNC44OTY4NiAyMi4zMDgyOSwtMjQuNjA4NTUgMjguODgwNDUsLTM4LjA0MzI4IDcuNTc0MzYsLTE1LjQ4MzQgNy44NTU5NCwtMTcuMjY0MDMgOC4xODczMywtNTEuNzc0NzMgMC4yODYxMywtMjkuNzk4MDMgMC43MzY1MiwtMzUuMDU0NTUgNC4xNzAwMSwtNDguNjY4NjcgNC44NTQ3NiwtMTkuMjQ5NiAxNC41OTMwNSwtNDEuNjY2NTUgMjQuOTUyODEsLTU3LjQzOTg0OSAyNC4xNzc1OSwtMzYuODExNzIzIDYwLjYyODY4LC02My43NzQ1ODQgMTAyLjUxNTkyLC03NS44MzA5OTUgNDMuMzMyODIsLTEyLjQ3MjQ5NTEgOTIuNjUyOCwtOS40ODQ0MzE1NSAxMzQuNzgxMDYsOC4xNjU3NDYgMjQuMjE5MjIsMTAuMTQ2OTUyIDQ4Ljk1NjAyLDI4LjkyNDk0MiA2Ni44MzQ2OCw1MC43MzQ5OSAyNi42MzA5MSwzMi40ODY4MjggNDIuMDA0NjcsNzQuNjEzMTI4IDQxLjk5MzQsMTE1LjA2NzUwOCAtMC4wMDksMzAuODYwNjQgLTUuNzM4MTEsNTYuODkzMDggLTE4LjE5MTM1LDgyLjY1NTE3IC0xNi44MzcwNywzNC44MzA4MiAtMzguMTA0NzYsNTcuODMzMjQgLTc0LjAxMDIxLDgwLjA0Njk3IC0xMi4zNjI1LDcuNjQ4MzUgLTE2LjUzNDQ1LDExLjQwOTggLTIxLjgwNTY4LDE5LjY2MDEzIC0yMC41NjI1NSwzMi4xODM3NSAtMjguMjkzNDMsNzguOTU3NDIgLTI1LjM5ODc1LDE1My42NjgzNSAxLjI1NjQ3LDMyLjQyOTMzIDMuNjMxMzMsNTEuNzQ0NTYgOS4yOTUyNSw3NS42MDAyNyA1LjQ1NjYzLDIyLjk4MjY2IDE0LjE0OTE1LDQyLjg0MDM5IDIzLjgxMDY0LDU0LjM5NDUyIDIuNzk4ODYsMy4zNDcxNCA1Ljk3NDc3LDcuMzQxNiA3LjA1NzYxLDguODc2NTkgMS4yNDcsMS43Njc3MiA1LjQzODI4LDQuNTk2ODkgMTEuNDMyNSw3LjcxNzA2IDIwLjM2MTMxLDEwLjU5ODcgMzIuNzIyMTYsMTkuMzY4OTcgNDcuODA5NTcsMzMuOTIxODYgMTcuMDYxNSwxNi40NTcwNCAyOC40NzM5MSwzMi4yMzI4OCAzOC41OTYzNiw1My4zNTMzMSAyNy40MTQxMiw1Ny4xOTk0MSAyNC4xNjA4NCwxMjIuNDM0MTUgLTguNzk4NzcsMTc2LjQzMzQ0IC0xNC41NjA0NSwyMy44NTUwNSAtMzcuODk3NDksNDYuODk4MjkgLTYyLjI2NzYzLDYxLjQ4MzU1IC0yMC4yMTczNSwxMi4wOTk3NSAtNDQuNTcwOTUsMjAuODA3NzUgLTY4LjQ4MDAyLDI0LjQ4NTk1IC0xMS4xMDIxMSwxLjcwNzkgLTMzLjg3NjE5LDIuMzgxMSAtNDQuMTQ3NTcsMS4zMDUgeiBtIC05MS4zMzI2NywtOTYuNDk1MjYgYyAtMC4zNTA1MSwtMC41OTUxOCAtMS41ODcyLC0yLjM0ODgzIC0yLjc0ODE5LC0zLjg5Njk0IC0zLjIzMTI1LC00LjMwODc1IC04LjM3Nzk0LC0xNi4wNDM4OCAtMTAuMDkxMiwtMjMuMDA5MjggLTIuMjgxMzQsLTkuMjc0OTEgLTIuMjY4MDcsLTM2LjUwNjU5IDAuMDIyOSwtNDcuMDI3MDggNC4zNjIzNSwtMjAuMDMyNTQgMTQuMzc2MDQsLTQ0Ljg3NjcxIDIwLjU5NDM3LC01MS4wOTUwMyA2LjU5NTc5LC02LjU5NTc5IDEzLjE0ODE1LC03Ljg3Mjk3IDI2LjEwNTcxLC01LjA4ODU0IDYuMTM1NzEsMS4zMTg1IDguMTUxMTUsMS4zODQ3NCAxMy42MTY2OSwwLjQ0NzUgMjEuNjMzNTcsLTMuNzA5NzQgMzUuMDE2MTYsLTIxLjEzMDYxIDMzLjQ4MTI4LC00My41ODQ0NiAtMC4zOTgxOCwtNS44MjQ5MSAtMS4xMzA4NCwtOC41MTQzNCAtMy43NzkzOCwtMTMuODczMzEgLTEuODA3LC0zLjY1NjIxIC0zLjI4NTQ1LC03LjQ4ODExIC0zLjI4NTQ1LC04LjUxNTMzIDAsLTUuMjI1NjQgMzYuNDI2MDcsLTIxLjIyMjM2IDU3LjczMTExLC0yNS4zNTI5NSAxMC41MzY2NiwtMi4wNDI4NCAzMC44MDY1NCwtMi44MDkyMSAzOS4yNjAyLC0xLjQ4NDM4IDguMTY5ODYsMS4yODAzNiAxOS42ODM0NCw1LjU5NTczIDI0Ljc4MDE3LDkuMjg3NzggMy42MzQ0NywyLjYzMjggNi41MTk4OCwzLjUwNjkxIDYuNTE5ODgsMS45NzUxMyAwLC0yLjQ3Nzk4IC0xNi44MDI3OCwtMTQuNDk3ODMgLTI4LjQwNzM3LC0yMC4zMjExOCAtMTcuMDc0NjMsLTguNTY4MjkgLTM1LjcyMzM1LC0xMi44NDE5MiAtNTYuMDE1OTksLTEyLjgzNjg5IC0yMy40NjU0MywwLjAwNSAtNDEuNTUxNjEsNC4yMjg3NCAtNjQuMDUwMDQsMTQuOTU1MDEgLTQ1LjMwODExLDIxLjYwMDk1IC03OS43ODY4OCw2Ni40NzkxNCAtODguNDc5NDYsMTE1LjE2NjUgLTEuOTE0ODcsMTAuNzI1MjUgLTEuOTAxMTUsNDAuODgyNjQgMC4wMjMyLDUwLjg1ODM3IDQuMTYyNDMsMjEuNTc4NDMgMTUuMzc5NzEsNDQuNzI4ODIgMjkuNDE5MjgsNjAuNzE1OSAyLjMyNjg2LDIuNjQ5NjggNC42MTUxOCw0LjU3OTkxIDUuMDg1MTUsNC4yODk0MiAwLjQ2OTk2LC0wLjI5MDQ4IDAuNTY3NjksLTEuMDE1MDUgMC4yMTcxOCwtMS42MTAyNCB6IE0gNjIxLjc3NTMxLDY5Ni44NDAyIGMgOS42NzA4MiwtMS4yMTI2MiAxMy4wOTMyNSwtMi43MzAzNSAyMi45MTQyOSwtMTAuMTYxNzQgOC4zNzkyOSwtNi4zNDA0MyAyMC42MDA2LC0xNC4xMDY2MyAzMC4xNzkxNSwtMTkuMTc3NzcgMjQuMTYxMzIsLTEyLjc5MTYyIDQxLjEwNzc5LC00OC44MjMzNSA0Ny4zNzQzOSwtMTAwLjcyNzc2IDIuMjI1MzYsLTE4LjQzMjA5IDIuMjEwMzMsLTYzLjY4OTk1IC0wLjAyODYsLTg2LjEzODQ5IC0yLjg4NDg4LC0yOC45MjQ4OSAtNy43MzI2OSwtNTIuOTI4OTIgLTE0LjgwNTQ0LC03My4zMDkzNSAtNi4wODgwNSwtMTcuNTQyOTcgLTE4LjE0MTI5LC0zOC4zODc1OCAtMjQuNjcxNTEsLTQyLjY2NjM1IC0xLjI0Mjg4LC0wLjgxNDM2IC02LjAyMDI2LC0yLjg3ODc0IC0xMC42MTYzOSwtNC41ODc1MSAtOS42Mjc5NiwtMy41Nzk1MiAtMzEuNDM0ODUsLTEzLjkwNjE2IC0zNy41MTg1NCwtMTcuNzY2ODggLTExLjY3NDc5LC03LjQwODg1IC0zMC45MzQ4NiwtOC4xNTQwOCAtNTcuNTgyMiwtMi4yMjgwNSAtMzIuMDYxMDEsNy4xMjk5OCAtNzMuNjcwNDcsMjYuNjUwODYgLTExNS41NDkzOSw1NC4yMDk0NiAtNDkuMTU2NzcsMzIuMzQ3ODEgLTgxLjE5MDc0LDY1LjAzNDQ5IC04OS40OTMzLDkxLjMxNjc3IGwgLTIuMzMxNDIsNy4zODAyMSAxLjA3ODQxLDI5LjMzNTA3IGMgMS4wNzQzMSwyOS4yMjM1NiAxLjA4ODY0LDI5LjM2IDMuNzY5NjIsMzUuODk0MTUgMTQuMDM3NjcsMzQuMjEyODkgNjMuMDg3NTgsNzUuMDQ1NTQgMTI4LjU5MTA2LDEwNy4wNDgzOCAzNC43NzIxNiwxNi45ODg1NCA2Ni4wNTkyLDI3LjY1NDEyIDg5LjgwMzk2LDMwLjYxMzY4IDQuNTM2MDEsMC41NjUzNyA5LjI3ODIxLDEuMTc2ODYgMTAuNTM4MjIsMS4zNTg4NyA0LjcxOTI4LDAuNjgxNyAxMC44MjA3MywwLjU1MTExIDE4LjM0NzcsLTAuMzkyNjkgeiBNIDY5LjgxNTUyMyw2MTguODY2OTMgYyAtNy44NTE2NTksLTEyLjMwMTM2IC0xMC40NzcxODIsLTIwLjM2OTk3IC0xMS41ODQwMywtMzUuNTk5MzkgLTEuNzAzMDY0LC0yMy40MzI5MSAyLjQ1MTIzMywtNDUuMTg5OTcgMTMuNDA5NDIsLTcwLjIyODQgNC4zMjc4MzksLTkuODg4NzEgOC4zODYyMzIsLTE1LjQ0ODUyIDEzLjY1MjQ0NCwtMTguNzAzMjIgNS41NjMzMzEsLTMuNDM4MzIgOS4wNjQ5MzQsLTMuNzM2NTYgMTkuMTcyNDczLC0xLjYzMjk1IDcuODExNzcsMS42MjU4MiAxMC4wOTM0OSwxLjc2NTA1IDE1LjQ2NjM2LDAuOTQzOCAxNC45MDUwMSwtMi4yNzgyNCAyNi44OTUzOSwtMTIuMjU3NyAzMS43Nzc2MywtMjYuNDQ4MTUgMy45NjM3NywtMTEuNTIwOTMgMy4xMjczMSwtMjEuODY5NiAtMi42MzgxMiwtMzIuNjM4NTcgLTIuNjExMzIsLTQuODc3NTcgLTMuMTE2NTEsLTYuNTUxMjIgLTIuMzUxMTMsLTcuNzg5MTIgMS41ODQ3NCwtMi41NjMxMyAxMi44Njk3OSwtOC45OTc4OCAyNC4zMDQzNSwtMTMuODU4NCAxOS43MjU1LC04LjM4NDc4IDM0LjI5MTE4LC0xMS45NTc5MyA1MS42NTIyNCwtMTIuNjcwOTcgMTkuOTE5NTUsLTAuODE4MTQgMzMuNTIzMjEsMS45Mjk3OSA0NC40MjAxMyw4Ljk3MjgxIDMuMDcxMDQsMS45ODQ5MSA1Ljk4MjE2LDMuNjA4OTIgNi40NjkxNSwzLjYwODkyIDUuMDIzOTEsMCAtMTEuMDEwMDgsLTEyLjU3NTE3IC0yNS41Njk5NiwtMjAuMDU0MDggLTM4LjMxMjcyLC0xOS42Nzk5IC04NC42ODk0MSwtMTguMTk0MSAtMTI3LjQzMTQsNC4wODI1OSAtMTQuMjc2MjMsNy40NDA2NCAtMjUuNzM1MzkxLDE1Ljk2OTI2IC0zOC4wOTIwNTgsMjguMzUwNDkgLTEyLjkzMDM3NywxMi45NTYwOSAtMjEuMDg5MTY1LDI0LjA4NTQxIC0yOS4yMTY0OTIsMzkuODUzOTIgLTI0LjU5Njc1Niw0Ny43MjIyMSAtMjMuMjc4NDU1LDEwMS4zNjc3NSAzLjQ3NjY5NSwxNDEuNDc2OTMgNS41OTgxNyw4LjM5MjMzIDE1LjQxNDU0NywxOS42MjI5MSAxNS44OTQxODUsMTguMTg0IDAuMTc0MDAyLC0wLjUyMjAxIC0xLjA5MTM0NywtMy4xNTQ2IC0yLjgxMTg4NywtNS44NTAyMSB6IE0gNjE1Ljc1Njc1LDI3MS45MzE4OCBjIC0wLjg5NDk0LC0xLjM4NjAxIC0yLjU5OTUxLC0zLjk2MzI5IC0zLjc4NzkzLC01LjcyNzI5IC0zLjA1NTg1LC00LjUzNTg1IC03LjIwOTA1LC0xNS43MTk2NyAtOC45MTg1NCwtMjQuMDE2IC0zLjY3MjQ1LC0xNy44MjI3OSAtMC4xMjA1LC00Ny4zODk0NCA4LjI0OTI5LC02OC42NjczNyA3LjYxNjI4LC0xOS4zNjIzNyAxMi41Njg3OCwtMjYuODI2MzMgMjAuMDU2ODksLTMwLjIyNzk0IDQuNTgxNjQsLTIuMDgxMjkgOC41MDc5LC0yLjEyNTUzIDE4Ljk1ODIsLTAuMjEzNjIgOS43NjcyNSwxLjc4NjkzIDE3LjM3OTc4LDAuOTE2MiAyNS4xMjY3OSwtMi44NzQwNiA2LjE0NTk4LC0zLjAwNjk1IDEzLjQ3NjAyLC05LjU2NDcxIDE2LjU0NTQsLTE0LjgwMjIzIDcuNjA1MjUsLTEyLjk3NzM3IDcuNzg2ODQsLTMxLjk5NzY3IDAuNDA0NDksLTQyLjM2NTI0IC0zLjEzNzUyLC00LjQwNjIzNSAtMi41Mzk5NSwtNi44NDE4NDkgMi40NjY5MSwtMTAuMDU0NzQyIDExLjc5NDk1LC03LjU2ODc5NyAzNS44MzY4NiwtMTcuMDQzMTI2IDUxLjg0NTM4LC0yMC40MzA5OTIgMTIuNzE5NzMsLTIuNjkxODY2IDM5LjI4OTgsLTIuOTQ0MzEgNDguMTc5MjMsLTAuNDU3NzU2IDYuMjI5OTQsMS43NDI2MzkgMTIuNzk2MDksNC43OTA2MzcgMTguNjEzMjIsOC42NDAyMzMgMi40MDQ5NiwxLjU5MTUzIDMuODE2NjIsMi4wMzEyMDQgNC40NTkwMSwxLjM4ODgwNyAxLjk4MzY3LC0xLjk4MzY2MyAtMTUuOTk1NzcsLTE1LjA5NTU4IC0yOS45MjQ3NiwtMjEuODIzMzMxIC0xNy44MjM2OCwtOC42MDg4ODggLTM0Ljk0NDIyLC0xMS44Mzk2MjEgLTU5LjA2MDQ2LC0xMS4xNDUwMDcgLTEzLjkwMTgzLDAuNDAwNDEyIC0xNy41MzA0MiwwLjgzNjkzMiAtMjcuMjYwNDUsMy4yNzk0MzIgLTMxLjUwNDYsNy45MDg1MTMgLTU3LjU1MjUxLDIzLjM4ODI2NSAtNzkuODgxNDIsNDcuNDcxOTI4IC0xMC44MDc2NSwxMS42NTY5ODIgLTE4LjQ2MDEsMjIuNzkwMzM4IC0yNS42OTg2NCwzNy4zODgyNTggLTkuOTkyNDQsMjAuMTUxNzQgLTE0LjAyMzA4LDM0LjUzOTA2IC0xNS43Mjc0Miw1Ni4xMzg5MSAtMi4zODMxMywzMC4yMDIzOSA0LjYzNTcxLDU5LjE2NzI0IDIwLjAzNzg1LDgyLjY5MDY4IDYuMDcyODIsOS4yNzQ5MiAxMy43Mjc1NCwxOC4zMjczNCAxNS40OTc1NywxOC4zMjczNCAxLjI3NDAyLDAgMS4yNTI0OCwtMC4zMDA1NCAtMC4xODA2MSwtMi41MjAwMSB6IiBzdHlsZT0iZmlsbDpub25lO3N0cm9rZTpub25lO3N0cm9rZS13aWR0aDoxLjA4NzA1O3N0b3AtY29sb3I6IzAwMDAwMCIvPiYjeGE7PC9zdmc+;" parent="1" vertex="1">
          <mxGeometry x="60.599999999999994" y="199" width="34" height="36.76" as="geometry" />
        </mxCell>
        <mxCell id="V85_4jU4u7jz_W5ndp5X-25" value="" style="shape=image;verticalLabelPosition=bottom;labelBackgroundColor=default;verticalAlign=top;aspect=fixed;imageAspect=0;image=data:image/svg+xml,PHN2ZyB4bWxucz0iaHR0cDovL3d3dy53My5vcmcvMjAwMC9zdmciIGlkPSJzdmcxNDUyIiB2ZXJzaW9uPSIxLjEiIHZpZXdCb3g9IjAgMCAxNzMuMDI4MDkgMTIyLjAwODU5IiBoZWlnaHQ9IjEyMi4wMDg1OW1tIiB3aWR0aD0iMTczLjAyODA5bW0iPiYjeGE7ICAmI3hhOyAgPGRlZnMgaWQ9ImRlZnMxNDQ5Ii8+JiN4YTsgIDxnIHRyYW5zZm9ybT0idHJhbnNsYXRlKC0xMi42NTYzLC0xMTAuMzA1ODkpIiBpZD0ibGF5ZXIxIj4mI3hhOyAgICA8cGF0aCBpZD0icGF0aDQyMDAiIGQ9Im0gNDcuNTc4NzIxLDE5MS43ODY3NCA0NC4yODcwMDcsLTQuMzY2NzEiIHN0eWxlPSJmaWxsOm5vbmU7ZmlsbC1ydWxlOmV2ZW5vZGQ7c3Ryb2tlOiMwMDAwMDA7c3Ryb2tlLXdpZHRoOjI7c3Ryb2tlLWxpbmVjYXA6YnV0dDtzdHJva2UtbGluZWpvaW46bWl0ZXI7c3Ryb2tlLW1pdGVybGltaXQ6NDtzdHJva2UtZGFzaGFycmF5Om5vbmU7c3Ryb2tlLW9wYWNpdHk6MSIvPiYjeGE7ICAgIDxwYXRoIGlkPSJwYXRoNDIwMiIgZD0iTSA3NC4zMzQ0NzMsMjEzLjExNTE0IDg2Ljc3Mzk3MiwxOTQuODgyODkiIHN0eWxlPSJmaWxsOm5vbmU7ZmlsbC1ydWxlOmV2ZW5vZGQ7c3Ryb2tlOiMwMDAwMDA7c3Ryb2tlLXdpZHRoOjI7c3Ryb2tlLWxpbmVjYXA6YnV0dDtzdHJva2UtbGluZWpvaW46bWl0ZXI7c3Ryb2tlLW1pdGVybGltaXQ6NDtzdHJva2UtZGFzaGFycmF5Om5vbmU7c3Ryb2tlLW9wYWNpdHk6MSIvPiYjeGE7ICAgIDxwYXRoIGlkPSJwYXRoNDIwNCIgZD0ibSAxMzguNTc2MDgsMjIxLjc1MTcyIDM2LjU3MzgsLTAuMTE0MzYiIHN0eWxlPSJmaWxsOm5vbmU7ZmlsbC1ydWxlOmV2ZW5vZGQ7c3Ryb2tlOiMwMDAwMDA7c3Ryb2tlLXdpZHRoOjI7c3Ryb2tlLWxpbmVjYXA6YnV0dDtzdHJva2UtbGluZWpvaW46bWl0ZXI7c3Ryb2tlLW1pdGVybGltaXQ6NDtzdHJva2UtZGFzaGFycmF5Om5vbmU7c3Ryb2tlLW9wYWNpdHk6MSIvPiYjeGE7ICAgIDxwYXRoIGlkPSJwYXRoNDIwNiIgZD0ibSA1Ni4wODAzOTMsMTI4LjkxODU2IDE0LjUxNjI4MSwxOS41MDQwMiIgc3R5bGU9ImZpbGw6bm9uZTtmaWxsLXJ1bGU6ZXZlbm9kZDtzdHJva2U6IzAwMDAwMDtzdHJva2Utd2lkdGg6MjtzdHJva2UtbGluZWNhcDpidXR0O3N0cm9rZS1saW5lam9pbjptaXRlcjtzdHJva2UtbWl0ZXJsaW1pdDo0O3N0cm9rZS1kYXNoYXJyYXk6bm9uZTtzdHJva2Utb3BhY2l0eToxIi8+JiN4YTsgICAgPHBhdGggaWQ9InBhdGg0MjA4IiBkPSJtIDU5LjcxOTAxNCwxMjEuNDk3MzkgMzQuMTU0ODE3LC0wLjY1NyIgc3R5bGU9ImZpbGw6bm9uZTtmaWxsLXJ1bGU6ZXZlbm9kZDtzdHJva2U6IzAwMDAwMDtzdHJva2Utd2lkdGg6MjtzdHJva2UtbGluZWNhcDpidXR0O3N0cm9rZS1saW5lam9pbjptaXRlcjtzdHJva2UtbWl0ZXJsaW1pdDo0O3N0cm9rZS1kYXNoYXJyYXk6bm9uZTtzdHJva2Utb3BhY2l0eToxIi8+JiN4YTsgICAgPHBhdGggaWQ9InBhdGg0MjEwIiBkPSJtIDEwMC40OTUyNSwxODQuNzQ1OTUgMzQuMDM3MDcsLTEwLjU0NzI0IiBzdHlsZT0iZmlsbDpub25lO2ZpbGwtcnVsZTpldmVub2RkO3N0cm9rZTojMDAwMDAwO3N0cm9rZS13aWR0aDoyO3N0cm9rZS1saW5lY2FwOmJ1dHQ7c3Ryb2tlLWxpbmVqb2luOm1pdGVyO3N0cm9rZS1taXRlcmxpbWl0OjQ7c3Ryb2tlLWRhc2hhcnJheTpub25lO3N0cm9rZS1vcGFjaXR5OjEiLz4mI3hhOyAgICA8cGF0aCBpZD0icGF0aDMwMzEiIGQ9Ik0gODAuMTE3MjI2LDE0Ny42MzMxMSA5My44NzM4MjgsMTIwLjg0MDQiIHN0eWxlPSJmaWxsOm5vbmU7ZmlsbC1ydWxlOmV2ZW5vZGQ7c3Ryb2tlOiMwMDAwMDA7c3Ryb2tlLXdpZHRoOjI7c3Ryb2tlLWxpbmVjYXA6YnV0dDtzdHJva2UtbGluZWpvaW46bWl0ZXI7c3Ryb2tlLW1pdGVybGltaXQ6NDtzdHJva2UtZGFzaGFycmF5Om5vbmU7c3Ryb2tlLW9wYWNpdHk6MSIvPiYjeGE7ICAgIDxwYXRoIGlkPSJwYXRoMzM5NCIgZD0ibSAzMi4yMjUwMzIsMTU1LjQ0NjQ1IDQzLjc2NTY5LDAuMjIzNTYiIHN0eWxlPSJmaWxsOm5vbmU7ZmlsbC1ydWxlOmV2ZW5vZGQ7c3Ryb2tlOiMwMDAwMDA7c3Ryb2tlLXdpZHRoOjI7c3Ryb2tlLWxpbmVjYXA6YnV0dDtzdHJva2UtbGluZWpvaW46bWl0ZXI7c3Ryb2tlLW1pdGVybGltaXQ6NDtzdHJva2UtZGFzaGFycmF5Om5vbmU7c3Ryb2tlLW9wYWNpdHk6MSIvPiYjeGE7ICAgIDxwYXRoIGlkPSJwYXRoMzE0MyIgZD0ibSA3NS45OTA3MjMsMTU1LjY3MDAxIDI4LjAwNzE1NywtMWUtNSIgc3R5bGU9ImZpbGw6bm9uZTtmaWxsLXJ1bGU6ZXZlbm9kZDtzdHJva2U6IzAwMDAwMDtzdHJva2Utd2lkdGg6MjtzdHJva2UtbGluZWNhcDpidXR0O3N0cm9rZS1saW5lam9pbjptaXRlcjtzdHJva2UtbWl0ZXJsaW1pdDo0O3N0cm9rZS1kYXNoYXJyYXk6bm9uZTtzdHJva2Utb3BhY2l0eToxIi8+JiN4YTsgICAgPHBhdGggaWQ9InBhdGgzMTM1IiBkPSJtIDgwLjAzMTAyNCwxNjMuNzUwNiA3Ljc5NDQwNSwxNS41ODg4MiIgc3R5bGU9ImZpbGw6bm9uZTtmaWxsLXJ1bGU6ZXZlbm9kZDtzdHJva2U6IzAwMDAwMDtzdHJva2Utd2lkdGg6MjtzdHJva2UtbGluZWNhcDpidXR0O3N0cm9rZS1saW5lam9pbjptaXRlcjtzdHJva2UtbWl0ZXJsaW1pdDo0O3N0cm9rZS1kYXNoYXJyYXk6bm9uZTtzdHJva2Utb3BhY2l0eToxIi8+JiN4YTsgICAgPHBhdGggaWQ9InBhdGgzMTM3IiBkPSJtIDk2Ljg3NzE0MSwxNzkuOTAyOTEgMTYuMTU1MjQ5LC0yNC4yMzI5IiBzdHlsZT0iZmlsbDpub25lO2ZpbGwtcnVsZTpldmVub2RkO3N0cm9rZTojMDAwMDAwO3N0cm9rZS13aWR0aDoyO3N0cm9rZS1saW5lY2FwOmJ1dHQ7c3Ryb2tlLWxpbmVqb2luOm1pdGVyO3N0cm9rZS1taXRlcmxpbWl0OjQ7c3Ryb2tlLWRhc2hhcnJheTpub25lO3N0cm9rZS1vcGFjaXR5OjEiLz4mI3hhOyAgICA8cGF0aCBpZD0icGF0aDMxMzkiIGQ9Ik0gMTI3LjY4ODYxLDE2OC4zMDA3OSAxMTMuMDMyMzksMTU1LjY3MDAxIiBzdHlsZT0iZmlsbDpub25lO2ZpbGwtcnVsZTpldmVub2RkO3N0cm9rZTojMDAwMDAwO3N0cm9rZS13aWR0aDoyO3N0cm9rZS1saW5lY2FwOmJ1dHQ7c3Ryb2tlLWxpbmVqb2luOm1pdGVyO3N0cm9rZS1taXRlcmxpbWl0OjQ7c3Ryb2tlLWRhc2hhcnJheTpub25lO3N0cm9rZS1vcGFjaXR5OjEiLz4mI3hhOyAgICA8cGF0aCBpZD0icGF0aDMxNDEiIGQ9Im0gMTIwLjEzNzA3LDE1MC4wODkzNyAzMC4xMzIwNiwtMjMuNjY4MzMiIHN0eWxlPSJmaWxsOm5vbmU7ZmlsbC1ydWxlOmV2ZW5vZGQ7c3Ryb2tlOiMwMDAwMDA7c3Ryb2tlLXdpZHRoOjI7c3Ryb2tlLWxpbmVjYXA6YnV0dDtzdHJva2UtbGluZWpvaW46bWl0ZXI7c3Ryb2tlLW1pdGVybGltaXQ6NDtzdHJva2UtZGFzaGFycmF5Om5vbmU7c3Ryb2tlLW9wYWNpdHk6MSIvPiYjeGE7ICAgIDxwYXRoIGlkPSJwYXRoMzE0NSIgZD0iTSAxMDguNjc4MSwxNDcuNzU0MDUgOTMuODczODI4LDEyMC44NDA0IiBzdHlsZT0iZmlsbDpub25lO2ZpbGwtcnVsZTpldmVub2RkO3N0cm9rZTojMDAwMDAwO3N0cm9rZS13aWR0aDoyO3N0cm9rZS1saW5lY2FwOmJ1dHQ7c3Ryb2tlLWxpbmVqb2luOm1pdGVyO3N0cm9rZS1taXRlcmxpbWl0OjQ7c3Ryb2tlLWRhc2hhcnJheTpub25lO3N0cm9rZS1vcGFjaXR5OjEiLz4mI3hhOyAgICA8Y2lyY2xlIHI9IjkuMDM0NTA3OCIgY3k9IjEyMC44NDA0MSIgY3g9IjE1Ny4zNzM4MSIgaWQ9ImNpcmNsZTE1NTkiIHN0eWxlPSJmaWxsOiNmZmZmZmY7ZmlsbC1vcGFjaXR5OjE7c3Ryb2tlOiM3ODBmNDg7c3Ryb2tlLXdpZHRoOjM7c3Ryb2tlLW1pdGVybGltaXQ6NDtzdHJva2UtZGFzaGFycmF5Om5vbmU7c3Ryb2tlLW9wYWNpdHk6MTtzdG9wLWNvbG9yOiMwMDAwMDAiLz4mI3hhOyAgICA8Y2lyY2xlIHI9IjkuMDM0NTA3OCIgY3k9IjE1NS42NyIgY3g9IjExMy4wMzIzOSIgaWQ9ImNpcmNsZTE1NTktMyIgc3R5bGU9ImZpbGw6I2ZmZmZmZjtmaWxsLW9wYWNpdHk6MTtzdHJva2U6IzRhNzgwZjtzdHJva2Utd2lkdGg6MztzdHJva2UtbWl0ZXJsaW1pdDo0O3N0cm9rZS1kYXNoYXJyYXk6bm9uZTtzdHJva2Utb3BhY2l0eToxO3N0b3AtY29sb3I6IzAwMDAwMCIvPiYjeGE7ICAgIDxjaXJjbGUgcj0iOS4wMzQ1MDc4IiBjeT0iMTkyLjY3MzI1IiBjeD0iMzguNTg3ODE4IiBpZD0iY2lyY2xlMTU1OS0zLTEiIHN0eWxlPSJmaWxsOiNmZmZmZmY7ZmlsbC1vcGFjaXR5OjE7c3Ryb2tlOiM0YTc4MGY7c3Ryb2tlLXdpZHRoOjM7c3Ryb2tlLW1pdGVybGltaXQ6NDtzdHJva2UtZGFzaGFycmF5Om5vbmU7c3Ryb2tlLW9wYWNpdHk6MTtzdG9wLWNvbG9yOiMwMDAwMDAiLz4mI3hhOyAgICA8Y2lyY2xlIHI9IjkuMDM0NTA3OCIgY3k9IjE3NC4xOTg3MiIgY3g9IjEzNC41MzIzMiIgaWQ9ImNpcmNsZTE1NTktMy01IiBzdHlsZT0iZmlsbDojZmZmZmZmO2ZpbGwtb3BhY2l0eToxO3N0cm9rZTojNjYwMGZmO3N0cm9rZS13aWR0aDozO3N0cm9rZS1taXRlcmxpbWl0OjQ7c3Ryb2tlLWRhc2hhcnJheTpub25lO3N0cm9rZS1vcGFjaXR5OjE7c3RvcC1jb2xvcjojMDAwMDAwIi8+JiN4YTsgICAgPGNpcmNsZSByPSI5LjAzNDUwNzgiIGN5PSIxMjEuNjcxMTQiIGN4PSI1MC42ODYzNDQiIGlkPSJjaXJjbGUxNTU5LTMtNS03IiBzdHlsZT0iZmlsbDojZmZmZmZmO2ZpbGwtb3BhY2l0eToxO3N0cm9rZTojNjYwMGZmO3N0cm9rZS13aWR0aDozO3N0cm9rZS1taXRlcmxpbWl0OjQ7c3Ryb2tlLWRhc2hhcnJheTpub25lO3N0cm9rZS1vcGFjaXR5OjE7c3RvcC1jb2xvcjojMDAwMDAwIi8+JiN4YTsgICAgPGNpcmNsZSByPSI5LjAzNDUwNzgiIGN5PSIxNTUuNjciIGN4PSI3NS45OTA3MjMiIGlkPSJjaXJjbGUxNTU5LTMtNiIgc3R5bGU9ImZpbGw6I2ZmZmZmZjtmaWxsLW9wYWNpdHk6MTtzdHJva2U6IzBmNDY3ODtzdHJva2Utd2lkdGg6MztzdHJva2UtbWl0ZXJsaW1pdDo0O3N0cm9rZS1kYXNoYXJyYXk6bm9uZTtzdG9wLWNvbG9yOiMwMDAwMDAiLz4mI3hhOyAgICA8Y2lyY2xlIHI9IjkuMDM0NTA3OCIgY3k9IjIyMC41NzgiIGN4PSI2OS4yNDI3MTQiIGlkPSJjaXJjbGUxNTU5LTMtNi0wIiBzdHlsZT0iZmlsbDojZmZmZmZmO2ZpbGwtb3BhY2l0eToxO3N0cm9rZTojMGY0Njc4O3N0cm9rZS13aWR0aDozO3N0cm9rZS1taXRlcmxpbWl0OjQ7c3Ryb2tlLWRhc2hhcnJheTpub25lO3N0b3AtY29sb3I6IzAwMDAwMCIvPiYjeGE7ICAgIDxjaXJjbGUgcj0iOS4wMzQ1MDc4IiBjeT0iMTU1LjQwMDMiIGN4PSIyMy4xOTA4MDciIGlkPSJjaXJjbGUxNTU5LTMtNi0zIiBzdHlsZT0iZmlsbDojZmZmZmZmO2ZpbGwtb3BhY2l0eToxO3N0cm9rZTojYWE4ODAwO3N0cm9rZS13aWR0aDozO3N0cm9rZS1taXRlcmxpbWl0OjQ7c3Ryb2tlLWRhc2hhcnJheTpub25lO3N0b3AtY29sb3I6IzAwMDAwMCIvPiYjeGE7ICAgIDxjaXJjbGUgcj0iOS4wMzQ1MDc4IiBjeT0iMjIxLjYzNzM2IiBjeD0iMTc1LjE0OTg5IiBpZD0iY2lyY2xlMTU1OS0zLTYtMy0yIiBzdHlsZT0iZmlsbDojZmZmZmZmO2ZpbGwtb3BhY2l0eToxO3N0cm9rZTojYWE4ODAwO3N0cm9rZS13aWR0aDozO3N0cm9rZS1taXRlcmxpbWl0OjQ7c3Ryb2tlLWRhc2hhcnJheTpub25lO3N0b3AtY29sb3I6IzAwMDAwMCIvPiYjeGE7ICAgIDxjaXJjbGUgcj0iOS4wMzQ1MDc4IiBjeT0iMTg3LjQyMDAzIiBjeD0iOTEuODY1NzMiIGlkPSJjaXJjbGUxNTU5LTMtNi03IiBzdHlsZT0iZmlsbDojZmZmZmZmO2ZpbGwtb3BhY2l0eToxO3N0cm9rZTojNzgwZjQ4O3N0cm9rZS13aWR0aDozO3N0cm9rZS1taXRlcmxpbWl0OjQ7c3Ryb2tlLWRhc2hhcnJheTpub25lO3N0cm9rZS1vcGFjaXR5OjE7c3RvcC1jb2xvcjojMDAwMDAwIi8+JiN4YTsgICAgPGNpcmNsZSByPSI5LjAzNDUwNzgiIGN5PSIyMjEuNzc5OTciIGN4PSIxMjkuNTQxNzUiIGlkPSJjaXJjbGUxNTU5LTMtNi03LTUiIHN0eWxlPSJmaWxsOiNmZmZmZmY7ZmlsbC1vcGFjaXR5OjE7c3Ryb2tlOiM3ODBmNDg7c3Ryb2tlLXdpZHRoOjM7c3Ryb2tlLW1pdGVybGltaXQ6NDtzdHJva2UtZGFzaGFycmF5Om5vbmU7c3Ryb2tlLW9wYWNpdHk6MTtzdG9wLWNvbG9yOiMwMDAwMDAiLz4mI3hhOyAgICA8Y2lyY2xlIHI9IjkuMDM0NTA3OCIgY3k9IjEyMC44NDAzOSIgY3g9IjkzLjg3MzgzMyIgaWQ9InBhdGgxNTM1IiBzdHlsZT0iZmlsbDojZmZmZmZmO2ZpbGwtb3BhY2l0eToxO3N0cm9rZTojYWE0NDAwO3N0cm9rZS13aWR0aDozO3N0cm9rZS1taXRlcmxpbWl0OjQ7c3Ryb2tlLWRhc2hhcnJheTpub25lO3N0b3AtY29sb3I6IzAwMDAwMCIvPiYjeGE7ICAgIDxwYXRoIGlkPSJwYXRoMzgyMCIgZD0ibSA5OC41NDEwMDgsMTkzLjUwNzc4IDI0LjMyNTQ2MiwyMi4xODQ0NCIgc3R5bGU9ImZpbGw6bm9uZTtmaWxsLXJ1bGU6ZXZlbm9kZDtzdHJva2U6IzAwMDAwMDtzdHJva2Utd2lkdGg6MjtzdHJva2UtbGluZWNhcDpidXR0O3N0cm9rZS1saW5lam9pbjptaXRlcjtzdHJva2UtbWl0ZXJsaW1pdDo0O3N0cm9rZS1kYXNoYXJyYXk6bm9uZTtzdHJva2Utb3BhY2l0eToxIi8+JiN4YTsgIDwvZz4mI3hhOzwvc3ZnPg==;" parent="1" vertex="1">
          <mxGeometry x="353.59000000000003" y="295" width="113.44" height="80" as="geometry" />
        </mxCell>
        <mxCell id="V85_4jU4u7jz_W5ndp5X-31" value="" style="ellipse;whiteSpace=wrap;html=1;fillColor=#dae8fc;strokeColor=#6c8ebf;" parent="1" vertex="1">
          <mxGeometry x="640" y="259" width="170" height="127" as="geometry" />
        </mxCell>
        <mxCell id="V85_4jU4u7jz_W5ndp5X-32" value="" style="shape=image;verticalLabelPosition=bottom;labelBackgroundColor=default;verticalAlign=top;aspect=fixed;imageAspect=0;image=data:image/svg+xml,PHN2ZyB4bWxucz0iaHR0cDovL3d3dy53My5vcmcvMjAwMC9zdmciIGlkPSJzdmcxNDUyIiB2ZXJzaW9uPSIxLjEiIHZpZXdCb3g9IjAgMCAxNzMuMDI4MDkgMTIyLjAwODU5IiBoZWlnaHQ9IjEyMi4wMDg1OW1tIiB3aWR0aD0iMTczLjAyODA5bW0iPiYjeGE7ICAmI3hhOyAgPGRlZnMgaWQ9ImRlZnMxNDQ5Ii8+JiN4YTsgIDxnIHRyYW5zZm9ybT0idHJhbnNsYXRlKC0xMi42NTYzLC0xMTAuMzA1ODkpIiBpZD0ibGF5ZXIxIj4mI3hhOyAgICA8cGF0aCBpZD0icGF0aDQyMDAiIGQ9Im0gNDcuNTc4NzIxLDE5MS43ODY3NCA0NC4yODcwMDcsLTQuMzY2NzEiIHN0eWxlPSJmaWxsOm5vbmU7ZmlsbC1ydWxlOmV2ZW5vZGQ7c3Ryb2tlOiMwMDAwMDA7c3Ryb2tlLXdpZHRoOjI7c3Ryb2tlLWxpbmVjYXA6YnV0dDtzdHJva2UtbGluZWpvaW46bWl0ZXI7c3Ryb2tlLW1pdGVybGltaXQ6NDtzdHJva2UtZGFzaGFycmF5Om5vbmU7c3Ryb2tlLW9wYWNpdHk6MSIvPiYjeGE7ICAgIDxwYXRoIGlkPSJwYXRoNDIwMiIgZD0iTSA3NC4zMzQ0NzMsMjEzLjExNTE0IDg2Ljc3Mzk3MiwxOTQuODgyODkiIHN0eWxlPSJmaWxsOm5vbmU7ZmlsbC1ydWxlOmV2ZW5vZGQ7c3Ryb2tlOiMwMDAwMDA7c3Ryb2tlLXdpZHRoOjI7c3Ryb2tlLWxpbmVjYXA6YnV0dDtzdHJva2UtbGluZWpvaW46bWl0ZXI7c3Ryb2tlLW1pdGVybGltaXQ6NDtzdHJva2UtZGFzaGFycmF5Om5vbmU7c3Ryb2tlLW9wYWNpdHk6MSIvPiYjeGE7ICAgIDxwYXRoIGlkPSJwYXRoNDIwNCIgZD0ibSAxMzguNTc2MDgsMjIxLjc1MTcyIDM2LjU3MzgsLTAuMTE0MzYiIHN0eWxlPSJmaWxsOm5vbmU7ZmlsbC1ydWxlOmV2ZW5vZGQ7c3Ryb2tlOiMwMDAwMDA7c3Ryb2tlLXdpZHRoOjI7c3Ryb2tlLWxpbmVjYXA6YnV0dDtzdHJva2UtbGluZWpvaW46bWl0ZXI7c3Ryb2tlLW1pdGVybGltaXQ6NDtzdHJva2UtZGFzaGFycmF5Om5vbmU7c3Ryb2tlLW9wYWNpdHk6MSIvPiYjeGE7ICAgIDxwYXRoIGlkPSJwYXRoNDIwNiIgZD0ibSA1Ni4wODAzOTMsMTI4LjkxODU2IDE0LjUxNjI4MSwxOS41MDQwMiIgc3R5bGU9ImZpbGw6bm9uZTtmaWxsLXJ1bGU6ZXZlbm9kZDtzdHJva2U6IzAwMDAwMDtzdHJva2Utd2lkdGg6MjtzdHJva2UtbGluZWNhcDpidXR0O3N0cm9rZS1saW5lam9pbjptaXRlcjtzdHJva2UtbWl0ZXJsaW1pdDo0O3N0cm9rZS1kYXNoYXJyYXk6bm9uZTtzdHJva2Utb3BhY2l0eToxIi8+JiN4YTsgICAgPHBhdGggaWQ9InBhdGg0MjA4IiBkPSJtIDU5LjcxOTAxNCwxMjEuNDk3MzkgMzQuMTU0ODE3LC0wLjY1NyIgc3R5bGU9ImZpbGw6bm9uZTtmaWxsLXJ1bGU6ZXZlbm9kZDtzdHJva2U6IzAwMDAwMDtzdHJva2Utd2lkdGg6MjtzdHJva2UtbGluZWNhcDpidXR0O3N0cm9rZS1saW5lam9pbjptaXRlcjtzdHJva2UtbWl0ZXJsaW1pdDo0O3N0cm9rZS1kYXNoYXJyYXk6bm9uZTtzdHJva2Utb3BhY2l0eToxIi8+JiN4YTsgICAgPHBhdGggaWQ9InBhdGg0MjEwIiBkPSJtIDEwMC40OTUyNSwxODQuNzQ1OTUgMzQuMDM3MDcsLTEwLjU0NzI0IiBzdHlsZT0iZmlsbDpub25lO2ZpbGwtcnVsZTpldmVub2RkO3N0cm9rZTojMDAwMDAwO3N0cm9rZS13aWR0aDoyO3N0cm9rZS1saW5lY2FwOmJ1dHQ7c3Ryb2tlLWxpbmVqb2luOm1pdGVyO3N0cm9rZS1taXRlcmxpbWl0OjQ7c3Ryb2tlLWRhc2hhcnJheTpub25lO3N0cm9rZS1vcGFjaXR5OjEiLz4mI3hhOyAgICA8cGF0aCBpZD0icGF0aDMwMzEiIGQ9Ik0gODAuMTE3MjI2LDE0Ny42MzMxMSA5My44NzM4MjgsMTIwLjg0MDQiIHN0eWxlPSJmaWxsOm5vbmU7ZmlsbC1ydWxlOmV2ZW5vZGQ7c3Ryb2tlOiMwMDAwMDA7c3Ryb2tlLXdpZHRoOjI7c3Ryb2tlLWxpbmVjYXA6YnV0dDtzdHJva2UtbGluZWpvaW46bWl0ZXI7c3Ryb2tlLW1pdGVybGltaXQ6NDtzdHJva2UtZGFzaGFycmF5Om5vbmU7c3Ryb2tlLW9wYWNpdHk6MSIvPiYjeGE7ICAgIDxwYXRoIGlkPSJwYXRoMzM5NCIgZD0ibSAzMi4yMjUwMzIsMTU1LjQ0NjQ1IDQzLjc2NTY5LDAuMjIzNTYiIHN0eWxlPSJmaWxsOm5vbmU7ZmlsbC1ydWxlOmV2ZW5vZGQ7c3Ryb2tlOiMwMDAwMDA7c3Ryb2tlLXdpZHRoOjI7c3Ryb2tlLWxpbmVjYXA6YnV0dDtzdHJva2UtbGluZWpvaW46bWl0ZXI7c3Ryb2tlLW1pdGVybGltaXQ6NDtzdHJva2UtZGFzaGFycmF5Om5vbmU7c3Ryb2tlLW9wYWNpdHk6MSIvPiYjeGE7ICAgIDxwYXRoIGlkPSJwYXRoMzE0MyIgZD0ibSA3NS45OTA3MjMsMTU1LjY3MDAxIDI4LjAwNzE1NywtMWUtNSIgc3R5bGU9ImZpbGw6bm9uZTtmaWxsLXJ1bGU6ZXZlbm9kZDtzdHJva2U6IzAwMDAwMDtzdHJva2Utd2lkdGg6MjtzdHJva2UtbGluZWNhcDpidXR0O3N0cm9rZS1saW5lam9pbjptaXRlcjtzdHJva2UtbWl0ZXJsaW1pdDo0O3N0cm9rZS1kYXNoYXJyYXk6bm9uZTtzdHJva2Utb3BhY2l0eToxIi8+JiN4YTsgICAgPHBhdGggaWQ9InBhdGgzMTM1IiBkPSJtIDgwLjAzMTAyNCwxNjMuNzUwNiA3Ljc5NDQwNSwxNS41ODg4MiIgc3R5bGU9ImZpbGw6bm9uZTtmaWxsLXJ1bGU6ZXZlbm9kZDtzdHJva2U6IzAwMDAwMDtzdHJva2Utd2lkdGg6MjtzdHJva2UtbGluZWNhcDpidXR0O3N0cm9rZS1saW5lam9pbjptaXRlcjtzdHJva2UtbWl0ZXJsaW1pdDo0O3N0cm9rZS1kYXNoYXJyYXk6bm9uZTtzdHJva2Utb3BhY2l0eToxIi8+JiN4YTsgICAgPHBhdGggaWQ9InBhdGgzMTM3IiBkPSJtIDk2Ljg3NzE0MSwxNzkuOTAyOTEgMTYuMTU1MjQ5LC0yNC4yMzI5IiBzdHlsZT0iZmlsbDpub25lO2ZpbGwtcnVsZTpldmVub2RkO3N0cm9rZTojMDAwMDAwO3N0cm9rZS13aWR0aDoyO3N0cm9rZS1saW5lY2FwOmJ1dHQ7c3Ryb2tlLWxpbmVqb2luOm1pdGVyO3N0cm9rZS1taXRlcmxpbWl0OjQ7c3Ryb2tlLWRhc2hhcnJheTpub25lO3N0cm9rZS1vcGFjaXR5OjEiLz4mI3hhOyAgICA8cGF0aCBpZD0icGF0aDMxMzkiIGQ9Ik0gMTI3LjY4ODYxLDE2OC4zMDA3OSAxMTMuMDMyMzksMTU1LjY3MDAxIiBzdHlsZT0iZmlsbDpub25lO2ZpbGwtcnVsZTpldmVub2RkO3N0cm9rZTojMDAwMDAwO3N0cm9rZS13aWR0aDoyO3N0cm9rZS1saW5lY2FwOmJ1dHQ7c3Ryb2tlLWxpbmVqb2luOm1pdGVyO3N0cm9rZS1taXRlcmxpbWl0OjQ7c3Ryb2tlLWRhc2hhcnJheTpub25lO3N0cm9rZS1vcGFjaXR5OjEiLz4mI3hhOyAgICA8cGF0aCBpZD0icGF0aDMxNDEiIGQ9Im0gMTIwLjEzNzA3LDE1MC4wODkzNyAzMC4xMzIwNiwtMjMuNjY4MzMiIHN0eWxlPSJmaWxsOm5vbmU7ZmlsbC1ydWxlOmV2ZW5vZGQ7c3Ryb2tlOiMwMDAwMDA7c3Ryb2tlLXdpZHRoOjI7c3Ryb2tlLWxpbmVjYXA6YnV0dDtzdHJva2UtbGluZWpvaW46bWl0ZXI7c3Ryb2tlLW1pdGVybGltaXQ6NDtzdHJva2UtZGFzaGFycmF5Om5vbmU7c3Ryb2tlLW9wYWNpdHk6MSIvPiYjeGE7ICAgIDxwYXRoIGlkPSJwYXRoMzE0NSIgZD0iTSAxMDguNjc4MSwxNDcuNzU0MDUgOTMuODczODI4LDEyMC44NDA0IiBzdHlsZT0iZmlsbDpub25lO2ZpbGwtcnVsZTpldmVub2RkO3N0cm9rZTojMDAwMDAwO3N0cm9rZS13aWR0aDoyO3N0cm9rZS1saW5lY2FwOmJ1dHQ7c3Ryb2tlLWxpbmVqb2luOm1pdGVyO3N0cm9rZS1taXRlcmxpbWl0OjQ7c3Ryb2tlLWRhc2hhcnJheTpub25lO3N0cm9rZS1vcGFjaXR5OjEiLz4mI3hhOyAgICA8Y2lyY2xlIHI9IjkuMDM0NTA3OCIgY3k9IjEyMC44NDA0MSIgY3g9IjE1Ny4zNzM4MSIgaWQ9ImNpcmNsZTE1NTkiIHN0eWxlPSJmaWxsOiNmZmZmZmY7ZmlsbC1vcGFjaXR5OjE7c3Ryb2tlOiM3ODBmNDg7c3Ryb2tlLXdpZHRoOjM7c3Ryb2tlLW1pdGVybGltaXQ6NDtzdHJva2UtZGFzaGFycmF5Om5vbmU7c3Ryb2tlLW9wYWNpdHk6MTtzdG9wLWNvbG9yOiMwMDAwMDAiLz4mI3hhOyAgICA8Y2lyY2xlIHI9IjkuMDM0NTA3OCIgY3k9IjE1NS42NyIgY3g9IjExMy4wMzIzOSIgaWQ9ImNpcmNsZTE1NTktMyIgc3R5bGU9ImZpbGw6I2ZmZmZmZjtmaWxsLW9wYWNpdHk6MTtzdHJva2U6IzRhNzgwZjtzdHJva2Utd2lkdGg6MztzdHJva2UtbWl0ZXJsaW1pdDo0O3N0cm9rZS1kYXNoYXJyYXk6bm9uZTtzdHJva2Utb3BhY2l0eToxO3N0b3AtY29sb3I6IzAwMDAwMCIvPiYjeGE7ICAgIDxjaXJjbGUgcj0iOS4wMzQ1MDc4IiBjeT0iMTkyLjY3MzI1IiBjeD0iMzguNTg3ODE4IiBpZD0iY2lyY2xlMTU1OS0zLTEiIHN0eWxlPSJmaWxsOiNmZmZmZmY7ZmlsbC1vcGFjaXR5OjE7c3Ryb2tlOiM0YTc4MGY7c3Ryb2tlLXdpZHRoOjM7c3Ryb2tlLW1pdGVybGltaXQ6NDtzdHJva2UtZGFzaGFycmF5Om5vbmU7c3Ryb2tlLW9wYWNpdHk6MTtzdG9wLWNvbG9yOiMwMDAwMDAiLz4mI3hhOyAgICA8Y2lyY2xlIHI9IjkuMDM0NTA3OCIgY3k9IjE3NC4xOTg3MiIgY3g9IjEzNC41MzIzMiIgaWQ9ImNpcmNsZTE1NTktMy01IiBzdHlsZT0iZmlsbDojZmZmZmZmO2ZpbGwtb3BhY2l0eToxO3N0cm9rZTojNjYwMGZmO3N0cm9rZS13aWR0aDozO3N0cm9rZS1taXRlcmxpbWl0OjQ7c3Ryb2tlLWRhc2hhcnJheTpub25lO3N0cm9rZS1vcGFjaXR5OjE7c3RvcC1jb2xvcjojMDAwMDAwIi8+JiN4YTsgICAgPGNpcmNsZSByPSI5LjAzNDUwNzgiIGN5PSIxMjEuNjcxMTQiIGN4PSI1MC42ODYzNDQiIGlkPSJjaXJjbGUxNTU5LTMtNS03IiBzdHlsZT0iZmlsbDojZmZmZmZmO2ZpbGwtb3BhY2l0eToxO3N0cm9rZTojNjYwMGZmO3N0cm9rZS13aWR0aDozO3N0cm9rZS1taXRlcmxpbWl0OjQ7c3Ryb2tlLWRhc2hhcnJheTpub25lO3N0cm9rZS1vcGFjaXR5OjE7c3RvcC1jb2xvcjojMDAwMDAwIi8+JiN4YTsgICAgPGNpcmNsZSByPSI5LjAzNDUwNzgiIGN5PSIxNTUuNjciIGN4PSI3NS45OTA3MjMiIGlkPSJjaXJjbGUxNTU5LTMtNiIgc3R5bGU9ImZpbGw6I2ZmZmZmZjtmaWxsLW9wYWNpdHk6MTtzdHJva2U6IzBmNDY3ODtzdHJva2Utd2lkdGg6MztzdHJva2UtbWl0ZXJsaW1pdDo0O3N0cm9rZS1kYXNoYXJyYXk6bm9uZTtzdG9wLWNvbG9yOiMwMDAwMDAiLz4mI3hhOyAgICA8Y2lyY2xlIHI9IjkuMDM0NTA3OCIgY3k9IjIyMC41NzgiIGN4PSI2OS4yNDI3MTQiIGlkPSJjaXJjbGUxNTU5LTMtNi0wIiBzdHlsZT0iZmlsbDojZmZmZmZmO2ZpbGwtb3BhY2l0eToxO3N0cm9rZTojMGY0Njc4O3N0cm9rZS13aWR0aDozO3N0cm9rZS1taXRlcmxpbWl0OjQ7c3Ryb2tlLWRhc2hhcnJheTpub25lO3N0b3AtY29sb3I6IzAwMDAwMCIvPiYjeGE7ICAgIDxjaXJjbGUgcj0iOS4wMzQ1MDc4IiBjeT0iMTU1LjQwMDMiIGN4PSIyMy4xOTA4MDciIGlkPSJjaXJjbGUxNTU5LTMtNi0zIiBzdHlsZT0iZmlsbDojZmZmZmZmO2ZpbGwtb3BhY2l0eToxO3N0cm9rZTojYWE4ODAwO3N0cm9rZS13aWR0aDozO3N0cm9rZS1taXRlcmxpbWl0OjQ7c3Ryb2tlLWRhc2hhcnJheTpub25lO3N0b3AtY29sb3I6IzAwMDAwMCIvPiYjeGE7ICAgIDxjaXJjbGUgcj0iOS4wMzQ1MDc4IiBjeT0iMjIxLjYzNzM2IiBjeD0iMTc1LjE0OTg5IiBpZD0iY2lyY2xlMTU1OS0zLTYtMy0yIiBzdHlsZT0iZmlsbDojZmZmZmZmO2ZpbGwtb3BhY2l0eToxO3N0cm9rZTojYWE4ODAwO3N0cm9rZS13aWR0aDozO3N0cm9rZS1taXRlcmxpbWl0OjQ7c3Ryb2tlLWRhc2hhcnJheTpub25lO3N0b3AtY29sb3I6IzAwMDAwMCIvPiYjeGE7ICAgIDxjaXJjbGUgcj0iOS4wMzQ1MDc4IiBjeT0iMTg3LjQyMDAzIiBjeD0iOTEuODY1NzMiIGlkPSJjaXJjbGUxNTU5LTMtNi03IiBzdHlsZT0iZmlsbDojZmZmZmZmO2ZpbGwtb3BhY2l0eToxO3N0cm9rZTojNzgwZjQ4O3N0cm9rZS13aWR0aDozO3N0cm9rZS1taXRlcmxpbWl0OjQ7c3Ryb2tlLWRhc2hhcnJheTpub25lO3N0cm9rZS1vcGFjaXR5OjE7c3RvcC1jb2xvcjojMDAwMDAwIi8+JiN4YTsgICAgPGNpcmNsZSByPSI5LjAzNDUwNzgiIGN5PSIyMjEuNzc5OTciIGN4PSIxMjkuNTQxNzUiIGlkPSJjaXJjbGUxNTU5LTMtNi03LTUiIHN0eWxlPSJmaWxsOiNmZmZmZmY7ZmlsbC1vcGFjaXR5OjE7c3Ryb2tlOiM3ODBmNDg7c3Ryb2tlLXdpZHRoOjM7c3Ryb2tlLW1pdGVybGltaXQ6NDtzdHJva2UtZGFzaGFycmF5Om5vbmU7c3Ryb2tlLW9wYWNpdHk6MTtzdG9wLWNvbG9yOiMwMDAwMDAiLz4mI3hhOyAgICA8Y2lyY2xlIHI9IjkuMDM0NTA3OCIgY3k9IjEyMC44NDAzOSIgY3g9IjkzLjg3MzgzMyIgaWQ9InBhdGgxNTM1IiBzdHlsZT0iZmlsbDojZmZmZmZmO2ZpbGwtb3BhY2l0eToxO3N0cm9rZTojYWE0NDAwO3N0cm9rZS13aWR0aDozO3N0cm9rZS1taXRlcmxpbWl0OjQ7c3Ryb2tlLWRhc2hhcnJheTpub25lO3N0b3AtY29sb3I6IzAwMDAwMCIvPiYjeGE7ICAgIDxwYXRoIGlkPSJwYXRoMzgyMCIgZD0ibSA5OC41NDEwMDgsMTkzLjUwNzc4IDI0LjMyNTQ2MiwyMi4xODQ0NCIgc3R5bGU9ImZpbGw6bm9uZTtmaWxsLXJ1bGU6ZXZlbm9kZDtzdHJva2U6IzAwMDAwMDtzdHJva2Utd2lkdGg6MjtzdHJva2UtbGluZWNhcDpidXR0O3N0cm9rZS1saW5lam9pbjptaXRlcjtzdHJva2UtbWl0ZXJsaW1pdDo0O3N0cm9rZS1kYXNoYXJyYXk6bm9uZTtzdHJva2Utb3BhY2l0eToxIi8+JiN4YTsgIDwvZz4mI3hhOzwvc3ZnPg==;" parent="1" vertex="1">
          <mxGeometry x="663.59" y="294" width="113.44" height="80" as="geometry" />
        </mxCell>
        <mxCell id="V85_4jU4u7jz_W5ndp5X-33" value="" style="shape=image;verticalLabelPosition=bottom;labelBackgroundColor=default;verticalAlign=top;aspect=fixed;imageAspect=0;image=data:image/svg+xml,PHN2ZyB4bWxucz0iaHR0cDovL3d3dy53My5vcmcvMjAwMC9zdmciIHhtbG5zOnhsaW5rPSJodHRwOi8vd3d3LnczLm9yZy8xOTk5L3hsaW5rIiB3aWR0aD0iODA3LjAxMjQ1IiBoZWlnaHQ9Ijk0MS41ODA4MSIgaWQ9InN2ZzIiIHZlcnNpb249IjEuMSIgdmlld0JveD0iMCAwIDgwNy4wMTI0NSA5NDEuNTgwODEiPiYjeGE7ICAmI3hhOyAgPGRlZnMgaWQ9ImRlZnM0Ij4mI3hhOyAgICA8Y2xpcFBhdGggaWQ9Il9jbGlwUGF0aF9YOTJyeVRQT2tkeklVM3dtN2lQejQ2WTN0Nk9FdFJMTSI+JiN4YTsgICAgICA8cmVjdCB5PSIwIiB4PSIwIiB3aWR0aD0iMjAwIiBoZWlnaHQ9IjIwMCIgaWQ9InJlY3Q3Ii8+JiN4YTsgICAgPC9jbGlwUGF0aD4mI3hhOyAgPC9kZWZzPiYjeGE7ICA8bWV0YWRhdGEgaWQ9Im1ldGFkYXRhNyI+JiN4YTsgICAgJiN4YTsgICAgICAmI3hhOyAgICAgICAgaW1hZ2Uvc3ZnK3htbCYjeGE7ICAgICAgICAmI3hhOyAgICAgICYjeGE7ICAgICYjeGE7ICA8L21ldGFkYXRhPiYjeGE7ICA8ZyBpZD0ibGF5ZXIxIiB0cmFuc2Zvcm09InRyYW5zbGF0ZSgtNTcxLjg5MTExLDYwNC44NTgpIj4mI3hhOyAgICA8ZyBzdHlsZT0ic3Ryb2tlLXdpZHRoOjAuNTY0MjU0IiBpZD0iZzg1MCIgdHJhbnNmb3JtPSJtYXRyaXgoMS43NzIyNTA2LDAsMCwxLjc3MjI1MDYsLTI3MS45OTkwMSwtNzQwLjM5NjMxKSI+JiN4YTsgICAgICA8ZyBzdHlsZT0ic3Ryb2tlLXdpZHRoOjAuNjA5MjM4IiB0cmFuc2Zvcm09Im1hdHJpeCgwLjg1Nzc4MDM0LDAsMCwxLDEzMi40ODE3MiwwKSIgaWQ9Imc1NDUiPiYjeGE7ICAgICAgICA8cGF0aCBzdHlsZT0iZmlsbDojOGM4YzRjO3N0cm9rZS13aWR0aDoxLjAyNDE0IiBkPSJtIDg3Ny4zNjY2LDc2LjQ3ODA3MiBjIDUzLjgwMSwxMjUuMDI4MTY4IDI4Ljg2ODgsNDU5LjExOTAwOCAtNTcuNzM3Niw0ODAuMTE0NDk4IC00My4zMDMyLDMwLjE4MTAyIC05Ny4xMDQxMyw1MS4xNzY1MSAtMTU0Ljg0MTc0LDUxLjE3NjUxIC01Ni40MjU0LDAgLTEwNy42MDE5MSwtMTguMzcxMDUgLTE1MC4yNDkwMiwtNDcuMjM5ODYgLTgyLjkzMjIxLC0xMTYuNzg3NDQgLTExNS44MTY0LC0yNTUuODgyNiAtNjUuMzQ4NDcsLTQ4Mi44ODMyNzQgMzYuMDg1OTksMTcuODMzMDQzIDQ1LjI3MTU0LDM1LjU0ODAwNCA2Ni4yNjcwMyw1My4yNjI5NTQgMzkuMTA0MSwtMjIuODMyNiA5OS40NjYxNiwtMjkuNjU2MTQgMTQ5LjMzMDQ2LC0yOS42NTYxNCA1MS4xNzY1MSwwIDExNS40NzUxOSwxNS4zNTI5NiAxNTIuMjE3MywyNy45NTAyNSAyMC45OTU1NCwtMTcuNzE0OTQgMzkuMzY2NTQsLTQwLjQxNjMyOSA2MC4zNjIwNCwtNTIuNzI0OTM4IHoiLz4mI3hhOyAgICAgICAgPHBhdGggc3R5bGU9ImZpbGw6IzU0NmMzMDtzdHJva2Utd2lkdGg6MS4wMjQxNCIgZD0ibSA0MjYuNjE5NjEsMzAwLjcwOTk3IGMgLTczLjM1MzAyLDE2Ny45NjM5NiAyNS45ODE5MywyNDYuNjk3MDggODUuOTUwMywyNjkuMDA0NzkgMjIuMzA3NzIsLTU2LjQyNTQgMzEuNDkzMjQsLTEzMS4yMjE4NSAtODUuOTUwMywtMjY5LjAwNDc5IHoiIGlkPSJ3aW5nIi8+JiN4YTsgICAgICAgIDx1c2Ugc3R5bGU9InN0cm9rZS13aWR0aDowLjYwOTIzNztmaWxsOiM1NDZjMzAiIGhlaWdodD0iMTA1Mi4zNjIyIiB3aWR0aD0iNzQ0LjA5NDQ4IiB5PSIwIiB4PSIwIiBpZD0idXNlMTkiIHRyYW5zZm9ybT0ibWF0cml4KC0xLDAsMCwxLDEzMzIuMTk4OSwxZS02KSIgeGxpbms6aHJlZj0iI3dpbmciLz4mI3hhOyAgICAgICAgPHBhdGggZD0iTSA2NjYuNzU1NTksMjY0LjM2MTUxIEEgMTEwLjIyNjM2LDExMC4yMjYzNiAwIDAgMSA1NTYuNTI5MjQsMzc0LjU4Nzg3IDExMC4yMjYzNiwxMTAuMjI2MzYgMCAwIDEgNDQ2LjMwMjg4LDI2NC4zNjE1MSAxMTAuMjI2MzYsMTEwLjIyNjM2IDAgMCAxIDU1Ni41MjkyNCwxNTQuMTM1MTUgMTEwLjIyNjM2LDExMC4yMjYzNiAwIDAgMSA2NjYuNzU1NTksMjY0LjM2MTUxIFoiIHN0eWxlPSJmaWxsOiM3MDdjNDA7c3Ryb2tlLXdpZHRoOjAuNzk5NDUzIiBpZD0iY2lyY2xlMjIiLz4mI3hhOyAgICAgICAgPGNpcmNsZSBjeD0iNTUxLjkzNjQ2IiBjeT0iMjYxLjM0MzQxIiByPSI4MS43NTEyMTMiIGlkPSJjaXJjbGUyNCIgc3R5bGU9ImZpbGw6I2ZmZmZmZjtzdHJva2Utd2lkdGg6MC43OTk0NTMiLz4mI3hhOyAgICAgICAgPGNpcmNsZSBjeD0iNTUwLjYyNDI3IiBjeT0iMjY3LjkwNDUxIiByPSI1OC4zOTM3MjMiIGlkPSJjaXJjbGUyNiIgc3R5bGU9ImZpbGw6IzFhMWExYTtzdHJva2Utd2lkdGg6MC43OTk0NTMiLz4mI3hhOyAgICAgICAgPGNpcmNsZSBjeD0iNTQyLjc1MDkyIiBjeT0iMjQ0LjI4NDU4IiByPSIxNS4wOTA1MTIiIGlkPSJjaXJjbGUyOCIgc3R5bGU9ImZpbGw6I2ZmZmZmZjtzdHJva2Utd2lkdGg6MC43OTk0NTMiLz4mI3hhOyAgICAgICAgPGNpcmNsZSB0cmFuc2Zvcm09InNjYWxlKC0xLDEpIiBzdHlsZT0iZmlsbDojNzA3YzQwO2ZpbGwtb3BhY2l0eToxO3N0cm9rZS13aWR0aDowLjc5OTQ1MyIgaWQ9ImNpcmNsZTM4MDIiIHI9IjExMC4yMjYzNiIgY3k9IjI2NC4zNjE1MSIgY3g9Ii03NzMuMDQ1MjMiLz4mI3hhOyAgICAgICAgPGNpcmNsZSB0cmFuc2Zvcm09InNjYWxlKC0xLDEpIiBzdHlsZT0iZmlsbDojZmZmZmZmO3N0cm9rZS13aWR0aDowLjc5OTQ1MyIgaWQ9ImNpcmNsZTM4MDQiIHI9IjgxLjc1MTIxMyIgY3k9IjI2MS4zNDM0MSIgY3g9Ii03NzcuNjM3OTQiLz4mI3hhOyAgICAgICAgPGNpcmNsZSBzdHlsZT0iZmlsbDojMWExYTFhO3N0cm9rZS13aWR0aDowLjc5OTQ1MyIgaWQ9ImNpcmNsZTM4MDYiIHI9IjU4LjM5MzcyMyIgY3k9IjI2Ny45MDQ1MSIgY3g9Ijc3OC45NTAxMyIvPiYjeGE7ICAgICAgICA8Y2lyY2xlIHN0eWxlPSJmaWxsOiNmZmZmZmY7c3Ryb2tlLXdpZHRoOjAuNzk5NDUzIiBpZD0iY2lyY2xlMzgwOCIgcj0iMTUuMDkwNTEyIiBjeT0iMjQ0LjI4NDU4IiBjeD0iNzcxLjA3Njg0Ii8+JiN4YTsgICAgICAgIDxwYXRoIGlkPSJwYXRoMzgzMCIgZD0ibSA2NjQuOTM4OTIsMzgwLjY1NDU0IGMgLTMuNjQ1OTUsMCAtMzkuMjk1MjYsLTc5LjM4NzU2IC0zOS4yOTUyNiwtNzkuMzg3NTYgMCwwIDMxLjU5ODI1LC0xOC43MjcxMiA0MC41MTA1OSwtMTguNzI3MTIgOC45MTIzNCwwIDM5LjcwMDM2LDIwLjg2MDA1IDM5LjcwMDM2LDIwLjg2MDA1IDAsMCAtMzcuMjY5NzQsNzguMzIxMTEgLTQwLjkxNTY5LDc3LjI1NDYzIHoiIHN0eWxlPSJmaWxsOiNhMDVhMmM7ZmlsbC1vcGFjaXR5OjE7c3Ryb2tlOm5vbmU7c3Ryb2tlLXdpZHRoOjEuMDI0MTQiLz4mI3hhOyAgICAgIDwvZz4mI3hhOyAgICA8L2c+JiN4YTsgIDwvZz4mI3hhOzwvc3ZnPg==;" parent="1" vertex="1">
          <mxGeometry x="39" y="73.87" width="24.88412017167382" height="29.01287553648069" as="geometry" />
        </mxCell>
        <mxCell id="V85_4jU4u7jz_W5ndp5X-34" value="" style="shape=image;verticalLabelPosition=bottom;labelBackgroundColor=default;verticalAlign=top;aspect=fixed;imageAspect=0;image=data:image/svg+xml,PHN2ZyB4bWxucz0iaHR0cDovL3d3dy53My5vcmcvMjAwMC9zdmciIHhtbG5zOnhsaW5rPSJodHRwOi8vd3d3LnczLm9yZy8xOTk5L3hsaW5rIiB3aWR0aD0iODA3LjAxMjQ1IiBoZWlnaHQ9Ijk0MS41ODA4MSIgaWQ9InN2ZzIiIHZlcnNpb249IjEuMSIgdmlld0JveD0iMCAwIDgwNy4wMTI0NSA5NDEuNTgwODEiPiYjeGE7ICAmI3hhOyAgPGRlZnMgaWQ9ImRlZnM0Ij4mI3hhOyAgICA8Y2xpcFBhdGggaWQ9Il9jbGlwUGF0aF9YOTJyeVRQT2tkeklVM3dtN2lQejQ2WTN0Nk9FdFJMTSI+JiN4YTsgICAgICA8cmVjdCB5PSIwIiB4PSIwIiB3aWR0aD0iMjAwIiBoZWlnaHQ9IjIwMCIgaWQ9InJlY3Q3Ii8+JiN4YTsgICAgPC9jbGlwUGF0aD4mI3hhOyAgPC9kZWZzPiYjeGE7ICA8bWV0YWRhdGEgaWQ9Im1ldGFkYXRhNyI+JiN4YTsgICAgJiN4YTsgICAgICAmI3hhOyAgICAgICAgaW1hZ2Uvc3ZnK3htbCYjeGE7ICAgICAgICAmI3hhOyAgICAgICYjeGE7ICAgICYjeGE7ICA8L21ldGFkYXRhPiYjeGE7ICA8ZyBpZD0ibGF5ZXIxIiB0cmFuc2Zvcm09InRyYW5zbGF0ZSgtNTcxLjg5MTExLDYwNC44NTgpIj4mI3hhOyAgICA8ZyBzdHlsZT0ic3Ryb2tlLXdpZHRoOjAuNTY0MjU0IiBpZD0iZzg1MCIgdHJhbnNmb3JtPSJtYXRyaXgoMS43NzIyNTA2LDAsMCwxLjc3MjI1MDYsLTI3MS45OTkwMSwtNzQwLjM5NjMxKSI+JiN4YTsgICAgICA8ZyBzdHlsZT0ic3Ryb2tlLXdpZHRoOjAuNjA5MjM4IiB0cmFuc2Zvcm09Im1hdHJpeCgwLjg1Nzc4MDM0LDAsMCwxLDEzMi40ODE3MiwwKSIgaWQ9Imc1NDUiPiYjeGE7ICAgICAgICA8cGF0aCBzdHlsZT0iZmlsbDojZWNjYzg0O3N0cm9rZS13aWR0aDoxLjAyNDE0IiBkPSJtIDg3Ny4zNjY2LDc2LjQ3ODA3MiBjIDUzLjgwMSwxMjUuMDI4MTY4IDI4Ljg2ODgsNDU5LjExOTAwOCAtNTcuNzM3Niw0ODAuMTE0NDk4IC00My4zMDMyLDMwLjE4MTAyIC05Ny4xMDQxMyw1MS4xNzY1MSAtMTU0Ljg0MTc0LDUxLjE3NjUxIC01Ni40MjU0LDAgLTEwNy42MDE5MSwtMTguMzcxMDUgLTE1MC4yNDkwMiwtNDcuMjM5ODYgLTgyLjkzMjIxLC0xMTYuNzg3NDQgLTExNS44MTY0LC0yNTUuODgyNiAtNjUuMzQ4NDcsLTQ4Mi44ODMyNzQgMzYuMDg1OTksMTcuODMzMDQzIDQ1LjI3MTU0LDM1LjU0ODAwNCA2Ni4yNjcwMyw1My4yNjI5NTQgMzkuMTA0MSwtMjIuODMyNiA5OS40NjYxNiwtMjkuNjU2MTQgMTQ5LjMzMDQ2LC0yOS42NTYxNCA1MS4xNzY1MSwwIDExNS40NzUxOSwxNS4zNTI5NiAxNTIuMjE3MywyNy45NTAyNSAyMC45OTU1NCwtMTcuNzE0OTQgMzkuMzY2NTQsLTQwLjQxNjMyOSA2MC4zNjIwNCwtNTIuNzI0OTM4IHoiLz4mI3hhOyAgICAgICAgPHBhdGggc3R5bGU9ImZpbGw6I2M0YjQ2YztzdHJva2Utd2lkdGg6MS4wMjQxNCIgZD0ibSA0MjYuNjE5NjEsMzAwLjcwOTk3IGMgLTczLjM1MzAyLDE2Ny45NjM5NiAyNS45ODE5MywyNDYuNjk3MDggODUuOTUwMywyNjkuMDA0NzkgMjIuMzA3NzIsLTU2LjQyNTQgMzEuNDkzMjQsLTEzMS4yMjE4NSAtODUuOTUwMywtMjY5LjAwNDc5IHoiIGlkPSJ3aW5nIi8+JiN4YTsgICAgICAgIDx1c2Ugc3R5bGU9InN0cm9rZS13aWR0aDowLjYwOTIzNyIgaGVpZ2h0PSIxMDUyLjM2MjIiIHdpZHRoPSI3NDQuMDk0NDgiIHk9IjAiIHg9IjAiIGlkPSJ1c2UxOSIgdHJhbnNmb3JtPSJtYXRyaXgoLTEsMCwwLDEsMTMzMi4xOTg5LDFlLTYpIiB4bGluazpocmVmPSIjd2luZyIvPiYjeGE7ICAgICAgICA8cGF0aCBkPSJNIDY2Ni43NTU1OSwyNjQuMzYxNTEgQSAxMTAuMjI2MzYsMTEwLjIyNjM2IDAgMCAxIDU1Ni41MjkyNCwzNzQuNTg3ODcgMTEwLjIyNjM2LDExMC4yMjYzNiAwIDAgMSA0NDYuMzAyODgsMjY0LjM2MTUxIDExMC4yMjYzNiwxMTAuMjI2MzYgMCAwIDEgNTU2LjUyOTI0LDE1NC4xMzUxNSAxMTAuMjI2MzYsMTEwLjIyNjM2IDAgMCAxIDY2Ni43NTU1OSwyNjQuMzYxNTEgWiIgc3R5bGU9ImZpbGw6I2FjYzBiMDtzdHJva2Utd2lkdGg6MC43OTk0NTMiIGlkPSJjaXJjbGUyMiIvPiYjeGE7ICAgICAgICA8Y2lyY2xlIGN4PSI1NTEuOTM2NDYiIGN5PSIyNjEuMzQzNDEiIHI9IjgxLjc1MTIxMyIgaWQ9ImNpcmNsZTI0IiBzdHlsZT0iZmlsbDojZmZmZmZmO3N0cm9rZS13aWR0aDowLjc5OTQ1MyIvPiYjeGE7ICAgICAgICA8Y2lyY2xlIGN4PSI1NTAuNjI0MjciIGN5PSIyNjcuOTA0NTEiIHI9IjU4LjM5MzcyMyIgaWQ9ImNpcmNsZTI2IiBzdHlsZT0iZmlsbDojMWExYTFhO3N0cm9rZS13aWR0aDowLjc5OTQ1MyIvPiYjeGE7ICAgICAgICA8Y2lyY2xlIGN4PSI1NDIuNzUwOTIiIGN5PSIyNDQuMjg0NTgiIHI9IjE1LjA5MDUxMiIgaWQ9ImNpcmNsZTI4IiBzdHlsZT0iZmlsbDojZmZmZmZmO3N0cm9rZS13aWR0aDowLjc5OTQ1MyIvPiYjeGE7ICAgICAgICA8Y2lyY2xlIHRyYW5zZm9ybT0ic2NhbGUoLTEsMSkiIHN0eWxlPSJmaWxsOiNhY2MwYjA7ZmlsbC1vcGFjaXR5OjE7c3Ryb2tlLXdpZHRoOjAuNzk5NDUzIiBpZD0iY2lyY2xlMzgwMiIgcj0iMTEwLjIyNjM2IiBjeT0iMjY0LjM2MTUxIiBjeD0iLTc3My4wNDUyMyIvPiYjeGE7ICAgICAgICA8Y2lyY2xlIHRyYW5zZm9ybT0ic2NhbGUoLTEsMSkiIHN0eWxlPSJmaWxsOiNmZmZmZmY7c3Ryb2tlLXdpZHRoOjAuNzk5NDUzIiBpZD0iY2lyY2xlMzgwNCIgcj0iODEuNzUxMjEzIiBjeT0iMjYxLjM0MzQxIiBjeD0iLTc3Ny42Mzc5NCIvPiYjeGE7ICAgICAgICA8Y2lyY2xlIHN0eWxlPSJmaWxsOiMxYTFhMWE7c3Ryb2tlLXdpZHRoOjAuNzk5NDUzIiBpZD0iY2lyY2xlMzgwNiIgcj0iNTguMzkzNzIzIiBjeT0iMjY3LjkwNDUxIiBjeD0iNzc4Ljk1MDEzIi8+JiN4YTsgICAgICAgIDxjaXJjbGUgc3R5bGU9ImZpbGw6I2ZmZmZmZjtzdHJva2Utd2lkdGg6MC43OTk0NTMiIGlkPSJjaXJjbGUzODA4IiByPSIxNS4wOTA1MTIiIGN5PSIyNDQuMjg0NTgiIGN4PSI3NzEuMDc2ODQiLz4mI3hhOyAgICAgICAgPHBhdGggaWQ9InBhdGgzODMwIiBkPSJtIDY2NC45Mzg5MiwzODAuNjU0NTQgYyAtMy42NDU5NSwwIC0zOS4yOTUyNiwtNzkuMzg3NTYgLTM5LjI5NTI2LC03OS4zODc1NiAwLDAgMzEuNTk4MjUsLTE4LjcyNzEyIDQwLjUxMDU5LC0xOC43MjcxMiA4LjkxMjM0LDAgMzkuNzAwMzYsMjAuODYwMDUgMzkuNzAwMzYsMjAuODYwMDUgMCwwIC0zNy4yNjk3NCw3OC4zMjExMSAtNDAuOTE1NjksNzcuMjU0NjMgeiIgc3R5bGU9ImZpbGw6I2EwNWEyYztmaWxsLW9wYWNpdHk6MTtzdHJva2U6bm9uZTtzdHJva2Utd2lkdGg6MS4wMjQxNCIvPiYjeGE7ICAgICAgPC9nPiYjeGE7ICAgIDwvZz4mI3hhOyAgPC9nPiYjeGE7PC9zdmc+;" parent="1" vertex="1">
          <mxGeometry x="75" y="73.87" width="24.88412017167382" height="29.01287553648069" as="geometry" />
        </mxCell>
        <mxCell id="V85_4jU4u7jz_W5ndp5X-35" value="" style="shape=image;verticalLabelPosition=bottom;labelBackgroundColor=default;verticalAlign=top;aspect=fixed;imageAspect=0;image=data:image/svg+xml,PHN2ZyB4bWxucz0iaHR0cDovL3d3dy53My5vcmcvMjAwMC9zdmciIHhtbG5zOnhsaW5rPSJodHRwOi8vd3d3LnczLm9yZy8xOTk5L3hsaW5rIiB3aWR0aD0iODA3LjAxMjQ1IiBoZWlnaHQ9Ijk0MS41ODA4MSIgaWQ9InN2ZzIiIHZlcnNpb249IjEuMSIgdmlld0JveD0iMCAwIDgwNy4wMTI0NSA5NDEuNTgwODEiPiYjeGE7ICAmI3hhOyAgPGRlZnMgaWQ9ImRlZnM0Ij4mI3hhOyAgICA8Y2xpcFBhdGggaWQ9Il9jbGlwUGF0aF9YOTJyeVRQT2tkeklVM3dtN2lQejQ2WTN0Nk9FdFJMTSI+JiN4YTsgICAgICA8cmVjdCB5PSIwIiB4PSIwIiB3aWR0aD0iMjAwIiBoZWlnaHQ9IjIwMCIgaWQ9InJlY3Q3Ii8+JiN4YTsgICAgPC9jbGlwUGF0aD4mI3hhOyAgPC9kZWZzPiYjeGE7ICA8bWV0YWRhdGEgaWQ9Im1ldGFkYXRhNyI+JiN4YTsgICAgJiN4YTsgICAgICAmI3hhOyAgICAgICAgaW1hZ2Uvc3ZnK3htbCYjeGE7ICAgICAgICAmI3hhOyAgICAgICYjeGE7ICAgICYjeGE7ICA8L21ldGFkYXRhPiYjeGE7ICA8ZyBpZD0ibGF5ZXIxIiB0cmFuc2Zvcm09InRyYW5zbGF0ZSgtNTcxLjg5MTExLDYwNC44NTgpIj4mI3hhOyAgICA8ZyBzdHlsZT0ic3Ryb2tlLXdpZHRoOjAuNTY0MjU0IiBpZD0iZzg1MCIgdHJhbnNmb3JtPSJtYXRyaXgoMS43NzIyNTA2LDAsMCwxLjc3MjI1MDYsLTI3MS45OTkwMSwtNzQwLjM5NjMxKSI+JiN4YTsgICAgICA8ZyBzdHlsZT0ic3Ryb2tlLXdpZHRoOjAuNjA5MjM4IiB0cmFuc2Zvcm09Im1hdHJpeCgwLjg1Nzc4MDM0LDAsMCwxLDEzMi40ODE3MiwwKSIgaWQ9Imc1NDUiPiYjeGE7ICAgICAgICA8cGF0aCBzdHlsZT0iZmlsbDojOTBiNGI4O3N0cm9rZS13aWR0aDoxLjAyNDE0IiBkPSJtIDg3Ny4zNjY2LDc2LjQ3ODA3MiBjIDUzLjgwMSwxMjUuMDI4MTY4IDI4Ljg2ODgsNDU5LjExOTAwOCAtNTcuNzM3Niw0ODAuMTE0NDk4IC00My4zMDMyLDMwLjE4MTAyIC05Ny4xMDQxMyw1MS4xNzY1MSAtMTU0Ljg0MTc0LDUxLjE3NjUxIC01Ni40MjU0LDAgLTEwNy42MDE5MSwtMTguMzcxMDUgLTE1MC4yNDkwMiwtNDcuMjM5ODYgLTgyLjkzMjIxLC0xMTYuNzg3NDQgLTExNS44MTY0LC0yNTUuODgyNiAtNjUuMzQ4NDcsLTQ4Mi44ODMyNzQgMzYuMDg1OTksMTcuODMzMDQzIDQ1LjI3MTU0LDM1LjU0ODAwNCA2Ni4yNjcwMyw1My4yNjI5NTQgMzkuMTA0MSwtMjIuODMyNiA5OS40NjYxNiwtMjkuNjU2MTQgMTQ5LjMzMDQ2LC0yOS42NTYxNCA1MS4xNzY1MSwwIDExNS40NzUxOSwxNS4zNTI5NiAxNTIuMjE3MywyNy45NTAyNSAyMC45OTU1NCwtMTcuNzE0OTQgMzkuMzY2NTQsLTQwLjQxNjMyOSA2MC4zNjIwNCwtNTIuNzI0OTM4IHoiLz4mI3hhOyAgICAgICAgPHBhdGggc3R5bGU9ImZpbGw6IzkwODQ3NDtzdHJva2Utd2lkdGg6MS4wMjQxNCIgZD0ibSA0MjYuNjE5NjEsMzAwLjcwOTk3IGMgLTczLjM1MzAyLDE2Ny45NjM5NiAyNS45ODE5MywyNDYuNjk3MDggODUuOTUwMywyNjkuMDA0NzkgMjIuMzA3NzIsLTU2LjQyNTQgMzEuNDkzMjQsLTEzMS4yMjE4NSAtODUuOTUwMywtMjY5LjAwNDc5IHoiIGlkPSJ3aW5nIi8+JiN4YTsgICAgICAgIDx1c2Ugc3R5bGU9InN0cm9rZS13aWR0aDowLjYwOTIzNyIgaGVpZ2h0PSIxMDUyLjM2MjIiIHdpZHRoPSI3NDQuMDk0NDgiIHk9IjAiIHg9IjAiIGlkPSJ1c2UxOSIgdHJhbnNmb3JtPSJtYXRyaXgoLTEsMCwwLDEsMTMzMi4xOTg5LDFlLTYpIiB4bGluazpocmVmPSIjd2luZyIvPiYjeGE7ICAgICAgICA8cGF0aCBkPSJNIDY2Ni43NTU1OSwyNjQuMzYxNTEgQSAxMTAuMjI2MzYsMTEwLjIyNjM2IDAgMCAxIDU1Ni41MjkyNCwzNzQuNTg3ODcgMTEwLjIyNjM2LDExMC4yMjYzNiAwIDAgMSA0NDYuMzAyODgsMjY0LjM2MTUxIDExMC4yMjYzNiwxMTAuMjI2MzYgMCAwIDEgNTU2LjUyOTI0LDE1NC4xMzUxNSAxMTAuMjI2MzYsMTEwLjIyNjM2IDAgMCAxIDY2Ni43NTU1OSwyNjQuMzYxNTEgWiIgc3R5bGU9ImZpbGw6IzkwOGM4MDtzdHJva2Utd2lkdGg6MC43OTk0NTMiIGlkPSJjaXJjbGUyMiIvPiYjeGE7ICAgICAgICA8Y2lyY2xlIGN4PSI1NTEuOTM2NDYiIGN5PSIyNjEuMzQzNDEiIHI9IjgxLjc1MTIxMyIgaWQ9ImNpcmNsZTI0IiBzdHlsZT0iZmlsbDojZmZmZmZmO3N0cm9rZS13aWR0aDowLjc5OTQ1MyIvPiYjeGE7ICAgICAgICA8Y2lyY2xlIGN4PSI1NTAuNjI0MjciIGN5PSIyNjcuOTA0NTEiIHI9IjU4LjM5MzcyMyIgaWQ9ImNpcmNsZTI2IiBzdHlsZT0iZmlsbDojMWExYTFhO3N0cm9rZS13aWR0aDowLjc5OTQ1MyIvPiYjeGE7ICAgICAgICA8Y2lyY2xlIGN4PSI1NDIuNzUwOTIiIGN5PSIyNDQuMjg0NTgiIHI9IjE1LjA5MDUxMiIgaWQ9ImNpcmNsZTI4IiBzdHlsZT0iZmlsbDojZmZmZmZmO3N0cm9rZS13aWR0aDowLjc5OTQ1MyIvPiYjeGE7ICAgICAgICA8Y2lyY2xlIHRyYW5zZm9ybT0ic2NhbGUoLTEsMSkiIHN0eWxlPSJmaWxsOiM5MDhjODA7ZmlsbC1vcGFjaXR5OjE7c3Ryb2tlLXdpZHRoOjAuNzk5NDUzIiBpZD0iY2lyY2xlMzgwMiIgcj0iMTEwLjIyNjM2IiBjeT0iMjY0LjM2MTUxIiBjeD0iLTc3My4wNDUyMyIvPiYjeGE7ICAgICAgICA8Y2lyY2xlIHRyYW5zZm9ybT0ic2NhbGUoLTEsMSkiIHN0eWxlPSJmaWxsOiNmZmZmZmY7c3Ryb2tlLXdpZHRoOjAuNzk5NDUzIiBpZD0iY2lyY2xlMzgwNCIgcj0iODEuNzUxMjEzIiBjeT0iMjYxLjM0MzQxIiBjeD0iLTc3Ny42Mzc5NCIvPiYjeGE7ICAgICAgICA8Y2lyY2xlIHN0eWxlPSJmaWxsOiMxYTFhMWE7c3Ryb2tlLXdpZHRoOjAuNzk5NDUzIiBpZD0iY2lyY2xlMzgwNiIgcj0iNTguMzkzNzIzIiBjeT0iMjY3LjkwNDUxIiBjeD0iNzc4Ljk1MDEzIi8+JiN4YTsgICAgICAgIDxjaXJjbGUgc3R5bGU9ImZpbGw6I2ZmZmZmZjtzdHJva2Utd2lkdGg6MC43OTk0NTMiIGlkPSJjaXJjbGUzODA4IiByPSIxNS4wOTA1MTIiIGN5PSIyNDQuMjg0NTgiIGN4PSI3NzEuMDc2ODQiLz4mI3hhOyAgICAgICAgPHBhdGggaWQ9InBhdGgzODMwIiBkPSJtIDY2NC45Mzg5MiwzODAuNjU0NTQgYyAtMy42NDU5NSwwIC0zOS4yOTUyNiwtNzkuMzg3NTYgLTM5LjI5NTI2LC03OS4zODc1NiAwLDAgMzEuNTk4MjUsLTE4LjcyNzEyIDQwLjUxMDU5LC0xOC43MjcxMiA4LjkxMjM0LDAgMzkuNzAwMzYsMjAuODYwMDUgMzkuNzAwMzYsMjAuODYwMDUgMCwwIC0zNy4yNjk3NCw3OC4zMjExMSAtNDAuOTE1NjksNzcuMjU0NjMgeiIgc3R5bGU9ImZpbGw6I2EwNWEyYztmaWxsLW9wYWNpdHk6MTtzdHJva2U6bm9uZTtzdHJva2Utd2lkdGg6MS4wMjQxNCIvPiYjeGE7ICAgICAgPC9nPiYjeGE7ICAgIDwvZz4mI3hhOyAgPC9nPiYjeGE7PC9zdmc+;" parent="1" vertex="1">
          <mxGeometry x="110.11587982832619" y="73.87" width="24.88412017167382" height="29.01287553648069" as="geometry" />
        </mxCell>
        <mxCell id="V85_4jU4u7jz_W5ndp5X-37" value="" style="shape=image;verticalLabelPosition=bottom;labelBackgroundColor=default;verticalAlign=top;aspect=fixed;imageAspect=0;image=data:image/svg+xml,PHN2ZyB4bWxucz0iaHR0cDovL3d3dy53My5vcmcvMjAwMC9zdmciIGhlaWdodD0iMzY1IiB3aWR0aD0iMzIyLjIwMDAxIiB4bWw6c3BhY2U9InByZXNlcnZlIiB2aWV3Qm94PSIwIDAgMzIyLjIwMDAxIDM2NSIgeT0iMHB4IiB4PSIwcHgiIGlkPSJMYXllcl8xIiB2ZXJzaW9uPSIxLjEiPjxkZWZzIGlkPSJkZWZzMjMiLz4mI3hhOzxzdHlsZSBpZD0ic3R5bGUyIiB0eXBlPSJ0ZXh0L2NzcyI+JiN4YTsJLnN0MHtmaWxsOiMwMDhDQzE7fSYjeGE7CS5zdDF7ZmlsbDojRkZGRkZGO30mI3hhOwkuc3Qye2ZpbGw6IzY2QjI0NTt9JiN4YTs8L3N0eWxlPiYjeGE7PGcgdHJhbnNmb3JtPSJ0cmFuc2xhdGUoLTg4LjksLTY3LjUpIiBpZD0iWE1MSURfMV8iPiYjeGE7CTxwYXRoIGQ9Im0gMzk1LjksMjMzLjIgYyAwLDg0LjggLTY4LjcsMTUzLjUgLTE1My41LDE1My41IC04NC44LDAgLTE1My41LC02OC44IC0xNTMuNSwtMTUzLjUgMCwtODQuOCA2OC43LC0xNTMuNSAxNTMuNSwtMTUzLjUgODQuOCwtMC4xIDE1My41LDY4LjcgMTUzLjUsMTUzLjUiIGNsYXNzPSJzdDAiIGlkPSJYTUxJRF8zXyIvPiYjeGE7CTxwYXRoIGQ9Im0gMTU2LjksMTgyLjggYyAwLDYuOCAtNS41LDEyLjMgLTEyLjMsMTIuMyAtNi44LDAgLTEyLjMsLTUuNSAtMTIuMywtMTIuMyAwLC02LjggNS41LC0xMi4zIDEyLjMsLTEyLjMgNi45LDAgMTIuMyw1LjUgMTIuMywxMi4zIiBjbGFzcz0ic3QxIiBpZD0iWE1MSURfNF8iLz4mI3hhOwk8cGF0aCBkPSJtIDE1OSwyMTYuNSBjIDAsNi44IC01LjUsMTIuMyAtMTIuMywxMi4zIC02LjgsMCAtMTIuMywtNS41IC0xMi4zLC0xMi4zIDAsLTYuOCA1LjUsLTEyLjMgMTIuMywtMTIuMyA2LjgsMCAxMi4zLDUuNSAxMi4zLDEyLjMiIGNsYXNzPSJzdDEiIGlkPSJYTUxJRF81XyIvPiYjeGE7CTxwYXRoIGQ9Im0gMTY2LjUsMjUyLjIgYyAwLDYuOCAtNS41LDEyLjMgLTEyLjMsMTIuMyAtNi44LDAgLTEyLjMsLTUuNSAtMTIuMywtMTIuMyAwLC02LjggNS41LC0xMi4zIDEyLjMsLTEyLjMgNi44LC0wLjEgMTIuMyw1LjUgMTIuMywxMi4zIiBjbGFzcz0ic3QxIiBpZD0iWE1MSURfNl8iLz4mI3hhOwk8cGF0aCBkPSJtIDE4My4zLDI4NC4yIGMgMCw2LjggLTUuNSwxMi4zIC0xMi4zLDEyLjMgLTYuOCwwIC0xMi4zLC01LjUgLTEyLjMsLTEyLjMgMCwtNi44IDUuNSwtMTIuMyAxMi4zLC0xMi4zIDYuOCwtMC4xIDEyLjMsNS40IDEyLjMsMTIuMyIgY2xhc3M9InN0MSIgaWQ9IlhNTElEXzdfIi8+JiN4YTsJPHBhdGggZD0ibSAzMTQuOCwzMjguOSBjIDAsNi44IC01LjUsMTIuMyAtMTIuMywxMi4zIC02LjgsMCAtMTIuMywtNS41IC0xMi4zLC0xMi4zIDAsLTYuOCA1LjUsLTEyLjMgMTIuMywtMTIuMyA2LjgsMCAxMi4zLDUuNSAxMi4zLDEyLjMiIGNsYXNzPSJzdDEiIGlkPSJYTUxJRF84XyIvPiYjeGE7CTxwYXRoIGQ9Im0gMzM3LjEsMzAyLjUgYyAwLDYuOCAtNS41LDEyLjMgLTEyLjMsMTIuMyAtNi44LDAgLTEyLjMsLTUuNSAtMTIuMywtMTIuMyAwLC02LjggNS41LC0xMi4zIDEyLjMsLTEyLjMgNi44LDAgMTIuMyw1LjUgMTIuMywxMi4zIiBjbGFzcz0ic3QxIiBpZD0iWE1MSURfOV8iLz4mI3hhOwk8cGF0aCBkPSJtIDI3Mi40LDExNS44IGMgMCw2LjggLTUuNSwxMi4zIC0xMi4zLDEyLjMgLTYuOCwwIC0xMi4zLC01LjUgLTEyLjMsLTEyLjMgMCwtNi44IDUuNSwtMTIuMyAxMi4zLC0xMi4zIDYuOCwwIDEyLjMsNS41IDEyLjMsMTIuMyIgY2xhc3M9InN0MSIgaWQ9IlhNTElEXzEwXyIvPiYjeGE7CTxwYXRoIGQ9Im0gMjQwLjEsMTA0LjUgYyAwLDYuOCAtNS41LDEyLjMgLTEyLjMsMTIuMyAtNi44LDAgLTEyLjMsLTUuNSAtMTIuMywtMTIuMyAwLC02LjggNS41LC0xMi4zIDEyLjMsLTEyLjMgNi44LDAgMTIuMyw1LjUgMTIuMywxMi4zIiBjbGFzcz0ic3QxIiBpZD0iWE1MSURfMTFfIi8+JiN4YTsJPHBhdGggZD0ibSAzMjcuMSwxMTQuOCBjIDQ1LjIsMCA4MS44LDM2LjYgODEuOCw4MS44IDAsNDUuMiAtMzYuNiw4MS44IC04MS44LDgxLjggLTQ1LjIsMCAtODEuOCwtMzYuNiAtODEuOCwtODEuOCAwLC00NS4yIDM2LjYsLTgxLjggODEuOCwtODEuOCIgY2xhc3M9InN0MiIgaWQ9IlhNTElEXzEyXyIvPiYjeGE7CTxwYXRoIGQ9Im0gMzI3LjEsMjgwLjYgYyAtNDYuMywwIC04NCwtMzcuNyAtODQsLTg0IDAsLTQ2LjMgMzcuNywtODQgODQsLTg0IDQ2LjMsMCA4NCwzNy43IDg0LDg0IDAsNDYuMyAtMzcuNyw4NCAtODQsODQgeiBtIDAsLTE2My42IGMgLTQzLjksMCAtNzkuNiwzNS43IC03OS42LDc5LjYgMCw0My45IDM1LjcsNzkuNiA3OS42LDc5LjYgNDMuOSwwIDc5LjYsLTM1LjcgNzkuNiwtNzkuNiAwLC00My45IC0zNS43LC03OS42IC03OS42LC03OS42IHoiIGNsYXNzPSJzdDEiIGlkPSJYTUxJRF8xNV8iLz4mI3hhOwk8cGF0aCBkPSJtIDIxNSwyOTYuNCBjIDM3LDAgNjYuOSwzMCA2Ni45LDY2LjkgMCwzNyAtMzAsNjYuOSAtNjYuOSw2Ni45IC0zNywwIC02Ni45LC0zMCAtNjYuOSwtNjYuOSAwLC0zNi45IDMwLC02Ni45IDY2LjksLTY2LjkiIGNsYXNzPSJzdDIiIGlkPSJYTUxJRF8xNl8iLz4mI3hhOwk8cGF0aCBkPSJtIDIxNSw0MzIuNSBjIC0zOC4xLDAgLTY5LjEsLTMxIC02OS4xLC02OS4xIDAsLTM4LjEgMzEsLTY5LjEgNjkuMSwtNjkuMSAzOC4xLDAgNjkuMSwzMSA2OS4xLDY5LjEgMC4xLDM4LjEgLTMxLDY5LjEgLTY5LjEsNjkuMSB6IG0gMCwtMTMzLjkgYyAtMzUuNywwIC02NC43LDI5IC02NC43LDY0LjcgMCwzNS43IDI5LDY0LjcgNjQuNyw2NC43IDM1LjcsMCA2NC43LC0yOSA2NC43LC02NC43IDAuMSwtMzUuNiAtMjksLTY0LjcgLTY0LjcsLTY0LjcgeiIgY2xhc3M9InN0MSIgaWQ9IlhNTElEXzE5XyIvPiYjeGE7CTxwYXRoIGQ9Im0gMTU5LjksNjkuNyBjIDI0LjYsMCA0NC42LDIwIDQ0LjYsNDQuNiAwLDI0LjYgLTIwLDQ0LjYgLTQ0LjYsNDQuNiAtMjQuNiwwIC00NC42LC0yMCAtNDQuNiwtNDQuNiAwLC0yNC42IDIwLC00NC42IDQ0LjYsLTQ0LjYiIGNsYXNzPSJzdDIiIGlkPSJYTUxJRF8yMF8iLz4mI3hhOwk8cGF0aCBkPSJtIDE1OS45LDE2MS4xIGMgLTI1LjgsMCAtNDYuOCwtMjEgLTQ2LjgsLTQ2LjggMCwtMjUuOCAyMSwtNDYuOCA0Ni44LC00Ni44IDI1LjgsMCA0Ni44LDIxIDQ2LjgsNDYuOCAwLDI1LjggLTIxLDQ2LjggLTQ2LjgsNDYuOCB6IG0gMCwtODkuMiBjIC0yMy40LDAgLTQyLjQsMTkgLTQyLjQsNDIuNCAwLDIzLjQgMTksNDIuNCA0Mi40LDQyLjQgMjMuNCwwIDQyLjQsLTE5IDQyLjQsLTQyLjQgMC4xLC0yMy40IC0xOSwtNDIuNCAtNDIuNCwtNDIuNCB6IiBjbGFzcz0ic3QxIiBpZD0iWE1MSURfMjNfIi8+JiN4YTs8L2c+JiN4YTs8L3N2Zz4=;" parent="1" vertex="1">
          <mxGeometry x="689" y="273.4" width="12" height="13.6" as="geometry" />
        </mxCell>
        <mxCell id="V85_4jU4u7jz_W5ndp5X-39" value="&lt;b&gt;Neo4J&lt;/b&gt;" style="text;html=1;align=center;verticalAlign=middle;resizable=0;points=[];autosize=1;strokeColor=none;fillColor=none;" parent="1" vertex="1">
          <mxGeometry x="690.31" y="265.2" width="60" height="30" as="geometry" />
        </mxCell>
        <mxCell id="V85_4jU4u7jz_W5ndp5X-40" value="&lt;font size=&quot;1&quot; style=&quot;&quot;&gt;&lt;b style=&quot;font-size: 20px;&quot;&gt;Knowledge Graph&lt;/b&gt;&lt;/font&gt;" style="text;whiteSpace=wrap;html=1;" parent="1" vertex="1">
          <mxGeometry x="646" y="378" width="180" height="40" as="geometry" />
        </mxCell>
        <mxCell id="V85_4jU4u7jz_W5ndp5X-41" value="&lt;font style=&quot;font-size: 14px;&quot;&gt;Projection &amp;amp; Embeddings&lt;/font&gt;" style="text;whiteSpace=wrap;html=1;" parent="1" vertex="1">
          <mxGeometry x="684.31" y="510" width="125" height="57" as="geometry" />
        </mxCell>
        <mxCell id="V85_4jU4u7jz_W5ndp5X-44" value="" style="endArrow=classic;html=1;rounded=0;" parent="1" edge="1">
          <mxGeometry width="50" height="50" relative="1" as="geometry">
            <mxPoint x="724.31" y="386" as="sourcePoint" />
            <mxPoint x="724" y="590" as="targetPoint" />
          </mxGeometry>
        </mxCell>
        <mxCell id="V85_4jU4u7jz_W5ndp5X-46" value="" style="shape=image;verticalLabelPosition=bottom;labelBackgroundColor=default;verticalAlign=top;aspect=fixed;imageAspect=0;image=data:image/svg+xml,PHN2ZyB4bWxucz0iaHR0cDovL3d3dy53My5vcmcvMjAwMC9zdmciIGlkPSJzdmcxNDUyIiB2ZXJzaW9uPSIxLjEiIHZpZXdCb3g9IjAgMCAxMDcuNjI0NCA3My45ODU4NyIgaGVpZ2h0PSI3My45ODU4N21tIiB3aWR0aD0iMTA3LjYyNDRtbSI+JiN4YTsgICYjeGE7ICAgICYjeGE7ICAgICYjeGE7ICAmI3hhOyAgPGRlZnMgaWQ9ImRlZnMxNDQ5Ii8+JiN4YTsgIDxnIHRyYW5zZm9ybT0idHJhbnNsYXRlKC02NS40NTYyMTUsLTExOC42NzcwNykiIGlkPSJsYXllcjEiPiYjeGE7ICAgIDx0ZXh0IGlkPSJ0ZXh0MjQ5NDkiIHk9IjE4My4zNzMyOSIgeD0iMTQwLjcyMjQzIiBzdHlsZT0iZm9udC1zaXplOjQuOTM4OXB4O2xpbmUtaGVpZ2h0OjEuMjU7Zm9udC1mYW1pbHk6c2Fucy1zZXJpZjtzdHJva2Utd2lkdGg6MC4yNjQ1ODMiIHhtbDpzcGFjZT0icHJlc2VydmUiPjx0c3BhbiB5PSIxODMuMzczMjkiIHg9IjE0MC43MjI0MyIgc3R5bGU9InN0cm9rZS13aWR0aDowLjI2NDU4MyIgaWQ9InRzcGFuMjQ5NDciLz48L3RleHQ+JiN4YTsgICAgPHJlY3Qgcnk9IjUuNTM4NDE2OSIgcng9IjUuNTM4NDE2OSIgeT0iMTcyLjU5MzkzIiB4PSI5OC4zMDM0OSIgaGVpZ2h0PSIxOS4wNjkwMDIiIHdpZHRoPSI3My43NzcxMjIiIGlkPSJyZWN0NjAyNjgiIHN0eWxlPSJmb250LXZhcmlhdGlvbi1zZXR0aW5nczpub3JtYWw7b3BhY2l0eToxO2ZpbGw6I2UzZjRkNztmaWxsLW9wYWNpdHk6MTtzdHJva2U6IzAwMDAwMDtzdHJva2Utd2lkdGg6Mi4wMDAwMTtzdHJva2UtbGluZWNhcDpzcXVhcmU7c3Ryb2tlLWxpbmVqb2luOm1pdGVyO3N0cm9rZS1taXRlcmxpbWl0OjQ0Ljc7c3Ryb2tlLWRhc2hhcnJheTpub25lO3N0cm9rZS1kYXNob2Zmc2V0OjA7c3Ryb2tlLW9wYWNpdHk6MTtwYWludC1vcmRlcjptYXJrZXJzIHN0cm9rZSBmaWxsO3N0b3AtY29sb3I6IzAwMDAwMDtzdG9wLW9wYWNpdHk6MSIvPiYjeGE7ICAgIDxwYXRoIGlkPSJwYXRoNjAyNzAiIGQ9Ik0gNzUuOTkwNzIzLDE4Mi4xMjgzNSBIIDk3LjI2NTUyNyIgc3R5bGU9ImZpbGw6bm9uZTtmaWxsLXJ1bGU6ZXZlbm9kZDtzdHJva2U6IzAwMDAwMDtzdHJva2Utd2lkdGg6MTtzdHJva2UtbGluZWNhcDpidXR0O3N0cm9rZS1saW5lam9pbjptaXRlcjtzdHJva2UtbWl0ZXJsaW1pdDo0O3N0cm9rZS1kYXNoYXJyYXk6bm9uZTtzdHJva2Utb3BhY2l0eToxIi8+JiN4YTsgICAgPGNpcmNsZSByPSI5LjAzNDUwNzgiIGN5PSIxODIuMTI4MzYiIGN4PSI3NS45OTA3MjMiIGlkPSJjaXJjbGU2MDI3MiIgc3R5bGU9ImZvbnQtdmFyaWF0aW9uLXNldHRpbmdzOm5vcm1hbDtvcGFjaXR5OjE7dmVjdG9yLWVmZmVjdDpub25lO2ZpbGw6I2ZmZmZmZjtmaWxsLW9wYWNpdHk6MTtzdHJva2U6IzRhNzgwZjtzdHJva2Utd2lkdGg6MztzdHJva2UtbGluZWNhcDpidXR0O3N0cm9rZS1saW5lam9pbjptaXRlcjtzdHJva2UtbWl0ZXJsaW1pdDo0O3N0cm9rZS1kYXNoYXJyYXk6bm9uZTtzdHJva2UtZGFzaG9mZnNldDowO3N0cm9rZS1vcGFjaXR5OjE7LWlua3NjYXBlLXN0cm9rZTpub25lO3N0b3AtY29sb3I6IzAwMDAwMDtzdG9wLW9wYWNpdHk6MSIvPiYjeGE7ICAgIDxwYXRoIGlkPSJwYXRoNjAyNzQiIGQ9Im0gMTE2LjU5NzcyLDE3MS41OTM4NSAtMC4wMTMsMjEuMDY5MDEiIHN0eWxlPSJmaWxsOm5vbmU7ZmlsbC1ydWxlOmV2ZW5vZGQ7c3Ryb2tlOiMwMDAwMDA7c3Ryb2tlLXdpZHRoOjAuMjY0NTgzcHg7c3Ryb2tlLWxpbmVjYXA6YnV0dDtzdHJva2UtbGluZWpvaW46bWl0ZXI7c3Ryb2tlLW9wYWNpdHk6MSIvPiYjeGE7ICAgIDxwYXRoIGlkPSJwYXRoNjAyNzYiIGQ9Im0gMTM1LjA1OTc2LDE3MS41OTM4NSAtMC4wMTMsMjEuMDY5MDEiIHN0eWxlPSJmaWxsOm5vbmU7ZmlsbC1ydWxlOmV2ZW5vZGQ7c3Ryb2tlOiMwMDAwMDA7c3Ryb2tlLXdpZHRoOjAuMjY0NTgzcHg7c3Ryb2tlLWxpbmVjYXA6YnV0dDtzdHJva2UtbGluZWpvaW46bWl0ZXI7c3Ryb2tlLW9wYWNpdHk6MSIvPiYjeGE7ICAgIDxwYXRoIGlkPSJwYXRoNjAyNzgiIGQ9Im0gMTUzLjUyMTgxLDE3MS41OTM4NSAtMC4wMTMsMjEuMDY5MDEiIHN0eWxlPSJmaWxsOm5vbmU7ZmlsbC1ydWxlOmV2ZW5vZGQ7c3Ryb2tlOiMwMDAwMDA7c3Ryb2tlLXdpZHRoOjAuMjY0NTgzcHg7c3Ryb2tlLWxpbmVjYXA6YnV0dDtzdHJva2UtbGluZWpvaW46bWl0ZXI7c3Ryb2tlLW9wYWNpdHk6MSIvPiYjeGE7ICAgIDx0ZXh0IGlkPSJ0ZXh0NjAyODIiIHk9IjE4NS44NzE3NyIgeD0iMTAwLjk3MTYiIHN0eWxlPSJmb250LXNpemU6MTEuMjg4OXB4O2xpbmUtaGVpZ2h0OjEuMjU7Zm9udC1mYW1pbHk6c2Fucy1zZXJpZjtsZXR0ZXItc3BhY2luZzotMS4wNTgzM3B4O3dvcmQtc3BhY2luZzowcHg7c3Ryb2tlLXdpZHRoOjAuMjY0NTgzIiB4bWw6c3BhY2U9InByZXNlcnZlIj48dHNwYW4gZHg9IjAiIHk9IjE4NS44NzE3NyIgeD0iMTAwLjk3MTYiIHN0eWxlPSJmb250LXNpemU6MTEuMjg4OXB4O3N0cm9rZS13aWR0aDowLjI2NDU4MyIgaWQ9InRzcGFuNjAyODAiPjAuNDwvdHNwYW4+PC90ZXh0PiYjeGE7ICAgIDx0ZXh0IGlkPSJ0ZXh0NjAyODYiIHk9IjE4NS44NzE3NyIgeD0iMTE5LjQ5MjQyIiBzdHlsZT0iZm9udC1zaXplOjExLjI4ODlweDtsaW5lLWhlaWdodDoxLjI1O2ZvbnQtZmFtaWx5OnNhbnMtc2VyaWY7bGV0dGVyLXNwYWNpbmc6LTEuMDU4MzNweDt3b3JkLXNwYWNpbmc6MHB4O3N0cm9rZS13aWR0aDowLjI2NDU4MyIgeG1sOnNwYWNlPSJwcmVzZXJ2ZSI+PHRzcGFuIGR4PSIwIiB5PSIxODUuODcxNzciIHg9IjExOS40OTI0MiIgc3R5bGU9ImZvbnQtc2l6ZToxMS4yODg5cHg7c3Ryb2tlLXdpZHRoOjAuMjY0NTgzIiBpZD0idHNwYW42MDI4NCI+MC41PC90c3Bhbj48L3RleHQ+JiN4YTsgICAgPHRleHQgaWQ9InRleHQ2MDI5MCIgeT0iMTg1Ljg3MTc3IiB4PSIxMzguMDEzMjgiIHN0eWxlPSJmb250LXNpemU6MTEuMjg4OXB4O2xpbmUtaGVpZ2h0OjEuMjU7Zm9udC1mYW1pbHk6c2Fucy1zZXJpZjtsZXR0ZXItc3BhY2luZzotMS4wNTgzM3B4O3dvcmQtc3BhY2luZzowcHg7c3Ryb2tlLXdpZHRoOjAuMjY0NTgzIiB4bWw6c3BhY2U9InByZXNlcnZlIj48dHNwYW4gZHg9IjAiIHk9IjE4NS44NzE3NyIgeD0iMTM4LjAxMzI4IiBzdHlsZT0iZm9udC1zaXplOjExLjI4ODlweDtzdHJva2Utd2lkdGg6MC4yNjQ1ODMiIGlkPSJ0c3BhbjYwMjg4Ij4wLjM8L3RzcGFuPjwvdGV4dD4mI3hhOyAgICA8dGV4dCBpZD0idGV4dDYwMjk0IiB5PSIxODUuODcxNzciIHg9IjE1Ni41MzQwOSIgc3R5bGU9ImZvbnQtc2l6ZToxMS4yODg5cHg7bGluZS1oZWlnaHQ6MS4yNTtmb250LWZhbWlseTpzYW5zLXNlcmlmO2xldHRlci1zcGFjaW5nOi0xLjA1ODMzcHg7d29yZC1zcGFjaW5nOjBweDtzdHJva2Utd2lkdGg6MC4yNjQ1ODMiIHhtbDpzcGFjZT0icHJlc2VydmUiPjx0c3BhbiBkeD0iMCIgeT0iMTg1Ljg3MTc3IiB4PSIxNTYuNTM0MDkiIHN0eWxlPSJmb250LXNpemU6MTEuMjg4OXB4O3N0cm9rZS13aWR0aDowLjI2NDU4MyIgaWQ9InRzcGFuNjAyOTIiPjAuMTwvdHNwYW4+PC90ZXh0PiYjeGE7ICAgIDxyZWN0IHJ5PSI1LjUzODQxNjkiIHJ4PSI1LjUzODQxNjkiIHk9IjE0Ni4xMzU1IiB4PSI5OC4zMDM0OSIgaGVpZ2h0PSIxOS4wNjkwMDIiIHdpZHRoPSI3My43NzcxMjIiIGlkPSJyZWN0OTYyMjQiIHN0eWxlPSJmb250LXZhcmlhdGlvbi1zZXR0aW5nczpub3JtYWw7b3BhY2l0eToxO2ZpbGw6I2U5YzZhZjtmaWxsLW9wYWNpdHk6MTtzdHJva2U6IzAwMDAwMDtzdHJva2Utd2lkdGg6Mi4wMDAwMTtzdHJva2UtbGluZWNhcDpzcXVhcmU7c3Ryb2tlLWxpbmVqb2luOm1pdGVyO3N0cm9rZS1taXRlcmxpbWl0OjQ0Ljc7c3Ryb2tlLWRhc2hhcnJheTpub25lO3N0cm9rZS1kYXNob2Zmc2V0OjA7c3Ryb2tlLW9wYWNpdHk6MTtwYWludC1vcmRlcjptYXJrZXJzIHN0cm9rZSBmaWxsO3N0b3AtY29sb3I6IzAwMDAwMDtzdG9wLW9wYWNpdHk6MSIvPiYjeGE7ICAgIDxwYXRoIGlkPSJwYXRoOTYyMjYiIGQ9Ik0gNzUuOTkwNzIzLDE1NS42NyBIIDk3LjI2NTUyNyIgc3R5bGU9ImZpbGw6bm9uZTtmaWxsLXJ1bGU6ZXZlbm9kZDtzdHJva2U6IzAwMDAwMDtzdHJva2Utd2lkdGg6MTtzdHJva2UtbGluZWNhcDpidXR0O3N0cm9rZS1saW5lam9pbjptaXRlcjtzdHJva2UtbWl0ZXJsaW1pdDo0O3N0cm9rZS1kYXNoYXJyYXk6bm9uZTtzdHJva2Utb3BhY2l0eToxIi8+JiN4YTsgICAgPGNpcmNsZSByPSI5LjAzNDUwNzgiIGN5PSIxNTUuNjciIGN4PSI3NS45OTA3MjMiIGlkPSJjaXJjbGU5NjIyOCIgc3R5bGU9ImZvbnQtdmFyaWF0aW9uLXNldHRpbmdzOm5vcm1hbDtvcGFjaXR5OjE7dmVjdG9yLWVmZmVjdDpub25lO2ZpbGw6I2ZmZmZmZjtmaWxsLW9wYWNpdHk6MTtzdHJva2U6Izc4MGY0ODtzdHJva2Utd2lkdGg6MztzdHJva2UtbGluZWNhcDpidXR0O3N0cm9rZS1saW5lam9pbjptaXRlcjtzdHJva2UtbWl0ZXJsaW1pdDo0O3N0cm9rZS1kYXNoYXJyYXk6bm9uZTtzdHJva2UtZGFzaG9mZnNldDowO3N0cm9rZS1vcGFjaXR5OjE7LWlua3NjYXBlLXN0cm9rZTpub25lO3N0b3AtY29sb3I6IzAwMDAwMDtzdG9wLW9wYWNpdHk6MSIvPiYjeGE7ICAgIDxwYXRoIGlkPSJwYXRoOTYyMzAiIGQ9Im0gMTE2LjU5NzcyLDE0NS4xMzU1IC0wLjAxMywyMS4wNjkwMSIgc3R5bGU9ImZpbGw6bm9uZTtmaWxsLXJ1bGU6ZXZlbm9kZDtzdHJva2U6IzAwMDAwMDtzdHJva2Utd2lkdGg6MC4yNjQ1ODNweDtzdHJva2UtbGluZWNhcDpidXR0O3N0cm9rZS1saW5lam9pbjptaXRlcjtzdHJva2Utb3BhY2l0eToxIi8+JiN4YTsgICAgPHBhdGggaWQ9InBhdGg5NjIzMiIgZD0ibSAxMzUuMDU5NzYsMTQ1LjEzNTUgLTAuMDEzLDIxLjA2OTAxIiBzdHlsZT0iZmlsbDpub25lO2ZpbGwtcnVsZTpldmVub2RkO3N0cm9rZTojMDAwMDAwO3N0cm9rZS13aWR0aDowLjI2NDU4M3B4O3N0cm9rZS1saW5lY2FwOmJ1dHQ7c3Ryb2tlLWxpbmVqb2luOm1pdGVyO3N0cm9rZS1vcGFjaXR5OjEiLz4mI3hhOyAgICA8cGF0aCBpZD0icGF0aDk2MjM0IiBkPSJtIDE1My41MjE4MSwxNDUuMTM1NSAtMC4wMTMsMjEuMDY5MDEiIHN0eWxlPSJmaWxsOm5vbmU7ZmlsbC1ydWxlOmV2ZW5vZGQ7c3Ryb2tlOiMwMDAwMDA7c3Ryb2tlLXdpZHRoOjAuMjY0NTgzcHg7c3Ryb2tlLWxpbmVjYXA6YnV0dDtzdHJva2UtbGluZWpvaW46bWl0ZXI7c3Ryb2tlLW9wYWNpdHk6MSIvPiYjeGE7ICAgIDx0ZXh0IGlkPSJ0ZXh0OTYyMzgiIHk9IjE1OS40MTM0MSIgeD0iMTAwLjk3MTYiIHN0eWxlPSJmb250LXNpemU6MTEuMjg4OXB4O2xpbmUtaGVpZ2h0OjEuMjU7Zm9udC1mYW1pbHk6c2Fucy1zZXJpZjtsZXR0ZXItc3BhY2luZzotMS4wNTgzM3B4O3dvcmQtc3BhY2luZzowcHg7c3Ryb2tlLXdpZHRoOjAuMjY0NTgzIiB4bWw6c3BhY2U9InByZXNlcnZlIj48dHNwYW4gZHg9IjAiIHk9IjE1OS40MTM0MSIgeD0iMTAwLjk3MTYiIHN0eWxlPSJmb250LXNpemU6MTEuMjg4OXB4O3N0cm9rZS13aWR0aDowLjI2NDU4MyIgaWQ9InRzcGFuOTYyMzYiPjAuNzwvdHNwYW4+PC90ZXh0PiYjeGE7ICAgIDx0ZXh0IGlkPSJ0ZXh0OTYyNDIiIHk9IjE1OS40MTM0MSIgeD0iMTE5LjQ5MjQyIiBzdHlsZT0iZm9udC1zaXplOjExLjI4ODlweDtsaW5lLWhlaWdodDoxLjI1O2ZvbnQtZmFtaWx5OnNhbnMtc2VyaWY7bGV0dGVyLXNwYWNpbmc6LTEuMDU4MzNweDt3b3JkLXNwYWNpbmc6MHB4O3N0cm9rZS13aWR0aDowLjI2NDU4MyIgeG1sOnNwYWNlPSJwcmVzZXJ2ZSI+PHRzcGFuIGR4PSIwIiB5PSIxNTkuNDEzNDEiIHg9IjExOS40OTI0MiIgc3R5bGU9ImZvbnQtc2l6ZToxMS4yODg5cHg7c3Ryb2tlLXdpZHRoOjAuMjY0NTgzIiBpZD0idHNwYW45NjI0MCI+MC44PC90c3Bhbj48L3RleHQ+JiN4YTsgICAgPHRleHQgaWQ9InRleHQ5NjI0NiIgeT0iMTU5LjQxMzQxIiB4PSIxMzguMDEzMjgiIHN0eWxlPSJmb250LXNpemU6MTEuMjg4OXB4O2xpbmUtaGVpZ2h0OjEuMjU7Zm9udC1mYW1pbHk6c2Fucy1zZXJpZjtsZXR0ZXItc3BhY2luZzotMS4wNTgzM3B4O3dvcmQtc3BhY2luZzowcHg7c3Ryb2tlLXdpZHRoOjAuMjY0NTgzIiB4bWw6c3BhY2U9InByZXNlcnZlIj48dHNwYW4gZHg9IjAiIHk9IjE1OS40MTM0MSIgeD0iMTM4LjAxMzI4IiBzdHlsZT0iZm9udC1zaXplOjExLjI4ODlweDtzdHJva2Utd2lkdGg6MC4yNjQ1ODMiIGlkPSJ0c3Bhbjk2MjQ0Ij4wLjI8L3RzcGFuPjwvdGV4dD4mI3hhOyAgICA8dGV4dCBpZD0idGV4dDk2MjUwIiB5PSIxNTkuNDEzNDEiIHg9IjE1Ni41MzQwOSIgc3R5bGU9ImZvbnQtc2l6ZToxMS4yODg5cHg7bGluZS1oZWlnaHQ6MS4yNTtmb250LWZhbWlseTpzYW5zLXNlcmlmO2xldHRlci1zcGFjaW5nOi0xLjA1ODMzcHg7d29yZC1zcGFjaW5nOjBweDtzdHJva2Utd2lkdGg6MC4yNjQ1ODMiIHhtbDpzcGFjZT0icHJlc2VydmUiPjx0c3BhbiBkeD0iMCIgeT0iMTU5LjQxMzQxIiB4PSIxNTYuNTM0MDkiIHN0eWxlPSJmb250LXNpemU6MTEuMjg4OXB4O3N0cm9rZS13aWR0aDowLjI2NDU4MyIgaWQ9InRzcGFuOTYyNDgiPjAuMzwvdHNwYW4+PC90ZXh0PiYjeGE7ICAgIDxyZWN0IHJ5PSI1LjUzODQxNjkiIHJ4PSI1LjUzODQxNjkiIHk9IjExOS42NzcxNSIgeD0iOTguMzAzNDkiIGhlaWdodD0iMTkuMDY5MDAyIiB3aWR0aD0iNzMuNzc3MTIyIiBpZD0icmVjdDk2MjUyIiBzdHlsZT0iZm9udC12YXJpYXRpb24tc2V0dGluZ3M6bm9ybWFsO29wYWNpdHk6MTtmaWxsOiNkNWY2ZmY7ZmlsbC1vcGFjaXR5OjE7c3Ryb2tlOiMwMDAwMDA7c3Ryb2tlLXdpZHRoOjIuMDAwMDE7c3Ryb2tlLWxpbmVjYXA6c3F1YXJlO3N0cm9rZS1saW5lam9pbjptaXRlcjtzdHJva2UtbWl0ZXJsaW1pdDo0NC43O3N0cm9rZS1kYXNoYXJyYXk6bm9uZTtzdHJva2UtZGFzaG9mZnNldDowO3N0cm9rZS1vcGFjaXR5OjE7cGFpbnQtb3JkZXI6bWFya2VycyBzdHJva2UgZmlsbDtzdG9wLWNvbG9yOiMwMDAwMDA7c3RvcC1vcGFjaXR5OjEiLz4mI3hhOyAgICA8cGF0aCBpZD0icGF0aDk2MjU0IiBkPSJNIDc1Ljk5MDcyMywxMjkuMjExNjUgSCA5Ny4yNjU1MjciIHN0eWxlPSJmaWxsOm5vbmU7ZmlsbC1ydWxlOmV2ZW5vZGQ7c3Ryb2tlOiMwMDAwMDA7c3Ryb2tlLXdpZHRoOjE7c3Ryb2tlLWxpbmVjYXA6YnV0dDtzdHJva2UtbGluZWpvaW46bWl0ZXI7c3Ryb2tlLW1pdGVybGltaXQ6NDtzdHJva2UtZGFzaGFycmF5Om5vbmU7c3Ryb2tlLW9wYWNpdHk6MSIvPiYjeGE7ICAgIDxjaXJjbGUgcj0iOS4wMzQ1MDc4IiBjeT0iMTI5LjIxMTY0IiBjeD0iNzUuOTkwNzIzIiBpZD0iY2lyY2xlOTYyNTYiIHN0eWxlPSJmaWxsOiNmZmZmZmY7ZmlsbC1vcGFjaXR5OjE7c3Ryb2tlOiMwZjQ2Nzg7c3Ryb2tlLXdpZHRoOjM7c3Ryb2tlLW1pdGVybGltaXQ6NDtzdHJva2UtZGFzaGFycmF5Om5vbmU7c3RvcC1jb2xvcjojMDAwMDAwIi8+JiN4YTsgICAgPHBhdGggaWQ9InBhdGg5NjI1OCIgZD0ibSAxMTYuNTk3NzIsMTE4LjY3NzE1IC0wLjAxMywyMS4wNjkwMSIgc3R5bGU9ImZpbGw6bm9uZTtmaWxsLXJ1bGU6ZXZlbm9kZDtzdHJva2U6IzAwMDAwMDtzdHJva2Utd2lkdGg6MC4yNjQ1ODNweDtzdHJva2UtbGluZWNhcDpidXR0O3N0cm9rZS1saW5lam9pbjptaXRlcjtzdHJva2Utb3BhY2l0eToxIi8+JiN4YTsgICAgPHBhdGggaWQ9InBhdGg5NjI2MCIgZD0ibSAxMzUuMDU5NzYsMTE4LjY3NzE1IC0wLjAxMywyMS4wNjkwMSIgc3R5bGU9ImZpbGw6bm9uZTtmaWxsLXJ1bGU6ZXZlbm9kZDtzdHJva2U6IzAwMDAwMDtzdHJva2Utd2lkdGg6MC4yNjQ1ODNweDtzdHJva2UtbGluZWNhcDpidXR0O3N0cm9rZS1saW5lam9pbjptaXRlcjtzdHJva2Utb3BhY2l0eToxIi8+JiN4YTsgICAgPHBhdGggaWQ9InBhdGg5NjI2MiIgZD0ibSAxNTMuNTIxODEsMTE4LjY3NzE1IC0wLjAxMywyMS4wNjkwMSIgc3R5bGU9ImZpbGw6bm9uZTtmaWxsLXJ1bGU6ZXZlbm9kZDtzdHJva2U6IzAwMDAwMDtzdHJva2Utd2lkdGg6MC4yNjQ1ODNweDtzdHJva2UtbGluZWNhcDpidXR0O3N0cm9rZS1saW5lam9pbjptaXRlcjtzdHJva2Utb3BhY2l0eToxIi8+JiN4YTsgICAgPHRleHQgaWQ9InRleHQ5NjI2NiIgeT0iMTMyLjk1NTA1IiB4PSIxMDAuOTcxNiIgc3R5bGU9ImZvbnQtc2l6ZToxMS4yODg5cHg7bGluZS1oZWlnaHQ6MS4yNTtmb250LWZhbWlseTpzYW5zLXNlcmlmO2xldHRlci1zcGFjaW5nOi0xLjA1ODMzcHg7d29yZC1zcGFjaW5nOjBweDtzdHJva2Utd2lkdGg6MC4yNjQ1ODMiIHhtbDpzcGFjZT0icHJlc2VydmUiPjx0c3BhbiBkeD0iMCIgeT0iMTMyLjk1NTA1IiB4PSIxMDAuOTcxNiIgc3R5bGU9ImZvbnQtc2l6ZToxMS4yODg5cHg7c3Ryb2tlLXdpZHRoOjAuMjY0NTgzIiBpZD0idHNwYW45NjI2NCI+MC4yPC90c3Bhbj48L3RleHQ+JiN4YTsgICAgPHRleHQgaWQ9InRleHQ5NjI3MCIgeT0iMTMyLjk1NTA1IiB4PSIxMTkuNDkyNDIiIHN0eWxlPSJmb250LXNpemU6MTEuMjg4OXB4O2xpbmUtaGVpZ2h0OjEuMjU7Zm9udC1mYW1pbHk6c2Fucy1zZXJpZjtsZXR0ZXItc3BhY2luZzotMS4wNTgzM3B4O3dvcmQtc3BhY2luZzowcHg7c3Ryb2tlLXdpZHRoOjAuMjY0NTgzIiB4bWw6c3BhY2U9InByZXNlcnZlIj48dHNwYW4gZHg9IjAiIHk9IjEzMi45NTUwNSIgeD0iMTE5LjQ5MjQyIiBzdHlsZT0iZm9udC1zaXplOjExLjI4ODlweDtzdHJva2Utd2lkdGg6MC4yNjQ1ODMiIGlkPSJ0c3Bhbjk2MjY4Ij4wLjY8L3RzcGFuPjwvdGV4dD4mI3hhOyAgICA8dGV4dCBpZD0idGV4dDk2Mjc0IiB5PSIxMzIuOTU1MDUiIHg9IjEzOC4wMTMyOCIgc3R5bGU9ImZvbnQtc2l6ZToxMS4yODg5cHg7bGluZS1oZWlnaHQ6MS4yNTtmb250LWZhbWlseTpzYW5zLXNlcmlmO2xldHRlci1zcGFjaW5nOi0xLjA1ODMzcHg7d29yZC1zcGFjaW5nOjBweDtzdHJva2Utd2lkdGg6MC4yNjQ1ODMiIHhtbDpzcGFjZT0icHJlc2VydmUiPjx0c3BhbiBkeD0iMCIgeT0iMTMyLjk1NTA1IiB4PSIxMzguMDEzMjgiIHN0eWxlPSJmb250LXNpemU6MTEuMjg4OXB4O3N0cm9rZS13aWR0aDowLjI2NDU4MyIgaWQ9InRzcGFuOTYyNzIiPjAuMTwvdHNwYW4+PC90ZXh0PiYjeGE7ICAgIDx0ZXh0IGlkPSJ0ZXh0OTYyNzgiIHk9IjEzMi45NTUwNSIgeD0iMTU2LjUzNDA5IiBzdHlsZT0iZm9udC1zaXplOjExLjI4ODlweDtsaW5lLWhlaWdodDoxLjI1O2ZvbnQtZmFtaWx5OnNhbnMtc2VyaWY7bGV0dGVyLXNwYWNpbmc6LTEuMDU4MzNweDt3b3JkLXNwYWNpbmc6MHB4O3N0cm9rZS13aWR0aDowLjI2NDU4MyIgeG1sOnNwYWNlPSJwcmVzZXJ2ZSI+PHRzcGFuIGR4PSIwIiB5PSIxMzIuOTU1MDUiIHg9IjE1Ni41MzQwOSIgc3R5bGU9ImZvbnQtc2l6ZToxMS4yODg5cHg7c3Ryb2tlLXdpZHRoOjAuMjY0NTgzIiBpZD0idHNwYW45NjI3NiI+MC4yPC90c3Bhbj48L3RleHQ+JiN4YTsgIDwvZz4mI3hhOzwvc3ZnPg==;" parent="1" vertex="1">
          <mxGeometry x="669.03" y="425" width="108" height="74" as="geometry" />
        </mxCell>
        <mxCell id="V85_4jU4u7jz_W5ndp5X-48" value="&lt;font style=&quot;font-size: 20px;&quot;&gt;&lt;b&gt;Anomaly Detection&lt;/b&gt;&lt;/font&gt;" style="text;html=1;align=center;verticalAlign=middle;resizable=0;points=[];autosize=1;strokeColor=none;fillColor=none;" parent="1" vertex="1">
          <mxGeometry x="623.03" y="698" width="200" height="40" as="geometry" />
        </mxCell>
        <mxCell id="V85_4jU4u7jz_W5ndp5X-50" value="" style="shape=umlActor;verticalLabelPosition=bottom;verticalAlign=top;html=1;outlineConnect=0;strokeWidth=5;" parent="1" vertex="1">
          <mxGeometry x="530" y="450" width="30" height="60" as="geometry" />
        </mxCell>
        <mxCell id="V85_4jU4u7jz_W5ndp5X-54" value="" style="endArrow=classic;html=1;rounded=0;" parent="1" source="V85_4jU4u7jz_W5ndp5X-55" edge="1">
          <mxGeometry width="50" height="50" relative="1" as="geometry">
            <mxPoint x="750" y="614" as="sourcePoint" />
            <mxPoint x="570" y="510" as="targetPoint" />
          </mxGeometry>
        </mxCell>
        <mxCell id="V85_4jU4u7jz_W5ndp5X-52" value="" style="shape=image;verticalLabelPosition=bottom;labelBackgroundColor=default;verticalAlign=top;aspect=fixed;imageAspect=0;image=data:image/svg+xml,PHN2ZyB4bWxucz0iaHR0cDovL3d3dy53My5vcmcvMjAwMC9zdmciIGlkPSJzdmc4MjMiIHZlcnNpb249IjEuMSIgdmlld0JveD0iMCAwIDU3Ni44MDAwNSA1MTIuOTIyMSIgaGVpZ2h0PSI1MTIuOTIyMTJtbSIgd2lkdGg9IjU3Ni44MDAwNW1tIj4mI3hhOyAgPGRlZnMgaWQ9ImRlZnM4MTciLz4mI3hhOyAgJiN4YTsgIDxtZXRhZGF0YSBpZD0ibWV0YWRhdGE4MjAiPiYjeGE7ICAgICYjeGE7ICAgICAgJiN4YTsgICAgICAgIGltYWdlL3N2Zyt4bWwmI3hhOyAgICAgICAgJiN4YTsgICAgICAmI3hhOyAgICAmI3hhOyAgPC9tZXRhZGF0YT4mI3hhOyAgPGcgdHJhbnNmb3JtPSJ0cmFuc2xhdGUoLTE0LjU5OTk4OCwyNTguOTIyMTMpIiBpZD0ibGF5ZXIxIj4mI3hhOyAgICA8cGF0aCBpZD0icGF0aDE3MjAyIiBkPSJNIDU0MS40MDM2LDIwMy45OTk5MSA2NC41OTY0MzYsMjAzLjk5OTc5IDMwMi45OTk3LC0yMDguOTI3MDIgWiIgc3R5bGU9Im9wYWNpdHk6MTtmaWxsOm5vbmU7ZmlsbC1vcGFjaXR5OjE7ZmlsbC1ydWxlOm5vbnplcm87c3Ryb2tlOiNkYzAwMDA7c3Ryb2tlLXdpZHRoOjEwMDtzdHJva2UtbGluZWNhcDpyb3VuZDtzdHJva2UtbGluZWpvaW46cm91bmQ7c3Ryb2tlLW1pdGVybGltaXQ6MS40MTQ7c3Ryb2tlLWRhc2hhcnJheTpub25lO3N0cm9rZS1vcGFjaXR5OjE7cGFpbnQtb3JkZXI6bm9ybWFsIi8+JiN4YTsgICAgPHBhdGggc3R5bGU9Im9wYWNpdHk6MTtmaWxsOiNmZmZmZmY7ZmlsbC1vcGFjaXR5OjE7ZmlsbC1ydWxlOm5vbnplcm87c3Ryb2tlOm5vbmU7c3Ryb2tlLXdpZHRoOjAuOTU0NjE0O3N0cm9rZS1saW5lY2FwOnNxdWFyZTtzdHJva2UtbGluZWpvaW46bWl0ZXI7c3Ryb2tlLW1pdGVybGltaXQ6MS40MTQ7c3Ryb2tlLWRhc2hhcnJheTpub25lO3N0cm9rZS1vcGFjaXR5OjE7cGFpbnQtb3JkZXI6bWFya2VycyBzdHJva2UgZmlsbCIgZD0ibSAzMDIuOTk5NywtMTg4LjkyNzA1IDIyMS4wODMyLDM4Mi45MjY4MSAtNDQyLjE2NTczNCw0ZS00IHoiIGlkPSJwYXRoMTcyMDQiLz4mI3hhOyAgICA8Y2lyY2xlIHI9IjQwIiBjeT0iMTQ0IiBjeD0iMzAzLjAwMDA2IiBpZD0icGF0aDgxOSIgc3R5bGU9Im9wYWNpdHk6MTtmaWxsOiMwMDAwMDA7ZmlsbC1vcGFjaXR5OjE7ZmlsbC1ydWxlOm5vbnplcm87c3Ryb2tlOm5vbmU7c3Ryb2tlLXdpZHRoOjU2LjkzODk7c3Ryb2tlLWxpbmVjYXA6c3F1YXJlO3N0cm9rZS1saW5lam9pbjptaXRlcjtzdHJva2UtbWl0ZXJsaW1pdDoxLjQxNDtzdHJva2UtZGFzaGFycmF5Om5vbmU7c3Ryb2tlLW9wYWNpdHk6MTtwYWludC1vcmRlcjptYXJrZXJzIHN0cm9rZSBmaWxsIi8+JiN4YTsgICAgPHBhdGggaWQ9InJlY3Q4MjUtNCIgZD0ibSAzMDMuMDAwMDQsOTQgYyAyLjI2MTIsLTIuMmUtNCA0LjI0MTIsLTEuNTE4MjEgNC44MjgyLC0zLjcwMjA4OSBsIDM4LjY0NDksLTE0NC42ODUyMiBjIDQuODc5NSwtMTguMjY4NzcgLTIuMTgxOCwtMzcuNjM5MzcgLTE3LjY3MzQsLTQ4LjQ4MTI4MSAtNy43NDU5LC01LjQyMDkxIC0xNi43NzI2LC04LjEzMTI4IC0yNS43OTk3LC04LjEzMTI4IC05LjAyNzEsMCAtMTguMDUzOSwyLjcxMDM3IC0yNS43OTk3LDguMTMxMjggLTE1LjQ5MTYsMTAuODQxOTExIC0yMi41NTMsMzAuMjEyNTExIC0xNy42NzM1LDQ4LjQ4MTI4MSBsIDM4LjY0NSwxNDQuNjg1MjIgYyAwLjU4NywyLjE4Mzg3OSAyLjU2NjksMy43MDE4NjkgNC44MjgyLDMuNzAyMDg5IHoiIHN0eWxlPSJvcGFjaXR5OjE7ZmlsbDojMDAwMDAwO2ZpbGwtb3BhY2l0eToxO2ZpbGwtcnVsZTpub256ZXJvO3N0cm9rZTpub25lO3N0cm9rZS13aWR0aDoxNDMuNDk4O3N0cm9rZS1saW5lY2FwOnNxdWFyZTtzdHJva2UtbGluZWpvaW46bWl0ZXI7c3Ryb2tlLW1pdGVybGltaXQ6MS40MTQ7c3Ryb2tlLWRhc2hhcnJheTpub25lO3N0cm9rZS1vcGFjaXR5OjE7cGFpbnQtb3JkZXI6bWFya2VycyBzdHJva2UgZmlsbCIvPiYjeGE7ICA8L2c+JiN4YTs8L3N2Zz4=;" parent="1" vertex="1">
          <mxGeometry x="600" y="520" width="40" height="35.54" as="geometry" />
        </mxCell>
        <mxCell id="V85_4jU4u7jz_W5ndp5X-55" value="Location X/ Category Y" style="text;html=1;align=center;verticalAlign=middle;resizable=0;points=[];autosize=1;strokeColor=none;fillColor=none;" parent="1" vertex="1">
          <mxGeometry x="640" y="590" width="150" height="30" as="geometry" />
        </mxCell>
        <mxCell id="V85_4jU4u7jz_W5ndp5X-56" value="" style="endArrow=none;dashed=1;html=1;dashPattern=1 3;strokeWidth=2;rounded=0;entryX=0;entryY=1;entryDx=0;entryDy=0;" parent="1" target="V85_4jU4u7jz_W5ndp5X-31" edge="1">
          <mxGeometry width="50" height="50" relative="1" as="geometry">
            <mxPoint x="570" y="450" as="sourcePoint" />
            <mxPoint x="770" y="600" as="targetPoint" />
          </mxGeometry>
        </mxCell>
        <mxCell id="V85_4jU4u7jz_W5ndp5X-57" value="" style="endArrow=classic;html=1;rounded=0;" parent="1" edge="1">
          <mxGeometry width="50" height="50" relative="1" as="geometry">
            <mxPoint x="520" y="492" as="sourcePoint" />
            <mxPoint x="410" y="580" as="targetPoint" />
          </mxGeometry>
        </mxCell>
        <mxCell id="V85_4jU4u7jz_W5ndp5X-58" value="" style="shape=image;verticalLabelPosition=bottom;labelBackgroundColor=default;verticalAlign=top;aspect=fixed;imageAspect=0;image=data:image/svg+xml,PHN2ZyB4bWxucz0iaHR0cDovL3d3dy53My5vcmcvMjAwMC9zdmciIGlkPSJzdmc4NzAiIHZlcnNpb249IjEuMSIgdmlld0JveD0iMCAwIDE2My41OTcyMyA5Ni4wNzk0OTgiIGhlaWdodD0iOTYuMDc5NDk4bW0iIHdpZHRoPSIxNjMuNTk3MjNtbSI+JiN4YTsgICYjeGE7ICAgICYjeGE7ICAgICYjeGE7ICAgICYjeGE7ICAgICYjeGE7ICAgICYjeGE7ICAgICYjeGE7ICAgICYjeGE7ICAgICYjeGE7ICAgICYjeGE7ICAgICYjeGE7ICAgICYjeGE7ICAgICYjeGE7ICAgICYjeGE7ICAgICYjeGE7ICAmI3hhOyAgPGRlZnMgaWQ9ImRlZnM4NjciPiYjeGE7ICAgIDxtYXJrZXIgb3JpZW50PSJhdXRvIiByZWZZPSIwLjAiIHJlZlg9IjAuMCIgaWQ9IkFycm93MUxlbmQiIHN0eWxlPSJvdmVyZmxvdzp2aXNpYmxlOyI+JiN4YTsgICAgICA8cGF0aCBpZD0icGF0aDgwMDQ1IiBkPSJNIDAuMCwwLjAgTCA1LjAsLTUuMCBMIC0xMi41LDAuMCBMIDUuMCw1LjAgTCAwLjAsMC4wIHoiIHN0eWxlPSJmaWxsLXJ1bGU6ZXZlbm9kZDtmaWxsOmNvbnRleHQtc3Ryb2tlO3N0cm9rZTpjb250ZXh0LXN0cm9rZTtzdHJva2Utd2lkdGg6MS4wcHQ7IiB0cmFuc2Zvcm09InNjYWxlKDAuOCkgcm90YXRlKDE4MCkgdHJhbnNsYXRlKDEyLjUsMCkiLz4mI3hhOyAgICA8L21hcmtlcj4mI3hhOyAgICA8bWFya2VyIG9yaWVudD0iYXV0byIgcmVmWT0iMC4wIiByZWZYPSIwLjAiIGlkPSJtYXJrZXI4MDMxMiIgc3R5bGU9Im92ZXJmbG93OnZpc2libGUiPiYjeGE7ICAgICAgPHBhdGggaWQ9InBhdGg4MDMxMCIgZD0iTSAwLjAsMC4wIEwgNS4wLC01LjAgTCAtMTIuNSwwLjAgTCA1LjAsNS4wIEwgMC4wLDAuMCB6IiBzdHlsZT0iZmlsbC1ydWxlOmV2ZW5vZGQ7ZmlsbDpjb250ZXh0LXN0cm9rZTtzdHJva2U6Y29udGV4dC1zdHJva2U7c3Ryb2tlLXdpZHRoOjEuMHB0IiB0cmFuc2Zvcm09InNjYWxlKDAuOCkgdHJhbnNsYXRlKDEyLjUsMCkiLz4mI3hhOyAgICA8L21hcmtlcj4mI3hhOyAgICA8bWFya2VyIG9yaWVudD0iYXV0byIgcmVmWT0iMC4wIiByZWZYPSIwLjAiIGlkPSJBcnJvdzFMc3RhcnQiIHN0eWxlPSJvdmVyZmxvdzp2aXNpYmxlIj4mI3hhOyAgICAgIDxwYXRoIGlkPSJwYXRoODAwNDIiIGQ9Ik0gMC4wLDAuMCBMIDUuMCwtNS4wIEwgLTEyLjUsMC4wIEwgNS4wLDUuMCBMIDAuMCwwLjAgeiIgc3R5bGU9ImZpbGwtcnVsZTpldmVub2RkO2ZpbGw6Y29udGV4dC1zdHJva2U7c3Ryb2tlOmNvbnRleHQtc3Ryb2tlO3N0cm9rZS13aWR0aDoxLjBwdCIgdHJhbnNmb3JtPSJzY2FsZSgwLjgpIHRyYW5zbGF0ZSgxMi41LDApIi8+JiN4YTsgICAgPC9tYXJrZXI+JiN4YTsgICAgJiN4YTsgICAgJiN4YTsgICAgJiN4YTsgIDwvZGVmcz4mI3hhOyAgPGcgdHJhbnNmb3JtPSJ0cmFuc2xhdGUoLTEwLjA4MjY2NywtOTUuNzU3ODYzKSIgaWQ9ImxheWVyMSI+JiN4YTsgICAgPHJlY3Qgcnk9IjAiIHJ4PSI1LjUzODQxNjkiIHk9Ijk5LjYxMzM3MyIgeD0iMjUuMTQ3NzE3IiBoZWlnaHQ9Ijc4LjIwMDI5NCIgd2lkdGg9IjE0OC4xODkwMyIgaWQ9InJlY3QxMzM5IiBzdHlsZT0iZmlsbDojZmZmYmVlO3N0cm9rZTojMDAwMDAwO3N0cm9rZS13aWR0aDowLjM7c3Ryb2tlLW1pdGVybGltaXQ6NDtzdHJva2UtZGFzaGFycmF5Om5vbmU7c3RvcC1jb2xvcjojMDAwMDAwO2ZpbGwtb3BhY2l0eToxIi8+JiN4YTsgICAgPHRleHQgaWQ9InRleHQ2OTA2IiB5PSIxODIuMTM0ODEiIHg9IjkuNzU3NDUwMSIgc3R5bGU9ImZvbnQtc2l6ZToxMS4yODg5cHg7bGluZS1oZWlnaHQ6MS4yNTtmb250LWZhbWlseTpzYW5zLXNlcmlmO3N0cm9rZS13aWR0aDowLjI2NDU4MyIgeG1sOnNwYWNlPSJwcmVzZXJ2ZSI+PHRzcGFuIHk9IjE4Mi4xMzQ4MSIgeD0iOS43NTc0NTAxIiBzdHlsZT0iZm9udC1zaXplOjExLjI4ODlweDtzdHJva2Utd2lkdGg6MC4yNjQ1ODMiIGlkPSJ0c3BhbjY5MDQiPjA8L3RzcGFuPjwvdGV4dD4mI3hhOyAgICA8cGF0aCBpZD0icGF0aDIwNjUzIiBkPSJNIDI1LjE0NzcxNiw5OS42MTMzNzIgSCAxOS42NjY1MjciIHN0eWxlPSJmaWxsOm5vbmU7c3Ryb2tlOiMwMDAwMDA7c3Ryb2tlLXdpZHRoOjAuMztzdHJva2UtbGluZWNhcDpidXR0O3N0cm9rZS1saW5lam9pbjptaXRlcjtzdHJva2UtbWl0ZXJsaW1pdDo0O3N0cm9rZS1kYXNoYXJyYXk6bm9uZTtzdHJva2Utb3BhY2l0eToxIi8+JiN4YTsgICAgPHBhdGggaWQ9InBhdGgyMTExMyIgZD0iTSAyNS4xNDc3MTYsMTc3LjgxMzY2IEggMTkuNjI0NzQ0IiBzdHlsZT0iZmlsbDpub25lO3N0cm9rZTojMDAwMDAwO3N0cm9rZS13aWR0aDowLjM7c3Ryb2tlLWxpbmVjYXA6YnV0dDtzdHJva2UtbGluZWpvaW46bWl0ZXI7c3Ryb2tlLW1pdGVybGltaXQ6NDtzdHJva2UtZGFzaGFycmF5Om5vbmU7c3Ryb2tlLW9wYWNpdHk6MSIvPiYjeGE7ICAgIDxwYXRoIGlkPSJwYXRoMjExMTMtNyIgZD0ibSAyNS4xNDc3MTcsMTc3LjgxMzY2IHYgNS41MjI5OCIgc3R5bGU9ImZpbGw6bm9uZTtzdHJva2U6IzAwMDAwMDtzdHJva2Utd2lkdGg6MC4zO3N0cm9rZS1saW5lY2FwOmJ1dHQ7c3Ryb2tlLWxpbmVqb2luOm1pdGVyO3N0cm9rZS1taXRlcmxpbWl0OjQ7c3Ryb2tlLWRhc2hhcnJheTpub25lO3N0cm9rZS1vcGFjaXR5OjEiLz4mI3hhOyAgICA8dGV4dCBpZD0idGV4dDIxMjMwIiB5PSIxMDMuODE4MTQiIHg9IjkuNzU3NDUwMSIgc3R5bGU9ImZvbnQtc2l6ZToxMS4yODg5cHg7bGluZS1oZWlnaHQ6MS4yNTtmb250LWZhbWlseTpzYW5zLXNlcmlmO3N0cm9rZS13aWR0aDowLjI2NDU4MyIgeG1sOnNwYWNlPSJwcmVzZXJ2ZSI+PHRzcGFuIHk9IjEwMy44MTgxNCIgeD0iOS43NTc0NTAxIiBzdHlsZT0iZm9udC1zaXplOjExLjI4ODlweDtzdHJva2Utd2lkdGg6MC4yNjQ1ODMiIGlkPSJ0c3BhbjIxMjI4Ij4xPC90c3Bhbj48L3RleHQ+JiN4YTsgICAgPHBhdGggaWQ9InBhdGg0MzgzNiIgZD0ibSAzNS43MzEwNTEsMTc3LjgxMzY2IHYgMyIgc3R5bGU9ImZpbGw6bm9uZTtzdHJva2U6IzAwMDAwMDtzdHJva2Utd2lkdGg6MC4zO3N0cm9rZS1saW5lY2FwOmJ1dHQ7c3Ryb2tlLWxpbmVqb2luOm1pdGVyO3N0cm9rZS1taXRlcmxpbWl0OjQ7c3Ryb2tlLWRhc2hhcnJheTpub25lO3N0cm9rZS1vcGFjaXR5OjEiLz4mI3hhOyAgICA8cGF0aCBpZD0icGF0aDQzODM4IiBkPSJtIDQ2LjMxNDM4NSwxNzcuODEzNjYgdiAzIiBzdHlsZT0iZmlsbDpub25lO3N0cm9rZTojMDAwMDAwO3N0cm9rZS13aWR0aDowLjM7c3Ryb2tlLWxpbmVjYXA6YnV0dDtzdHJva2UtbGluZWpvaW46bWl0ZXI7c3Ryb2tlLW1pdGVybGltaXQ6NDtzdHJva2UtZGFzaGFycmF5Om5vbmU7c3Ryb2tlLW9wYWNpdHk6MSIvPiYjeGE7ICAgIDxwYXRoIGlkPSJwYXRoNDM4NDAiIGQ9Im0gNTYuODk3NzE5LDE3Ny44MTM2NiB2IDMiIHN0eWxlPSJmaWxsOm5vbmU7c3Ryb2tlOiMwMDAwMDA7c3Ryb2tlLXdpZHRoOjAuMztzdHJva2UtbGluZWNhcDpidXR0O3N0cm9rZS1saW5lam9pbjptaXRlcjtzdHJva2UtbWl0ZXJsaW1pdDo0O3N0cm9rZS1kYXNoYXJyYXk6bm9uZTtzdHJva2Utb3BhY2l0eToxIi8+JiN4YTsgICAgPHBhdGggaWQ9InBhdGg0Mzg0MiIgZD0ibSA2Ny40ODEwNTMsMTc3LjgxMzY2IHYgMyIgc3R5bGU9ImZpbGw6bm9uZTtzdHJva2U6IzAwMDAwMDtzdHJva2Utd2lkdGg6MC4zO3N0cm9rZS1saW5lY2FwOmJ1dHQ7c3Ryb2tlLWxpbmVqb2luOm1pdGVyO3N0cm9rZS1taXRlcmxpbWl0OjQ7c3Ryb2tlLWRhc2hhcnJheTpub25lO3N0cm9rZS1vcGFjaXR5OjEiLz4mI3hhOyAgICA8cGF0aCBpZD0icGF0aDQzODQ0IiBkPSJtIDc4LjA2NDM4NywxNzcuODEzNjYgdiAzIiBzdHlsZT0iZmlsbDpub25lO3N0cm9rZTojMDAwMDAwO3N0cm9rZS13aWR0aDowLjM7c3Ryb2tlLWxpbmVjYXA6YnV0dDtzdHJva2UtbGluZWpvaW46bWl0ZXI7c3Ryb2tlLW1pdGVybGltaXQ6NDtzdHJva2UtZGFzaGFycmF5Om5vbmU7c3Ryb2tlLW9wYWNpdHk6MSIvPiYjeGE7ICAgIDxwYXRoIGlkPSJwYXRoNDM4NDYiIGQ9Im0gODguNjQ3NzIxLDE3Ny44MTM2NiB2IDMiIHN0eWxlPSJmaWxsOm5vbmU7c3Ryb2tlOiMwMDAwMDA7c3Ryb2tlLXdpZHRoOjAuMztzdHJva2UtbGluZWNhcDpidXR0O3N0cm9rZS1saW5lam9pbjptaXRlcjtzdHJva2UtbWl0ZXJsaW1pdDo0O3N0cm9rZS1kYXNoYXJyYXk6bm9uZTtzdHJva2Utb3BhY2l0eToxIi8+JiN4YTsgICAgPHBhdGggaWQ9InBhdGg0Mzg0OCIgZD0ibSA5OS4yMzEwNTUsMTc3LjgxMzY2IHYgMyIgc3R5bGU9ImZpbGw6bm9uZTtzdHJva2U6IzAwMDAwMDtzdHJva2Utd2lkdGg6MC4zO3N0cm9rZS1saW5lY2FwOmJ1dHQ7c3Ryb2tlLWxpbmVqb2luOm1pdGVyO3N0cm9rZS1taXRlcmxpbWl0OjQ7c3Ryb2tlLWRhc2hhcnJheTpub25lO3N0cm9rZS1vcGFjaXR5OjEiLz4mI3hhOyAgICA8cGF0aCBpZD0icGF0aDQzODUwIiBkPSJtIDEwOS44MTQzOSwxNzcuODEzNjYgdiAzIiBzdHlsZT0iZmlsbDpub25lO3N0cm9rZTojMDAwMDAwO3N0cm9rZS13aWR0aDowLjM7c3Ryb2tlLWxpbmVjYXA6YnV0dDtzdHJva2UtbGluZWpvaW46bWl0ZXI7c3Ryb2tlLW1pdGVybGltaXQ6NDtzdHJva2UtZGFzaGFycmF5Om5vbmU7c3Ryb2tlLW9wYWNpdHk6MSIvPiYjeGE7ICAgIDxwYXRoIGlkPSJwYXRoNDM4NTIiIGQ9Im0gMTIwLjM5NzczLDE3Ny44MTM2NiB2IDMiIHN0eWxlPSJmaWxsOm5vbmU7c3Ryb2tlOiMwMDAwMDA7c3Ryb2tlLXdpZHRoOjAuMztzdHJva2UtbGluZWNhcDpidXR0O3N0cm9rZS1saW5lam9pbjptaXRlcjtzdHJva2UtbWl0ZXJsaW1pdDo0O3N0cm9rZS1kYXNoYXJyYXk6bm9uZTtzdHJva2Utb3BhY2l0eToxIi8+JiN4YTsgICAgPHBhdGggaWQ9InBhdGg0Mzg1NCIgZD0ibSAxMzAuOTgxMDcsMTc3LjgxMzY2IHYgMyIgc3R5bGU9ImZpbGw6bm9uZTtzdHJva2U6IzAwMDAwMDtzdHJva2Utd2lkdGg6MC4zO3N0cm9rZS1saW5lY2FwOmJ1dHQ7c3Ryb2tlLWxpbmVqb2luOm1pdGVyO3N0cm9rZS1taXRlcmxpbWl0OjQ7c3Ryb2tlLWRhc2hhcnJheTpub25lO3N0cm9rZS1vcGFjaXR5OjEiLz4mI3hhOyAgICA8cGF0aCBpZD0icGF0aDQzODU2IiBkPSJtIDE0MS41NjQ0MSwxNzcuODEzNjYgdiAzIiBzdHlsZT0iZmlsbDpub25lO3N0cm9rZTojMDAwMDAwO3N0cm9rZS13aWR0aDowLjM7c3Ryb2tlLWxpbmVjYXA6YnV0dDtzdHJva2UtbGluZWpvaW46bWl0ZXI7c3Ryb2tlLW1pdGVybGltaXQ6NDtzdHJva2UtZGFzaGFycmF5Om5vbmU7c3Ryb2tlLW9wYWNpdHk6MSIvPiYjeGE7ICAgIDxwYXRoIGlkPSJwYXRoNDM4NTgiIGQ9Im0gMTUyLjE0Nzc1LDE3Ny44MTM2NiB2IDMiIHN0eWxlPSJmaWxsOm5vbmU7c3Ryb2tlOiMwMDAwMDA7c3Ryb2tlLXdpZHRoOjAuMztzdHJva2UtbGluZWNhcDpidXR0O3N0cm9rZS1saW5lam9pbjptaXRlcjtzdHJva2UtbWl0ZXJsaW1pdDo0O3N0cm9rZS1kYXNoYXJyYXk6bm9uZTtzdHJva2Utb3BhY2l0eToxIi8+JiN4YTsgICAgPHBhdGggaWQ9InBhdGg0Mzg2MCIgZD0ibSAxNjIuNzMxMDksMTc3LjgxMzY2IHYgMyIgc3R5bGU9ImZpbGw6bm9uZTtzdHJva2U6IzAwMDAwMDtzdHJva2Utd2lkdGg6MC4zO3N0cm9rZS1saW5lY2FwOmJ1dHQ7c3Ryb2tlLWxpbmVqb2luOm1pdGVyO3N0cm9rZS1taXRlcmxpbWl0OjQ7c3Ryb2tlLWRhc2hhcnJheTpub25lO3N0cm9rZS1vcGFjaXR5OjEiLz4mI3hhOyAgICA8cGF0aCBpZD0icGF0aDQzODYyIiBkPSJtIDE3My4zMTQ0MywxNzcuODEzNjYgdiAzIiBzdHlsZT0iZmlsbDpub25lO3N0cm9rZTojMDAwMDAwO3N0cm9rZS13aWR0aDowLjM7c3Ryb2tlLWxpbmVjYXA6YnV0dDtzdHJva2UtbGluZWpvaW46bWl0ZXI7c3Ryb2tlLW1pdGVybGltaXQ6NDtzdHJva2UtZGFzaGFycmF5Om5vbmU7c3Ryb2tlLW9wYWNpdHk6MSIvPiYjeGE7ICAgIDx0ZXh0IGlkPSJ0ZXh0NDM5ODEiIHk9IjEzOS44MDE0NCIgeD0iOS43NTc0NTAxIiBzdHlsZT0iZm9udC1zaXplOjExLjI4ODlweDtsaW5lLWhlaWdodDoxLjI1O2ZvbnQtZmFtaWx5OnNhbnMtc2VyaWY7c3Ryb2tlLXdpZHRoOjAuMjY0NTgzIiB4bWw6c3BhY2U9InByZXNlcnZlIj48dHNwYW4geT0iMTM5LjgwMTQ0IiB4PSI5Ljc1NzQ1MDEiIHN0eWxlPSJmb250LXN0eWxlOm5vcm1hbDtmb250LXZhcmlhbnQ6bm9ybWFsO2ZvbnQtd2VpZ2h0Om5vcm1hbDtmb250LXN0cmV0Y2g6bm9ybWFsO2ZvbnQtc2l6ZToxMS4yODg5cHg7Zm9udC1mYW1pbHk6J0RlamFWdSBTZXJpZic7LWlua3NjYXBlLWZvbnQtc3BlY2lmaWNhdGlvbjonRGVqYVZ1IFNlcmlmJztzdHJva2Utd2lkdGg6MC4yNjQ1ODMiIGlkPSJ0c3BhbjQzOTc5Ij5wPC90c3Bhbj48L3RleHQ+JiN4YTsgICAgPHRleHQgaWQ9InRleHQ0Mzk4MS0zIiB5PSIxOTAuMzQ5MDgiIHg9IjYyLjQ1MjMzMiIgc3R5bGU9ImZvbnQtc2l6ZToxMS4yODg5cHg7bGluZS1oZWlnaHQ6MS4yNTtmb250LWZhbWlseTpzYW5zLXNlcmlmO3N0cm9rZS13aWR0aDowLjI2NDU4MyIgeG1sOnNwYWNlPSJwcmVzZXJ2ZSI+PHRzcGFuIHk9IjE5MC4zNDkwOCIgeD0iNjIuNDUyMzMyIiBzdHlsZT0iZm9udC1zdHlsZTpub3JtYWw7Zm9udC12YXJpYW50Om5vcm1hbDtmb250LXdlaWdodDpub3JtYWw7Zm9udC1zdHJldGNoOm5vcm1hbDtmb250LXNpemU6MTEuMjg4OXB4O2ZvbnQtZmFtaWx5OidEZWphVnUgU2VyaWYnOy1pbmtzY2FwZS1mb250LXNwZWNpZmljYXRpb246J0RlamFWdSBTZXJpZic7c3Ryb2tlLXdpZHRoOjAuMjY0NTgzIiBpZD0idHNwYW40Mzk3OS0wIj50aW1lIFtkXTwvdHNwYW4+PC90ZXh0PiYjeGE7ICAgIDxwYXRoIGlkPSJwYXRoNzgxNDciIGQ9Ik0gMjUuMDE2MDI0LDEyMy4zNzgxNiBIIDE3My4yODI3NyIgc3R5bGU9ImZpbGw6I2ZmMDAwMDtmaWxsLW9wYWNpdHk6MTtzdHJva2U6I2ZmMDAwMDtzdHJva2Utd2lkdGg6MC43NjU7c3Ryb2tlLWxpbmVjYXA6YnV0dDtzdHJva2UtbGluZWpvaW46bWl0ZXI7c3Ryb2tlLW1pdGVybGltaXQ6NDtzdHJva2UtZGFzaGFycmF5OjEuNTMsIDEuNTM7c3Ryb2tlLWRhc2hvZmZzZXQ6MC43NjU7c3Ryb2tlLW9wYWNpdHk6MSIvPiYjeGE7ICAgIDxwYXRoIGlkPSJwYXRoNzg0MjgiIGQ9Im0gMjUuMTQ3NzE2LDE3Ny44MTM2NiAxMC42NjkxMTIsLTcuNDIxNDkgMTAuNDcyMDIzLDIuMzIwNjMgMTAuMzI0NDU3LC02Ljc5NzQ3IDEwLjgwNTAyMiw3LjY5NzQyIDEwLjYzMTE3OCwtMTMuODI0NDcgMTAuNDI2MzA4LC02LjUyMjY0IDEwLjczMzc0NiwxMS4wMDc3NyAxMC41MTU4NzgsLTUyLjExNTI4IDEwLjYzNzc2LC0xMi41NTc0MjYgMTAuNTIwMDUsMTIuNjEzODE2IDEwLjY5NzQ4LDIuMzMzOTYgMTAuMzkyNCwxNy41MzA0NyAxMC4zMzM2MywzNy41MzI3MiAxMS4yMTUyOSwzLjg4MjU5IiBzdHlsZT0iZmlsbDpub25lO3N0cm9rZTojMDA0M2U5O3N0cm9rZS13aWR0aDowLjk2NTtzdHJva2UtbGluZWNhcDpidXR0O3N0cm9rZS1saW5lam9pbjptaXRlcjtzdHJva2UtbWl0ZXJsaW1pdDo0O3N0cm9rZS1kYXNoYXJyYXk6bm9uZTtzdHJva2Utb3BhY2l0eToxIi8+JiN4YTsgICAgPHBhdGggaWQ9InBhdGg3OTc5MiIgZD0ibSAxMDkuODE0MzksMTc3LjQ2OTcxIC0wLjAyNzksLTYyLjQzMDczIiBzdHlsZT0iZm9udC12YXJpYXRpb24tc2V0dGluZ3M6bm9ybWFsO29wYWNpdHk6MTtmaWxsOiMwMGQ0MDA7ZmlsbC1vcGFjaXR5OjE7c3Ryb2tlOiMwMGZmMDA7c3Ryb2tlLXdpZHRoOjAuNzY1O3N0cm9rZS1saW5lY2FwOmJ1dHQ7c3Ryb2tlLWxpbmVqb2luOm1pdGVyO3N0cm9rZS1taXRlcmxpbWl0OjQ7c3Ryb2tlLWRhc2hhcnJheToxLjUzLCAxLjUzO3N0cm9rZS1kYXNob2Zmc2V0OjAuNzY1O3N0cm9rZS1vcGFjaXR5OjE7bWFya2VyLWVuZDp1cmwoI0Fycm93MUxlbmQpO3N0b3AtY29sb3I6IzAwMDAwMDtzdG9wLW9wYWNpdHk6MSIvPiYjeGE7ICA8L2c+JiN4YTs8L3N2Zz4=;" parent="1" vertex="1">
          <mxGeometry x="633" y="610" width="164" height="96" as="geometry" />
        </mxCell>
        <mxCell id="V85_4jU4u7jz_W5ndp5X-62" value="&lt;p style=&quot;line-height: 100%;&quot;&gt;Supporting&lt;br&gt;Statistics&lt;/p&gt;" style="rounded=1;whiteSpace=wrap;html=1;align=left;" parent="1" vertex="1">
          <mxGeometry x="415.47" y="510" width="60" height="32" as="geometry" />
        </mxCell>
        <mxCell id="V85_4jU4u7jz_W5ndp5X-60" value="" style="shape=image;verticalLabelPosition=bottom;labelBackgroundColor=default;verticalAlign=top;aspect=fixed;imageAspect=0;image=data:image/svg+xml,PHN2ZyB4bWxucz0iaHR0cDovL3d3dy53My5vcmcvMjAwMC9zdmciIGlkPSJzdmc4NzAiIHZlcnNpb249IjEuMSIgdmlld0JveD0iMCAwIDE2My41NDk2MiA5Ni4wNzk0OTgiIGhlaWdodD0iOTYuMDc5NDk4bW0iIHdpZHRoPSIxNjMuNTQ5NjJtbSI+JiN4YTsgICYjeGE7ICAgICYjeGE7ICAgICYjeGE7ICAgICYjeGE7ICAgICYjeGE7ICAgICYjeGE7ICAgICYjeGE7ICAgICYjeGE7ICAgICYjeGE7ICAgICYjeGE7ICAgICYjeGE7ICAgICYjeGE7ICAgICYjeGE7ICAgICYjeGE7ICAgICYjeGE7ICAmI3hhOyAgPGRlZnMgaWQ9ImRlZnM4NjciPiYjeGE7ICAgIDxtYXJrZXIgb3JpZW50PSJhdXRvIiByZWZZPSIwIiByZWZYPSIwIiBpZD0iQXJyb3cxTGVuZCIgc3R5bGU9Im92ZXJmbG93OnZpc2libGUiPiYjeGE7ICAgICAgPHBhdGggaWQ9InBhdGg4MDA0NSIgZD0iTSAwLDAgNSwtNSAtMTIuNSwwIDUsNSBaIiBzdHlsZT0iZmlsbDpjb250ZXh0LXN0cm9rZTtmaWxsLXJ1bGU6ZXZlbm9kZDtzdHJva2U6Y29udGV4dC1zdHJva2U7c3Ryb2tlLXdpZHRoOjFwdCIgdHJhbnNmb3JtPSJtYXRyaXgoLTAuOCwwLDAsLTAuOCwtMTAsMCkiLz4mI3hhOyAgICA8L21hcmtlcj4mI3hhOyAgICA8bWFya2VyIG9yaWVudD0iYXV0byIgcmVmWT0iMCIgcmVmWD0iMCIgaWQ9Im1hcmtlcjgwMzEyIiBzdHlsZT0ib3ZlcmZsb3c6dmlzaWJsZSI+JiN4YTsgICAgICA8cGF0aCBpZD0icGF0aDgwMzEwIiBkPSJNIDAsMCA1LC01IC0xMi41LDAgNSw1IFoiIHN0eWxlPSJmaWxsOmNvbnRleHQtc3Ryb2tlO2ZpbGwtcnVsZTpldmVub2RkO3N0cm9rZTpjb250ZXh0LXN0cm9rZTtzdHJva2Utd2lkdGg6MXB0IiB0cmFuc2Zvcm09Im1hdHJpeCgwLjgsMCwwLDAuOCwxMCwwKSIvPiYjeGE7ICAgIDwvbWFya2VyPiYjeGE7ICAgIDxtYXJrZXIgb3JpZW50PSJhdXRvIiByZWZZPSIwIiByZWZYPSIwIiBpZD0iQXJyb3cxTHN0YXJ0IiBzdHlsZT0ib3ZlcmZsb3c6dmlzaWJsZSI+JiN4YTsgICAgICA8cGF0aCBpZD0icGF0aDgwMDQyIiBkPSJNIDAsMCA1LC01IC0xMi41LDAgNSw1IFoiIHN0eWxlPSJmaWxsOmNvbnRleHQtc3Ryb2tlO2ZpbGwtcnVsZTpldmVub2RkO3N0cm9rZTpjb250ZXh0LXN0cm9rZTtzdHJva2Utd2lkdGg6MXB0IiB0cmFuc2Zvcm09Im1hdHJpeCgwLjgsMCwwLDAuOCwxMCwwKSIvPiYjeGE7ICAgIDwvbWFya2VyPiYjeGE7ICAgICYjeGE7ICAgICYjeGE7ICAgICYjeGE7ICA8L2RlZnM+JiN4YTsgIDxnIHRyYW5zZm9ybT0idHJhbnNsYXRlKC0xMC4zMTA2MDYsLTk1Ljc1Nzg2MykiIGlkPSJsYXllcjEiPiYjeGE7ICAgIDxyZWN0IHJ5PSI1LjUzODQxNjkiIHJ4PSI1LjUzODQxNjkiIHk9Ijk5LjYxMzM3MyIgeD0iMjUuMTQ3NzE3IiBoZWlnaHQ9Ijc4LjIwMDI5NCIgd2lkdGg9IjE0OC4xODkwMyIgaWQ9InJlY3QxMzM5IiBzdHlsZT0iZmlsbDojZWRmYmZmO2ZpbGwtb3BhY2l0eToxO3N0cm9rZTojMDAwMDAwO3N0cm9rZS13aWR0aDowLjM7c3Ryb2tlLW1pdGVybGltaXQ6NDtzdHJva2UtZGFzaGFycmF5Om5vbmU7c3RvcC1jb2xvcjojMDAwMDAwIi8+JiN4YTsgICAgPHRleHQgaWQ9InRleHQ2OTA2IiB5PSIxODIuMTM0ODEiIHg9IjkuNzU3NDUwMSIgc3R5bGU9ImZvbnQtc2l6ZToxMS4yODg5cHg7bGluZS1oZWlnaHQ6MS4yNTtmb250LWZhbWlseTpzYW5zLXNlcmlmO3N0cm9rZS13aWR0aDowLjI2NDU4MyIgeG1sOnNwYWNlPSJwcmVzZXJ2ZSI+PHRzcGFuIHk9IjE4Mi4xMzQ4MSIgeD0iOS43NTc0NTAxIiBzdHlsZT0iZm9udC1zaXplOjExLjI4ODlweDtzdHJva2Utd2lkdGg6MC4yNjQ1ODMiIGlkPSJ0c3BhbjY5MDQiPjA8L3RzcGFuPjwvdGV4dD4mI3hhOyAgICA8cGF0aCBpZD0icGF0aDIwNjUzIiBkPSJNIDI1LjE0NzcxNiw5OS42MTMzNzIgSCAxOS42NjY1MjciIHN0eWxlPSJmaWxsOm5vbmU7c3Ryb2tlOiMwMDAwMDA7c3Ryb2tlLXdpZHRoOjAuMztzdHJva2UtbGluZWNhcDpidXR0O3N0cm9rZS1saW5lam9pbjptaXRlcjtzdHJva2UtbWl0ZXJsaW1pdDo0O3N0cm9rZS1kYXNoYXJyYXk6bm9uZTtzdHJva2Utb3BhY2l0eToxIi8+JiN4YTsgICAgPHBhdGggaWQ9InBhdGgyMTExMyIgZD0iTSAyNS4xNDc3MTYsMTc3LjgxMzY2IEggMTkuNjI0NzQ0IiBzdHlsZT0iZmlsbDpub25lO3N0cm9rZTojMDAwMDAwO3N0cm9rZS13aWR0aDowLjM7c3Ryb2tlLWxpbmVjYXA6YnV0dDtzdHJva2UtbGluZWpvaW46bWl0ZXI7c3Ryb2tlLW1pdGVybGltaXQ6NDtzdHJva2UtZGFzaGFycmF5Om5vbmU7c3Ryb2tlLW9wYWNpdHk6MSIvPiYjeGE7ICAgIDxwYXRoIGlkPSJwYXRoMjExMTMtNyIgZD0ibSAyNS4xNDc3MTcsMTc3LjgxMzY2IHYgNS41MjI5OCIgc3R5bGU9ImZpbGw6bm9uZTtzdHJva2U6IzAwMDAwMDtzdHJva2Utd2lkdGg6MC4zO3N0cm9rZS1saW5lY2FwOmJ1dHQ7c3Ryb2tlLWxpbmVqb2luOm1pdGVyO3N0cm9rZS1taXRlcmxpbWl0OjQ7c3Ryb2tlLWRhc2hhcnJheTpub25lO3N0cm9rZS1vcGFjaXR5OjEiLz4mI3hhOyAgICA8dGV4dCBpZD0idGV4dDIxMjMwIiB5PSIxMDMuODE4MTQiIHg9IjkuNzU3NDUwMSIgc3R5bGU9ImZvbnQtc2l6ZToxMS4yODg5cHg7bGluZS1oZWlnaHQ6MS4yNTtmb250LWZhbWlseTpzYW5zLXNlcmlmO3N0cm9rZS13aWR0aDowLjI2NDU4MyIgeG1sOnNwYWNlPSJwcmVzZXJ2ZSI+PHRzcGFuIHk9IjEwMy44MTgxNCIgeD0iOS43NTc0NTAxIiBzdHlsZT0iZm9udC1zaXplOjExLjI4ODlweDtzdHJva2Utd2lkdGg6MC4yNjQ1ODMiIGlkPSJ0c3BhbjIxMjI4Ij4xPC90c3Bhbj48L3RleHQ+JiN4YTsgICAgPHBhdGggaWQ9InBhdGg0MzgzNiIgZD0ibSAzNS43MzEwNTEsMTc3LjgxMzY2IHYgMyIgc3R5bGU9ImZpbGw6bm9uZTtzdHJva2U6IzAwMDAwMDtzdHJva2Utd2lkdGg6MC4zO3N0cm9rZS1saW5lY2FwOmJ1dHQ7c3Ryb2tlLWxpbmVqb2luOm1pdGVyO3N0cm9rZS1taXRlcmxpbWl0OjQ7c3Ryb2tlLWRhc2hhcnJheTpub25lO3N0cm9rZS1vcGFjaXR5OjEiLz4mI3hhOyAgICA8cGF0aCBpZD0icGF0aDQzODM4IiBkPSJtIDQ2LjMxNDM4NSwxNzcuODEzNjYgdiAzIiBzdHlsZT0iZmlsbDpub25lO3N0cm9rZTojMDAwMDAwO3N0cm9rZS13aWR0aDowLjM7c3Ryb2tlLWxpbmVjYXA6YnV0dDtzdHJva2UtbGluZWpvaW46bWl0ZXI7c3Ryb2tlLW1pdGVybGltaXQ6NDtzdHJva2UtZGFzaGFycmF5Om5vbmU7c3Ryb2tlLW9wYWNpdHk6MSIvPiYjeGE7ICAgIDxwYXRoIGlkPSJwYXRoNDM4NDAiIGQ9Im0gNTYuODk3NzE5LDE3Ny44MTM2NiB2IDMiIHN0eWxlPSJmaWxsOm5vbmU7c3Ryb2tlOiMwMDAwMDA7c3Ryb2tlLXdpZHRoOjAuMztzdHJva2UtbGluZWNhcDpidXR0O3N0cm9rZS1saW5lam9pbjptaXRlcjtzdHJva2UtbWl0ZXJsaW1pdDo0O3N0cm9rZS1kYXNoYXJyYXk6bm9uZTtzdHJva2Utb3BhY2l0eToxIi8+JiN4YTsgICAgPHBhdGggaWQ9InBhdGg0Mzg0MiIgZD0ibSA2Ny40ODEwNTMsMTc3LjgxMzY2IHYgMyIgc3R5bGU9ImZpbGw6bm9uZTtzdHJva2U6IzAwMDAwMDtzdHJva2Utd2lkdGg6MC4zO3N0cm9rZS1saW5lY2FwOmJ1dHQ7c3Ryb2tlLWxpbmVqb2luOm1pdGVyO3N0cm9rZS1taXRlcmxpbWl0OjQ7c3Ryb2tlLWRhc2hhcnJheTpub25lO3N0cm9rZS1vcGFjaXR5OjEiLz4mI3hhOyAgICA8cGF0aCBpZD0icGF0aDQzODQ0IiBkPSJtIDc4LjA2NDM4NywxNzcuODEzNjYgdiAzIiBzdHlsZT0iZmlsbDpub25lO3N0cm9rZTojMDAwMDAwO3N0cm9rZS13aWR0aDowLjM7c3Ryb2tlLWxpbmVjYXA6YnV0dDtzdHJva2UtbGluZWpvaW46bWl0ZXI7c3Ryb2tlLW1pdGVybGltaXQ6NDtzdHJva2UtZGFzaGFycmF5Om5vbmU7c3Ryb2tlLW9wYWNpdHk6MSIvPiYjeGE7ICAgIDxwYXRoIGlkPSJwYXRoNDM4NDYiIGQ9Im0gODguNjQ3NzIxLDE3Ny44MTM2NiB2IDMiIHN0eWxlPSJmaWxsOm5vbmU7c3Ryb2tlOiMwMDAwMDA7c3Ryb2tlLXdpZHRoOjAuMztzdHJva2UtbGluZWNhcDpidXR0O3N0cm9rZS1saW5lam9pbjptaXRlcjtzdHJva2UtbWl0ZXJsaW1pdDo0O3N0cm9rZS1kYXNoYXJyYXk6bm9uZTtzdHJva2Utb3BhY2l0eToxIi8+JiN4YTsgICAgPHBhdGggaWQ9InBhdGg0Mzg0OCIgZD0ibSA5OS4yMzEwNTUsMTc3LjgxMzY2IHYgMyIgc3R5bGU9ImZpbGw6bm9uZTtzdHJva2U6IzAwMDAwMDtzdHJva2Utd2lkdGg6MC4zO3N0cm9rZS1saW5lY2FwOmJ1dHQ7c3Ryb2tlLWxpbmVqb2luOm1pdGVyO3N0cm9rZS1taXRlcmxpbWl0OjQ7c3Ryb2tlLWRhc2hhcnJheTpub25lO3N0cm9rZS1vcGFjaXR5OjEiLz4mI3hhOyAgICA8cGF0aCBpZD0icGF0aDQzODUwIiBkPSJtIDEwOS44MTQzOSwxNzcuODEzNjYgdiAzIiBzdHlsZT0iZmlsbDpub25lO3N0cm9rZTojMDAwMDAwO3N0cm9rZS13aWR0aDowLjM7c3Ryb2tlLWxpbmVjYXA6YnV0dDtzdHJva2UtbGluZWpvaW46bWl0ZXI7c3Ryb2tlLW1pdGVybGltaXQ6NDtzdHJva2UtZGFzaGFycmF5Om5vbmU7c3Ryb2tlLW9wYWNpdHk6MSIvPiYjeGE7ICAgIDxwYXRoIGlkPSJwYXRoNDM4NTIiIGQ9Im0gMTIwLjM5NzczLDE3Ny44MTM2NiB2IDMiIHN0eWxlPSJmaWxsOm5vbmU7c3Ryb2tlOiMwMDAwMDA7c3Ryb2tlLXdpZHRoOjAuMztzdHJva2UtbGluZWNhcDpidXR0O3N0cm9rZS1saW5lam9pbjptaXRlcjtzdHJva2UtbWl0ZXJsaW1pdDo0O3N0cm9rZS1kYXNoYXJyYXk6bm9uZTtzdHJva2Utb3BhY2l0eToxIi8+JiN4YTsgICAgPHBhdGggaWQ9InBhdGg0Mzg1NCIgZD0ibSAxMzAuOTgxMDcsMTc3LjgxMzY2IHYgMyIgc3R5bGU9ImZpbGw6bm9uZTtzdHJva2U6IzAwMDAwMDtzdHJva2Utd2lkdGg6MC4zO3N0cm9rZS1saW5lY2FwOmJ1dHQ7c3Ryb2tlLWxpbmVqb2luOm1pdGVyO3N0cm9rZS1taXRlcmxpbWl0OjQ7c3Ryb2tlLWRhc2hhcnJheTpub25lO3N0cm9rZS1vcGFjaXR5OjEiLz4mI3hhOyAgICA8cGF0aCBpZD0icGF0aDQzODU2IiBkPSJtIDE0MS41NjQ0MSwxNzcuODEzNjYgdiAzIiBzdHlsZT0iZmlsbDpub25lO3N0cm9rZTojMDAwMDAwO3N0cm9rZS13aWR0aDowLjM7c3Ryb2tlLWxpbmVjYXA6YnV0dDtzdHJva2UtbGluZWpvaW46bWl0ZXI7c3Ryb2tlLW1pdGVybGltaXQ6NDtzdHJva2UtZGFzaGFycmF5Om5vbmU7c3Ryb2tlLW9wYWNpdHk6MSIvPiYjeGE7ICAgIDxwYXRoIGlkPSJwYXRoNDM4NTgiIGQ9Im0gMTUyLjE0Nzc1LDE3Ny44MTM2NiB2IDMiIHN0eWxlPSJmaWxsOm5vbmU7c3Ryb2tlOiMwMDAwMDA7c3Ryb2tlLXdpZHRoOjAuMztzdHJva2UtbGluZWNhcDpidXR0O3N0cm9rZS1saW5lam9pbjptaXRlcjtzdHJva2UtbWl0ZXJsaW1pdDo0O3N0cm9rZS1kYXNoYXJyYXk6bm9uZTtzdHJva2Utb3BhY2l0eToxIi8+JiN4YTsgICAgPHBhdGggaWQ9InBhdGg0Mzg2MCIgZD0ibSAxNjIuNzMxMDksMTc3LjgxMzY2IHYgMyIgc3R5bGU9ImZpbGw6bm9uZTtzdHJva2U6IzAwMDAwMDtzdHJva2Utd2lkdGg6MC4zO3N0cm9rZS1saW5lY2FwOmJ1dHQ7c3Ryb2tlLWxpbmVqb2luOm1pdGVyO3N0cm9rZS1taXRlcmxpbWl0OjQ7c3Ryb2tlLWRhc2hhcnJheTpub25lO3N0cm9rZS1vcGFjaXR5OjEiLz4mI3hhOyAgICA8cGF0aCBpZD0icGF0aDQzODYyIiBkPSJtIDE3My4zMTQ0MywxNzcuODEzNjYgdiAzIiBzdHlsZT0iZmlsbDpub25lO3N0cm9rZTojMDAwMDAwO3N0cm9rZS13aWR0aDowLjM7c3Ryb2tlLWxpbmVjYXA6YnV0dDtzdHJva2UtbGluZWpvaW46bWl0ZXI7c3Ryb2tlLW1pdGVybGltaXQ6NDtzdHJva2UtZGFzaGFycmF5Om5vbmU7c3Ryb2tlLW9wYWNpdHk6MSIvPiYjeGE7ICAgIDx0ZXh0IHRyYW5zZm9ybT0icm90YXRlKC05MCkiIGlkPSJ0ZXh0NDM5ODEiIHk9IjIwLjA0NTg5NSIgeD0iLTE0OC43NTA0MyIgc3R5bGU9ImZvbnQtc2l6ZToxMS4yODg5cHg7bGluZS1oZWlnaHQ6MS4yNTtmb250LWZhbWlseTpzYW5zLXNlcmlmO3N0cm9rZS13aWR0aDowLjI2NDU4MyIgeG1sOnNwYWNlPSJwcmVzZXJ2ZSI+PHRzcGFuIHk9IjIwLjA0NTg5NSIgeD0iLTE0OC43NTA0MyIgc3R5bGU9ImZvbnQtc3R5bGU6bm9ybWFsO2ZvbnQtdmFyaWFudDpub3JtYWw7Zm9udC13ZWlnaHQ6bm9ybWFsO2ZvbnQtc3RyZXRjaDpub3JtYWw7Zm9udC1zaXplOjExLjI4ODlweDtmb250LWZhbWlseTonRGVqYVZ1IFNlcmlmJzstaW5rc2NhcGUtZm9udC1zcGVjaWZpY2F0aW9uOidEZWphVnUgU2VyaWYnO3N0cm9rZS13aWR0aDowLjI2NDU4MyIgaWQ9InRzcGFuNDM5NzkiPkNhdCAxPC90c3Bhbj48L3RleHQ+JiN4YTsgICAgPHRleHQgaWQ9InRleHQ0Mzk4MS0zIiB5PSIxOTAuMzQ5MDgiIHg9IjYyLjQ1MjMzMiIgc3R5bGU9ImZvbnQtc2l6ZToxMS4yODg5cHg7bGluZS1oZWlnaHQ6MS4yNTtmb250LWZhbWlseTpzYW5zLXNlcmlmO3N0cm9rZS13aWR0aDowLjI2NDU4MyIgeG1sOnNwYWNlPSJwcmVzZXJ2ZSI+PHRzcGFuIHk9IjE5MC4zNDkwOCIgeD0iNjIuNDUyMzMyIiBzdHlsZT0iZm9udC1zdHlsZTpub3JtYWw7Zm9udC12YXJpYW50Om5vcm1hbDtmb250LXdlaWdodDpub3JtYWw7Zm9udC1zdHJldGNoOm5vcm1hbDtmb250LXNpemU6MTEuMjg4OXB4O2ZvbnQtZmFtaWx5OidEZWphVnUgU2VyaWYnOy1pbmtzY2FwZS1mb250LXNwZWNpZmljYXRpb246J0RlamFWdSBTZXJpZic7c3Ryb2tlLXdpZHRoOjAuMjY0NTgzIiBpZD0idHNwYW40Mzk3OS0wIj50aW1lIFtkXTwvdHNwYW4+PC90ZXh0PiYjeGE7ICAgIDxwYXRoIGlkPSJwYXRoNzg0MjgiIGQ9Im0gMjUuMTQ3NzE2LDE3Ny44MTM2NiAxMC42NjkxMTIsLTcuNDIxNDkgMTAuNDcyMDIzLDIuMzIwNjMgMTAuMzI0NDU3LC02Ljc5NzQ3IDEwLjgwNTAyMiw3LjY5NzQyIDEwLjYzMTE3OCwtMTMuODI0NDcgMTAuNDI2MzA4LC02LjUyMjY0IDEwLjczMzc0NiwxMS4wMDc3NyAxMC41MTU4NzgsLTUyLjExNTI4IDEwLjYzNzc2LC0xMi41NTc0MjYgMTAuNTIwMDUsMTIuNjEzODE2IDEwLjY5NzQ4LDIuMzMzOTYgMTAuMzkyNCwxNy41MzA0NyAxMC4zMzM2MywzNy41MzI3MiAxMS4yMTUyOSwzLjg4MjU5IiBzdHlsZT0iZmlsbDpub25lO3N0cm9rZTojMDA0M2U5O3N0cm9rZS13aWR0aDowLjk2NTtzdHJva2UtbGluZWNhcDpidXR0O3N0cm9rZS1saW5lam9pbjptaXRlcjtzdHJva2UtbWl0ZXJsaW1pdDo0O3N0cm9rZS1kYXNoYXJyYXk6bm9uZTtzdHJva2Utb3BhY2l0eTowLjE1MzIzMiIvPiYjeGE7ICAgIDxwYXRoIGlkPSJwYXRoNzk3OTIiIGQ9Im0gMTA5LjgxNDM5LDE3Ny40Njk3MSAtMC4wMjc5LC02Mi40MzA3MyIgc3R5bGU9ImZvbnQtdmFyaWF0aW9uLXNldHRpbmdzOm5vcm1hbDtvcGFjaXR5OjE7ZmlsbDojMDBkNDAwO2ZpbGwtb3BhY2l0eToxO3N0cm9rZTojMDBmZjAwO3N0cm9rZS13aWR0aDowLjc2NTtzdHJva2UtbGluZWNhcDpidXR0O3N0cm9rZS1saW5lam9pbjptaXRlcjtzdHJva2UtbWl0ZXJsaW1pdDo0O3N0cm9rZS1kYXNoYXJyYXk6MS41MywgMS41MztzdHJva2UtZGFzaG9mZnNldDowLjc2NTtzdHJva2Utb3BhY2l0eToxO21hcmtlci1lbmQ6dXJsKCNBcnJvdzFMZW5kKTtzdG9wLWNvbG9yOiMwMDAwMDA7c3RvcC1vcGFjaXR5OjEiLz4mI3hhOyAgICA8cGF0aCBpZD0icGF0aDk1MTkzIiBkPSJtIDI1LjE0NzcxNiwxNzcuODEzNjYgMTAuMjQzMTE1LC0zLjIxMzI1IDEwLjgzNDE1NywwLjg2MjI4IDEwLjUzMDgxMywtMTMuNTc5NzEgMTEuMDA1NDEzLDEzLjc2ODk0IDEwLjAzNDc5NCwtNi43OTY5OSAxMC4wMjk5ODgsMy4yNTI0NCAxMC43NTQyODYsMC4zNjcxOCAxMS4wOTQwODgsLTcuMzcxNTQgOS4xNzQxNiw2Ljg2NjQ0IDExLjIxODA3LC00LjAxMjYgMTAuOTEzNTQsLTE2LjA2MjI5IDExLjI3Mjc5LC01Mi4xMTU3OTkgMTAuMjE2OTcsMi44ODY0NTkgMTAuOTA4NjEsMTQuNjkwNDkiIHN0eWxlPSJmaWxsOm5vbmU7c3Ryb2tlOiMwMDAwMDA7c3Ryb2tlLXdpZHRoOjEuMjtzdHJva2UtbGluZWNhcDpidXR0O3N0cm9rZS1saW5lam9pbjptaXRlcjtzdHJva2UtbWl0ZXJsaW1pdDo0O3N0cm9rZS1kYXNoYXJyYXk6bm9uZTtzdHJva2Utb3BhY2l0eToxIi8+JiN4YTsgIDwvZz4mI3hhOzwvc3ZnPg==;opacity=60;" parent="1" vertex="1">
          <mxGeometry x="426" y="624" width="164" height="96" as="geometry" />
        </mxCell>
        <mxCell id="V85_4jU4u7jz_W5ndp5X-65" value="" style="shape=image;verticalLabelPosition=bottom;labelBackgroundColor=default;verticalAlign=top;aspect=fixed;imageAspect=0;image=data:image/svg+xml,PHN2ZyB4bWxuczp4bGluaz0iaHR0cDovL3d3dy53My5vcmcvMTk5OS94bGluayIgeG1sbnM9Imh0dHA6Ly93d3cudzMub3JnLzIwMDAvc3ZnIiB4bWw6c3BhY2U9InByZXNlcnZlIiB2aWV3Qm94PSIwIDAgNTEyIDUxMiIgaWQ9IkxheWVyXzEiIHZlcnNpb249IjEuMSIgd2lkdGg9IjgwMHB4IiBoZWlnaHQ9IjgwMHB4Ij4mI3hhOzxnPiYjeGE7CTxwYXRoIGQ9Ik01My4zMzMsNTAxLjMzMWg0MDUuMzMydi00Mi42NjZjMC0yMy40NjgtMTkuMTk3LTQyLjY2NC00Mi42NjQtNDIuNjY0aC0xMC42NjlIMTA2LjY2OEg5Ni4wMDImIzEwOyYjOTsmIzk7Yy0yMy40NywwLTQyLjY3LDE5LjE5Ni00Mi42Nyw0Mi42NjRWNTAxLjMzMXoiIHN0eWxlPSJmaWxsOiM2QzY4NkY7Ii8+JiN4YTsJPHBhdGggZD0iTTEwNi42NjgsNDE2aDI5OC42NjNWMjY2LjY3YzAtODIuMTM0LTY3LjE5Ni0xNDkuMzMyLTE0OS4zMzEtMTQ5LjMzMiYjMTA7JiM5OyYjOTtTMTA2LjY2OCwxODQuNTM1LDEwNi42NjgsMjY2LjY3VjQxNnoiIHN0eWxlPSJmaWxsOiNCRjIzNDU7Ii8+JiN4YTs8L2c+JiN4YTs8Zz4mI3hhOwk8cGF0aCBkPSJNNDE2LjAwMSw0MDUuMzMxVjI2Ni42N2MwLTg4LjIyNS03MS43NzYtMTYwLjAwMS0xNjAtMTYwLjAwMSYjMTA7JiM5OyYjOTtjLTg4LjIyNSwwLTE2MC4wMDIsNzEuNzc2LTE2MC4wMDIsMTYwLjAwMXYxMzguNjYyYy0yOS40MDksMC4wMDEtNTMuMzM1LDIzLjkyNi01My4zMzUsNTMuMzMzdjQyLjY2NiYjMTA7JiM5OyYjOTtjMCw1Ljg5Miw0Ljc3NywxMC42NjksMTAuNjY5LDEwLjY2OWg0MDUuMzMyYzUuODkyLDAsMTAuNjY5LTQuNzc2LDEwLjY2OS0xMC42Njl2LTQyLjY2NiYjMTA7JiM5OyYjOTtDNDY5LjMzNCw0MjkuMjU3LDQ0NS40MDgsNDA1LjMzMSw0MTYuMDAxLDQwNS4zMzF6IE0yNTYuMDAxLDEyOC4wMDZjNzYuNDU4LDAsMTM4LjY2Miw2Mi4yMDQsMTM4LjY2MiwxMzguNjYzdjEzOC42NjJIMjY2LjY3JiMxMDsmIzk7JiM5O3YtOTcuMzQ2YzE4LjM4Mi00Ljc1LDMyLjAwMS0yMS40NzIsMzIuMDAxLTQxLjMxN2MwLTIzLjUyOC0xOS4xNDEtNDIuNjY5LTQyLjY2OS00Mi42NjljLTIzLjUyOCwwLTQyLjY2OCwxOS4xNDEtNDIuNjY4LDQyLjY2OSYjMTA7JiM5OyYjOTtjMCwxOS44NDUsMTMuNjE5LDM2LjU2OCwzMiw0MS4zMTd2OTcuMzQ2SDExNy4zMzdWMjY2LjY3QzExNy4zMzcsMTkwLjIxLDE3OS41NDMsMTI4LjAwNiwyNTYuMDAxLDEyOC4wMDZ6IE0yNTYuMDAxLDI4OCYjMTA7JiM5OyYjOTtjLTExLjc2MiwwLTIxLjMzMS05LjU2OS0yMS4zMzEtMjEuMzNjMC0xMS43NjIsOS41NjktMjEuMzMyLDIxLjMzMS0yMS4zMzJjMTEuNzYyLDAsMjEuMzMyLDkuNTcsMjEuMzMyLDIxLjMzMiYjMTA7JiM5OyYjOTtDMjc3LjMzMywyNzguNDMxLDI2Ny43NjMsMjg4LDI1Ni4wMDEsMjg4eiBNNDQ3Ljk5Niw0OTAuNjYzSDY0LjAwMnYtMzEuOTk4YzAtMTcuNjQzLDE0LjM1Ni0zMS45OTUsMzIuMDAxLTMxLjk5NWgzMTkuOTk4JiMxMDsmIzk7JiM5O2MxNy42NDIsMCwzMS45OTUsMTQuMzU0LDMxLjk5NSwzMS45OTVMNDQ3Ljk5Niw0OTAuNjYzTDQ0Ny45OTYsNDkwLjY2M3oiIHN0eWxlPSJmaWxsOiMwMDAwMDM7Ii8+JiN4YTsJPHBhdGggZD0iTTY5LjMzNiwyNjYuNjdjMC01Ljg5Mi00Ljc3Ni0xMC42NjktMTAuNjY5LTEwLjY2OUgxMC42NjlDNC43NzYsMjU2LjAwMSwwLDI2MC43NzcsMCwyNjYuNjcmIzEwOyYjOTsmIzk7YzAsNS44OTIsNC43NzYsMTAuNjY5LDEwLjY2OSwxMC42NjloNDcuOTk5QzY0LjU2MSwyNzcuMzM4LDY5LjMzNiwyNzIuNTYyLDY5LjMzNiwyNjYuNjd6IiBzdHlsZT0iZmlsbDojMDAwMDAzOyIvPiYjeGE7CTxwYXRoIGQ9Ik0xNDguMDk2LDEwMS4xMWMxLjk3NiwzLjQyMyw1LjU2Myw1LjMzNiw5LjI1LDUuMzM2YzEuODA5LDAsMy42NDQtMC40NjEsNS4zMjQtMS40MzEmIzEwOyYjOTsmIzk7YzUuMTAzLTIuOTQ2LDYuODUxLTkuNDcxLDMuOTA1LTE0LjU3M2wtMjMuOTk4LTQxLjU2OWMtMi45NDctNS4xMDMtOS40NzItNi44NTEtMTQuNTczLTMuOTA1JiMxMDsmIzk7JiM5O2MtNS4xMDMsMi45NDYtNi44NTEsOS40NzEtMy45MDUsMTQuNTczTDE0OC4wOTYsMTAxLjExeiIgc3R5bGU9ImZpbGw6IzAwMDAwMzsiLz4mI3hhOwk8cGF0aCBkPSJNMjU2LjAwMSw4MC4wMDhjNS44OTIsMCwxMC42NjktNC43NzYsMTAuNjY5LTEwLjY2OXYtNTguNjdDMjY2LjY3LDQuNzc2LDI2MS44OTMsMCwyNTYuMDAxLDAmIzEwOyYjOTsmIzk7Yy01Ljg5MSwwLTEwLjY2OSw0Ljc3Ni0xMC42NjksMTAuNjY5djU4LjY2OUMyNDUuMzMyLDc1LjIzMSwyNTAuMTEsODAuMDA4LDI1Ni4wMDEsODAuMDA4eiIgc3R5bGU9ImZpbGw6IzAwMDAwMzsiLz4mI3hhOwk8cGF0aCBkPSJNMjguOTY2LDE0Ny45MDlsNTAuODA1LDI5LjMzNGMxLjY4LDAuOTcsMy41MTUsMS40MzEsNS4zMjUsMS40MzFjMy42ODcsMCw3LjI3My0xLjkxNCw5LjI0OS01LjMzNSYjMTA7JiM5OyYjOTtjMi45NDctNS4xMDMsMS4xOTgtMTEuNjI4LTMuOTA1LTE0LjU3M2wtNTAuODA1LTI5LjMzNGMtNS4xMDEtMi45NDUtMTEuNjI3LTEuMTk3LTE0LjU3MywzLjkwNSYjMTA7JiM5OyYjOTtDMjIuMTE0LDEzOC40MzcsMjMuODYzLDE0NC45NjMsMjguOTY2LDE0Ny45MDl6IiBzdHlsZT0iZmlsbDojMDAwMDAzOyIvPiYjeGE7CTxwYXRoIGQ9Ik00MjYuOTA0LDE3OC42NzNjMS44MDksMCwzLjY0NC0wLjQ2MSw1LjMyNS0xLjQzMWw1MC44MDctMjkuMzM0JiMxMDsmIzk7JiM5O2M1LjEwMi0yLjk0Niw2Ljg1MS05LjQ3MSwzLjkwNS0xNC41NzNjLTIuOTQ3LTUuMTAzLTkuNDcyLTYuODUxLTE0LjU3My0zLjkwNWwtNTAuODA3LDI5LjMzNCYjMTA7JiM5OyYjOTtjLTUuMTAzLDIuOTQ2LTYuODUxLDkuNDcxLTMuOTA1LDE0LjU3M0M0MTkuNjMsMTc2Ljc2LDQyMy4yMTYsMTc4LjY3Myw0MjYuOTA0LDE3OC42NzN6IiBzdHlsZT0iZmlsbDojMDAwMDAzOyIvPiYjeGE7CTxwYXRoIGQ9Ik0zNDkuMzMxLDEwNS4wMTRjMS42OCwwLjk3LDMuNTE0LDEuNDMxLDUuMzI0LDEuNDMxYzMuNjg4LDAsNy4yNzQtMS45MTQsOS4yNS01LjMzNmwyMy45OTktNDEuNTY5JiMxMDsmIzk7JiM5O2MyLjk0Ny01LjEwMywxLjE5Ny0xMS42MjgtMy45MDUtMTQuNTczYy01LjEwMi0yLjk0Ni0xMS42MjctMS4xOTgtMTQuNTczLDMuOTA1TDM0NS40MjYsOTAuNDQmIzEwOyYjOTsmIzk7QzM0Mi40ODEsOTUuNTQ0LDM0NC4yMjgsMTAyLjA2OSwzNDkuMzMxLDEwNS4wMTR6IiBzdHlsZT0iZmlsbDojMDAwMDAzOyIvPiYjeGE7CTxwYXRoIGQ9Ik01MDEuMzMxLDI1Ni4wMDFoLTQ4LjAwMWMtNS44OTIsMC0xMC42NjksNC43NzYtMTAuNjY5LDEwLjY2OWMwLDUuODkyLDQuNzc2LDEwLjY2OSwxMC42NjksMTAuNjY5JiMxMDsmIzk7JiM5O2g0OC4wMDFjNS44OSwwLDEwLjY2OS00Ljc3NiwxMC42NjktMTAuNjY5UzUwNy4yMjMsMjU2LjAwMSw1MDEuMzMxLDI1Ni4wMDF6IiBzdHlsZT0iZmlsbDojMDAwMDAzOyIvPiYjeGE7CTxwYXRoIGQ9Ik0xNDkuMzM1LDI3Ny4zMzhjNS44OTIsMCwxMC42NjktNC43NzYsMTAuNjY5LTEwLjY2OXYtMC40ODNjMC01Ljg5Mi00Ljc3Ni0xMC42NjktMTAuNjY5LTEwLjY2OSYjMTA7JiM5OyYjOTtjLTUuODkxLDAtMTAuNjY5LDQuNzc2LTEwLjY2OSwxMC42Njl2MC40ODNDMTM4LjY2NywyNzIuNTYyLDE0My40NDMsMjc3LjMzOCwxNDkuMzM1LDI3Ny4zMzh6IiBzdHlsZT0iZmlsbDojMDAwMDAzOyIvPiYjeGE7CTxwYXRoIGQ9Ik0xNTEuMTA4LDI0NC41NjJjMS4wNzMsMC4zNCwyLjE2LDAuNTAzLDMuMjI5LDAuNTAzYzQuNTI1LDAsOC43MjUtMi45MDEsMTAuMTY2LTcuNDQzJiMxMDsmIzk7JiM5O2MxMi43MTMtNDAuMDQ0LDQ5LjQ4My02Ni45NDksOTEuNDk3LTY2Ljk0OWM1Ljg5MiwwLDEwLjY2OS00Ljc3NiwxMC42NjktMTAuNjY5YzAtNS44OTItNC43NzYtMTAuNjY5LTEwLjY2OS0xMC42NjkmIzEwOyYjOTsmIzk7Yy01MS4zNTQsMC05Ni4yOTYsMzIuODg1LTExMS44MzQsODEuODNDMTQyLjM4NSwyMzYuNzgxLDE0NS40OTIsMjQyLjc3OSwxNTEuMTA4LDI0NC41NjJ6IiBzdHlsZT0iZmlsbDojMDAwMDAzOyIvPiYjeGE7CTxwYXRoIGQ9Ik0zNzQuNDM0LDQ0Ny45OTZoLTU0LjQzN2MtNS44OTIsMC0xMC42NjksNC43NzYtMTAuNjY5LDEwLjY2OWMwLDUuODkyLDQuNzc2LDEwLjY2OSwxMC42NjksMTAuNjY5JiMxMDsmIzk7JiM5O2g1NC40MzdjNS44OTEsMCwxMC42NjktNC43NzYsMTAuNjY5LTEwLjY2OUMzODUuMTAzLDQ1Mi43NzMsMzgwLjMyNiw0NDcuOTk2LDM3NC40MzQsNDQ3Ljk5NnoiIHN0eWxlPSJmaWxsOiMwMDAwMDM7Ii8+JiN4YTsJPHBhdGggZD0iTTQwNS4zMzIsNDQ3Ljk5OWgtMC4yNTRjLTUuODkyLDAtMTAuNjY5LDQuNzc2LTEwLjY2OSwxMC42NjljMCw1Ljg5Miw0Ljc3NiwxMC42NjksMTAuNjY5LDEwLjY2OSYjMTA7JiM5OyYjOTtoMC4yNTRjNS44OTEsMCwxMC42NjktNC43NzYsMTAuNjY5LTEwLjY2OUM0MTYuMDAxLDQ1Mi43NzYsNDExLjIyMyw0NDcuOTk5LDQwNS4zMzIsNDQ3Ljk5OXoiIHN0eWxlPSJmaWxsOiMwMDAwMDM7Ii8+JiN4YTs8L2c+JiN4YTs8L3N2Zz4=;" parent="1" vertex="1">
          <mxGeometry x="640" y="780" width="40" height="40" as="geometry" />
        </mxCell>
        <mxCell id="V85_4jU4u7jz_W5ndp5X-67" value="" style="shape=umlActor;verticalLabelPosition=bottom;verticalAlign=top;html=1;outlineConnect=0;strokeWidth=5;" parent="1" vertex="1">
          <mxGeometry x="530" y="760" width="30" height="60" as="geometry" />
        </mxCell>
        <mxCell id="V85_4jU4u7jz_W5ndp5X-69" value="" style="endArrow=classic;html=1;rounded=0;entryX=0;entryY=0.5;entryDx=0;entryDy=0;" parent="1" target="V85_4jU4u7jz_W5ndp5X-65" edge="1">
          <mxGeometry width="50" height="50" relative="1" as="geometry">
            <mxPoint x="570" y="800" as="sourcePoint" />
            <mxPoint x="633" y="800" as="targetPoint" />
          </mxGeometry>
        </mxCell>
        <mxCell id="V85_4jU4u7jz_W5ndp5X-70" value="" style="endArrow=none;dashed=1;html=1;rounded=0;" parent="1" edge="1">
          <mxGeometry width="50" height="50" relative="1" as="geometry">
            <mxPoint x="520" y="780" as="sourcePoint" />
            <mxPoint x="440" y="730" as="targetPoint" />
          </mxGeometry>
        </mxCell>
        <mxCell id="V85_4jU4u7jz_W5ndp5X-71" value="" style="endArrow=none;dashed=1;html=1;rounded=0;" parent="1" target="V85_4jU4u7jz_W5ndp5X-48" edge="1">
          <mxGeometry width="50" height="50" relative="1" as="geometry">
            <mxPoint x="580" y="780" as="sourcePoint" />
            <mxPoint x="450" y="740" as="targetPoint" />
          </mxGeometry>
        </mxCell>
        <mxCell id="V85_4jU4u7jz_W5ndp5X-75" value="" style="endArrow=classic;html=1;rounded=0;" parent="1" edge="1">
          <mxGeometry width="50" height="50" relative="1" as="geometry">
            <mxPoint x="410" y="430" as="sourcePoint" />
            <mxPoint x="410" y="560" as="targetPoint" />
          </mxGeometry>
        </mxCell>
        <mxCell id="V85_4jU4u7jz_W5ndp5X-76" value="" style="endArrow=classic;html=1;rounded=0;" parent="1" edge="1">
          <mxGeometry width="50" height="50" relative="1" as="geometry">
            <mxPoint x="520" y="800" as="sourcePoint" />
            <mxPoint x="450" y="800" as="targetPoint" />
          </mxGeometry>
        </mxCell>
        <mxCell id="V85_4jU4u7jz_W5ndp5X-77" value="" style="shape=image;verticalLabelPosition=bottom;labelBackgroundColor=default;verticalAlign=top;aspect=fixed;imageAspect=0;image=data:image/svg+xml,PHN2ZyB4bWxucz0iaHR0cDovL3d3dy53My5vcmcvMjAwMC9zdmciIHZpZXdCb3g9IjAgMCA4MjY3LjcyIDgyNjcuNzIiIHdpZHRoPSI4LjI2NzdpbiIgaGVpZ2h0PSI4LjI2NzdpbiIgZmlsbC1ydWxlPSJldmVub2RkIiB4bWw6c3BhY2U9InByZXNlcnZlIiBzdHlsZT0ic2hhcGUtcmVuZGVyaW5nOmdlb21ldHJpY1ByZWNpc2lvbjt0ZXh0LXJlbmRlcmluZzpnZW9tZXRyaWNQcmVjaXNpb247aW1hZ2UtcmVuZGVyaW5nOm9wdGltaXplUXVhbGl0eSI+JiN4YTsgPGRlZnM+JiN4YTsgIDxzdHlsZSB0eXBlPSJ0ZXh0L2NzcyI+JiN4YTsgICAmI3hhOyAgICAuZmlsMCB7ZmlsbDojMDA2QzNCfSYjeGE7ICAgIC5maWwxIHtmaWxsOiM3N0MwNkN9JiN4YTsgICAmI3hhOyAgPC9zdHlsZT4mI3hhOyA8L2RlZnM+JiN4YTsgPGcgaWQ9IlN5bWJvbC1SYWhtZW4iPiYjeGE7ICA8cGF0aCBkPSJtNzE2LjgyIDQzMjQuM2M3MzEuMzEgMzEzLjYxIDgyNy43MSAzNTcuNDkgMTU2Ny44IDY3NS4xOCA0MC40NzYgMTcuOTY4IDcyLjM5NCAzMS43OTEgMTAxLjQ5IDQ2LjEyMiA1MC43NiAyNy41NTUgNzcuMzM5IDUzLjQ1MyAxMjcuMjgtMTUuMjg3IDE2Ljg4Mi0xNy4xMDYgNDYuMjY4LTMyLjg1OCA2NS42MDItNjUuNDQ5IDE3NzEuMi0xNjQxLjYgMzEwNC4yLTI5MjYuMSA0ODc1LjQtNDU2Ny43IDMxMS40NS0zMTQuMDQgOTU3LjE0LTgyLjMxNSA2NjguNzUgMjYyLjQyLTE4MTkgMjExNS4xLTMwMTMuOSAzNTU3LjEtMzg5OC4zIDQ3MjcuMS0zNzguMTUgNDk4Ljg3LTcwMS4xOCA5NDguNDQtOTkxLjQ5IDEzNzguNy0xOTAuNjggMjc3LjMtMzY0Ljk0IDU0Ni41OC01MjYuNTMgODE1Ljg1LTQ2LjgyNyA4MS41MDgtODUuOTQ1IDEzOC44NC0xNDYuOCAxODQuODgtOTUuMjggNjcuODQ2LTE5OS44MiA3NS4xOTctMzAyLjYyIDE4LjQ2OC0zOC41NTUtMjUuMjk1LTc2LjA0My01Ny4wMzItMTEzLjg2LTEwMy43Ni0yMi42OTMtMjguMDMyLTQ1LjUwOC02NC4zMzEtNjguNzQtOTkuODU0bC01NTMuNC05MTEuNDgtNjIzLjEyLTEwOTguM2MtMTcwLjU2LTMwMC42NC0zMDcuMjYtNTUwLjI0LTU3MS42My0xMDA3LjYtMjguOTIxLTQzLjA2Ny0xMTEuNjUtMTU1LjE0LTg3LjUzNS0yMzguNzIgMjAuNzQ4LTk1LjQ1NyAxMjQuODYtMTQ3LjQyIDIzNC45Ny0xMDIuNzEgOTguODA3IDQxLjY4OSAxOTcuNTggODQuOTg4IDI0Mi43MiAxMDIuMTN6IiBjbGFzcz0iZmlsMCIvPiYjeGE7IDwvZz4mI3hhOyA8ZyBpZD0iU3ltYm9sIj4mI3hhOyAgPHBhdGggZD0ibTQzMS40OCA0MzIyLjdjNjk0LjcyIDMwMC43MiAxMjYwLjEgNTQxLjg2IDE5NjMuMSA4NDYuNSA0OC40OTIgMjEuMTY5IDk3LjYzOCAyNi45MzMgMTQ2LjU1LTE1LjcyNCAxNjgyLjYtMTU3NC4xIDMzMjcuNC0zMTE3LjggNTAxMC00NjkyIDIyMC41NS0xOTguOTQgNjQ1LjM2LTc2LjkyNSA1MDkuMDkgMTA3LjQ2LTI5ODEuMSAzNDM3LjYtNDU0Ny45IDU0NDktNTQ5Ny42IDcwMzcuMy04Ni4zMTEgMTQ1LjA4LTI1MC4xOCAxMzYuODgtMzM5LjA2LTIuMjgzNS0yMDkuMzUtMzMyLjU0LTUyNS40Mi04NTQuMTYtNTM0LjA2LTg2Ny4yNC02NzMuNS0xMTc1LjYtNjk0Ljk5LTEyMjQuNi0xMzM3LjktMjM0Ny40LTMwLjM0Ni01NS4wNDMgMzUuNDI5LTk1LjI5OSA3OS44MTktNjYuNjgxeiIgY2xhc3M9ImZpbDEiLz4mI3hhOyA8L2c+JiN4YTs8L3N2Zz4=;" parent="1" vertex="1">
          <mxGeometry x="386.46" y="780" width="40" height="40" as="geometry" />
        </mxCell>
      </root>
    </mxGraphModel>
  </diagram>
</mxfile>
